<svg width="32" height="32" xmlns="http://www.w3.org/2000/svg">

 <g>
  <title>background</title>
  <rect fill="none" id="canvas_background" height="402" width="582" y="-1" x="-1"/>
 </g>
 <g>
  <title>Layer 1</title>
  <path stroke="#ffffff" id="svg_2" fill="#e5e5e5" d="m29,1l-26,0c-1.657,0 -3,1.342 -3,3l0,20c0,1.654 1.338,2.994 2.99,2.998l10.01,0l0,1.217l-6.242,0.811c-0.446,0.111 -0.758,0.511 -0.758,0.97c0,0.553 0.447,1 1,1l18,0c0.553,0 1,-0.447 1,-1c0,-0.459 -0.312,-0.859 -0.758,-0.971l-6.242,-0.81l0,-1.217l10.01,0c1.652,-0.004 2.99,-1.344 2.99,-2.998l0,-20c0,-1.658 -1.344,-3 -3,-3zm1,23c0,0.551 -0.449,1 -1,1l-9,0l-8,0l-9,0c-0.552,0 -1,-0.449 -1,-1l0,-20c0,-0.552 0.448,-1 1,-1l26,0c0.551,0 1,0.448 1,1l0,20z"/>
 </g>
</svg>