<?xml version="1.0" encoding="UTF-8"?>
<svg width="28px" height="32px" viewBox="0 0 28 32" version="1.1" xmlns="http://www.w3.org/2000/svg" xmlns:xlink="http://www.w3.org/1999/xlink">
    <!-- Generator: Sketch 49.3 (51167) - http://www.bohemiancoding.com/sketch -->
    <title>acrobat</title>
    <desc>Created with Sketch.</desc>
    <defs></defs>
    <g id="Super-Administrator" stroke="none" stroke-width="1" fill="none" fill-rule="evenodd">
        <g id="Volunteers-Profile-View" transform="translate(-801.000000, -279.000000)" fill-rule="nonzero">
            <g id="Content" transform="translate(130.000000, 111.000000)">
                <g id="Column-2" transform="translate(671.000000, 30.000000)">
                    <g id="Files-List">
                        <g id="acrobat" transform="translate(0.000000, 138.000000)">
                            <g id="Group" transform="translate(0.256881, 0.253968)">
                                <path d="M27.4263211,7.60209524 L27.4263211,29.2740317 C27.4263211,30.4659683 26.4398991,31.4412063 25.2342936,31.4412063 L2.21777982,31.4412063 C1.01217431,31.4412063 0.0257522936,30.4659683 0.0257522936,29.2740317 L0.0257522936,2.18412698 C0.0257522936,0.992190476 1.01217431,0.016952381 2.21777982,0.016952381 L19.7541284,0.016952381 L19.7541284,5.43492063 C19.7541284,6.62685714 20.7405505,7.60209524 21.946156,7.60209524 L27.4263211,7.60209524 Z" id="Shape" fill="#F2EDDA"></path>
                                <path d="M27.4263211,7.60209524 L21.9462202,7.60209524 C20.7406147,7.60209524 19.7541927,6.62685714 19.7541927,5.43492063 L19.7541927,0.016952381 L27.4263211,7.60209524 Z" id="Shape" fill="#FFD0A1"></path>
                                <path d="M11.9723761,21.7430476 C10.6571468,23.8560635 9.34191743,25.4814603 9.34191743,25.4814603 C7.97190826,26.8359365 5.50585321,25.4814603 7.14988991,23.8560635 C8.19109174,22.7725079 9.99953211,22.1223492 11.9723761,21.7430476 Z M14.8220183,14.1036825 C15.0960459,15.2414603 14.5479908,16.9752381 13.6711927,18.7631746 C12.6299908,16.6501587 12.0819358,14.5913016 12.0819358,14.1036825 C12.0819358,13.020127 14.3835872,12.3699683 14.8220183,14.1036825 Z M13.6711927,18.7631746 C14.1096239,19.6300317 14.6028349,20.5511111 15.2056055,21.3096508 C14.1644037,21.4180317 13.013578,21.5263492 11.9723119,21.7972698 C12.520367,20.8220317 13.1779817,19.7925714 13.6711927,18.7631746 Z M19.7541284,21.1471111 C20.8501743,21.1471111 21.7817523,23.856127 19.2061376,23.856127 C17.6717248,23.856127 16.3016514,22.7725079 15.2056697,21.3096508 C17.5621009,21.0928889 19.4801009,21.1471111 19.7541284,21.1471111 Z" id="Shape" fill="#FF7474"></path>
                            </g>
                            <path d="M25.4911101,31.9661587 L2.47459633,31.9661587 C1.10458716,31.9661587 0.0085412844,30.8825397 0.0085412844,29.5280635 L0.0085412844,2.43809524 C0.0085412844,1.08361905 1.10458716,0 2.47459633,0 L20.0110092,0 C20.065789,0 20.1754128,0.0541587302 20.2301927,0.0541587302 L25.7102936,5.47212698 C25.8199174,5.58050794 25.8199174,5.74304762 25.7102936,5.85136508 C25.6006697,5.95974603 25.4362661,5.95974603 25.3267064,5.85136508 L19.9013853,0.487555556 L2.47459633,0.487555556 C1.4333945,0.487555556 0.55653211,1.3544127 0.55653211,2.38387302 L0.55653211,29.4738413 C0.55653211,30.5032381 1.43333028,31.3701587 2.47459633,31.3701587 L25.4911101,31.3701587 C26.5323119,31.3701587 27.4091743,30.5033016 27.4091743,29.4738413 L27.4091743,8.0728254 L22.2030367,8.0728254 C20.8330275,8.0728254 19.7369817,6.98920635 19.7369817,5.63473016 L19.7369817,2.92571429 C19.7369817,2.7631746 19.8466055,2.65479365 20.0110092,2.65479365 C20.1754128,2.65479365 20.2850367,2.7631746 20.2850367,2.92571429 L20.2850367,5.63473016 C20.2850367,6.66412698 21.1618349,7.53104762 22.2031009,7.53104762 L27.6832018,7.53104762 C27.8476055,7.53104762 27.9572294,7.63942857 27.9572294,7.80196825 L27.9572294,29.4739048 C27.9571651,30.8825397 26.8611835,31.9661587 25.4911101,31.9661587 Z M8.22872477,26.548127 C7.73551376,26.548127 7.24230275,26.3855873 6.91349541,26.0605079 C6.47506422,25.6270476 6.25588073,24.8143492 7.1326789,23.8933333 C8.22872477,22.8097143 9.9823211,22.1595556 11.9551651,21.7261587 C12.503156,20.8593016 13.051211,19.8840635 13.544422,18.9629841 C12.5032202,16.7958095 12.0100092,14.7369524 12.0100092,14.3034921 C12.0100092,13.5991746 12.7772477,13.0573333 13.4896422,12.9490159 C14.1472569,12.8948571 15.024055,13.1657143 15.2980826,14.1951746 C15.6268899,15.3871111 15.024055,17.1208889 14.2020367,18.9088254 C14.5856239,19.6673651 15.024055,20.4800635 15.5720459,21.184381 C17.2708624,21.0218413 18.8053394,21.0218413 19.8465413,21.0218413 L19.9561651,21.0218413 C20.7234037,21.0218413 21.3261743,21.9429206 21.3261743,22.755619 C21.3261743,23.1890794 21.1617706,23.5683175 20.8877431,23.8392381 C20.5589358,24.1643175 20.0657248,24.2726984 19.4081101,24.2726984 C17.7640734,24.2726984 16.3940642,23.1890794 15.2432385,21.7262222 C14.2568165,21.8346032 13.2703945,21.9429206 12.3387523,22.1596825 C11.0783028,24.1101587 9.87269725,25.6813968 9.76307339,25.8439365 C9.32477064,26.3855873 8.77677982,26.548127 8.22872477,26.548127 Z M11.626422,22.4304762 C9.98238532,22.8097143 8.50275229,23.4057143 7.62595413,24.3267937 C7.0779633,24.8685714 7.02311927,25.3561905 7.40677064,25.7354921 C7.84520183,26.1689524 8.83162385,26.2231111 9.4343945,25.5729524 C9.4343945,25.5187302 10.4755963,24.2184127 11.626422,22.4304762 Z M16.0105413,21.7803175 C16.9969633,22.972254 18.2025688,23.8391746 19.4630183,23.8391746 C19.9562294,23.8391746 20.3398165,23.7307937 20.5590642,23.5140952 C20.7782477,23.2973968 20.8330917,23.0264762 20.8330917,22.8639365 C20.8330917,22.2679365 20.3946606,21.672 20.0110734,21.672 L19.8466697,21.672 C18.9149633,21.6719365 17.5449541,21.6719365 16.0105413,21.7803175 Z M13.9280734,19.6131429 C13.5444862,20.3174603 13.1608349,20.967619 12.7772477,21.6177778 C13.4896422,21.5093968 14.2021009,21.4010794 14.9144954,21.3468571 C14.5856881,20.8050794 14.2021009,20.2090794 13.9280734,19.6131429 Z M13.7636697,13.5449524 C13.7088899,13.5449524 13.6540459,13.5449524 13.5992661,13.5449524 C13.0512752,13.5991111 12.612844,13.9784127 12.612844,14.3576508 C12.612844,14.8452698 13.106055,16.5248254 13.9280734,18.3669841 C14.6404679,16.8499683 15.0788991,15.3871111 14.8048716,14.411873 C14.6404679,13.6533333 14.0376972,13.5449524 13.7636697,13.5449524 Z" id="Shape" fill="#51565F"></path>
                        </g>
                    </g>
                </g>
            </g>
        </g>
    </g>
</svg>