<?xml version="1.0" encoding="UTF-8"?>
<svg width="140px" height="134px" viewBox="0 0 140 134" version="1.1" xmlns="http://www.w3.org/2000/svg" xmlns:xlink="http://www.w3.org/1999/xlink">
    <!-- Generator: Sketch 49.3 (51167) - http://www.bohemiancoding.com/sketch -->
    <title>Image</title>
    <desc>Created with Sketch.</desc>
    <defs>
        <polygon id="path-1" points="0 144 144 144 144 0 0 0"></polygon>
    </defs>
    <g id="Super-Administrator" stroke="none" stroke-width="1" fill="none" fill-rule="evenodd">
        <g id="Dashboard" transform="translate(-300.000000, -612.000000)">
            <g id="4.-Volunteers-Block" transform="translate(185.000000, 575.000000)">
                <g id="Image" transform="translate(113.000000, 32.000000)">
                    <g id="Group">
                        <path d="M129.6,80.679312 C129.6,112.490352 103.81104,138.279312 72,138.279312 C40.18896,138.279312 14.4,112.490352 14.4,80.679312 C14.4,48.868272 40.18896,23.079312 72,23.079312 C103.81104,23.079312 129.6,48.868272 129.6,80.679312" id="Fill-1" fill="#CEECD3"></path>
                        <path d="M90.887328,9.35928 C90.887328,7.34904 89.258688,5.7204 87.248448,5.7204 L56.317248,5.7204 C54.308448,5.7204 52.678368,7.34904 52.678368,9.35928 L52.678368,37.56168 C52.678368,39.57048 54.307008,41.20056 56.317248,41.20056 L62.993088,41.20056 C63.828288,41.20056 64.505088,41.87736 64.505088,42.71256 L64.505088,46.64808 C64.505088,47.25864 64.873728,47.81016 65.438208,48.04488 C66.004128,48.27816 66.653568,48.14856 67.087008,47.71656 L73.159488,41.64264 C73.443168,41.3604 73.827648,41.20056 74.227968,41.20056 L87.248448,41.20056 C89.258688,41.20056 90.887328,39.57048 90.887328,37.56168 L90.887328,9.35928 Z" id="Fill-3" fill="#FFFFFF"></path>
                        <path d="M90.887328,9.35928 C90.887328,7.34904 89.258688,5.7204 87.248448,5.7204 L56.317248,5.7204 C54.308448,5.7204 52.678368,7.34904 52.678368,9.35928 L52.678368,37.56168 C52.678368,39.57048 54.307008,41.20056 56.317248,41.20056 L62.993088,41.20056 C63.828288,41.20056 64.505088,41.87736 64.505088,42.71256 L64.505088,46.64808 C64.505088,47.25864 64.873728,47.81016 65.438208,48.04488 C66.004128,48.27816 66.653568,48.14856 67.087008,47.71656 L73.159488,41.64264 C73.443168,41.3604 73.827648,41.20056 74.227968,41.20056 L87.248448,41.20056 C89.258688,41.20056 90.887328,39.57048 90.887328,37.56168 L90.887328,9.35928 Z" id="Stroke-5" stroke="#45413C" stroke-linejoin="round"></path>
                        <polygon id="Fill-7" fill="#D18660" points="39.998736 123.744384 40.388976 115.334784 34.539696 115.334784 34.539696 123.744384"></polygon>
                        <polygon id="Fill-9" fill="#BD704A" points="40.194144 119.536128 40.388544 115.334208 34.540704 115.334208 34.540704 119.536128"></polygon>
                        <polygon id="Stroke-11" stroke="#45413C" stroke-linecap="round" stroke-linejoin="round" points="39.998736 123.744384 40.388976 115.334784 34.539696 115.334784 34.539696 123.744384"></polygon>
                        <polygon id="Fill-13" fill="#D18660" points="47.276064 123.744384 46.885824 115.334784 52.735104 115.334784 52.735104 123.744384"></polygon>
                        <polygon id="Fill-15" fill="#BD704A" points="47.080512 119.536128 46.886112 115.334208 52.733952 115.334208 52.733952 119.536128"></polygon>
                        <polygon id="Stroke-17" stroke="#45413C" stroke-linecap="round" stroke-linejoin="round" points="47.276064 123.744384 46.885824 115.334784 52.735104 115.334784 52.735104 123.744384"></polygon>
                        <path d="M57.282912,85.875408 C57.282912,77.835888 50.766912,71.319888 42.728832,71.319888 C34.689312,71.319888 28.171872,77.835888 28.171872,85.875408 L28.171872,87.694128 L33.630912,87.694128 L33.630912,99.522288 L53.644032,99.522288 L53.644032,87.694128 L57.282912,87.694128 L57.282912,85.875408 Z" id="Fill-19" fill="#DEA47A"></path>
                        <path d="M44.54712,46.461744 C39.52152,46.461744 35.45064,50.535504 35.45064,55.559664 L35.45064,57.379824 C32.85144,57.379824 33.03,61.927344 35.90568,61.927344 L35.91144,61.924464 C37.0764,65.607984 40.47912,68.295024 44.54712,68.295024 C49.57128,68.295024 53.6436,64.222704 53.6436,59.198544 L53.6436,55.559664 C53.6436,50.535504 49.57128,46.461744 44.54712,46.461744" id="Fill-21" fill="#D18660"></path>
                        <path d="M44.54712,46.461744 C39.52152,46.461744 35.45064,50.535504 35.45064,55.559664 L35.45064,57.379824 C32.85144,57.379824 33.03,61.927344 35.90568,61.927344 L35.91144,61.924464 C37.0764,65.607984 40.47912,68.295024 44.54712,68.295024 C49.57128,68.295024 53.6436,64.222704 53.6436,59.198544 L53.6436,55.559664 C53.6436,50.535504 49.57128,46.461744 44.54712,46.461744 Z" id="Stroke-23" stroke="#45413C" stroke-linecap="round" stroke-linejoin="round"></path>
                        <path d="M42.955344,57.379248 C42.326064,57.379248 41.817744,57.889008 41.817744,58.516848 C41.817744,59.143248 42.326064,59.653008 42.955344,59.653008 C43.583184,59.653008 44.092944,59.143248 44.092944,58.516848 C44.092944,57.889008 43.583184,57.379248 42.955344,57.379248" id="Fill-25" fill="#45413C"></path>
                        <path d="M49.777776,57.379248 C49.149936,57.379248 48.640176,57.889008 48.640176,58.516848 C48.640176,59.143248 49.149936,59.653008 49.777776,59.653008 C50.407056,59.653008 50.915376,59.143248 50.915376,58.516848 C50.915376,57.889008 50.407056,57.379248 49.777776,57.379248" id="Fill-27" fill="#45413C"></path>
                        <path d="M41.8176,61.244352 C41.8176,61.746912 41.41152,62.154432 40.90752,62.154432 C40.4064,62.154432 39.99888,61.746912 39.99888,61.244352 C39.99888,60.741792 40.4064,60.335712 40.90752,60.335712 C41.41152,60.335712 41.8176,60.741792 41.8176,61.244352" id="Fill-29" fill="#BD704A"></path>
                        <path d="M44.54712,63.830448 C45.51048,64.633968 46.7316,64.734768 47.75832,64.131408 C47.9052,64.045008 48.04776,63.945648 48.186,63.830448" id="Stroke-31" stroke="#45413C" stroke-linecap="round" stroke-linejoin="round"></path>
                        <path d="M33.63048,59.425344 L33.63048,49.191264 L38.17944,49.191264 L38.17944,54.876384 C38.17944,57.387744 36.14328,59.425344 33.63048,59.425344" id="Fill-33" fill="#87898C"></path>
                        <path d="M33.63048,59.425344 L33.63048,49.191264 L38.17944,49.191264 L38.17944,54.876384 C38.17944,57.387744 36.14328,59.425344 33.63048,59.425344 Z" id="Stroke-35" stroke="#45413C" stroke-linecap="round" stroke-linejoin="round"></path>
                        <path d="M42.728256,71.319312 C34.688736,71.319312 28.172736,77.836752 28.172736,85.874832 L28.172736,87.694992 L28.429056,87.694992 C29.690496,80.939952 35.606016,75.822192 42.728256,75.822192 C49.849056,75.822192 55.764576,80.939952 57.026016,87.694992 L57.282336,87.694992 L57.282336,85.874832 C57.282336,77.836752 50.766336,71.319312 42.728256,71.319312" id="Fill-37" fill="#F0C2A1"></path>
                        <path d="M57.282912,85.875408 C57.282912,77.835888 50.766912,71.319888 42.728832,71.319888 C34.689312,71.319888 28.171872,77.835888 28.171872,85.875408 L28.171872,87.694128 L33.630912,87.694128 L33.630912,99.522288 L53.644032,99.522288 L53.644032,87.694128 L57.282912,87.694128 L57.282912,85.875408 Z" id="Stroke-39" stroke="#45413C" stroke-linecap="round" stroke-linejoin="round"></path>
                        <path d="M59.923872,128.479248 C59.923872,129.732048 53.154432,130.747248 44.803872,130.747248 C36.453312,130.747248 29.683872,129.732048 29.683872,128.479248 C29.683872,127.227888 36.453312,126.211248 44.803872,126.211248 C53.154432,126.211248 59.923872,127.227888 59.923872,128.479248" id="Fill-41" fill="#020202" opacity="0.15"></path>
                        <path d="M49.324176,43.732224 L37.951056,43.732224 C35.563536,43.732224 33.631056,45.666144 33.631056,48.052224 L33.631056,51.920064 L53.644176,51.920064 L53.644176,48.052224 C53.644176,45.666144 51.710256,43.732224 49.324176,43.732224" id="Fill-43" fill="#915E3A"></path>
                        <path d="M49.324176,43.732224 L37.951056,43.732224 C35.563536,43.732224 33.631056,45.666144 33.631056,48.052224 L33.631056,51.920064 L53.644176,51.920064 L53.644176,48.052224 C53.644176,45.666144 51.710256,43.732224 49.324176,43.732224 Z" id="Stroke-45" stroke="#45413C" stroke-linecap="round" stroke-linejoin="round"></path>
                        <g id="Group-50" transform="translate(37.440000, 43.200000)">
                            <path d="M6.197328,0.532224 C6.197328,0.532224 0.738288,3.262464 0.738288,7.809984" id="Fill-47" fill="#915E3A"></path>
                            <path d="M6.197328,0.532224 C6.197328,0.532224 0.738288,3.262464 0.738288,7.809984" id="Stroke-49" stroke="#45413C" stroke-linejoin="round"></path>
                        </g>
                        <g id="Group-54" transform="translate(43.200000, 43.200000)">
                            <path d="M0.437328,0.532224 C0.437328,0.532224 5.896368,3.262464 5.896368,7.809984" id="Fill-51" fill="#915E3A"></path>
                            <path d="M0.437328,0.532224 C0.437328,0.532224 5.896368,3.262464 5.896368,7.809984" id="Stroke-53" stroke="#45413C" stroke-linejoin="round"></path>
                        </g>
                        <path d="M39.865824,115.896816 C40.669344,115.896816 41.333184,115.267536 41.374944,114.465456 L41.739264,107.707536 C41.783904,106.690896 42.620544,105.890256 43.637184,105.890256 C44.655264,105.890256 45.491904,106.690896 45.536544,107.707536 L45.897984,114.465456 C45.942624,115.267536 46.605024,115.896816 47.408544,115.896816 L52.133184,115.896816 C52.966944,115.896816 53.643744,115.220016 53.643744,114.384816 L53.643744,97.702416 L44.547264,97.702416 L42.728544,97.702416 L33.630624,97.702416 L33.630624,114.384816 C33.630624,115.220016 34.307424,115.896816 35.142624,115.896816 L39.865824,115.896816 Z" id="Fill-55" fill="#DEA47A"></path>
                        <mask id="mask-2" fill="white">
                            <use xlink:href="#path-1"></use>
                        </mask>
                        <g id="Clip-58"></g>
                        <polygon id="Fill-57" fill="#BF8256" mask="url(#mask-2)" points="33.6312 103.16016 53.64432 103.16016 53.64432 99.52128 33.6312 99.52128"></polygon>
                        <path d="M41.738976,107.707536 C41.783616,106.690896 42.620256,105.890256 43.636896,105.890256 C44.654976,105.890256 45.491616,106.690896 45.536256,107.707536 L45.899136,114.465456 C45.942336,115.267536 46.604736,115.896816 47.409696,115.896816 L52.132896,115.896816 C52.966656,115.896816 53.644896,115.220016 53.644896,114.384816 L53.644896,97.702416 L44.546976,97.702416 L42.728256,97.702416 L33.630336,97.702416 L33.630336,114.384816 C33.630336,115.220016 34.307136,115.896816 35.142336,115.896816 L39.865536,115.896816 C40.669056,115.896816 41.332896,115.267536 41.376096,114.465456 L41.738976,107.707536 Z" id="Stroke-59" stroke="#45413C" stroke-linecap="round" stroke-linejoin="round" mask="url(#mask-2)"></path>
                        <path d="M56.373696,127.723392 C56.373696,124.466112 53.189856,123.175872 50.373216,123.175872 L47.879136,123.175872 C47.043936,123.175872 46.367136,123.852672 46.367136,124.687872 L46.367136,126.211392 C46.367136,127.046592 47.043936,127.723392 47.879136,127.723392 L56.373696,127.723392 Z" id="Fill-60" fill="#87898C" mask="url(#mask-2)"></path>
                        <path d="M56.373696,127.723392 C56.373696,124.466112 53.189856,123.175872 50.373216,123.175872 L47.879136,123.175872 C47.043936,123.175872 46.367136,123.852672 46.367136,124.687872 L46.367136,126.211392 C46.367136,127.046592 47.043936,127.723392 47.879136,127.723392 L56.373696,127.723392 Z" id="Stroke-61" stroke="#45413C" stroke-linecap="round" stroke-linejoin="round" mask="url(#mask-2)"></path>
                        <path d="M43.637328,127.723392 C43.637328,124.466112 40.453488,123.175872 37.636848,123.175872 L35.142768,123.175872 C34.307568,123.175872 33.630768,123.852672 33.630768,124.687872 L33.630768,126.211392 C33.630768,127.046592 34.307568,127.723392 35.142768,127.723392 L43.637328,127.723392 Z" id="Fill-62" fill="#87898C" mask="url(#mask-2)"></path>
                        <path d="M43.637328,127.723392 C43.637328,124.466112 40.453488,123.175872 37.636848,123.175872 L35.142768,123.175872 C34.307568,123.175872 33.630768,123.852672 33.630768,124.687872 L33.630768,126.211392 C33.630768,127.046592 34.307568,127.723392 35.142768,127.723392 L43.637328,127.723392 Z" id="Stroke-63" stroke="#45413C" stroke-linecap="round" stroke-linejoin="round" mask="url(#mask-2)"></path>
                        <path d="M33.63048,104.07096 C33.63048,105.5772 32.40792,106.79976 30.90168,106.79976 C29.394,106.79976 28.17144,105.5772 28.17144,104.07096 L28.17144,87.69384 L33.63048,87.69384 L33.63048,104.07096 Z" id="Fill-64" fill="#D18660" mask="url(#mask-2)"></path>
                        <path d="M33.63048,104.07096 C33.63048,105.5772 32.40792,106.79976 30.90168,106.79976 C29.394,106.79976 28.17144,105.5772 28.17144,104.07096 L28.17144,87.69384 L33.63048,87.69384 L33.63048,104.07096 Z" id="Stroke-65" stroke="#45413C" stroke-linecap="round" stroke-linejoin="round" mask="url(#mask-2)"></path>
                        <g id="Group-68" mask="url(#mask-2)">
                            <g transform="translate(53.280000, 82.080000)">
                                <path d="M0.364176,5.614416 L0.364176,0.156816" id="Fill-66" stroke="none" fill="#00B8F0" fill-rule="evenodd"></path>
                                <path d="M0.364176,5.614416 L0.364176,0.156816" id="Stroke-67" stroke="#45413C" stroke-width="1" fill="none" stroke-linecap="round" stroke-linejoin="round"></path>
                            </g>
                        </g>
                        <g id="Group-71" mask="url(#mask-2)">
                            <g transform="translate(33.120000, 82.080000)">
                                <path d="M0.51048,5.614416 L0.51048,0.156816" id="Fill-69" stroke="none" fill="#00B8F0" fill-rule="evenodd"></path>
                                <path d="M0.51048,5.614416 L0.51048,0.156816" id="Stroke-70" stroke="#45413C" stroke-width="1" fill="none" stroke-linecap="round" stroke-linejoin="round"></path>
                            </g>
                        </g>
                        <path d="M42.728256,71.319312 C41.318496,71.319312 39.959136,71.529552 38.670336,71.903952 L43.636896,80.417232 L48.298176,72.428112 C46.581696,71.716752 44.701056,71.319312 42.728256,71.319312" id="Fill-72" fill="#D18660" mask="url(#mask-2)"></path>
                        <path d="M42.728256,71.319312 C41.318496,71.319312 39.959136,71.529552 38.670336,71.903952 L43.636896,80.417232 L48.298176,72.428112 C46.581696,71.716752 44.701056,71.319312 42.728256,71.319312 Z" id="Stroke-73" stroke="#45413C" stroke-linecap="round" stroke-linejoin="round" mask="url(#mask-2)"></path>
                        <path d="M50.826096,73.780272 C50.035536,73.250352 49.187376,72.796752 48.297456,72.429552 L43.637616,80.417232 C46.120176,78.376752 48.432816,77.377392 50.945616,76.916592 C51.403536,76.833072 51.691536,76.375152 51.543216,75.933072 L50.826096,73.780272 Z" id="Fill-74" fill="#F0C2A1" mask="url(#mask-2)"></path>
                        <path d="M50.826096,73.780272 C50.035536,73.250352 49.187376,72.796752 48.297456,72.429552 L43.637616,80.417232 C46.120176,78.376752 48.432816,77.377392 50.945616,76.916592 C51.403536,76.833072 51.691536,76.375152 51.543216,75.933072 L50.826096,73.780272 Z" id="Stroke-75" stroke="#45413C" stroke-linecap="round" stroke-linejoin="round" mask="url(#mask-2)"></path>
                        <path d="M43.637328,80.417088 L38.670768,71.905248 C38.047248,72.085248 37.441008,72.304128 36.854928,72.563328 L35.731728,75.932928 C35.584848,76.375008 35.871408,76.832928 36.329328,76.916448 C38.842128,77.378688 41.154768,78.376608 43.637328,80.417088" id="Fill-76" fill="#F0C2A1" mask="url(#mask-2)"></path>
                        <path d="M43.637328,80.417088 L38.670768,71.905248 C38.047248,72.085248 37.441008,72.304128 36.854928,72.563328 L35.731728,75.932928 C35.584848,76.375008 35.871408,76.832928 36.329328,76.916448 C38.842128,77.378688 41.154768,78.376608 43.637328,80.417088 Z" id="Stroke-77" stroke="#45413C" stroke-linecap="round" stroke-linejoin="round" mask="url(#mask-2)"></path>
                        <g id="Group-80" mask="url(#mask-2)">
                            <g transform="translate(43.200000, 79.200000)">
                                <path d="M0.437328,1.217088 L0.437328,5.766048" id="Fill-78" stroke="none" fill="#FFCEBF" fill-rule="evenodd"></path>
                                <path d="M0.437328,1.217088 L0.437328,5.766048" id="Stroke-79" stroke="#45413C" stroke-width="1" fill="none" stroke-linecap="round" stroke-linejoin="round"></path>
                            </g>
                        </g>
                        <polygon id="Fill-81" fill="#A86C4E" mask="url(#mask-2)" points="33.6312 100.4328 53.64432 100.4328 53.64432 96.79392 33.6312 96.79392"></polygon>
                        <polygon id="Stroke-82" stroke="#45413C" stroke-linecap="round" stroke-linejoin="round" mask="url(#mask-2)" points="33.6312 100.4328 53.64432 100.4328 53.64432 96.79392 33.6312 96.79392"></polygon>
                        <polygon id="Fill-83" fill="#FFE600" mask="url(#mask-2)" points="40.90752 100.4328 46.36656 100.4328 46.36656 96.79392 40.90752 96.79392"></polygon>
                        <polygon id="Stroke-84" stroke="#45413C" stroke-linecap="round" stroke-linejoin="round" mask="url(#mask-2)" points="40.90752 100.4328 46.36656 100.4328 46.36656 96.79392 40.90752 96.79392"></polygon>
                        <path d="M33.63048,51.920208 L35.69688,54.676368 C36.07848,55.184688 36.73944,55.400688 37.34856,55.214928 C41.18904,54.041328 47.29608,53.920368 52.62696,55.233648 C53.22024,55.379088 53.84232,55.154448 54.2052,54.663408 C54.56808,54.172368 54.59976,53.511408 54.2844,52.987248 L53.6436,51.920208 C50.00616,50.101488 40.90824,50.101488 33.63048,51.920208" id="Fill-85" fill="#DEA47A" mask="url(#mask-2)"></path>
                        <path d="M33.63048,51.920208 L35.69688,54.676368 C36.07848,55.184688 36.73944,55.400688 37.34856,55.214928 C41.18904,54.041328 47.29608,53.920368 52.62696,55.233648 C53.22024,55.379088 53.84232,55.154448 54.2052,54.663408 C54.56808,54.172368 54.59976,53.511408 54.2844,52.987248 L53.6436,51.920208 C50.00616,50.101488 40.90824,50.101488 33.63048,51.920208 Z" id="Stroke-86" stroke="#45413C" stroke-linecap="round" stroke-linejoin="round" mask="url(#mask-2)"></path>
                        <path d="M63.12096,100.432224 L47.80656,100.432224 C47.01168,100.432224 46.36656,99.788544 46.36656,98.992224 L46.36656,83.676384 C46.36656,82.881504 47.01168,82.236384 47.80656,82.236384 L63.12096,82.236384 C63.91584,82.236384 64.56096,82.881504 64.56096,83.676384 L64.56096,98.992224 C64.56096,99.788544 63.91584,100.432224 63.12096,100.432224" id="Fill-87" fill="#DEBB7E" mask="url(#mask-2)"></path>
                        <path d="M63.12096,100.432224 L47.80656,100.432224 C47.01168,100.432224 46.36656,99.788544 46.36656,98.992224 L46.36656,83.676384 C46.36656,82.881504 47.01168,82.236384 47.80656,82.236384 L63.12096,82.236384 C63.91584,82.236384 64.56096,82.881504 64.56096,83.676384 L64.56096,98.992224 C64.56096,99.788544 63.91584,100.432224 63.12096,100.432224 Z" id="Stroke-88" stroke="#45413C" stroke-linecap="round" stroke-linejoin="round" mask="url(#mask-2)"></path>
                        <path d="M63.35784,96.469488 C62.67672,95.124528 61.03368,94.587408 59.69016,95.268528 C58.3452,95.949648 57.80808,97.591248 58.48776,98.936208 L59.44824,100.834128 C59.62968,101.191248 59.94504,101.461968 60.32808,101.587248 C60.70824,101.712528 61.12296,101.680848 61.48152,101.499408 L63.65304,100.399248 C64.39752,100.021968 64.6956,99.111888 64.31832,98.367408 L63.35784,96.469488 Z" id="Fill-89" fill="#D18660" mask="url(#mask-2)"></path>
                        <path d="M63.35784,96.469488 C62.67672,95.124528 61.03368,94.587408 59.69016,95.268528 C58.3452,95.949648 57.80808,97.591248 58.48776,98.936208 L59.44824,100.834128 C59.62968,101.191248 59.94504,101.461968 60.32808,101.587248 C60.70824,101.712528 61.12296,101.680848 61.48152,101.499408 L63.65304,100.399248 C64.39752,100.021968 64.6956,99.111888 64.31832,98.367408 L63.35784,96.469488 Z" id="Stroke-90" stroke="#45413C" stroke-linecap="round" stroke-linejoin="round" mask="url(#mask-2)"></path>
                        <path d="M57.473424,90.424656 L53.454384,90.424656 C53.056944,90.424656 52.734384,90.102096 52.734384,89.704656 L52.734384,82.236816 L58.193424,82.236816 L58.193424,89.704656 C58.193424,90.102096 57.870864,90.424656 57.473424,90.424656" id="Fill-91" fill="#F7E5C6" mask="url(#mask-2)"></path>
                        <path d="M57.473424,90.424656 L53.454384,90.424656 C53.056944,90.424656 52.734384,90.102096 52.734384,89.704656 L52.734384,82.236816 L58.193424,82.236816 L58.193424,89.704656 C58.193424,90.102096 57.870864,90.424656 57.473424,90.424656 Z" id="Stroke-92" stroke="#45413C" stroke-linecap="round" stroke-linejoin="round" mask="url(#mask-2)"></path>
                        <g id="pyramid" mask="url(#mask-2)" fill-rule="nonzero">
                            <g transform="translate(62.000000, 13.000000)" id="Shape">
                                <path d="M11.8462969,2.56979297 L11.8462969,5.98266211 L7.4397832,5.98266211 L7.4397832,2.56979297 C7.4397832,1.35326953 8.42559375,0.366556641 9.64301953,0.366556641 C10.859584,0.366556641 11.8462969,1.35326953 11.8462969,2.56979297 Z" stroke="none" fill="#FEC95B"></path>
                                <path d="M10.2045234,0.438990234 C10.0252031,0.391822266 9.83710547,0.366474609 9.64306055,0.366474609 C8.42563477,0.366474609 7.43982422,1.3531875 7.43982422,2.56971094 L7.43982422,5.98258008 L8.56303711,5.98258008 L8.56303711,2.56979297 C8.56303711,1.54727344 9.25952344,0.687380859 10.2045234,0.438990234 Z" stroke="none" fill="#E2AD50"></path>
                                <path d="M18.2551113,17.0183672 C18.6380332,17.4023145 18.8754316,17.9317441 18.8754316,18.516873 C18.8754316,19.6870898 17.9268223,20.6356992 16.7566055,20.6356992 L2.52894141,20.6356992 C1.94385352,20.6356992 1.41389062,20.3982598 1.03096875,20.0153789 C0.6470625,19.6314316 0.41015625,19.102002 0.41015625,18.516873 C0.41015625,17.3466562 1.35876562,16.3980469 2.52898242,16.3980469 L4.37566992,16.3980469 L14.91,16.3980469 L16.7566875,16.3980469 C17.3417344,16.3980059 17.8711641,16.6354453 18.2551113,17.0183672 Z" stroke="none" fill="#F95428"></path>
                                <path d="M16.4079727,12.7807148 C16.7919199,13.1646621 17.0288262,13.6940918 17.0288262,14.2792207 C17.0288262,15.4494375 16.0802168,16.3980469 14.91,16.3980469 L4.37562891,16.3980469 C3.79054102,16.3980469 3.26107031,16.1606074 2.87712305,15.7776855 C2.49420117,15.3937383 2.25680273,14.8643086 2.25680273,14.2791797 C2.25680273,13.1089629 3.20541211,12.1603535 4.37562891,12.1603535 L5.85268359,12.1603535 L13.4329453,12.1603535 L14.91,12.1603535 C15.4950469,12.1603945 16.0250508,12.397834 16.4079727,12.7807148 Z" stroke="none" fill="#2BA5F7"></path>
                                <path d="M14.9313691,8.54310352 C15.314291,8.92705078 15.5516895,9.45648047 15.5516895,10.0416094 C15.5516895,11.2118262 14.6030801,12.1604355 13.4328633,12.1604355 L5.85264258,12.1604355 C5.26755469,12.1604355 4.7375918,11.9229961 4.35466992,11.5401152 C3.97072266,11.156168 3.73381641,10.6267383 3.73381641,10.0416094 C3.73381641,8.87139258 4.68242578,7.9227832 5.85264258,7.9227832 L7.03458984,7.9227832 L12.250957,7.9227832 L13.4329043,7.9227832 C14.0179922,7.9227832 14.5474629,8.16018164 14.9313691,8.54310352 Z" stroke="none" fill="#F7B239"></path>
                                <path d="M13.7489297,4.30549219 C14.132877,4.68943945 14.3697832,5.21886914 14.3697832,5.80399805 C14.3697832,6.97421484 13.4211738,7.92282422 12.250957,7.92282422 L7.03458984,7.92282422 C6.44950195,7.92282422 5.92003125,7.68538477 5.53608398,7.30250391 C5.15316211,6.91855664 4.91576367,6.38912695 4.91576367,5.80399805 C4.91576367,4.63378125 5.86437305,3.68517187 7.03458984,3.68517187 L8.34110156,3.68517187 L10.9449375,3.68517187 L12.250916,3.68517187 C12.8360449,3.68513086 13.3660078,3.92257031 13.7489297,4.30549219 Z" stroke="none" fill="#9AD14B"></path>
                                <path d="M3.63480469,20.0153379 C4.01772656,20.3982598 4.54768945,20.6356992 5.13281836,20.6356992 L2.52894141,20.6356992 C1.94385352,20.6356992 1.41389062,20.3982598 1.03096875,20.0153379 C0.6470625,19.6313906 0.41015625,19.1019609 0.41015625,18.516832 C0.41015625,17.3466152 1.35876562,16.3980059 2.52898242,16.3980059 L5.13281836,16.3980059 C3.96260156,16.3980059 3.01399219,17.3466152 3.01399219,18.516832 C3.01395117,19.1019609 3.25085742,19.6313906 3.63480469,20.0153379 Z" stroke="none" fill="#D33924"></path>
                                <path d="M5.481,15.7777266 C5.86494727,16.1606484 6.39437695,16.3980879 6.97950586,16.3980879 L4.37566992,16.3980879 C3.79058203,16.3980879 3.26111133,16.1606484 2.87716406,15.7777266 C2.49424219,15.3937793 2.25680273,14.8643496 2.25680273,14.2792207 C2.25680273,13.1090039 3.20541211,12.1603945 4.37562891,12.1603945 L6.97950586,12.1603945 C5.80924805,12.1603945 4.86063867,13.1090039 4.86063867,14.2792207 C4.86063867,14.8643496 5.09807812,15.3937793 5.481,15.7777266 Z" stroke="none" fill="#2197D8"></path>
                                <path d="M6.95854687,11.5400742 C7.34146875,11.9229961 7.87143164,12.1604355 8.45651953,12.1604355 L5.85268359,12.1604355 C5.2675957,12.1604355 4.73763281,11.9229961 4.35471094,11.5400742 C3.97076367,11.156127 3.73385742,10.6266973 3.73385742,10.0415684 C3.73385742,8.87135156 4.6824668,7.92274219 5.85268359,7.92274219 L8.45651953,7.92274219 C7.28630273,7.92274219 6.33769336,8.87135156 6.33769336,10.0415684 C6.33769336,10.6266973 6.57459961,11.156168 6.95854687,11.5400742 Z" stroke="none" fill="#E09B2D"></path>
                                <path d="M8.13996094,7.30246289 C8.5239082,7.68538477 9.05333789,7.92282422 9.6384668,7.92282422 L7.03458984,7.92282422 C6.44950195,7.92282422 5.92003125,7.68538477 5.53608398,7.30246289 C5.15316211,6.91851562 4.91576367,6.38908594 4.91576367,5.80395703 C4.91576367,4.63374023 5.86437305,3.68513086 7.03458984,3.68513086 L9.6384668,3.68513086 C8.46820898,3.68513086 7.51959961,4.63374023 7.51959961,5.80395703 C7.51964062,6.38908594 7.75703906,6.91851562 8.13996094,7.30246289 Z" stroke="none" fill="#90BC42"></path>
                                <path d="M18.5035088,16.7585332 C18.0334287,16.2897246 17.4096221,16.0315313 16.7469736,16.0315313 L16.6583799,16.0315313 C17.1068447,15.581877 17.3845205,14.9618437 17.3845205,14.2781543 C17.3845205,13.6146035 17.12604,12.9906738 16.6566162,12.52125 C16.2508896,12.1155234 15.7292939,11.8678711 15.1664365,11.8082754 C15.6235146,11.3575137 15.9074658,10.7316152 15.9074658,10.0404609 C15.9074658,9.3778125 15.6492725,8.75400586 15.1797256,8.28326953 C14.8349072,7.9393125 14.4071963,7.70929688 13.9422842,7.61085938 C14.4239307,7.15747266 14.7254775,6.51492187 14.7254775,5.80284961 C14.7254775,5.13929883 14.4669971,4.51532812 13.9976553,4.04594531 C13.5286416,3.57693164 12.904876,3.31861523 12.2413252,3.31861523 L12.2018682,3.31861523 L12.2018682,2.56848047 C12.2018271,1.15221094 11.0496572,0 9.63334668,0 C8.21707715,0 7.06486621,1.15221094 7.06486621,2.56848047 C7.06486621,2.77027734 7.22847754,2.93392969 7.43031543,2.93392969 C7.63215332,2.93392969 7.79576465,2.77031836 7.79576465,2.56848047 C7.79576465,1.55523047 8.6201377,0.730857422 9.6333877,0.730857422 C10.6466377,0.730857422 11.4710107,1.55523047 11.4710107,2.56848047 L11.4710107,3.31861523 L7.02491699,3.31861523 C5.65507715,3.31861523 4.54068262,4.4330918 4.54068262,5.80284961 C4.54068262,6.46549805 4.79887598,7.08930469 5.26838184,7.56008203 C5.28605957,7.57771875 5.30439355,7.59449414 5.32252246,7.61151563 C4.20177051,7.85141602 3.35869434,8.84916211 3.35869434,10.040502 C3.35869434,10.7040527 3.6171748,11.3280234 4.08659863,11.7974062 C4.09041309,11.8012617 4.09443262,11.804748 4.09828809,11.8085625 C2.85391504,11.9425195 1.88168066,12.9987949 1.88168066,14.2781953 C1.88168066,14.9390391 2.13860254,15.5612461 2.60572949,16.0315723 L2.51930957,16.0315723 C2.14237598,16.0315723 1.78016699,16.1139727 1.44269043,16.2763945 C1.26086816,16.3639629 1.18441504,16.5823301 1.27194238,16.7641523 C1.33490137,16.8949102 1.46541309,16.9711992 1.60146191,16.9711992 C1.65461816,16.9711992 1.70859473,16.9595508 1.7597002,16.9349414 C1.99742676,16.8204258 2.25299512,16.7624297 2.51926855,16.7624297 L16.7469736,16.7624297 C17.2147568,16.7624297 17.6552646,16.9448672 17.9867119,17.2754121 C18.3179541,17.6075156 18.5003506,18.0480234 18.5003506,18.5158066 C18.5003506,19.482627 17.7137939,20.2691836 16.7469736,20.2691836 L2.51926855,20.2691836 C2.05095215,20.2691836 1.61073145,20.0869102 1.27969434,19.755873 C0.948370117,19.4245488 0.765891602,18.984123 0.765891602,18.5158066 C0.765891602,18.2179512 0.841811523,17.9239102 0.985407227,17.6655117 C1.08343457,17.4890625 1.01990137,17.2665938 0.84353418,17.1685664 C0.667084961,17.0705801 0.444616211,17.1340723 0.346588867,17.3104395 C0.142782227,17.6772012 0.0350341797,18.0939609 0.0350341797,18.5157656 C0.0350341797,19.1793164 0.293514648,19.8032461 0.762856445,20.2726699 C1.23195215,20.7417246 1.85571777,21 2.51926855,21 L16.7469736,21 C18.1168135,21 19.231208,19.8856055 19.231208,18.5157656 C19.231249,17.8531172 18.9730557,17.2293105 18.5035088,16.7585332 Z M7.02491699,4.04947266 L12.2412842,4.04947266 C12.7096006,4.04947266 13.1498213,4.23174609 13.4808584,4.5627832 C13.8121826,4.89410742 13.9946611,5.3345332 13.9946611,5.80289062 C13.9946611,6.76971094 13.2081045,7.55626758 12.2412842,7.55626758 L7.02491699,7.55626758 C6.55713379,7.55626758 6.11662598,7.37383008 5.78517871,7.04328516 C5.45393652,6.71118164 5.27154004,6.27067383 5.27154004,5.80289062 C5.27154004,4.8360293 6.05809668,4.04947266 7.02491699,4.04947266 Z M3.12617676,15.5185488 C2.79493457,15.1864453 2.61253809,14.7459375 2.61253809,14.2781543 C2.61253809,13.311334 3.39913574,12.5247773 4.36591504,12.5247773 L10.5590693,12.5247773 C10.7608662,12.5247773 10.9245186,12.361166 10.9245186,12.1593281 C10.9245186,11.9575312 10.7609072,11.7938789 10.5590693,11.7938789 L5.84292871,11.7938789 C5.3746123,11.7938789 4.9343916,11.6116055 4.60335449,11.2805684 C4.27203027,10.9492441 4.08955176,10.5088184 4.08955176,10.0404609 C4.08955176,9.07364062 4.87614941,8.28708398 5.84292871,8.28708398 L13.4231904,8.28708398 C13.8909736,8.28708398 14.3315225,8.46952148 14.6629287,8.80006641 C14.9941709,9.13216992 15.1765674,9.57267773 15.1765674,10.0404609 C15.1765674,11.0072812 14.3899697,11.7938379 13.4231904,11.7938379 L11.7771514,11.7938379 C11.5753545,11.7938379 11.4117021,11.9574492 11.4117021,12.1592871 C11.4117021,12.361125 11.5753135,12.5247363 11.7771514,12.5247363 L14.9002041,12.5247363 C15.3685205,12.5247363 15.8087412,12.7070098 16.1397783,13.0380469 C16.4711025,13.3693711 16.6535811,13.8097969 16.6535811,14.2781133 C16.6535811,15.2449336 15.8669834,16.0314902 14.9002041,16.0314902 L4.36595605,16.0314902 C3.89817285,16.0315312 3.45762402,15.8490937 3.12617676,15.5185488 Z" stroke="#45413C" stroke-width="0.100000001" fill="#45413C"></path>
                            </g>
                        </g>
                        <path d="M87.896304,104.07096 C87.896304,105.5772 89.117424,106.79976 90.625104,106.79976 C92.132784,106.79976 93.353904,105.5772 93.353904,104.07096 L93.353904,87.69384 L87.896304,87.69384 L87.896304,104.07096 Z" id="Fill-98" fill="#FFCEBF" mask="url(#mask-2)"></path>
                        <path d="M87.896304,104.07096 C87.896304,105.5772 89.117424,106.79976 90.625104,106.79976 C92.132784,106.79976 93.353904,105.5772 93.353904,104.07096 L93.353904,87.69384 L87.896304,87.69384 L87.896304,104.07096 Z" id="Stroke-99" stroke="#45413C" stroke-linecap="round" stroke-linejoin="round" mask="url(#mask-2)"></path>
                        <path d="M115.11216,128.479248 C115.11216,129.732048 108.34272,130.747248 99.99216,130.747248 C91.6416,130.747248 84.87216,129.732048 84.87216,128.479248 C84.87216,127.227888 91.6416,126.211248 99.99216,126.211248 C108.34272,126.211248 115.11216,127.227888 115.11216,128.479248" id="Fill-100" fill="#020202" opacity="0.15" mask="url(#mask-2)"></path>
                        <path d="M104.382432,125.2512 L103.440672,107.70768 C103.396032,106.69104 102.559392,105.8904 101.541312,105.8904 C100.524672,105.8904 99.688032,106.69104 99.643392,107.70768 L98.701632,125.25696 L91.534752,125.24112 L91.534752,97.70256 L100.632672,97.70256 L102.451392,97.70256 L111.549312,97.70256 L111.549312,125.25696 L104.382432,125.2512 Z" id="Fill-101" fill="#00B8F0" mask="url(#mask-2)"></path>
                        <polygon id="Fill-102" fill="#009FD9" mask="url(#mask-2)" points="91.53504 103.16016 111.5496 103.16016 111.5496 99.52128 91.53504 99.52128"></polygon>
                        <path d="M104.382432,125.2512 L103.440672,107.70768 C103.396032,106.69104 102.559392,105.8904 101.541312,105.8904 C100.524672,105.8904 99.688032,106.69104 99.643392,107.70768 L98.701632,125.25696 L91.534752,125.24112 L91.534752,97.70256 L100.632672,97.70256 L102.451392,97.70256 L111.549312,97.70256 L111.549312,125.25696 L104.382432,125.2512 Z" id="Stroke-103" stroke="#45413C" stroke-linecap="round" stroke-linejoin="round" mask="url(#mask-2)"></path>
                        <path d="M88.805376,127.723392 C88.805376,124.466112 91.989216,123.175872 94.805856,123.175872 L98.813376,123.175872 L98.813376,126.211392 C98.813376,127.046592 98.135136,127.723392 97.301376,127.723392 L88.805376,127.723392 Z" id="Fill-104" fill="#DEBB7E" mask="url(#mask-2)"></path>
                        <path d="M88.805376,127.723392 C88.805376,124.466112 91.989216,123.175872 94.805856,123.175872 L98.813376,123.175872 L98.813376,126.211392 C98.813376,127.046592 98.135136,127.723392 97.301376,127.723392 L88.805376,127.723392 Z" id="Stroke-105" stroke="#45413C" stroke-linecap="round" stroke-linejoin="round" mask="url(#mask-2)"></path>
                        <path d="M101.541744,127.723392 C101.541744,124.466112 104.725584,123.175872 107.542224,123.175872 L111.549744,123.175872 L111.549744,126.211392 C111.549744,127.046592 110.871504,127.723392 110.036304,127.723392 L101.541744,127.723392 Z" id="Fill-106" fill="#DEBB7E" mask="url(#mask-2)"></path>
                        <path d="M101.541744,127.723392 C101.541744,124.466112 104.725584,123.175872 107.542224,123.175872 L111.549744,123.175872 L111.549744,126.211392 C111.549744,127.046592 110.871504,127.723392 110.036304,127.723392 L101.541744,127.723392 Z" id="Stroke-107" stroke="#45413C" stroke-linecap="round" stroke-linejoin="round" mask="url(#mask-2)"></path>
                        <path d="M101.541744,46.461744 C106.565904,46.461744 110.639664,50.535504 110.639664,55.559664 L110.639664,57.379824 C113.237424,57.379824 113.058864,61.927344 110.184624,61.927344 L110.177424,61.924464 C109.012464,65.607984 105.609744,68.295024 101.541744,68.295024 C96.517584,68.295024 92.445264,64.222704 92.445264,59.198544 L92.445264,55.559664 C92.445264,50.535504 96.517584,46.461744 101.541744,46.461744" id="Fill-108" fill="#FFCEBF" mask="url(#mask-2)"></path>
                        <path d="M101.541744,46.461744 C106.565904,46.461744 110.639664,50.535504 110.639664,55.559664 L110.639664,57.379824 C113.237424,57.379824 113.058864,61.927344 110.184624,61.927344 L110.177424,61.924464 C109.012464,65.607984 105.609744,68.295024 101.541744,68.295024 C96.517584,68.295024 92.445264,64.222704 92.445264,59.198544 L92.445264,55.559664 C92.445264,50.535504 96.517584,46.461744 101.541744,46.461744 Z" id="Stroke-109" stroke="#45413C" stroke-linecap="round" stroke-linejoin="round" mask="url(#mask-2)"></path>
                        <path d="M103.134384,56.468736 C102.505104,56.468736 101.996784,56.978496 101.996784,57.606336 C101.996784,58.234176 102.505104,58.743936 103.134384,58.743936 C103.762224,58.743936 104.271984,58.234176 104.271984,57.606336 C104.271984,56.978496 103.762224,56.468736 103.134384,56.468736" id="Fill-110" fill="#45413C" mask="url(#mask-2)"></path>
                        <path d="M96.310512,56.468736 C95.682672,56.468736 95.172912,56.978496 95.172912,57.606336 C95.172912,58.234176 95.682672,58.743936 96.310512,58.743936 C96.939792,58.743936 97.448112,58.234176 97.448112,57.606336 C97.448112,56.978496 96.939792,56.468736 96.310512,56.468736" id="Fill-111" fill="#45413C" mask="url(#mask-2)"></path>
                        <path d="M104.271264,61.244352 C104.271264,61.746912 104.678784,62.154432 105.179904,62.154432 C105.682464,62.154432 106.091424,61.746912 106.091424,61.244352 C106.091424,60.741792 105.682464,60.335712 105.179904,60.335712 C104.678784,60.335712 104.271264,60.741792 104.271264,61.244352" id="Fill-112" fill="#FFB59E" mask="url(#mask-2)"></path>
                        <path d="M101.996784,62.750448 C100.791504,63.754128 99.267984,63.880848 97.982064,63.127728 C97.799184,63.019728 97.619184,62.894448 97.447824,62.750448" id="Stroke-113" stroke="#45413C" stroke-linecap="round" stroke-linejoin="round" mask="url(#mask-2)"></path>
                        <path d="M92.444832,54.650448 C90.624672,53.738928 91.701792,49.047408 93.353472,48.282768 L92.171232,47.335248 C91.055232,46.442448 91.685952,44.642448 93.115872,44.642448 L104.271552,44.642448 C108.290592,44.642448 111.549312,47.901168 111.549312,51.920208 L111.549312,57.379248 C106.091712,57.379248 106.206912,53.086608 101.541312,51.920208 C101.421792,52.980048 100.065312,53.977968 97.902432,54.650448 C97.902432,51.920208 95.173632,51.920208 95.173632,51.920208 L92.444832,54.650448 Z" id="Fill-114" fill="#FFE600" mask="url(#mask-2)"></path>
                        <path d="M111.500928,51.080688 C111.083328,47.456208 108.006048,44.642448 104.270688,44.642448 L93.115008,44.642448 C91.686528,44.642448 91.055808,46.442448 92.171808,47.335248 L93.354048,48.281328 L104.125248,48.281328 C106.944768,48.281328 109.546848,49.344048 111.500928,51.080688" id="Fill-115" fill="#FFF48C" mask="url(#mask-2)"></path>
                        <path d="M92.444832,54.650448 C90.624672,53.738928 91.701792,49.047408 93.353472,48.282768 L92.171232,47.335248 C91.055232,46.442448 91.685952,44.642448 93.115872,44.642448 L104.271552,44.642448 C108.290592,44.642448 111.549312,47.901168 111.549312,51.920208 L111.549312,57.379248 C106.091712,57.379248 106.206912,53.086608 101.541312,51.920208 C101.421792,52.980048 100.065312,53.977968 97.902432,54.650448 C97.902432,51.920208 95.173632,51.920208 95.173632,51.920208 L92.444832,54.650448 Z" id="Stroke-116" stroke="#45413C" stroke-linecap="round" stroke-linejoin="round" mask="url(#mask-2)"></path>
                        <path d="M87.896304,85.875408 C87.896304,77.835888 94.412304,71.319888 102.451824,71.319888 C110.489904,71.319888 117.007344,77.835888 117.007344,85.875408 L117.007344,87.694128 L111.549744,87.694128 L111.549744,99.522288 L91.535184,99.522288 L91.535184,87.694128 L87.896304,87.694128 L87.896304,85.875408 Z" id="Fill-117" fill="#F0F0F0" mask="url(#mask-2)"></path>
                        <path d="M102.45168,71.319312 C94.41216,71.319312 87.89616,77.836752 87.89616,85.874832 L87.89616,87.694992 L88.15392,87.694992 C89.41392,80.939952 95.33088,75.822192 102.45168,75.822192 C109.57248,75.822192 115.48944,80.939952 116.75088,87.694992 L117.0072,87.694992 L117.0072,85.874832 C117.0072,77.836752 110.4912,71.319312 102.45168,71.319312" id="Fill-118" fill="#FFFFFF" mask="url(#mask-2)"></path>
                        <path d="M87.896304,85.875408 C87.896304,77.835888 94.412304,71.319888 102.451824,71.319888 C110.489904,71.319888 117.007344,77.835888 117.007344,85.875408 L117.007344,87.694128 L111.549744,87.694128 L111.549744,99.522288 L91.535184,99.522288 L91.535184,87.694128 L87.896304,87.694128 L87.896304,85.875408 Z" id="Stroke-119" stroke="#45413C" stroke-linecap="round" stroke-linejoin="round" mask="url(#mask-2)"></path>
                        <g id="Group-122" mask="url(#mask-2)">
                            <g transform="translate(90.720000, 82.080000)">
                                <path d="M0.814896,5.614416 L0.814896,0.156816" id="Fill-120" stroke="none" fill="#00B8F0" fill-rule="evenodd"></path>
                                <path d="M0.814896,5.614416 L0.814896,0.156816" id="Stroke-121" stroke="#45413C" stroke-width="1" fill="none" stroke-linecap="round" stroke-linejoin="round"></path>
                            </g>
                        </g>
                        <g id="Group-125" mask="url(#mask-2)">
                            <g transform="translate(110.880000, 82.080000)">
                                <path d="M0.669312,5.614416 L0.669312,0.156816" id="Fill-123" stroke="none" fill="#00B8F0" fill-rule="evenodd"></path>
                                <path d="M0.669312,5.614416 L0.669312,0.156816" id="Stroke-124" stroke="#45413C" stroke-width="1" fill="none" stroke-linecap="round" stroke-linejoin="round"></path>
                            </g>
                        </g>
                        <path d="M101.541744,76.777776 C99.080784,76.777776 97.118064,74.812176 97.038864,72.371376 C98.713584,71.698896 100.536624,71.318736 102.451824,71.318736 C103.685904,71.318736 104.878224,71.490096 106.023024,71.779536 C106.280784,74.491056 104.199984,76.777776 101.541744,76.777776" id="Fill-126" fill="#FFCEBF" mask="url(#mask-2)"></path>
                        <path d="M101.541744,76.777776 C99.080784,76.777776 97.118064,74.812176 97.038864,72.371376 C98.713584,71.698896 100.536624,71.318736 102.451824,71.318736 C103.685904,71.318736 104.878224,71.490096 106.023024,71.779536 C106.280784,74.491056 104.199984,76.777776 101.541744,76.777776 Z" id="Stroke-127" stroke="#45413C" stroke-linecap="round" stroke-linejoin="round" mask="url(#mask-2)"></path>
                        <path d="M111.549312,87.694416 L111.549312,88.604496 C111.549312,93.602736 107.237952,96.792336 104.271552,96.792336 L102.451392,96.792336 C100.946592,96.792336 99.722592,98.016336 99.722592,99.521136 C99.722592,101.027376 100.946592,102.249936 102.451392,102.249936 L104.271552,102.249936 C110.283552,102.249936 117.006912,96.416496 117.006912,88.604496 L117.006912,87.694416 L111.549312,87.694416 Z" id="Fill-128" fill="#FFCEBF" mask="url(#mask-2)"></path>
                        <path d="M111.549312,87.694416 L111.549312,88.604496 C111.549312,93.602736 107.237952,96.792336 104.271552,96.792336 L102.451392,96.792336 C100.946592,96.792336 99.722592,98.016336 99.722592,99.521136 C99.722592,101.027376 100.946592,102.249936 102.451392,102.249936 L104.271552,102.249936 C110.283552,102.249936 117.006912,96.416496 117.006912,88.604496 L117.006912,87.694416 L111.549312,87.694416 Z" id="Stroke-129" stroke="#45413C" mask="url(#mask-2)"></path>
                    </g>
                    <path d="M140.4999,94.9999 C139.6719,94.9999 138.9999,95.6719 138.9999,96.4999 C138.9999,97.3279 139.6719,97.9999 140.4999,97.9999 C141.3279,97.9999 141.9999,97.3279 141.9999,96.4999 C141.9999,95.6719 141.3279,94.9999 140.4999,94.9999 M4.9999,34.4999 C4.9999,33.6719 4.3279,32.9999 3.4999,32.9999 C2.6719,32.9999 1.9999,33.6719 1.9999,34.4999 C1.9999,35.3279 2.6719,35.9999 3.4999,35.9999 C4.3279,35.9999 4.9999,35.3279 4.9999,34.4999 M137.9999,35.9999 L136.9999,35.9999 L136.9999,34.9999 C136.9999,34.4479 136.5519,33.9999 135.9999,33.9999 C135.4479,33.9999 134.9999,34.4479 134.9999,34.9999 L134.9999,35.9999 L133.9999,35.9999 C133.4479,35.9999 132.9999,36.4479 132.9999,36.9999 C132.9999,37.5519 133.4479,37.9999 133.9999,37.9999 L134.9999,37.9999 L134.9999,38.9999 C134.9999,39.5519 135.4479,39.9999 135.9999,39.9999 C136.5519,39.9999 136.9999,39.5519 136.9999,38.9999 L136.9999,37.9999 L137.9999,37.9999 C138.5519,37.9999 138.9999,37.5519 138.9999,36.9999 C138.9999,36.4479 138.5519,35.9999 137.9999,35.9999 M8.9999,87.9999 L7.9999,87.9999 L7.9999,86.9999 C7.9999,86.4479 7.5519,85.9999 6.9999,85.9999 C6.4479,85.9999 5.9999,86.4479 5.9999,86.9999 L5.9999,87.9999 L4.9999,87.9999 C4.4479,87.9999 3.9999,88.4479 3.9999,88.9999 C3.9999,89.5519 4.4479,89.9999 4.9999,89.9999 L5.9999,89.9999 L5.9999,90.9999 C5.9999,91.5519 6.4479,91.9999 6.9999,91.9999 C7.5519,91.9999 7.9999,91.5519 7.9999,90.9999 L7.9999,89.9999 L8.9999,89.9999 C9.5519,89.9999 9.9999,89.5519 9.9999,88.9999 C9.9999,88.4479 9.5519,87.9999 8.9999,87.9999" id="Decoration" fill="#BFC7D2"></path>
                </g>
            </g>
        </g>
    </g>
</svg>