<?xml version="1.0" encoding="UTF-8"?>
<svg width="16px" height="16px" viewBox="0 0 16 16" version="1.1" xmlns="http://www.w3.org/2000/svg" xmlns:xlink="http://www.w3.org/1999/xlink">
    <!-- Generator: Sketch 49.3 (51167) - http://www.bohemiancoding.com/sketch -->
    <title>outbox</title>
    <desc>Created with Sketch.</desc>
    <defs></defs>
    <g id="Symbols" stroke="none" stroke-width="1" fill="none" fill-rule="evenodd">
        <g id="Icon/Inactive/Todo" fill="#7F8FA4">
            <path d="M7,8 L7,4.99980749 C7,4.44371665 7.44771525,4 8,4 C8.55613518,4 9,4.44762906 9,4.99980749 L9,8 L12,8 L8,12 L4,8 L7,8 Z M11.0000418,14 C11.0000139,13.9968804 11,13.9937574 11,13.9906311 L11,12.0093689 C11,11.4433532 11.4519098,11 12.0093689,11 L13.9906311,11 C13.9937578,11 13.9968808,11.0000138 14,11.0000413 L14,3.00247329 C14,2.44882258 13.544239,2 12.9975267,2 L3.00247329,2 C2.44882258,2 2,2.45576096 2,3.00247329 L2,11.0000418 C2.00311961,11.0000139 2.00624259,11 2.0093689,11 L3.9906311,11 C4.55664682,11 5,11.4519098 5,12.0093689 L5,13.9906311 C5,13.9937578 4.99998621,13.9968808 4.99995869,14 L11.0000418,14 Z M1.99406028,0 L14.0059397,0 C15.1054862,0 16,0.892771196 16,1.99406028 L16,14.0059397 C16,15.1054862 15.1072288,16 14.0059397,16 L1.99406028,16 C0.894513756,16 0,15.1072288 0,14.0059397 L0,1.99406028 C0,0.894513756 0.892771196,0 1.99406028,0 Z" id="outbox"></path>
        </g>
    </g>
</svg>