<?xml version="1.0" encoding="UTF-8"?>
<svg width="16px" height="16px" viewBox="0 0 16 16" version="1.1" xmlns="http://www.w3.org/2000/svg" xmlns:xlink="http://www.w3.org/1999/xlink">
    <!-- Generator: Sketch 49.3 (51167) - http://www.bohemiancoding.com/sketch -->
    <title>adobe-reader-logo</title>
    <desc>Created with Sketch.</desc>
    <defs></defs>
    <g id="Symbols" stroke="none" stroke-width="1" fill="none" fill-rule="evenodd">
        <g id="Button/Icons/PDF" transform="translate(-2.000000, -2.000000)" fill="#FFFFFF" fill-rule="nonzero">
            <g id="adobe-reader-logo" transform="translate(2.000000, 2.000000)">
                <path d="M8.58644211,9.13094737 C7.63688421,8.18155789 6.83402105,7.29717895 6.24522105,6.62181053 L6.24522105,6.62231579 L6.20143158,6.57229474 C5.87250526,7.50922105 5.42383158,8.72202105 5.10467368,9.57524211 C6.13271579,9.32581053 7.34113684,9.19629474 8.64117895,9.18972632 L8.58644211,9.13094737 Z" id="Shape"></path>
                <path d="M2.39848421,12.0776421 C2.36109474,12.1984 2.53187368,12.3819789 2.71410526,12.2398316 C2.72067368,12.2381474 2.92345263,12.0444632 3.49187368,11.0816 C2.79225263,11.5464421 2.46652632,11.8661053 2.39848421,12.0776421 Z" id="Shape"></path>
                <path d="M14.6977684,0 L1.18888421,0 C0.532378947,0 0,0.532210526 0,1.18888421 L0,14.6974316 C0,15.3539368 0.532210526,15.8864842 1.18888421,15.8864842 L14.6976,15.8864842 C15.3537684,15.8864842 15.8863158,15.3542737 15.8863158,14.6974316 L15.8863158,1.18888421 C15.8863158,0.532378947 15.3537684,0 14.6977684,0 Z M14.4330105,11.4937263 L14.4163368,11.5486316 C14.1754947,12.1940211 13.6943158,12.5584842 13.0917053,12.5557895 C12.4195368,12.5530947 12.0330105,12.2152421 12.0330105,12.2152421 C11.3212632,11.6542316 10.5985684,11.0361263 9.87722105,10.3713684 C9.48075789,10.3489684 9.08665263,10.3375158 8.70416842,10.3375158 C7.1008,10.3375158 5.72143158,10.5318737 4.60143158,10.9155368 L4.47124211,11.2592842 C3.79621053,12.9797053 2.864,13.2362105 2.36833684,13.2362105 C2.31275789,13.2362105 2.26273684,13.2328421 2.21928421,13.2282947 C2.11469474,13.2168421 2.04951579,13.1964632 2.03772632,13.1924211 L1.97423158,13.1678316 C1.70189474,13.0339368 1.52757895,12.8274526 1.45128421,12.5625263 C1.29633684,12.0247579 1.62795789,11.4494316 1.69633684,11.3396211 C1.69633684,11.3396211 2.17818947,10.4761263 3.70981053,10.0249263 C4.18290526,8.76867368 4.97263158,6.64909474 5.33911579,5.54778947 C5.04370526,5.18602105 4.89397895,4.98896842 4.89313684,4.98728421 C4.31056842,4.17903158 4.13288421,3.49507368 4.36261053,2.95174737 C4.58037895,2.43738947 5.10147368,2.23174737 5.37515789,2.19082105 C5.44387368,2.18004211 5.51494737,2.17414737 5.58467368,2.17414737 C5.95907368,2.17414737 6.28244211,2.33465263 6.49448421,2.62618947 C6.84968421,3.11410526 6.89802105,3.95233684 6.64353684,5.18888421 C6.63730526,5.21818947 6.62938947,5.25237895 6.61911579,5.29162105 C7.32631579,6.1312 8.68328421,7.67427368 10.3612632,9.25204211 C10.6408421,9.27275789 10.9210947,9.29835789 11.1954526,9.32833684 C12.1362526,9.43090526 12.7612632,9.55435789 12.8296421,9.56816842 C12.8559158,9.57170526 13.7938526,9.70981053 14.2450526,10.3740632 C14.4645053,10.6981053 14.5293474,11.0853053 14.4330105,11.4937263 Z" id="Shape"></path>
                <path d="M13.0634105,11.3118316 C13.1890526,11.3025684 13.2980211,11.0767158 13.0992842,10.9588211 C13.0954105,10.9532632 12.8409263,10.8352 11.7367579,10.6573474 C12.4252632,11.1392 12.8419368,11.3256421 13.0634105,11.3118316 Z" id="Shape"></path>
            </g>
        </g>
    </g>
</svg>