<?xml version="1.0" encoding="UTF-8"?>
<svg width="30px" height="26px" viewBox="0 0 30 26" version="1.1" xmlns="http://www.w3.org/2000/svg" xmlns:xlink="http://www.w3.org/1999/xlink">
    <!-- Generator: Sketch 49.3 (51167) - http://www.bohemiancoding.com/sketch -->
    <title>charity</title>
    <desc>Created with Sketch.</desc>
    <defs></defs>
    <g id="Symbols" stroke="none" stroke-width="1" fill="none" fill-rule="evenodd">
        <g id="Navigation/Menu-Item/Charities/Active" transform="translate(-35.000000, -2.000000)" fill="#FFFFFF" fill-rule="nonzero">
            <g id="charity" transform="translate(35.000000, 2.000000)">
                <path d="M21.4694712,1.21330878 C20.6654567,0.439937677 19.6358654,0.0684985836 18.5983413,0.0684985836 C17.4304327,0.0684985836 16.2517788,0.539150142 15.3726202,1.43743909 L14.9948798,1.82324079 L14.6171394,1.43729178 C13.7379808,0.539371105 12.5593269,0.0684985836 11.3914183,0.0684985836 C10.3536779,0.0684985836 9.32459135,0.439937677 8.52028846,1.21330878 C6.75151442,2.91428329 6.71992788,5.7585949 8.42560096,7.50066856 L14.9949519,14.2101416 L21.5642308,7.50066856 C23.2699038,5.75852125 23.2383173,2.91420963 21.4694712,1.21330878 Z" id="Shape"></path>
                <path d="M12.6923077,25.9948442 L12.6872596,19.3469462 C12.6872596,16.1363513 11.0770673,14.2540397 8.94432692,13.5450425 C8.34908654,13.3610538 7.81579327,12.8776601 7.31978365,12.3708442 C6.41862981,11.4123059 5.45524038,10.1013314 4.20728365,10.1176091 L4.20612981,10.1127479 C3.79903846,10.1181983 3.39201923,10.2684533 3.03908654,10.6289178 C2.21141827,11.4742493 2.54581731,12.765779 3.25961538,13.4948102 L5.57826923,15.8627252 C5.79461538,16.0836884 5.91627404,16.3834618 5.91627404,16.6959773 C5.91627404,17.0085666 5.79461538,17.3082663 5.57826923,17.5293031 L2.44377404,14.3280623 C1.89901442,13.7717507 1.52884615,13.0196657 1.42795673,12.2648555 C1.30233173,11.3245099 1.58459135,10.4476544 2.22288462,9.79573938 C2.7009375,9.30748442 3.28745192,9.03186969 3.9271875,8.96219263 L3.45901442,7.03090085 C3.42353365,-0.136260623 0.000288461538,0.739342776 0.000288461538,2.42536544 L0,15.0076714 C0,15.7891445 0.296394231,16.5256884 0.834951923,17.0814844 C6.56697115,22.9900397 5.76923077,21.0865156 5.76923077,25.9948442 L12.6923077,25.9948442 Z" id="Shape"></path>
                <path d="M29.9895433,2.42543909 C29.9895433,0.739490085 26.5662981,-0.136186969 26.5308173,7.03104816 L26.0626442,8.96233994 C26.7023798,9.032017 27.2888942,9.30755807 27.7669471,9.79588669 C28.4052404,10.4478017 28.6875721,11.3246572 28.561875,12.2650028 C28.4610577,13.019813 28.0908894,13.771898 27.5460577,14.3282096 L24.4115625,17.5294504 C24.1952163,17.3083399 24.0735577,17.0087139 24.0735577,16.6961246 C24.0735577,16.3836827 24.1952163,16.0838357 24.4115625,15.8628725 L26.7302163,13.4949575 C27.4440144,12.7659263 27.7784135,11.4743229 26.9507452,10.6290652 C26.5978125,10.2686006 26.1907212,10.1183456 25.7837019,10.1128952 L25.7825481,10.1177564 C24.5345913,10.1014788 23.5712019,11.4124533 22.6700481,12.3709915 C22.1739663,12.8778074 21.6406731,13.3611275 21.0455048,13.5451898 C18.9127644,14.2541133 17.3025721,16.1364986 17.3025721,19.3470198 L17.297524,25.9949178 L24.220601,25.9949178 C24.220601,21.0867365 23.4228606,22.990187 29.1548798,17.0815581 C29.6935096,16.5256884 29.9898317,15.7891445 29.9898317,15.007745 L29.9895433,2.42543909 Z" id="Shape"></path>
            </g>
        </g>
    </g>
</svg>