<?xml version="1.0" encoding="UTF-8"?>
<svg width="144px" height="144px" viewBox="0 0 144 144" version="1.1" xmlns="http://www.w3.org/2000/svg" xmlns:xlink="http://www.w3.org/1999/xlink">
    <!-- Generator: Sketch 49.3 (51167) - http://www.bohemiancoding.com/sketch -->
    <title>Image</title>
    <desc>Created with Sketch.</desc>
    <defs>
        <path d="M0.72,58.32 C0.72,90.13248 26.50896,115.92 58.32,115.92 C90.13248,115.92 115.92,90.13248 115.92,58.32 C115.92,26.50752 90.13248,0.72 58.32,0.72 C26.50896,0.72 0.72,26.50752 0.72,58.32" id="path-1"></path>
        <polygon id="path-3" points="0 144 144 144 144 0 0 0"></polygon>
    </defs>
    <g id="Volunteer-(Desktop)" stroke="none" stroke-width="1" fill="none" fill-rule="evenodd">
        <g id="Active-Tasks" transform="translate(-170.000000, -495.000000)">
            <g id="Record-2" transform="translate(130.000000, 405.000000)">
                <g id="A" transform="translate(20.000000, 80.000000)">
                    <g id="Image" transform="translate(20.000000, 10.000000)">
                        <g id="Group">
                            <g id="Group-19" transform="translate(11.520000, 15.840000)">
                                <path d="M120.24,58.32 C120.24,90.13248 94.45248,115.92 62.64,115.92 C30.82752,115.92 5.04,90.13248 5.04,58.32 C5.04,26.50752 30.82752,0.72 62.64,0.72 C94.45248,0.72 120.24,26.50752 120.24,58.32" id="Fill-1" fill="#C2EAFC"></path>
                                <path d="M10.153152,82.08 C13.848192,90.2304 19.387872,97.36704 26.237952,102.96 L99.042912,102.96 C105.891552,97.36704 111.431232,90.2304 115.126272,82.08 L10.153152,82.08 Z" id="Fill-3" fill="#CDF7AD"></path>
                                <path d="M62.64,115.92 C76.44816,115.92 89.1216,111.06144 99.04176,102.96 L26.23824,102.96 C36.15984,111.06144 48.83184,115.92 62.64,115.92" id="Fill-5" fill="#ADC4D9"></path>
                                <path d="M6.48,82.08 L118.8,82.08" id="Stroke-7" stroke="#45413C" stroke-linecap="round" stroke-linejoin="round"></path>
                                <path d="M0,82.08 L3.6,82.08" id="Stroke-9" stroke="#45413C" stroke-linecap="round" stroke-linejoin="round"></path>
                                <path d="M121.68,82.08 L125.28,82.08" id="Stroke-11" stroke="#45413C" stroke-linecap="round" stroke-linejoin="round"></path>
                                <path d="M58.545072,108.72 L68.851152,108.72" id="Stroke-13" stroke="#C0DCEB" stroke-linecap="round"></path>
                                <path d="M52.533216,108.72 L55.110816,108.72" id="Stroke-15" stroke="#C0DCEB" stroke-linecap="round"></path>
                                <path d="M48.24,108.72 L49.09968,108.72" id="Stroke-17" stroke="#C0DCEB" stroke-linecap="round"></path>
                            </g>
                            <g id="Group-22" transform="translate(15.840000, 15.840000)">
                                <mask id="mask-2" fill="white">
                                    <use xlink:href="#path-1"></use>
                                </mask>
                                <g id="Clip-21"></g>
                                <path d="M19.296576,102.96 L97.776576,102.96" id="Stroke-20" stroke="#45413C" mask="url(#mask-2)"></path>
                            </g>
                            <g id="Group-152">
                                <path d="M52.163424,40.463424 L64.331424,40.463424 L64.331424,48.779424 L50.723424,48.779424 L50.723424,41.903424 C50.723424,41.108544 51.368544,40.463424 52.163424,40.463424" id="Fill-23" fill="#DEA47A"></path>
                                <path d="M52.163424,40.463424 L64.331424,40.463424 L64.331424,42.915744 L52.163424,42.915744 C51.368544,42.915744 50.723424,43.560864 50.723424,44.355744 L50.723424,41.903424 C50.723424,41.108544 51.368544,40.463424 52.163424,40.463424" id="Fill-25" fill="#F0C2A1"></path>
                                <mask id="mask-4" fill="white">
                                    <use xlink:href="#path-3"></use>
                                </mask>
                                <g id="Clip-28"></g>
                                <polygon id="Fill-27" fill="#BF8256" mask="url(#mask-4)" points="50.724 97.92 64.332 97.92 64.332 52.56 50.724 52.56"></polygon>
                                <polygon id="Fill-29" fill="#DEA47A" mask="url(#mask-4)" points="50.724 97.92 64.332 97.92 64.332 60.156 50.724 60.156"></polygon>
                                <polygon id="Fill-30" fill="#ADC4D9" mask="url(#mask-4)" points="111.96 27.611712 57.528 27.611712 52.236 40.463712 117.252 40.463712"></polygon>
                                <polygon id="Fill-31" fill="#8BA4B8" mask="url(#mask-4)" points="54.725616 34.416576 52.235856 40.463136 117.251856 40.463136 114.760656 34.416576"></polygon>
                                <polygon id="Stroke-32" stroke="#45413C" stroke-linecap="round" stroke-linejoin="round" mask="url(#mask-4)" points="111.96 27.611712 57.528 27.611712 52.236 40.463712 117.252 40.463712"></polygon>
                                <path d="M105.156576,48.78 L64.331136,48.78 L64.331136,40.464 L82.875456,24.6672 C83.952576,23.74992 85.535136,23.74992 86.610816,24.6672 L105.156576,40.464 L105.156576,48.78 Z" id="Fill-33" fill="#DEA47A" mask="url(#mask-4)"></path>
                                <path d="M86.61096,24.667056 C85.53528,23.749776 83.95272,23.749776 82.8756,24.667056 L64.33128,40.463856 L64.33128,43.369776 L82.8756,27.572976 C83.95272,26.655696 85.53528,26.655696 86.61096,27.572976 L105.15672,43.369776 L105.15672,40.463856 L86.61096,24.667056 Z" id="Fill-34" fill="#F0C2A1" mask="url(#mask-4)"></path>
                                <path d="M105.156576,48.78 L64.331136,48.78 L64.331136,40.464 L82.875456,24.6672 C83.952576,23.74992 85.535136,23.74992 86.610816,24.6672 L105.156576,40.464 L105.156576,48.78 Z" id="Stroke-35" stroke="#45413C" stroke-linecap="round" stroke-linejoin="round" mask="url(#mask-4)"></path>
                                <polygon id="Fill-36" fill="#F0C2A1" mask="url(#mask-4)" points="64.33056 97.92 105.156 97.92 105.156 79.776 64.33056 79.776"></polygon>
                                <polygon id="Stroke-37" stroke="#45413C" stroke-linecap="round" stroke-linejoin="round" mask="url(#mask-4)" points="64.33056 97.92 105.156 97.92 105.156 79.776 64.33056 79.776"></polygon>
                                <polygon id="Fill-38" fill="#DEA47A" mask="url(#mask-4)" points="64.332 86.12928 105.15744 86.12928 105.15744 83.556 64.332 83.556"></polygon>
                                <polygon id="Fill-39" fill="#BF8256" mask="url(#mask-4)" points="64.33056 79.776 105.156 79.776 105.156 48.78 64.33056 48.78"></polygon>
                                <polygon id="Fill-40" fill="#BF8256" mask="url(#mask-4)" points="50.724 86.12928 64.332 86.12928 64.332 83.556 50.724 83.556"></polygon>
                                <polygon id="Fill-41" fill="#DEA47A" mask="url(#mask-4)" points="105.156576 79.776576 64.331136 79.776576 64.331136 60.120576 75.671136 60.120576 93.816576 60.120576 105.156576 60.120576"></polygon>
                                <polygon id="Stroke-42" stroke="#45413C" stroke-linecap="round" stroke-linejoin="round" mask="url(#mask-4)" points="64.33056 79.776 105.156 79.776 105.156 48.78 64.33056 48.78"></polygon>
                                <polygon id="Fill-43" fill="#915E3A" mask="url(#mask-4)" points="64.33056 83.556 105.156 83.556 105.156 79.776 64.33056 79.776"></polygon>
                                <polygon id="Stroke-44" stroke="#45413C" stroke-linecap="round" stroke-linejoin="round" mask="url(#mask-4)" points="64.33056 83.556 105.156 83.556 105.156 79.776 64.33056 79.776"></polygon>
                                <path d="M84.743424,32.148288 C79.733664,32.148288 75.671424,36.209088 75.671424,41.220288 L75.671424,48.780288 L93.816864,48.780288 L93.816864,41.220288 C93.816864,36.209088 89.753184,32.148288 84.743424,32.148288" id="Fill-45" fill="#F0C2A1" mask="url(#mask-4)"></path>
                                <path d="M84.743424,32.148288 C79.733664,32.148288 75.671424,36.209088 75.671424,41.220288 L75.671424,45.112608 C75.671424,40.101408 79.733664,36.040608 84.743424,36.040608 C89.753184,36.040608 93.816864,40.101408 93.816864,45.112608 L93.816864,41.220288 C93.816864,36.209088 89.753184,32.148288 84.743424,32.148288" id="Fill-46" fill="#DEA47A" mask="url(#mask-4)"></path>
                                <path d="M84.743424,32.148288 C79.733664,32.148288 75.671424,36.209088 75.671424,41.220288 L75.671424,48.780288 L93.816864,48.780288 L93.816864,41.220288 C93.816864,36.209088 89.753184,32.148288 84.743424,32.148288 Z" id="Stroke-47" stroke="#45413C" stroke-linecap="round" stroke-linejoin="round" mask="url(#mask-4)"></path>
                                <path d="M50.723424,97.92 L64.331424,97.92 L64.331424,40.464 L52.163424,40.464 C51.368544,40.464 50.723424,41.10912 50.723424,41.904 L50.723424,97.92 Z" id="Stroke-48" stroke="#45413C" stroke-linecap="round" stroke-linejoin="round" mask="url(#mask-4)"></path>
                                <polygon id="Fill-49" fill="#915E3A" mask="url(#mask-4)" points="50.724 83.556 64.332 83.556 64.332 79.776 50.724 79.776"></polygon>
                                <polygon id="Stroke-50" stroke="#45413C" stroke-linecap="round" stroke-linejoin="round" mask="url(#mask-4)" points="50.724 83.556 64.332 83.556 64.332 79.776 50.724 79.776"></polygon>
                                <polygon id="Fill-51" fill="#915E3A" mask="url(#mask-4)" points="64.33056 52.56 105.156 52.56 105.156 48.78 64.33056 48.78"></polygon>
                                <polygon id="Stroke-52" stroke="#45413C" stroke-linecap="round" stroke-linejoin="round" mask="url(#mask-4)" points="64.33056 52.56 105.156 52.56 105.156 48.78 64.33056 48.78"></polygon>
                                <polygon id="Fill-53" fill="#915E3A" mask="url(#mask-4)" points="50.724 52.56 64.332 52.56 64.332 48.78 50.724 48.78"></polygon>
                                <polygon id="Stroke-54" stroke="#45413C" stroke-linecap="round" stroke-linejoin="round" mask="url(#mask-4)" points="50.724 52.56 64.332 52.56 64.332 48.78 50.724 48.78"></polygon>
                                <path d="M57.528288,43.488288 C56.693088,43.488288 56.016288,44.165088 56.016288,45.000288 L56.016288,48.780288 L59.040288,48.780288 L59.040288,45.000288 C59.040288,44.165088 58.363488,43.488288 57.528288,43.488288" id="Fill-55" fill="#00B8F0" mask="url(#mask-4)"></path>
                                <path d="M57.528288,43.488288 C56.693088,43.488288 56.016288,44.165088 56.016288,45.000288 L56.016288,48.780288 L59.040288,48.780288 L59.040288,45.000288 C59.040288,44.165088 58.363488,43.488288 57.528288,43.488288 Z" id="Stroke-56" stroke="#45413C" stroke-linecap="round" stroke-linejoin="round" mask="url(#mask-4)"></path>
                                <path d="M69.623424,43.488288 C68.789664,43.488288 68.111424,44.165088 68.111424,45.000288 L68.111424,48.780288 L71.136864,48.780288 L71.136864,45.000288 C71.136864,44.165088 70.458624,43.488288 69.623424,43.488288" id="Fill-57" fill="#00B8F0" mask="url(#mask-4)"></path>
                                <path d="M69.623424,43.488288 C68.789664,43.488288 68.111424,44.165088 68.111424,45.000288 L68.111424,48.780288 L71.136864,48.780288 L71.136864,45.000288 C71.136864,44.165088 70.458624,43.488288 69.623424,43.488288 Z" id="Stroke-58" stroke="#45413C" stroke-linecap="round" stroke-linejoin="round" mask="url(#mask-4)"></path>
                                <path d="M99.863424,43.488288 C99.029664,43.488288 98.351424,44.165088 98.351424,45.000288 L98.351424,48.780288 L101.376864,48.780288 L101.376864,45.000288 C101.376864,44.165088 100.698624,43.488288 99.863424,43.488288" id="Fill-59" fill="#00B8F0" mask="url(#mask-4)"></path>
                                <path d="M99.863424,43.488288 C99.029664,43.488288 98.351424,44.165088 98.351424,45.000288 L98.351424,48.780288 L101.376864,48.780288 L101.376864,45.000288 C101.376864,44.165088 100.698624,43.488288 99.863424,43.488288 Z" id="Stroke-60" stroke="#45413C" stroke-linecap="round" stroke-linejoin="round" mask="url(#mask-4)"></path>
                                <polygon id="Fill-61" fill="#00B8F0" mask="url(#mask-4)" points="56.016 61.632 59.04 61.632 59.04 55.584 56.016 55.584"></polygon>
                                <polygon id="Stroke-62" stroke="#45413C" stroke-linecap="round" stroke-linejoin="round" mask="url(#mask-4)" points="56.016 61.632 59.04 61.632 59.04 55.584 56.016 55.584"></polygon>
                                <polygon id="Fill-63" fill="#00B8F0" mask="url(#mask-4)" points="56.016 70.704 59.04 70.704 59.04 64.65744 56.016 64.65744"></polygon>
                                <polygon id="Stroke-64" stroke="#45413C" stroke-linecap="round" stroke-linejoin="round" mask="url(#mask-4)" points="56.016 70.704 59.04 70.704 59.04 64.65744 56.016 64.65744"></polygon>
                                <polygon id="Fill-65" fill="#00B8F0" mask="url(#mask-4)" points="56.016 79.776 59.04 79.776 59.04 73.728 56.016 73.728"></polygon>
                                <polygon id="Stroke-66" stroke="#45413C" stroke-linecap="round" stroke-linejoin="round" mask="url(#mask-4)" points="56.016 79.776 59.04 79.776 59.04 73.728 56.016 73.728"></polygon>
                                <polygon id="Fill-67" fill="#00B8F0" mask="url(#mask-4)" points="56.016 92.628 59.04 92.628 59.04 86.58 56.016 86.58"></polygon>
                                <polygon id="Stroke-68" stroke="#45413C" stroke-linecap="round" stroke-linejoin="round" mask="url(#mask-4)" points="56.016 92.628 59.04 92.628 59.04 86.58 56.016 86.58"></polygon>
                                <polygon id="Fill-69" fill="#BF8256" mask="url(#mask-4)" points="105.156 97.92 118.76256 97.92 118.76256 52.56 105.156 52.56"></polygon>
                                <path d="M118.763424,41.903424 C118.763424,41.108544 118.119744,40.463424 117.323424,40.463424 L105.156864,40.463424 L105.156864,48.779424 L118.763424,48.779424 L118.763424,41.903424 Z" id="Fill-70" fill="#DEA47A" mask="url(#mask-4)"></path>
                                <path d="M117.323424,40.463424 L105.156864,40.463424 L105.156864,42.915744 L117.323424,42.915744 C118.119744,42.915744 118.763424,43.560864 118.763424,44.355744 L118.763424,41.903424 C118.763424,41.108544 118.119744,40.463424 117.323424,40.463424" id="Fill-71" fill="#F0C2A1" mask="url(#mask-4)"></path>
                                <polygon id="Fill-72" fill="#DEA47A" mask="url(#mask-4)" points="105.156 97.92 118.76256 97.92 118.76256 60.156 105.156 60.156"></polygon>
                                <polygon id="Fill-73" fill="#BF8256" mask="url(#mask-4)" points="105.156 86.12928 118.76256 86.12928 118.76256 83.556 105.156 83.556"></polygon>
                                <path d="M105.156576,97.92 L118.763136,97.92 L118.763136,41.904 C118.763136,41.10912 118.119456,40.464 117.323136,40.464 L105.156576,40.464 L105.156576,97.92 Z" id="Stroke-74" stroke="#45413C" stroke-linecap="round" stroke-linejoin="round" mask="url(#mask-4)"></path>
                                <polygon id="Fill-75" fill="#915E3A" mask="url(#mask-4)" points="105.156 83.556 118.76256 83.556 118.76256 79.776 105.156 79.776"></polygon>
                                <polygon id="Stroke-76" stroke="#45413C" stroke-linecap="round" stroke-linejoin="round" mask="url(#mask-4)" points="105.156 83.556 118.76256 83.556 118.76256 79.776 105.156 79.776"></polygon>
                                <polygon id="Fill-77" fill="#915E3A" mask="url(#mask-4)" points="105.15744 52.56 118.764 52.56 118.764 48.78 105.15744 48.78"></polygon>
                                <polygon id="Stroke-78" stroke="#45413C" stroke-linecap="round" stroke-linejoin="round" mask="url(#mask-4)" points="105.15744 52.56 118.764 52.56 118.764 48.78 105.15744 48.78"></polygon>
                                <path d="M111.96,43.488288 C111.1248,43.488288 110.448,44.165088 110.448,45.000288 L110.448,48.780288 L113.472,48.780288 L113.472,45.000288 C113.472,44.165088 112.7952,43.488288 111.96,43.488288" id="Fill-79" fill="#00B8F0" mask="url(#mask-4)"></path>
                                <path d="M111.96,43.488288 C111.1248,43.488288 110.448,44.165088 110.448,45.000288 L110.448,48.780288 L113.472,48.780288 L113.472,45.000288 C113.472,44.165088 112.7952,43.488288 111.96,43.488288 Z" id="Stroke-80" stroke="#45413C" stroke-linecap="round" stroke-linejoin="round" mask="url(#mask-4)"></path>
                                <polygon id="Fill-81" fill="#00B8F0" mask="url(#mask-4)" points="110.448 61.632 113.472 61.632 113.472 55.584 110.448 55.584"></polygon>
                                <polygon id="Stroke-82" stroke="#45413C" stroke-linecap="round" stroke-linejoin="round" mask="url(#mask-4)" points="110.448 61.632 113.472 61.632 113.472 55.584 110.448 55.584"></polygon>
                                <polygon id="Fill-83" fill="#00B8F0" mask="url(#mask-4)" points="110.448 70.704 113.472 70.704 113.472 64.65744 110.448 64.65744"></polygon>
                                <polygon id="Stroke-84" stroke="#45413C" stroke-linecap="round" stroke-linejoin="round" mask="url(#mask-4)" points="110.448 70.704 113.472 70.704 113.472 64.65744 110.448 64.65744"></polygon>
                                <polygon id="Fill-85" fill="#00B8F0" mask="url(#mask-4)" points="110.448 79.776 113.472 79.776 113.472 73.728 110.448 73.728"></polygon>
                                <polygon id="Stroke-86" stroke="#45413C" stroke-linecap="round" stroke-linejoin="round" mask="url(#mask-4)" points="110.448 79.776 113.472 79.776 113.472 73.728 110.448 73.728"></polygon>
                                <polygon id="Fill-87" fill="#00B8F0" mask="url(#mask-4)" points="110.448 92.628 113.472 92.628 113.472 86.58 110.448 86.58"></polygon>
                                <polygon id="Stroke-88" stroke="#45413C" stroke-linecap="round" stroke-linejoin="round" mask="url(#mask-4)" points="110.448 92.628 113.472 92.628 113.472 86.58 110.448 86.58"></polygon>
                                <polygon id="Fill-89" fill="#00B8F0" mask="url(#mask-4)" points="68.11056 61.632 71.136 61.632 71.136 55.584 68.11056 55.584"></polygon>
                                <polygon id="Stroke-90" stroke="#45413C" stroke-linecap="round" stroke-linejoin="round" mask="url(#mask-4)" points="68.11056 61.632 71.136 61.632 71.136 55.584 68.11056 55.584"></polygon>
                                <polygon id="Fill-91" fill="#00B8F0" mask="url(#mask-4)" points="68.11056 70.704 71.136 70.704 71.136 64.65744 68.11056 64.65744"></polygon>
                                <polygon id="Stroke-92" stroke="#45413C" stroke-linecap="round" stroke-linejoin="round" mask="url(#mask-4)" points="68.11056 70.704 71.136 70.704 71.136 64.65744 68.11056 64.65744"></polygon>
                                <polygon id="Fill-93" fill="#00B8F0" mask="url(#mask-4)" points="68.11056 79.776 71.136 79.776 71.136 73.728 68.11056 73.728"></polygon>
                                <polygon id="Stroke-94" stroke="#45413C" stroke-linecap="round" stroke-linejoin="round" mask="url(#mask-4)" points="68.11056 79.776 71.136 79.776 71.136 73.728 68.11056 73.728"></polygon>
                                <polygon id="Fill-95" fill="#00B8F0" mask="url(#mask-4)" points="98.35056 61.632 101.376 61.632 101.376 55.584 98.35056 55.584"></polygon>
                                <polygon id="Stroke-96" stroke="#45413C" stroke-linecap="round" stroke-linejoin="round" mask="url(#mask-4)" points="98.35056 61.632 101.376 61.632 101.376 55.584 98.35056 55.584"></polygon>
                                <polygon id="Fill-97" fill="#00B8F0" mask="url(#mask-4)" points="98.35056 70.704 101.376 70.704 101.376 64.65744 98.35056 64.65744"></polygon>
                                <polygon id="Stroke-98" stroke="#45413C" stroke-linecap="round" stroke-linejoin="round" mask="url(#mask-4)" points="98.35056 70.704 101.376 70.704 101.376 64.65744 98.35056 64.65744"></polygon>
                                <polygon id="Fill-99" fill="#00B8F0" mask="url(#mask-4)" points="87.01056 63.144 90.036 63.144 90.036 57.09744 87.01056 57.09744"></polygon>
                                <polygon id="Stroke-100" stroke="#45413C" stroke-linecap="round" stroke-linejoin="round" mask="url(#mask-4)" points="87.01056 63.144 90.036 63.144 90.036 57.09744 87.01056 57.09744"></polygon>
                                <polygon id="Fill-101" fill="#00B8F0" mask="url(#mask-4)" points="87.01056 72.216 90.036 72.216 90.036 66.168 87.01056 66.168"></polygon>
                                <polygon id="Stroke-102" stroke="#45413C" stroke-linecap="round" stroke-linejoin="round" mask="url(#mask-4)" points="87.01056 72.216 90.036 72.216 90.036 66.168 87.01056 66.168"></polygon>
                                <polygon id="Fill-103" fill="#00B8F0" mask="url(#mask-4)" points="79.45056 63.144 82.476 63.144 82.476 57.09744 79.45056 57.09744"></polygon>
                                <polygon id="Stroke-104" stroke="#45413C" stroke-linecap="round" stroke-linejoin="round" mask="url(#mask-4)" points="79.45056 63.144 82.476 63.144 82.476 57.09744 79.45056 57.09744"></polygon>
                                <polygon id="Fill-105" fill="#00B8F0" mask="url(#mask-4)" points="79.45056 72.216 82.476 72.216 82.476 66.168 79.45056 66.168"></polygon>
                                <polygon id="Stroke-106" stroke="#45413C" stroke-linecap="round" stroke-linejoin="round" mask="url(#mask-4)" points="79.45056 72.216 82.476 72.216 82.476 66.168 79.45056 66.168"></polygon>
                                <polygon id="Fill-107" fill="#00B8F0" mask="url(#mask-4)" points="98.35056 79.776 101.376 79.776 101.376 73.728 98.35056 73.728"></polygon>
                                <polygon id="Stroke-108" stroke="#45413C" stroke-linecap="round" stroke-linejoin="round" mask="url(#mask-4)" points="98.35056 79.776 101.376 79.776 101.376 73.728 98.35056 73.728"></polygon>
                                <polygon id="Fill-109" fill="#BF8256" mask="url(#mask-4)" points="57.528 27.61056 62.82 27.61056 62.82 23.076 57.528 23.076"></polygon>
                                <polygon id="Stroke-110" stroke="#45413C" stroke-linecap="round" stroke-linejoin="round" mask="url(#mask-4)" points="57.528 27.61056 62.82 27.61056 62.82 23.076 57.528 23.076"></polygon>
                                <path d="M62.82,23.076576 L57.528,23.076576 L56.99952,22.310496 C56.69568,21.869856 56.66112,21.296736 56.91024,20.822976 C57.15792,20.347776 57.64896,20.051136 58.1832,20.051136 L62.136,20.051136 C62.66592,20.051136 63.1512,20.342016 63.40176,20.807136 C63.65376,21.272256 63.62928,21.838176 63.33984,22.280256 L62.82,23.076576 Z" id="Fill-111" fill="#DEA47A" mask="url(#mask-4)"></path>
                                <path d="M62.82,23.076576 L57.528,23.076576 L56.99952,22.310496 C56.69568,21.869856 56.66112,21.296736 56.91024,20.822976 C57.15792,20.347776 57.64896,20.051136 58.1832,20.051136 L62.136,20.051136 C62.66592,20.051136 63.1512,20.342016 63.40176,20.807136 C63.65376,21.272256 63.62928,21.838176 63.33984,22.280256 L62.82,23.076576 Z" id="Stroke-112" stroke="#45413C" stroke-linecap="round" stroke-linejoin="round" mask="url(#mask-4)"></path>
                                <polygon id="Fill-113" fill="#BF8256" mask="url(#mask-4)" points="106.668 27.61056 111.96 27.61056 111.96 23.076 106.668 23.076"></polygon>
                                <polygon id="Stroke-114" stroke="#45413C" stroke-linecap="round" stroke-linejoin="round" mask="url(#mask-4)" points="106.668 27.61056 111.96 27.61056 111.96 23.076 106.668 23.076"></polygon>
                                <path d="M111.96,23.076576 L106.668,23.076576 L106.128,22.356576 C105.80112,21.918816 105.74928,21.335616 105.9912,20.847456 C106.236,20.359296 106.73424,20.051136 107.28,20.051136 L111.22704,20.051136 C111.74544,20.051136 112.22352,20.330496 112.4784,20.779776 C112.73472,21.230496 112.72896,21.783456 112.46544,22.228416 L111.96,23.076576 Z" id="Fill-115" fill="#DEA47A" mask="url(#mask-4)"></path>
                                <path d="M111.96,23.076576 L106.668,23.076576 L106.128,22.356576 C105.80112,21.918816 105.74928,21.335616 105.9912,20.847456 C106.236,20.359296 106.73424,20.051136 107.28,20.051136 L111.22704,20.051136 C111.74544,20.051136 112.22352,20.330496 112.4784,20.779776 C112.73472,21.230496 112.72896,21.783456 112.46544,22.228416 L111.96,23.076576 Z" id="Stroke-116" stroke="#45413C" stroke-linecap="round" stroke-linejoin="round" mask="url(#mask-4)"></path>
                                <path d="M75.671712,52.56 L75.671712,72.216" id="Stroke-117" stroke="#45413C" stroke-linecap="round" stroke-linejoin="round" mask="url(#mask-4)"></path>
                                <path d="M93.816576,52.56 L93.816576,72.216" id="Stroke-118" stroke="#45413C" stroke-linecap="round" stroke-linejoin="round" mask="url(#mask-4)"></path>
                                <polygon id="Fill-119" fill="#915E3A" mask="url(#mask-4)" points="76.428 97.92 93.06 97.92 93.06 79.776 76.428 79.776"></polygon>
                                <polygon id="Stroke-120" stroke="#45413C" stroke-linecap="round" stroke-linejoin="round" mask="url(#mask-4)" points="76.428 97.92 93.06 97.92 93.06 79.776 76.428 79.776"></polygon>
                                <polygon id="Fill-121" fill="#DEA47A" mask="url(#mask-4)" points="76.428 97.92 79.452 97.92 79.452 83.556 76.428 83.556"></polygon>
                                <polygon id="Fill-122" fill="#BF8256" mask="url(#mask-4)" points="76.428 86.12928 79.452 86.12928 79.452 83.556 76.428 83.556"></polygon>
                                <polygon id="Stroke-123" stroke="#45413C" stroke-linecap="round" stroke-linejoin="round" mask="url(#mask-4)" points="76.428 97.92 79.452 97.92 79.452 83.556 76.428 83.556"></polygon>
                                <polygon id="Fill-124" fill="#DEA47A" mask="url(#mask-4)" points="90.036 97.92 93.06 97.92 93.06 83.556 90.036 83.556"></polygon>
                                <polygon id="Fill-125" fill="#BF8256" mask="url(#mask-4)" points="90.036 86.12928 93.06 86.12928 93.06 83.556 90.036 83.556"></polygon>
                                <polygon id="Stroke-126" stroke="#45413C" stroke-linecap="round" stroke-linejoin="round" mask="url(#mask-4)" points="90.036 97.92 93.06 97.92 93.06 83.556 90.036 83.556"></polygon>
                                <polygon id="Fill-127" fill="#00B8F0" mask="url(#mask-4)" points="79.45056 97.92 90.036 97.92 90.036 83.556 79.45056 83.556"></polygon>
                                <polygon id="Fill-128" fill="#4ACFFF" mask="url(#mask-4)" points="88.523424 83.556576 79.451424 83.556576 79.451424 97.920576 82.648224 97.920576"></polygon>
                                <polygon id="Stroke-129" stroke="#45413C" stroke-linecap="round" stroke-linejoin="round" mask="url(#mask-4)" points="84.74256 97.92 90.036 97.92 90.036 83.556 84.74256 83.556"></polygon>
                                <path d="M64.331712,79.776576 L49.283712,79.776576" id="Stroke-130" stroke="#45413C" stroke-linecap="round" stroke-linejoin="round" mask="url(#mask-4)"></path>
                                <path d="M64.331712,48.78 L49.283712,48.78" id="Stroke-131" stroke="#45413C" stroke-linecap="round" stroke-linejoin="round" mask="url(#mask-4)"></path>
                                <path d="M120.203424,79.776576 L105.156864,79.776576" id="Stroke-132" stroke="#45413C" stroke-linecap="round" stroke-linejoin="round" mask="url(#mask-4)"></path>
                                <path d="M120.203424,48.78 L105.156864,48.78" id="Stroke-133" stroke="#45413C" stroke-linecap="round" stroke-linejoin="round" mask="url(#mask-4)"></path>
                                <polygon id="Stroke-134" stroke="#45413C" stroke-linecap="round" stroke-linejoin="round" mask="url(#mask-4)" points="79.452 97.92 84.744 97.92 84.744 83.556 79.452 83.556"></polygon>
                                <path d="M74.88,114.8976 C74.88,116.28 66.66048,117.40032 56.52,117.40032 C46.37952,117.40032 38.16,116.28 38.16,114.8976 C38.16,113.5152 46.37952,112.39344 56.52,112.39344 C66.66048,112.39344 74.88,113.5152 74.88,114.8976" id="Fill-135" fill="#020202" opacity="0.15" mask="url(#mask-4)"></path>
                                <path d="M73.210752,113.228496 L69.135552,113.228496 L69.135552,87.376176 C70.104672,85.715856 72.241632,85.715856 73.210752,87.376176 L73.210752,113.228496 Z" id="Fill-136" fill="#FFFFFF" mask="url(#mask-4)"></path>
                                <path d="M73.210752,113.228496 L69.135552,113.228496 L69.135552,87.376176 C70.104672,85.715856 72.241632,85.715856 73.210752,87.376176 L73.210752,113.228496 Z" id="Stroke-137" stroke="#45413C" stroke-linecap="round" stroke-linejoin="round" mask="url(#mask-4)"></path>
                                <polygon id="Fill-138" fill="#00B8F0" mask="url(#mask-4)" points="44.67888 113.22864 69.13584 113.22864 69.13584 89.0208 44.67888 89.0208"></polygon>
                                <polygon id="Fill-139" fill="#4ACFFF" mask="url(#mask-4)" points="44.67744 93.6 69.1344 93.6 69.1344 89.0208 44.67744 89.0208"></polygon>
                                <polygon id="Stroke-140" stroke="#45413C" stroke-linecap="round" stroke-linejoin="round" mask="url(#mask-4)" points="44.67888 113.22864 69.13584 113.22864 69.13584 89.0208 44.67888 89.0208"></polygon>
                                <path d="M69.66,87.3 L72.68688,87.3 C73.63728,86.7672 74.28672,85.76208 74.28672,84.59424 C74.28672,82.87488 72.8928,81.47952 71.17344,81.47952 C69.45264,81.47952 68.06016,82.87488 68.06016,84.59424 C68.06016,85.76208 68.7096,86.7672 69.66,87.3" id="Fill-141" fill="#FFFFFF" mask="url(#mask-4)"></path>
                                <path d="M69.66,87.3 L72.68688,87.3 C73.63728,86.7672 74.28672,85.76208 74.28672,84.59424 C74.28672,82.87488 72.8928,81.47952 71.17344,81.47952 C69.45264,81.47952 68.06016,82.87488 68.06016,84.59424 C68.06016,85.76208 68.7096,86.7672 69.66,87.3 Z" id="Stroke-142" stroke="#45413C" stroke-linecap="round" stroke-linejoin="round" mask="url(#mask-4)"></path>
                                <path d="M44.710272,113.228496 L40.635072,113.228496 L40.635072,87.376176 C41.604192,85.715856 43.741152,85.715856 44.710272,87.376176 L44.710272,113.228496 Z" id="Fill-143" fill="#FFFFFF" mask="url(#mask-4)"></path>
                                <path d="M44.710272,113.228496 L40.635072,113.228496 L40.635072,87.376176 C41.604192,85.715856 43.741152,85.715856 44.710272,87.376176 L44.710272,113.228496 Z" id="Stroke-144" stroke="#45413C" stroke-linecap="round" stroke-linejoin="round" mask="url(#mask-4)"></path>
                                <path d="M41.16096,87.3 L44.1864,87.3 C45.1368,86.7672 45.78624,85.76208 45.78624,84.59424 C45.78624,82.87488 44.39232,81.47952 42.67296,81.47952 C40.95216,81.47952 39.55968,82.87488 39.55968,84.59424 C39.55968,85.76208 40.20912,86.7672 41.16096,87.3" id="Fill-145" fill="#FFFFFF" mask="url(#mask-4)"></path>
                                <path d="M41.16096,87.3 L44.1864,87.3 C45.1368,86.7672 45.78624,85.76208 45.78624,84.59424 C45.78624,82.87488 44.39232,81.47952 42.67296,81.47952 C40.95216,81.47952 39.55968,82.87488 39.55968,84.59424 C39.55968,85.76208 40.20912,86.7672 41.16096,87.3 Z" id="Stroke-146" stroke="#45413C" stroke-linecap="round" stroke-linejoin="round" mask="url(#mask-4)"></path>
                                <path d="M56.836368,92.733696 C56.649168,92.592576 56.389968,92.592576 56.204208,92.733696 C54.559728,93.969216 52.571088,94.836096 50.393808,95.142816 C50.134608,95.178816 49.941648,95.402016 49.941648,95.664096 L49.941648,100.264896 C49.941648,104.528736 52.549488,108.216576 56.320848,109.760256 C56.447568,109.812096 56.591568,109.812096 56.719728,109.760256 C60.488208,108.216576 63.098928,104.530176 63.098928,100.264896 L63.098928,95.662656 C63.098928,95.400576 62.905968,95.178816 62.645328,95.142816 C60.469488,94.836096 58.482288,93.969216 56.836368,92.733696" id="Fill-147" fill="#FF6242" mask="url(#mask-4)"></path>
                                <path d="M56.836368,92.733696 C56.649168,92.592576 56.389968,92.592576 56.204208,92.733696 C54.559728,93.969216 52.571088,94.836096 50.393808,95.142816 C50.134608,95.178816 49.941648,95.402016 49.941648,95.664096 L49.941648,100.264896 C49.941648,104.528736 52.549488,108.216576 56.320848,109.760256 C56.447568,109.812096 56.591568,109.812096 56.719728,109.760256 C60.488208,108.216576 63.098928,104.530176 63.098928,100.264896 L63.098928,95.662656 C63.098928,95.400576 62.905968,95.178816 62.645328,95.142816 C60.469488,94.836096 58.482288,93.969216 56.836368,92.733696 Z" id="Stroke-148" stroke="#45413C" mask="url(#mask-4)"></path>
                                <path d="M57.099312,92.90808 L49.941072,100.06632 L49.941072,100.26504 C49.941072,101.48472 50.174352,102.64824 50.568912,103.73688 L59.894352,94.41 C58.889232,94.0212 57.953232,93.51576 57.099312,92.90808" id="Fill-149" fill="#FFE600" mask="url(#mask-4)"></path>
                                <path d="M63.098496,95.677056 L52.170336,106.605216 C52.803936,107.402976 53.546976,108.101376 54.389376,108.683136 L63.098496,99.974016 L63.098496,95.677056 Z" id="Fill-150" fill="#FFE600" mask="url(#mask-4)"></path>
                                <path d="M56.836368,92.733696 C56.649168,92.592576 56.389968,92.592576 56.204208,92.733696 C54.559728,93.969216 52.571088,94.836096 50.393808,95.142816 C50.134608,95.178816 49.941648,95.402016 49.941648,95.664096 L49.941648,100.264896 C49.941648,104.528736 52.549488,108.216576 56.320848,109.760256 C56.447568,109.812096 56.591568,109.812096 56.719728,109.760256 C60.488208,108.216576 63.098928,104.530176 63.098928,100.264896 L63.098928,95.662656 C63.098928,95.400576 62.905968,95.178816 62.645328,95.142816 C60.469488,94.836096 58.482288,93.969216 56.836368,92.733696 Z" id="Stroke-151" stroke="#45413C" mask="url(#mask-4)"></path>
                            </g>
                        </g>
                        <path d="M141.5,92 C140.672,92 140,92.672 140,93.5 C140,94.328 140.672,95 141.5,95 C142.328,95 143,94.328 143,93.5 C143,92.672 142.328,92 141.5,92 M134,34 L133,34 L133,33 C133,32.448 132.552,32 132,32 C131.448,32 131,32.448 131,33 L131,34 L130,34 C129.448,34 129,34.448 129,35 C129,35.552 129.448,36 130,36 L131,36 L131,37 C131,37.552 131.448,38 132,38 C132.552,38 133,37.552 133,37 L133,36 L134,36 C134.552,36 135,35.552 135,35 C135,34.448 134.552,34 134,34 M5,86 L4,86 L4,85 C4,84.448 3.552,84 3,84 C2.448,84 2,84.448 2,85 L2,86 L1,86 C0.448,86 0,86.448 0,87 C0,87.552 0.448,88 1,88 L2,88 L2,89 C2,89.552 2.448,90 3,90 C3.552,90 4,89.552 4,89 L4,88 L5,88 C5.552,88 6,87.552 6,87 C6,86.448 5.552,86 5,86" id="Decoration" fill="#BFC7D2"></path>
                        <rect id="Ruler" fill="#F5F8FA" opacity="0.6" style="mix-blend-mode: color;" x="0" y="0" width="144" height="144"></rect>
                    </g>
                </g>
            </g>
        </g>
    </g>
</svg>