<?xml version="1.0" encoding="UTF-8"?>
<svg width="21px" height="32px" viewBox="0 0 21 32" version="1.1" xmlns="http://www.w3.org/2000/svg" xmlns:xlink="http://www.w3.org/1999/xlink">
    <!-- Generator: Sketch 49.3 (51167) - http://www.bohemiancoding.com/sketch -->
    <title>Arrow</title>
    <desc>Created with Sketch.</desc>
    <defs></defs>
    <g id="Volunteer-(Desktop)" stroke="none" stroke-width="1" fill="none" fill-rule="evenodd">
        <g id="Active-Tasks" transform="translate(-760.000000, -551.000000)" fill="#C5D0DE" fill-rule="nonzero">
            <g id="Record-2" transform="translate(130.000000, 405.000000)">
                <g id="Arrow" transform="translate(630.000000, 146.000000)">
                    <path d="M17.169625,12.5714375 C15.2759375,12.5714375 13.7410625,14.1063125 13.7410625,16 C13.7410625,17.8936875 15.2759375,19.4285625 17.169625,19.4285625 C19.0633125,19.4285625 20.5981875,17.8936875 20.5981875,16 C20.5981875,14.1063125 19.063375,12.5714375 17.169625,12.5714375" id="Shape"></path>
                    <path d="M10.3125,13.142875 C12.2061875,13.142875 13.7410625,11.608 13.7410625,9.7143125 C13.7410625,7.820625 12.2061875,6.2856875 10.3125,6.2856875 C8.4188125,6.2856875 6.8839375,7.8205625 6.8839375,9.71425 C6.8839375,11.6079375 8.4188125,13.142875 10.3125,13.142875" id="Shape"></path>
                    <path d="M3.455375,6.857125 C5.3490625,6.857125 6.8839375,5.32225 6.8839375,3.4285625 C6.8839375,1.534875 5.3490625,0 3.455375,0 C1.5616875,0 0.0268125,1.534875 0.0268125,3.4285625 C0.0268125,5.32225 1.561625,6.857125 3.455375,6.857125" id="Shape"></path>
                    <path d="M10.3125,18.857125 C8.4188125,18.857125 6.8839375,20.392 6.8839375,22.2856875 C6.8839375,24.179375 8.4188125,25.71425 10.3125,25.71425 C12.2061875,25.71425 13.7410625,24.179375 13.7410625,22.2856875 C13.7410625,20.392 12.2061875,18.857125 10.3125,18.857125" id="Shape"></path>
                    <path d="M3.455375,25.142875 C1.5616875,25.142875 0.0268125,26.67775 0.0268125,28.5714375 C0.0268125,30.465125 1.5616875,32 3.455375,32 C5.3490625,32 6.8839375,30.465125 6.8839375,28.5714375 C6.8839375,26.6776875 5.3490625,25.142875 3.455375,25.142875" id="Shape"></path>
                </g>
            </g>
        </g>
    </g>
</svg>