<?xml version="1.0" encoding="UTF-8"?>
<svg width="15px" height="15px" viewBox="0 0 15 15" version="1.1" xmlns="http://www.w3.org/2000/svg" xmlns:xlink="http://www.w3.org/1999/xlink">
    <!-- Generator: Sketch 49.3 (51167) - http://www.bohemiancoding.com/sketch -->
    <title>Tag</title>
    <desc>Created with Sketch.</desc>
    <defs></defs>
    <g id="Symbols" stroke="none" stroke-width="1" fill="none" fill-rule="evenodd">
        <g id="Icon/Static/Bulk-Tag">
            <g id="Tag">
                <rect id="Base" fill="#FDBC0E" x="0" y="0" width="15" height="15" rx="4"></rect>
                <path d="M8.8600001,12.1679999 L3.4000001,12.1679999 L3.4000001,2.82999992 L8.6920001,2.82999992 C10.5400001,2.82999992 11.4220001,4.03399992 11.4220001,5.20999992 C11.4220001,6.37199992 10.7080001,7.15599992 9.8260001,7.35199992 C10.8200001,7.50599992 11.6040001,8.45799992 11.6040001,9.63399992 C11.6040001,10.9919999 10.6940001,12.1679999 8.8600001,12.1679999 Z M8.1460001,6.41399992 C8.6360001,6.41399992 8.9720001,6.09199992 8.9720001,5.62999992 C8.9720001,5.18199992 8.6360001,4.85999992 8.1460001,4.85999992 L5.8080001,4.85999992 L5.8080001,6.41399992 L8.1460001,6.41399992 Z M8.2300001,10.1379999 C8.8040001,10.1379999 9.1540001,9.80199992 9.1540001,9.29799992 C9.1540001,8.83599992 8.8180001,8.45799992 8.2300001,8.45799992 L5.8080001,8.45799992 L5.8080001,10.1379999 L8.2300001,10.1379999 Z" id="B" fill="#FFFFFF"></path>
            </g>
        </g>
    </g>
</svg>