<?xml version="1.0"?>
<svg xmlns="http://www.w3.org/2000/svg" height="512px" viewBox="0 0 464 464" width="512px" class=""><g><path d="m368 231.992188c19.3125 0 35.472656 13.769531 39.191406 32h-21.304687c-10.460938 0-20.941407-2.480469-30.3125-7.160157l-5.160157-2.574219-4.078124 4.078126c-3.648438 3.648437-8.496094 5.65625-13.65625 5.65625h-3.878907c3.726563-18.230469 19.886719-32 39.199219-32zm-40 64v-16h4.6875c7.496094 0 14.625-2.320313 20.585938-6.609376 10.285156 4.335938 21.460937 6.609376 32.613281 6.609376h22.113281v16c0 14.199218-7.664062 27.464843-20.007812 34.601562l-3.992188 2.316406v22.808594l-16 10.664062-16-10.664062v-22.808594l-3.992188-2.308594c-12.34375-7.144531-20.007812-20.402343-20.007812-34.609374zm-96-64c19.3125 0 35.472656 13.769531 39.191406 32h-21.304687c-10.460938 0-20.941407-2.480469-30.3125-7.160157l-5.160157-2.574219-4.078124 4.078126c-3.648438 3.648437-8.496094 5.65625-13.65625 5.65625h-3.878907c3.726563-18.230469 19.886719-32 39.199219-32zm-40 64v-16h4.6875c7.496094 0 14.625-2.320313 20.585938-6.609376 10.285156 4.335938 21.460937 6.609376 32.613281 6.609376h22.113281v16c0 14.199218-7.664062 27.464843-20.007812 34.601562l-3.992188 2.316406v22.808594l-16 10.664062-16-10.664062v-22.808594l-3.992188-2.308594c-12.34375-7.144531-20.007812-20.402343-20.007812-34.609374zm-96-64c19.3125 0 35.472656 13.769531 39.191406 32h-3.878906c-5.160156 0-10.007812-2.007813-13.65625-5.65625l-4.082031-4.078126-5.160157 2.574219c-9.367187 4.679688-19.847656 7.160157-30.308593 7.160157h-21.304688c3.726563-18.230469 19.886719-32 39.199219-32zm-40 64v-16h22.113281c11.160157 0 22.328125-2.273438 32.613281-6.609376 5.960938 4.289063 13.097657 6.609376 20.585938 6.609376h4.6875v16c0 14.199218-7.664062 27.464843-20.007812 34.601562l-3.992188 2.316406v22.808594l-16 10.664062-16-10.664062v-22.808594l-3.992188-2.308594c-12.34375-7.144531-20.007812-20.402343-20.007812-34.609374zm64 111.816406v56.183594h-120v-56.183594c0-10.6875 6.871094-19.921875 17.105469-22.992188l53.589843-16.074218 25.304688 16.867187 25.304688-16.875 17.488281 5.25c-11.503907 7.167969-18.792969 19.6875-18.792969 33.824219zm208 56.183594h-192v-56.183594c0-10.6875 6.871094-19.921875 17.105469-22.992188l53.589843-16.074218 25.304688 16.867187 25.304688-16.875 53.589843 16.074219c10.234375 3.078125 17.105469 12.3125 17.105469 23zm136 0h-120v-56.183594c0-14.136719-7.289062-26.65625-18.792969-33.816406l17.488281-5.25 25.304688 16.867187 25.304688-16.875 53.589843 16.074219c10.234375 3.078125 17.105469 12.3125 17.105469 23zm0 0" data-original="#000000" class="active-path" data-old_color="#TEAM (" fill="#9C9C9C"/><path d="m72 159.992188c7.6875 0 14.824219 3.824218 19.097656 10.214843l4.902344 7.367188 4.902344-7.359375c4.273437-6.398438 11.410156-10.214844 19.097656-10.214844h88c7.6875 0 14.824219 3.824219 19.097656 10.214844l4.902344 7.359375 4.902344-7.359375c4.273437-6.398438 11.410156-10.214844 19.097656-10.214844h88c7.6875 0 14.824219 3.824219 19.097656 10.214844l4.902344 7.359375 4.902344-7.359375c4.273437-6.398438 11.410156-10.214844 19.097656-10.214844 26.472656 0 48-21.527344 48-48s-21.527344-48-48-48h-88v5.769531l-10.359375 3.453125c-1.375 4.953125-3.34375 9.699219-5.878906 14.175782l4.886719 9.777343-19.472657 19.480469-9.777343-4.886719c-4.488282 2.535157-9.230469 4.503907-14.183594 5.878907l-3.453125 10.359374h-27.53125l-3.453125-10.359374c-4.953125-1.375-9.707032-3.34375-14.183594-5.878907l-9.777344 4.886719-19.472656-19.480469 4.886719-9.777343c-2.535157-4.488282-4.503907-9.222657-5.878907-14.175782l-10.351562-3.460937v-5.769531h-88c-26.472656 0-48 21.527343-48 48 0 26.472656 21.527344 48 48 48zm320-56h16v16h-16zm-32 0h16v16h-16zm-32 0h16v16h-16zm-208 0h16v16h-16zm-32 0h16v16h-16zm-32 0h16v16h-16zm0 0" data-original="#000000" class="active-path" data-old_color="#TEAM (" fill="#9C9C9C"/><path d="m248 55.992188c0 8.835937-7.164062 16-16 16s-16-7.164063-16-16c0-8.835938 7.164062-16 16-16s16 7.164062 16 16zm0 0" data-original="#000000" class="active-path" data-old_color="#TEAM (" fill="#9C9C9C"/><path d="m184.945312 65.457031c1.222657 6.136719 3.613282 11.886719 7.09375 17.109375l2.578126 3.867188-3.800782 7.574218 3.160156 3.167969 7.589844-3.800781 3.859375 2.578125c5.214844 3.480469 10.972657 5.863281 17.109375 7.09375l4.554688.90625 2.671875 8.039063h4.46875l2.671875-8.039063 4.554687-.90625c6.136719-1.222656 11.886719-3.613281 17.109375-7.09375l3.859375-2.578125 7.589844 3.800781 3.160156-3.167969-3.800781-7.574218 2.578125-3.867188c3.480469-5.214844 5.863281-10.972656 7.09375-17.109375l.90625-4.554687 8.046875-2.671875v-4.46875l-8.039062-2.671875-.90625-4.554688c-1.222657-6.136718-3.613282-11.886718-7.09375-17.109375l-2.578126-3.859375 3.800782-7.589844-3.160156-3.160156-7.589844 3.800782-3.859375-2.578126c-5.214844-3.480468-10.972657-5.863281-17.109375-7.09375l-4.554688-.90625-2.671875-8.039062h-4.46875l-2.671875 8.039062-4.554687.90625c-6.136719 1.222657-11.886719 3.613282-17.109375 7.09375l-3.859375 2.578126-7.597657-3.800782-3.160156 3.160156 3.800782 7.589844-2.578126 3.859375c-3.480468 5.214844-5.863281 10.972657-7.09375 17.109375l-.90625 4.554688-8.039062 2.671875v4.46875l8.039062 2.671875zm47.054688-41.464843c17.648438 0 32 14.351562 32 32 0 17.648437-14.351562 32-32 32s-32-14.351563-32-32c0-17.648438 14.351562-32 32-32zm0 0" data-original="#000000" class="active-path" data-old_color="#TEAM (" fill="#9C9C9C"/></g> </svg>
