<?xml version="1.0" encoding="UTF-8"?>
<svg width="16px" height="16px" viewBox="0 0 16 16" version="1.1" xmlns="http://www.w3.org/2000/svg" xmlns:xlink="http://www.w3.org/1999/xlink">
    <!-- Generator: Sketch 49.3 (51167) - http://www.bohemiancoding.com/sketch -->
    <title>Shape</title>
    <desc>Created with Sketch.</desc>
    <defs></defs>
    <g id="Super-Administrator" stroke="none" stroke-width="1" fill="none" fill-rule="evenodd">
        <g id="Deliveries-(Map-View-&gt;-Pending-&gt;-Assigned-Volunteer)" transform="translate(-380.000000, -613.000000)" fill="#FFFFFF" fill-rule="nonzero">
            <g id="Map" transform="translate(130.000000, 178.000000)">
                <g id="Side-Panel" transform="translate(15.000000, 15.000000)">
                    <g id="Group-5-Copy-2" transform="translate(15.000000, 360.000000)">
                        <path d="M234.876094,69.8824996 C235.405063,66.5187795 233.657938,63.2677834 230.731406,61.9584733 C230.30625,60.8151999 229.2475,60 228,60 C226.754687,60 225.694031,60.8136589 225.268406,61.9585388 C222.352062,63.2633898 220.59875,66.5030414 221.121906,69.8690239 C220.4335,70.4394638 220,71.3234522 220,72.2871147 C220,74.6610078 222.465719,76.1310431 224.400219,74.9487196 C226.604281,76.3466876 229.377875,76.3517041 231.587844,74.9560641 C233.518906,76.149273 236,74.6861232 236,72.3022298 C236,71.3376493 235.565656,70.4529067 234.876094,69.8824996 Z M233.918406,69.3578641 C231.159531,68.4828922 229.006,71.8931381 230.772219,74.2147676 C229.039687,75.1739054 226.951812,75.1728562 225.219562,74.2104068 C227.005406,71.8855969 224.840844,68.4658754 222.08,69.3432408 C221.831938,66.8658698 223.004969,64.4748943 225.073594,63.2472255 C225.158906,64.8632315 226.438844,66.1505411 227.999969,66.1505411 C229.561156,66.1505411 230.841031,64.8632315 230.926344,63.2472255 C232.996938,64.4760747 234.172906,66.8724273 233.918406,69.3578641 Z" id="Shape"></path>
                    </g>
                </g>
            </g>
        </g>
    </g>
</svg>