<?xml version="1.0" encoding="UTF-8"?>
<svg width="16px" height="16px" viewBox="0 0 16 16" version="1.1" xmlns="http://www.w3.org/2000/svg" xmlns:xlink="http://www.w3.org/1999/xlink">
    <!-- Generator: Sketch 49.3 (51167) - http://www.bohemiancoding.com/sketch -->
    <title>Cross</title>
    <desc>Created with Sketch.</desc>
    <defs></defs>
    <g id="Super-Administrator" stroke="none" stroke-width="1" fill="none" fill-rule="evenodd">
        <g id="Settings" transform="translate(-874.000000, -194.000000)" fill="#3B517C">
            <g id="Content" transform="translate(130.000000, 111.000000)">
                <g id="Cities" transform="translate(671.000000, 30.000000)">
                    <g id="City" transform="translate(5.000000, 43.000000)">
                        <path d="M79.2888889,21.2853333 C78.9448889,21.6293333 78.3857778,21.6293333 78.0417778,21.2853333 L75.9902222,19.2337778 L73.9342222,21.2888889 C73.5902222,21.6337778 73.0311111,21.6337778 72.6871111,21.2888889 C72.3422222,20.9448889 72.3422222,20.3866667 72.6871111,20.0417778 L74.7422222,17.9857778 L72.6871111,15.9306667 C72.3422222,15.5857778 72.3422222,15.0275556 72.6871111,14.6835556 C73.0311111,14.3386667 73.5902222,14.3386667 73.9342222,14.6835556 L75.9902222,16.7386667 L78.0417778,14.6871111 C78.3857778,14.3422222 78.944,14.3422222 79.2888889,14.6871111 C79.6328889,15.032 79.6328889,15.5902222 79.2888889,15.9342222 L77.2373333,17.9866667 L79.2888889,20.0382222 C79.6337778,20.3822222 79.6337778,20.9413333 79.2888889,21.2853333 M76,10 C71.5813333,10 68,13.5813333 68,18 C68,22.4186667 71.5813333,26 76,26 C80.4177778,26 84,22.4186667 84,18 C84,13.5813333 80.4177778,10 76,10" id="Cross"></path>
                    </g>
                </g>
            </g>
        </g>
    </g>
</svg>