<?xml version="1.0"?>
<svg xmlns="http://www.w3.org/2000/svg" height="512px" viewBox="0 -24 445.99219 445" width="512px" class=""><g><path d="m139.726562.496094c-10.238281.007812-18.535156 8.304687-18.546874 18.539062v10.222656c.011718 10.234376 8.304687 18.527344 18.539062 18.539063h.007812c10.234376-.011719 18.527344-8.304687 18.539063-18.539063v-10.222656c-.011719-10.234375-8.304687-18.527344-18.539063-18.539062zm0 0" data-original="#000000" class="active-path" data-old_color="#000000" fill="#7C7C7C"/><path d="m306.277344.496094c-10.238282.007812-18.535156 8.304687-18.546875 18.539062v10.222656c.011719 10.234376 8.304687 18.527344 18.539062 18.539063h.007813c10.234375-.011719 18.527344-8.304687 18.539062-18.539063v-10.222656c-.011718-10.234375-8.304687-18.527344-18.539062-18.539062zm0 0" data-original="#000000" class="active-path" data-old_color="#000000" fill="#7C7C7C"/><path d="m387.832031 98.09375h1.425781c11.589844-.015625 20.984376-9.410156 21-21v-12.910156c-.015624-11.59375-9.410156-20.984375-21-21h-1.425781c-11.589843.015625-20.984375 9.40625-21 21v12.910156c.015625 11.589844 9.410157 20.984375 21 21zm0 0" data-original="#000000" class="active-path" data-old_color="#000000" fill="#7C7C7C"/><path d="m423.167969 137.359375h-3.410157l-9.421874 14.785156c-1.992188 3.132813-6.082032 4.160157-9.320313 2.351563l-11.808594-6.601563-10.878906 6.457031c-1.03125.636719-2.214844.992188-3.429687 1.035157-2.5625.070312-4.964844-1.253907-6.273438-3.460938l-8.527344-14.566406h-4.160156c-6.457031-.003906-12.613281 2.730469-16.941406 7.519531-4.328125 4.789063-6.429688 11.1875-5.777344 17.609375.023438.234375.035156.472657.035156.707031v74.367188l22.542969 30.753906c.816406 1.113282 1.285156 2.445313 1.347656 3.824219l5.152344 115.21875c.15625 5.496094 4.664063 9.871094 10.164063 9.859375h34.335937c5.480469.019531 9.980469-4.324219 10.164063-9.800781l5.144531-115.277344c.0625-1.371094.527343-2.695313 1.335937-3.804687l22.398438-30.773438v-74.367188c0-.234374.011718-.472656.035156-.707031.652344-6.421875-1.445312-12.816406-5.773438-17.605469-4.328124-4.789062-10.480468-7.523437-16.933593-7.523437zm0 0" data-original="#000000" class="active-path" data-old_color="#000000" fill="#7C7C7C"/><path d="m221.28125 98.09375h1.421875c11.59375-.015625 20.988281-9.410156 21-21v-12.910156c-.011719-11.59375-9.40625-20.984375-21-21h-1.421875c-11.589844.015625-20.984375 9.40625-21 21v12.910156c.015625 11.589844 9.410156 20.984375 21 21zm0 0" data-original="#000000" class="active-path" data-old_color="#000000" fill="#7C7C7C"/><path d="m256.613281 137.359375h-3.40625l-9.421875 14.785156c-1.992187 3.132813-6.082031 4.160157-9.320312 2.351563l-11.808594-6.601563-10.878906 6.457031c-1.035156.636719-2.214844.992188-3.429688 1.035157-2.5625.070312-4.964844-1.253907-6.273437-3.460938l-8.523438-14.566406h-4.164062c-6.453125-.003906-12.609375 2.730469-16.9375 7.519531-4.332031 4.789063-6.429688 11.1875-5.78125 17.609375.023437.234375.035156.472657.035156.707031v74.367188l22.546875 30.75c.816406 1.117188 1.285156 2.445312 1.347656 3.828125l5.144532 115.21875c.15625 5.496094 4.664062 9.871094 10.164062 9.859375h34.339844c5.480468.019531 9.980468-4.324219 10.160156-9.800781l5.148438-115.277344c.0625-1.371094.523437-2.695313 1.332031-3.804687l22.402343-30.773438v-74.367188c0-.234374.011719-.472656.035157-.707031.648437-6.421875-1.449219-12.816406-5.777344-17.605469-4.324219-4.789062-10.476563-7.523437-16.933594-7.523437zm0 0" data-original="#000000" class="active-path" data-old_color="#000000" fill="#7C7C7C"/><path d="m54.285156 98.09375h1.425782c11.589843-.015625 20.984374-9.410156 21-21v-12.910156c-.015626-11.59375-9.410157-20.984375-21-21h-1.425782c-11.589844.015625-20.984375 9.40625-21 21v12.910156c.015625 11.589844 9.410156 20.984375 21 21zm0 0" data-original="#000000" class="active-path" data-old_color="#000000" fill="#7C7C7C"/><path d="m90.0625 137.359375h-3.410156l-9.417969 14.785156c-1.996094 3.132813-6.082031 4.160157-9.324219 2.351563l-11.804687-6.601563-10.878907 6.453125c-1.601562.984375-3.535156 1.28125-5.359374.824219-1.824219-.457031-3.386719-1.628906-4.339844-3.25l-8.53125-14.5625h-4.160156c-6.457032-.003906-12.613282 2.730469-16.941407 7.519531-4.328125 4.789063-6.429687 11.1875-5.777343 17.609375.023437.234375.035156.472657.035156.707031v74.367188l22.542968 30.75c.820313 1.117188 1.289063 2.445312 1.351563 3.828125l5.140625 115.21875c.15625 5.496094 4.664062 9.871094 10.167969 9.859375h34.339843c5.480469.019531 9.984376-4.324219 10.164063-9.800781l5.136719-115.277344c.0625-1.375.527344-2.699219 1.335937-3.808594l22.398438-30.769531v-74.367188c0-.238281.011719-.472656.035156-.707031.652344-6.421875-1.445313-12.820312-5.773437-17.609375-4.328126-4.789062-10.480469-7.519531-16.933594-7.519531zm0 0" data-original="#000000" class="active-path" data-old_color="#000000" fill="#7C7C7C"/></g> </svg>
