<?xml version="1.0" encoding="UTF-8"?>
<svg width="26px" height="26px" viewBox="0 0 26 26" version="1.1" xmlns="http://www.w3.org/2000/svg" xmlns:xlink="http://www.w3.org/1999/xlink">
    <!-- Generator: Sketch 49.3 (51167) - http://www.bohemiancoding.com/sketch -->
    <title>Icon 1</title>
    <desc>Created with Sketch.</desc>
    <defs></defs>
    <g id="Symbols" stroke="none" stroke-width="1" fill="none" fill-rule="evenodd">
        <g id="Navigation/Menu-Item/Dashboard/Inactive" transform="translate(-37.000000, -2.000000)" fill="#7F8FA4">
            <path d="M56.5,8.4999 L63,8.4999 L63,1.9999 L56.5,1.9999 L56.5,8.4999 Z M46.75,8.4999 L53.25,8.4999 L53.25,1.9999 L46.75,1.9999 L46.75,8.4999 Z M37,8.4999 L43.5,8.4999 L43.5,1.9999 L37,1.9999 L37,8.4999 Z M56.5,18.2499 L63,18.2499 L63,11.7499 L56.5,11.7499 L56.5,18.2499 Z M46.75,18.2499 L53.25,18.2499 L53.25,11.7499 L46.75,11.7499 L46.75,18.2499 Z M37,18.2499 L43.5,18.2499 L43.5,11.7499 L37,11.7499 L37,18.2499 Z M56.5,27.9999 L63,27.9999 L63,21.5009833 L56.5,21.5009833 L56.5,27.9999 Z M46.75,27.9999 L53.25,27.9999 L53.25,21.5009833 L46.75,21.5009833 L46.75,27.9999 Z M37,27.9999 L43.5,27.9999 L43.5,21.5009833 L37,21.5009833 L37,27.9999 Z" id="Icon-1"></path>
        </g>
    </g>
</svg>