<?xml version="1.0" encoding="UTF-8"?>
<svg width="26px" height="26px" viewBox="0 0 26 26" version="1.1" xmlns="http://www.w3.org/2000/svg" xmlns:xlink="http://www.w3.org/1999/xlink">
    <!-- Generator: Sketch 49.3 (51167) - http://www.bohemiancoding.com/sketch -->
    <title>to-do</title>
    <desc>Created with Sketch.</desc>
    <defs></defs>
    <g id="Symbols" stroke="none" stroke-width="1" fill="none" fill-rule="evenodd">
        <g id="Navigation/Menu-Item/Completed-Task/Inactive" transform="translate(-37.000000, -2.000000)" fill="#7F8FA4">
            <path d="M54.875,24.75 L54.875,20.8763801 C54.875,20.3217713 55.3233331,19.875 55.8763801,19.875 L59.75,19.875 L59.75,6.24381655 C59.75,5.69494683 59.3060771,5.25 58.7561834,5.25 L41.2438166,5.25 C40.6949468,5.25 40.25,5.69392294 40.25,6.24381655 L40.25,19.875 L44.1236199,19.875 C44.6782287,19.875 45.125,20.3233331 45.125,20.8763801 L45.125,24.75 L54.875,24.75 Z M38.9970047,2 L61.0029953,2 C62.1050211,2 63,2.89408944 63,3.99700466 L63,26.0029953 C63,27.1050211 62.1059106,28 61.0029953,28 L38.9970047,28 C37.8949789,28 37,27.1059106 37,26.0029953 L37,3.99700466 C37,2.89497885 37.8940894,2 38.9970047,2 Z M43.5374908,13.3824387 L45.9957199,10.9122086 L49.1946411,14.1972199 L54.0757904,9.38113404 L56.5595068,11.754731 L50.045692,18.2685457 L48.4235979,18.2685457 L43.5374908,13.3824387 Z" id="to-do"></path>
        </g>
    </g>
</svg>