<?xml version="1.0" encoding="UTF-8"?>
<svg width="16px" height="16px" viewBox="0 0 16 16" version="1.1" xmlns="http://www.w3.org/2000/svg" xmlns:xlink="http://www.w3.org/1999/xlink">
    <!-- Generator: Sketch 49.3 (51167) - http://www.bohemiancoding.com/sketch -->
    <title>Group</title>
    <desc>Created with Sketch.</desc>
    <defs></defs>
    <g id="Symbols" stroke="none" stroke-width="1" fill="none" fill-rule="evenodd">
        <g id="Button/Icons/Direction" transform="translate(-2.000000, -2.000000)" fill="#FFFFFF" fill-rule="nonzero">
            <g id="Group" transform="translate(2.000000, 2.000000)">
                <path d="M7.99994667,3.9984 C5.80309333,3.9984 4.01578667,5.78554667 4.01578667,7.9824 C4.01578667,10.1794133 5.80309333,11.96672 7.99994667,11.96672 C10.1968,11.96672 11.9841067,10.1794133 11.9841067,7.9824 C11.9841067,5.78570667 10.1968,3.9984 7.99994667,3.9984 Z M5.79877333,10.1833067 L6.92944,7.49456 L8.48794667,9.05264 L5.79877333,10.1833067 Z M9.07290667,8.46394667 L7.51797333,6.90944 L10.2008,5.78154667 L9.07290667,8.46394667 Z" id="Shape"></path>
                <path d="M7.99978667,0 C3.58170667,0 5.33333333e-05,3.58192 5.33333333e-05,7.99984 C5.33333333e-05,12.41776 3.58170667,16 7.99978667,16 C12.4178667,16 15.9999467,12.4179733 15.9999467,7.99984 C15.9999467,3.58170667 12.4178667,0 7.99978667,0 Z M7.99994667,12.7966933 C5.34549333,12.7966933 3.18581333,10.6370133 3.18581333,7.98245333 C3.18581333,5.328 5.34533333,3.16848 7.99994667,3.16848 C10.65456,3.16848 12.81408,5.328 12.81408,7.98245333 C12.81408,10.6369067 10.6544,12.7966933 7.99994667,12.7966933 Z" id="Shape"></path>
            </g>
        </g>
    </g>
</svg>