<?xml version="1.0" encoding="UTF-8"?>
<svg width="16px" height="14px" viewBox="0 0 16 14" version="1.1" xmlns="http://www.w3.org/2000/svg" xmlns:xlink="http://www.w3.org/1999/xlink">
    <!-- Generator: Sketch 49.3 (51167) - http://www.bohemiancoding.com/sketch -->
    <title>Export Icon</title>
    <desc>Created with Sketch.</desc>
    <defs></defs>
    <g id="Super-Administrator" stroke="none" stroke-width="1" fill="none" fill-rule="evenodd">
        <g id="Volunteers-Profile-View" transform="translate(-1332.000000, -334.000000)" fill="#7F8FA4">
            <g id="Content" transform="translate(130.000000, 111.000000)">
                <g id="Column-2" transform="translate(671.000000, 30.000000)">
                    <g id="Files-List">
                        <g id="Group-2-Copy-3" transform="translate(531.000000, 192.000000)">
                            <path d="M7.25674326,10.7337332 C7.44455544,10.9045802 7.6983017,11 7.96403596,11 C7.97702298,11 7.98701299,10.9936387 8,10.9936387 C8.004995,10.9936387 8.00999001,10.996365 8.01498501,10.996365 C8.35164835,10.996365 8.63436563,10.8355144 8.81518482,10.6046892 L11.7062937,7.98564158 C12.0979021,7.63122501 12.0979021,7.05597964 11.7062937,6.70065431 C11.3156843,6.34623773 10.6823177,6.34623773 10.2907093,6.70065431 L9.01398601,7.85568884 L9.01398601,1.90876045 C9.01398601,1.40712468 8.56743257,1 8.01498501,1 C7.46353646,1 7.01598402,1.40712468 7.01598402,1.90876045 L7.01598402,7.92475463 L5.70829171,6.70792439 C5.31768232,6.35350782 4.68431568,6.35350782 4.29370629,6.70792439 C3.9020979,7.06324973 3.9020979,7.63849509 4.29370629,7.99291167 L7.25674326,10.7337332 Z M15,9 C14.448,9 14,9.448 14,10 L14,11 L14,12 C14,12.552 13.553,13 13,13 L3,13 C2.448,13 2,12.552 2,12 L2,11 L2,10 C2,9.448 1.553,9 1,9 C0.448,9 0,9.448 0,10 L0,11 L0,13 C0,14.105 0.896,15 2,15 L14,15 C15.105,15 16,14.105 16,13 L16,11 L16,10 C16,9.448 15.553,9 15,9 L15,9 Z" id="Export-Icon"></path>
                        </g>
                    </g>
                </g>
            </g>
        </g>
    </g>
</svg>