<?xml version="1.0" encoding="UTF-8"?>
<svg width="254px" height="298px" viewBox="0 0 254 298" version="1.1" xmlns="http://www.w3.org/2000/svg" xmlns:xlink="http://www.w3.org/1999/xlink">
    <!-- Generator: Sketch 49.3 (51167) - http://www.bohemiancoding.com/sketch -->
    <title>Ghost</title>
    <desc>Created with Sketch.</desc>
    <defs></defs>
    <g id="Error" stroke="none" stroke-width="1" fill="none" fill-rule="evenodd">
        <g id="404" transform="translate(-596.000000, -377.000000)" fill="#4A90E2">
            <path d="M782.291287,513.990824 C768.264878,513.990824 756.884183,502.682432 756.884183,488.707315 C756.884183,474.748693 768.264878,463.423361 782.291287,463.423361 C796.318593,463.423361 807.698391,474.748693 807.698391,488.707315 C807.698391,502.682432 796.318593,513.990824 782.291287,513.990824 M638.317101,488.707315 C638.317101,474.748693 649.697795,463.423361 663.724205,463.423361 C677.75151,463.423361 689.131309,474.748693 689.131309,488.707315 C689.131309,502.682432 677.75151,513.990824 663.724205,513.990824 C649.697795,513.990824 638.317101,502.682432 638.317101,488.707315 M722.999683,377 C595.963266,377 596,494.9903 596,494.9903 L596,675 L627.773215,632.90525 L659.49133,675 L691.213028,632.90525 L722.936519,675 L754.660457,632.90525 L786.385291,675 L818.134764,632.90525 L849.999365,675 L849.999365,494.9903 C849.999365,494.9903 850.035651,377 722.999683,377" id="Ghost"></path>
        </g>
    </g>
</svg>