<?xml version="1.0" encoding="UTF-8"?>
<svg width="321px" height="292px" viewBox="0 0 321 292" version="1.1" xmlns="http://www.w3.org/2000/svg" xmlns:xlink="http://www.w3.org/1999/xlink">
    <!-- Generator: Sketch 49.3 (51167) - http://www.bohemiancoding.com/sketch -->
    <title>face</title>
    <desc>Created with Sketch.</desc>
    <defs></defs>
    <g id="Error" stroke="none" stroke-width="1" fill="none" fill-rule="evenodd">
        <g id="500" transform="translate(-560.000000, -380.000000)" fill="#7ED321">
            <g id="Group" transform="translate(295.000000, 248.000000)">
                <g id="face" transform="translate(265.000000, 132.000000)">
                    <path d="M201.573299,225.610207 C203.626737,223.178416 204.653457,219.769707 204.653457,215.388018 L204.653457,198.080545 L177.372813,198.080545 L177.372813,215.388018 C177.372813,219.769707 178.483364,223.178416 180.704466,225.610207 C182.925569,228.041999 186.445623,229.257894 191.26463,229.257894 C196.083637,229.257894 199.51986,228.041999 201.573299,225.610207 L201.573299,225.610207 Z M168.195874,240.267483 C163.669837,234.886554 161.40726,227.204265 161.40726,217.217114 L161.40726,198.080545 L100,198.080545 L100,179 L220.745198,179 L220.745198,218.464523 C220.745198,227.561855 218.356432,234.816086 213.579341,240.224152 C208.801809,245.634406 201.405635,248.338439 191.390378,248.338439 C180.452971,248.338439 172.72147,245.646661 168.195874,240.267483 L168.195874,240.267483 Z" id="Fill-3"></path>
                    <path d="M89.1264772,43.7687406 L290.322881,43.7687406 L290.322881,29.3250562 L89.1264772,29.3250562 L89.1264772,43.7687406 Z M29.5617523,262.612444 L290.322881,262.612444 L290.322881,73.0937969 L29.5617523,73.0937969 L29.5617523,262.612444 Z M36.8264427,28.9814716 C40.8627249,28.9814716 44.1348138,32.2273614 44.1348138,36.2313258 C44.1348138,40.2352902 40.8627249,43.48118 36.8264427,43.48118 C32.7901604,43.48118 29.5180715,40.2352902 29.5180715,36.2313258 C29.5180715,32.2273614 32.7901604,28.9814716 36.8264427,28.9814716 L36.8264427,28.9814716 Z M66.8294152,28.9814716 C70.8656974,28.9814716 74.1377863,32.2273614 74.1377863,36.2313258 C74.1377863,40.2352902 70.8656974,43.48118 66.8294152,43.48118 C62.7931329,43.48118 59.5210441,40.2352902 59.5210441,36.2313258 C59.5210441,32.2273614 62.7931329,28.9814716 66.8294152,28.9814716 L66.8294152,28.9814716 Z M14.8964759,0 C6.71845974,0 0,6.35828495 0,14.4734472 L0,277.384831 C0,285.497368 6.71845974,291.9375 14.8964759,291.9375 L305.332751,291.9375 C313.516503,291.9375 320.325854,285.497368 320.325854,277.384831 L320.325854,14.4734472 C320.325854,6.35828495 313.516503,0 305.332751,0 L14.8964759,0 Z" id="Fill-5"></path>
                    <polygon id="Fill-1-Copy" points="125.223272 139.580238 106.856158 121.353622 125.219742 103.134883 112.971028 91 94.6061205 109.21655 76.2438601 91 64 103.134883 82.3662314 121.361938 64 139.580238 76.2438601 151.725188 94.6061205 133.507763 112.977647 151.725188"></polygon>
                    <polygon id="Fill-2-Copy" points="257.223272 139.580238 238.856158 121.353622 257.219742 103.134883 244.971028 91 226.606121 109.21655 208.24386 91 196 103.134883 214.366231 121.361938 196 139.580238 208.24386 151.725188 226.606121 133.507763 244.977647 151.725188"></polygon>
                </g>
            </g>
        </g>
    </g>
</svg>