<?xml version="1.0" encoding="UTF-8"?>
<svg width="14px" height="14px" viewBox="0 0 14 14" version="1.1" xmlns="http://www.w3.org/2000/svg" xmlns:xlink="http://www.w3.org/1999/xlink">
    <!-- Generator: Sketch 49.3 (51167) - http://www.bohemiancoding.com/sketch -->
    <title>icon-excel</title>
    <desc>Created with Sketch.</desc>
    <defs></defs>
    <g id="Symbols" stroke="none" stroke-width="1" fill="none" fill-rule="evenodd">
        <g id="Button/Icons/Excel" transform="translate(-3.000000, -3.000000)" fill="#FFFFFF" fill-rule="nonzero">
            <g id="icon-excel" transform="translate(3.000000, 3.000000)">
                <path d="M13.5487692,1.61538462 L8.61538462,1.61538462 L8.61538462,3.22215385 L10.2474615,3.22215385 L10.2474615,4.31576923 L8.61538462,4.31576923 L8.61538462,5.38461538 L10.2307692,5.38461538 L10.2307692,6.46153846 L8.61538462,6.46153846 L8.61538462,7.53846154 L10.2307692,7.53846154 L10.2307692,8.61538462 L8.61538462,8.61538462 L8.61538462,9.69230769 L10.2307692,9.69230769 L10.2307692,10.7692308 L8.61538462,10.7692308 L8.61538462,12.3846154 L13.5487692,12.3846154 C13.797,12.3846154 14,12.1740769 14,11.9161538 L14,2.08384615 C14,1.82592308 13.797,1.61538462 13.5487692,1.61538462 Z M12.9230769,10.7692308 L10.7692308,10.7692308 L10.7692308,9.69230769 L12.9230769,9.69230769 L12.9230769,10.7692308 Z M12.9230769,8.61538462 L10.7692308,8.61538462 L10.7692308,7.53846154 L12.9230769,7.53846154 L12.9230769,8.61538462 Z M12.9230769,6.46153846 L10.7692308,6.46153846 L10.7692308,5.38461538 L12.9230769,5.38461538 L12.9230769,6.46153846 Z M12.9230769,4.30769231 L10.7692308,4.30769231 L10.7692308,3.23076923 L12.9230769,3.23076923 L12.9230769,4.30769231 Z" id="Shape"></path>
                <path d="M0,1.55561538 L0,12.4449231 L8.07692308,14 L8.07692308,0 L0,1.55561538 Z M5.10892308,9.73538462 L4.16930769,7.959 C4.13376923,7.89276923 4.09715385,7.77107692 4.05892308,7.59392308 L4.04438462,7.59392308 C4.02661538,7.67738462 3.98461538,7.80446154 3.91838462,7.97461538 L2.97553846,9.73538462 L1.51146154,9.73538462 L3.24961538,7.00861538 L1.65953846,4.28130769 L3.15430769,4.28130769 L3.934,5.91661538 C3.99484615,6.04584615 4.04923077,6.19930769 4.09769231,6.37646154 L4.11276923,6.37646154 C4.14346154,6.26984615 4.20053846,6.11153846 4.284,5.901 L5.15092308,4.28076923 L6.51969231,4.28076923 L4.88438462,6.98492308 L6.56546154,9.73484615 L5.10892308,9.73538462 Z" id="Shape"></path>
            </g>
        </g>
    </g>
</svg>