<?xml version="1.0" encoding="UTF-8"?>
<svg width="16px" height="14px" viewBox="0 0 16 14" version="1.1" xmlns="http://www.w3.org/2000/svg" xmlns:xlink="http://www.w3.org/1999/xlink">
    <!-- Generator: Sketch 49.3 (51167) - http://www.bohemiancoding.com/sketch -->
    <title>Export Icon Copy</title>
    <desc>Created with Sketch.</desc>
    <defs></defs>
    <g id="Symbols" stroke="none" stroke-width="1" fill="none" fill-rule="evenodd">
        <g id="Button/Icons/Upload" transform="translate(-2.000000, -3.000000)" fill="#FFFFFF">
            <path d="M10.729,3.27346667 C10.541,3.098 10.287,3 10.021,3 C10.008,3 9.998,3.00653333 9.985,3.00653333 C9.98,3.00653333 9.975,3.00373333 9.97,3.00373333 C9.633,3.00373333 9.35,3.16893333 9.169,3.406 L6.275,6.09586667 C5.883,6.45986667 5.883,7.05066667 6.275,7.4156 C6.666,7.7796 7.3,7.7796 7.692,7.4156 L8.97,6.22933333 L8.97,12.3370667 C8.97,12.8522667 9.417,13.2704 9.97,13.2704 C10.522,13.2704 10.97,12.8522667 10.97,12.3370667 L10.97,6.1584 L12.279,7.40813333 C12.67,7.77213333 13.304,7.77213333 13.695,7.40813333 C14.087,7.0432 14.087,6.4524 13.695,6.0884 L10.729,3.27346667 Z M17,11.4 C16.448,11.4 16,11.8181333 16,12.3333333 L16,13.2666667 L16,14.2 C16,14.7152 15.553,15.1333333 15,15.1333333 L5,15.1333333 C4.448,15.1333333 4,14.7152 4,14.2 L4,13.2666667 L4,12.3333333 C4,11.8181333 3.553,11.4 3,11.4 C2.448,11.4 2,11.8181333 2,12.3333333 L2,13.2666667 L2,15.1333333 C2,16.1646667 2.896,17 4,17 L16,17 C17.105,17 18,16.1646667 18,15.1333333 L18,13.2666667 L18,12.3333333 C18,11.8181333 17.553,11.4 17,11.4 L17,11.4 Z" id="Export-Icon-Copy"></path>
        </g>
    </g>
</svg>