<?xml version="1.0" encoding="UTF-8"?>
<svg width="16px" height="16px" viewBox="0 0 16 16" version="1.1" xmlns="http://www.w3.org/2000/svg" xmlns:xlink="http://www.w3.org/1999/xlink">
    <!-- Generator: Sketch 49.3 (51167) - http://www.bohemiancoding.com/sketch -->
    <title>Shape</title>
    <desc>Created with Sketch.</desc>
    <defs></defs>
    <g id="Symbols" stroke="none" stroke-width="1" fill="none" fill-rule="evenodd">
        <g id="Icon/Static/Female" fill="#FF4B64" fill-rule="nonzero">
            <path d="M9.75480196,0 C6.31137351,0 3.50973192,2.801536 3.50973192,6.24512 C3.50973192,7.637632 3.98243214,9.000704 4.84296926,10.096384 L2.73866609,12.20096 L1.27998976,10.742016 C1.13842289,10.60032 0.9500084,10.522368 0.749690002,10.522368 C0.549371605,10.522368 0.36121311,10.600192 0.219518244,10.742016 C0.0779513764,10.883712 0,11.072 0,11.272192 C0,11.472384 0.0779513764,11.6608 0.219646243,11.80224 L1.67845057,13.261184 L0.219646243,14.72 C0.0780793754,14.86144 0,15.049856 0,15.250176 C0,15.450368 0.0779513764,15.638784 0.219646243,15.780224 C0.36121311,15.92192 0.549499604,16 0.749818001,16 C0.950136399,16 1.13842289,15.922048 1.28011776,15.780224 L2.73879409,14.321536 L4.19772642,15.780224 C4.33916529,15.92192 4.52745178,16 4.72789818,16 C4.92808858,16 5.11637507,15.922048 5.25806994,15.780224 C5.3997648,15.638784 5.47784418,15.450368 5.47784418,15.250176 C5.47784418,15.049856 5.3998928,14.86144 5.25806994,14.72 L3.79926561,13.261184 L5.90356877,11.156864 C6.99936801,12.017408 8.3623011,12.490112 9.75492996,12.490112 C13.1984864,12.490112 16,9.688448 16,6.24512 C15.999872,2.801536 13.1983584,0 9.75480196,0 Z M9.75480196,10.990464 C7.13824689,10.990464 5.00936793,8.861824 5.00936793,6.24512 C5.00936793,3.628416 7.13824689,1.49952 9.75480196,1.49952 C12.371485,1.49952 14.500364,3.628416 14.500364,6.24512 C14.500364,8.861824 12.371485,10.990464 9.75480196,10.990464 Z" id="Shape"></path>
        </g>
    </g>
</svg>