<?xml version="1.0" encoding="UTF-8"?>
<svg width="16px" height="16px" viewBox="0 0 16 16" version="1.1" xmlns="http://www.w3.org/2000/svg" xmlns:xlink="http://www.w3.org/1999/xlink">
    <!-- Generator: Sketch 49.3 (51167) - http://www.bohemiancoding.com/sketch -->
    <title>Grid</title>
    <desc>Created with Sketch.</desc>
    <defs></defs>
    <g id="Symbols" stroke="none" stroke-width="1" fill="none" fill-rule="evenodd">
        <g id="Icon/Inactive/Table" fill="#7F8FA4">
            <path d="M0,0.995352609 C0,0.445634542 0.448390416,0 0.995352609,0 L4.71893311,0 C5.26865117,0 5.71428571,0.448390416 5.71428571,0.995352609 L5.71428571,4.71893311 C5.71428571,5.26865117 5.2658953,5.71428571 4.71893311,5.71428571 L0.995352609,5.71428571 C0.445634542,5.71428571 0,5.2658953 0,4.71893311 L0,0.995352609 Z M10.2857143,0.995352609 C10.2857143,0.445634542 10.7341047,0 11.2810669,0 L15.0046474,0 C15.5543655,0 16,0.448390416 16,0.995352609 L16,4.71893311 C16,5.26865117 15.5516096,5.71428571 15.0046474,5.71428571 L11.2810669,5.71428571 C10.7313488,5.71428571 10.2857143,5.2658953 10.2857143,4.71893311 L10.2857143,0.995352609 Z M10.2857143,11.2810669 C10.2857143,10.7313488 10.7341047,10.2857143 11.2810669,10.2857143 L15.0046474,10.2857143 C15.5543655,10.2857143 16,10.7341047 16,11.2810669 L16,15.0046474 C16,15.5543655 15.5516096,16 15.0046474,16 L11.2810669,16 C10.7313488,16 10.2857143,15.5516096 10.2857143,15.0046474 L10.2857143,11.2810669 Z M0,11.2810669 C0,10.7313488 0.448390416,10.2857143 0.995352609,10.2857143 L4.71893311,10.2857143 C5.26865117,10.2857143 5.71428571,10.7341047 5.71428571,11.2810669 L5.71428571,15.0046474 C5.71428571,15.5543655 5.2658953,16 4.71893311,16 L0.995352609,16 C0.445634542,16 0,15.5516096 0,15.0046474 L0,11.2810669 Z" id="Grid"></path>
        </g>
    </g>
</svg>