<?xml version="1.0"?>
<svg xmlns="http://www.w3.org/2000/svg" xmlns:xlink="http://www.w3.org/1999/xlink" version="1.1" id="Capa_1" x="0px" y="0px" viewBox="0 0 512 512" style="enable-background:new 0 0 512 512;" xml:space="preserve" width="512px" height="512px" class=""><g><g>
	<path style="fill:#F0A479;" d="M358.899,496.19c1.872,6.832,9.288,10.634,16.032,7.935c5.711-2.285,8.572-8.732,6.945-14.664   l-21.097-80.003c-0.004-0.015-0.018-0.026-0.034-0.026h-24.747c-0.023,0-0.04,0.022-0.034,0.045L358.899,496.19z" data-original="#F0A479"/>
	<path style="fill:#F0A479;" d="M136.639,504.151c6.764,2.656,14.11-1.181,15.968-7.961l22.934-86.713   c0.006-0.022-0.011-0.045-0.034-0.045H150.76c-0.016,0-0.03,0.011-0.034,0.026l-21.102,80.022   C127.994,495.434,130.894,501.895,136.639,504.151z" data-original="#F0A479"/>
</g><g>
	<path style="fill:#E59770;" d="M372.223,496.19l-22.934-86.713c-0.006-0.022,0.011-0.045,0.034-0.045h-13.324   c-0.023,0-0.04,0.022-0.034,0.045l22.934,86.713c1.873,6.834,9.289,10.634,16.032,7.935c0.781-0.312,1.502-0.709,2.172-1.164   C374.799,501.417,373.014,499.075,372.223,496.19z" data-original="#E59770"/>
	<path style="fill:#E59770;" d="M142.949,489.48l21.102-80.022c0.004-0.015,0.018-0.026,0.034-0.026h-13.324   c-0.016,0-0.03,0.011-0.034,0.026l-21.102,80.022c-1.631,5.954,1.268,12.415,7.014,14.671c3.733,1.466,7.809,1.005,11.087-1.191   C143.5,500.087,141.546,494.6,142.949,489.48z" data-original="#E59770"/>
</g><path style="fill:#F0A479;" d="M267.723,57.962V20.4c0-6.609-5.17-12.296-11.779-12.399c-6.698-0.104-12.16,5.294-12.16,11.968  c0,0.057-0.02,38.03,0.037,38.027C256.567,57.286,267.723,57.962,267.723,57.962z" data-original="#F0A479"/><path style="fill:#E59770;" d="M258.535,19.97c0-3.791,1.765-7.167,4.516-9.361c-1.964-1.584-4.411-2.565-7.107-2.607  c-6.698-0.104-12.16,5.294-12.16,11.968c0,0.057-0.02,38.03,0.037,38.027c6.166-0.344,10.172-0.365,14.714-0.301V19.97z" data-original="#E59770"/><path style="fill:#E4EAF8;" d="M461.03,412.433H50.477c-6.94,0-12.568-5.626-12.568-12.568V101.854c0-0.017,0.014-0.032,0.032-0.032  h435.624c0.017,0,0.032,0.014,0.032,0.032v298.01C473.598,406.805,467.971,412.433,461.03,412.433z" data-original="#E4EAF8" class=""/><path style="fill:#D8DCE5;" d="M57.911,399.865v-298.01c0-0.017,0.014-0.032,0.031-0.032H37.941c-0.017,0-0.031,0.014-0.031,0.032  v298.01c0,6.94,5.626,12.568,12.568,12.568h20.001C63.538,412.433,57.911,406.805,57.911,399.865z" data-original="#D8DCE5"/><path style="fill:#707487;" d="M485.505,104.823H26.003c-6.617,0-12.033-5.414-12.033-12.033V64.686  c0-6.617,5.414-12.033,12.033-12.033h459.501c6.617,0,12.033,5.414,12.033,12.033V92.79  C497.536,99.409,492.122,104.823,485.505,104.823z" data-original="#707487" class=""/><path style="fill:#5B5D6E;" d="M485.505,84.832H26.003c-6.617,0-12.032-5.414-12.032-12.033V92.79  c0,6.617,5.414,12.033,12.032,12.033h459.501c6.617,0,12.032-5.414,12.032-12.033V72.799  C497.536,79.417,492.122,84.832,485.505,84.832z" data-original="#5B5D6E" class=""/><path style="fill:#F9B428;" d="M419.016,254.205h-46.765c-6.6,0-12.001-5.4-12.001-12.001v-5.637c0-6.6,5.4-12.001,12.001-12.001  h46.765c6.6,0,12.001,5.4,12.001,12.001v5.637C431.016,248.805,425.616,254.205,419.016,254.205z" data-original="#F9B428"/><path style="fill:#E59F23;" d="M419.016,236.329h-46.765c-4.366,0-8.197-2.371-10.296-5.881c-1.075,1.796-1.705,3.885-1.705,6.119  v5.637c0,6.6,5.4,12.001,12.001,12.001h46.765c6.6,0,12.001-5.4,12.001-12.001v-5.637c0-2.234-0.63-4.323-1.704-6.119  C427.212,233.958,423.382,236.329,419.016,236.329z" data-original="#E59F23"/><path style="fill:#F9B428;" d="M419.016,283.843h-46.765c-6.6,0-12.001-5.4-12.001-12.001v-5.637c0-6.6,5.4-12.001,12.001-12.001  h46.765c6.6,0,12.001,5.4,12.001,12.001v5.637C431.016,278.442,425.616,283.843,419.016,283.843z" data-original="#F9B428"/><path style="fill:#E59F23;" d="M419.016,265.967h-46.765c-4.366,0-8.197-2.371-10.296-5.881c-1.075,1.796-1.705,3.885-1.705,6.119  v5.637c0,6.6,5.4,12.001,12.001,12.001h46.765c6.6,0,12.001-5.4,12.001-12.001v-5.637c0-2.234-0.63-4.323-1.704-6.119  C427.212,263.597,423.382,265.967,419.016,265.967z" data-original="#E59F23"/><path style="fill:#F9B428;" d="M419.016,313.482h-46.765c-6.6,0-12.001-5.4-12.001-12.001v-5.637c0-6.6,5.4-12.001,12.001-12.001  h46.765c6.6,0,12.001,5.4,12.001,12.001v5.637C431.016,308.081,425.616,313.482,419.016,313.482z" data-original="#F9B428"/><path style="fill:#E59F23;" d="M419.016,295.606h-46.765c-4.366,0-8.197-2.371-10.296-5.881c-1.075,1.796-1.705,3.885-1.705,6.119  v5.637c0,6.6,5.4,12.001,12.001,12.001h46.765c6.6,0,12.001-5.4,12.001-12.001v-5.637c0-2.234-0.63-4.323-1.704-6.119  C427.212,293.234,423.382,295.606,419.016,295.606z" data-original="#E59F23"/><path style="fill:#F9B428;" d="M419.016,343.119h-46.765c-6.6,0-12.001-5.4-12.001-12.001v-5.637c0-6.6,5.4-12.001,12.001-12.001  h46.765c6.6,0,12.001,5.4,12.001,12.001v5.637C431.016,337.719,425.616,343.119,419.016,343.119z" data-original="#F9B428"/><path style="fill:#E59F23;" d="M419.016,325.243h-46.765c-4.366,0-8.197-2.371-10.296-5.881c-1.075,1.796-1.705,3.885-1.705,6.119  v5.637c0,6.6,5.4,12.001,12.001,12.001h46.765c6.6,0,12.001-5.4,12.001-12.001v-5.637c0-2.234-0.63-4.323-1.704-6.119  C427.212,322.873,423.382,325.243,419.016,325.243z" data-original="#E59F23"/><path style="fill:#F9B428;" d="M419.016,372.758h-46.765c-6.6,0-12.001-5.4-12.001-12.001v-5.637c0-6.6,5.4-12.001,12.001-12.001  h46.765c6.6,0,12.001,5.4,12.001,12.001v5.637C431.016,367.358,425.616,372.758,419.016,372.758z" data-original="#F9B428"/><path style="fill:#E59F23;" d="M419.016,354.882h-46.765c-4.366,0-8.197-2.371-10.296-5.881c-1.075,1.796-1.705,3.885-1.705,6.119  v5.637c0,6.6,5.4,12.001,12.001,12.001h46.765c6.6,0,12.001-5.4,12.001-12.001v-5.637c0-2.234-0.63-4.323-1.704-6.119  C427.212,352.511,423.382,354.882,419.016,354.882z" data-original="#E59F23"/><path style="fill:#F9B428;" d="M348.249,313.482h-46.765c-6.6,0-12.001-5.4-12.001-12.001v-5.637c0-6.6,5.4-12.001,12.001-12.001  h46.765c6.6,0,12.001,5.4,12.001,12.001v5.637C360.25,308.081,354.85,313.482,348.249,313.482z" data-original="#F9B428"/><path style="fill:#E59F23;" d="M348.249,295.606h-46.765c-4.366,0-8.197-2.371-10.296-5.881c-1.075,1.796-1.705,3.885-1.705,6.119  v5.637c0,6.6,5.4,12.001,12.001,12.001h46.765c6.6,0,12.001-5.4,12.001-12.001v-5.637c0-2.234-0.63-4.323-1.704-6.119  C356.446,293.234,352.616,295.606,348.249,295.606z" data-original="#E59F23"/><path style="fill:#F9B428;" d="M348.249,343.119h-46.765c-6.6,0-12.001-5.4-12.001-12.001v-5.637c0-6.6,5.4-12.001,12.001-12.001  h46.765c6.6,0,12.001,5.4,12.001,12.001v5.637C360.25,337.719,354.85,343.119,348.249,343.119z" data-original="#F9B428"/><path style="fill:#E59F23;" d="M348.249,325.243h-46.765c-4.366,0-8.197-2.371-10.296-5.881c-1.075,1.796-1.705,3.885-1.705,6.119  v5.637c0,6.6,5.4,12.001,12.001,12.001h46.765c6.6,0,12.001-5.4,12.001-12.001v-5.637c0-2.234-0.63-4.323-1.704-6.119  C356.446,322.873,352.616,325.243,348.249,325.243z" data-original="#E59F23"/><path style="fill:#F9B428;" d="M348.249,372.758h-46.765c-6.6,0-12.001-5.4-12.001-12.001v-5.637c0-6.6,5.4-12.001,12.001-12.001  h46.765c6.6,0,12.001,5.4,12.001,12.001v5.637C360.25,367.358,354.85,372.758,348.249,372.758z" data-original="#F9B428"/><path style="fill:#E59F23;" d="M348.249,354.882h-46.765c-4.366,0-8.197-2.371-10.296-5.881c-1.075,1.796-1.705,3.885-1.705,6.119  v5.637c0,6.6,5.4,12.001,12.001,12.001h46.765c6.6,0,12.001-5.4,12.001-12.001v-5.637c0-2.234-0.63-4.323-1.704-6.119  C356.446,352.511,352.616,354.882,348.249,354.882z" data-original="#E59F23"/><path style="fill:#F9B428;" d="M277.483,372.758h-46.765c-6.6,0-12.001-5.4-12.001-12.001v-5.637c0-6.6,5.4-12.001,12.001-12.001  h46.765c6.6,0,12.001,5.4,12.001,12.001v5.637C289.484,367.358,284.083,372.758,277.483,372.758z" data-original="#F9B428"/><path style="fill:#E59F23;" d="M277.483,354.882h-46.765c-4.366,0-8.197-2.371-10.296-5.881c-1.075,1.796-1.705,3.885-1.705,6.119  v5.637c0,6.6,5.4,12.001,12.001,12.001h46.765c6.6,0,12.001-5.4,12.001-12.001v-5.637c0-2.234-0.63-4.323-1.704-6.119  C285.68,352.511,281.849,354.882,277.483,354.882z" data-original="#E59F23"/><path d="M485.751,44.653H275.47V19.9c0-10.807-8.597-19.733-19.163-19.897c-5.249-0.085-10.22,1.904-13.967,5.593  c-3.746,3.689-5.81,8.617-5.81,13.875v25.184H26.25c-10.772,0-19.533,8.763-19.533,19.532v28.105  c0,10.771,8.763,19.533,19.533,19.533h4.405v287.54c0,11.066,9.003,20.068,20.068,20.068h90.424l-18.511,67.566  c-2.695,9.84,2.252,20,11.508,23.634c10.916,4.283,22.913-1.9,25.943-12.962l8.755-31.955h174.315l8.755,31.955  c3.071,11.212,15.225,17.249,26.052,12.918c9.179-3.672,14.076-13.822,11.394-23.608l-18.505-67.547h90.424  c11.066,0,20.068-9.003,20.068-20.068V284.455c0-4.143-3.357-7.5-7.5-7.5c-4.143,0-7.5,3.357-7.5,7.5v114.909  c0,2.794-2.273,5.067-5.067,5.067c-7.745,0-180.123,0-187.073,0c-4.143,0-7.5,3.357-7.5,7.5s3.357,7.5,7.5,7.5h56.273l8.571,31.282  H172.953l8.571-31.282h57.678c4.143,0,7.5-3.357,7.5-7.5s-3.357-7.5-7.5-7.5c-3.979,0-183.382,0-188.477,0  c-2.794,0-5.067-2.273-5.067-5.067v-287.54h420.687v137.629c0,4.143,3.357,7.5,7.5,7.5c4.143,0,7.5-3.357,7.5-7.5V111.823h4.405  c10.772,0,19.533-8.763,19.533-19.533V64.186C505.284,53.416,496.521,44.653,485.751,44.653z M355.299,419.433l19.591,71.511  c0.653,2.384-0.443,4.896-2.498,5.718c-2.563,1.023-5.315-0.412-6.011-2.954l-20.35-74.275L355.299,419.433L355.299,419.433z   M165.969,419.433l-20.349,74.275c-0.69,2.518-3.413,3.972-5.992,2.962c0-0.001,0-0.001,0-0.001  c-2.069-0.812-3.177-3.318-2.522-5.707l19.597-71.528h9.267V419.433z M251.531,19.47c0-2.527,2.095-4.537,4.542-4.468  c2.383,0.037,4.396,2.28,4.396,4.898v24.754h-8.939V19.47z M490.283,92.29c0,2.457-2.075,4.532-4.532,4.532  c-6.691,0-455.378,0-459.501,0c-2.457,0-4.532-2.075-4.532-4.532V64.186c0-2.456,2.075-4.531,4.532-4.531  c12.532,0,428.032,0,459.501,0c2.457,0,4.532,2.075,4.532,4.531V92.29z" data-original="#000000" class="active-path" style="fill:#FFFFFF" data-old_color="#EDEDED"/><path d="M438.763,236.067c0-10.753-8.749-19.501-19.501-19.501h-46.765c-10.753,0-19.501,8.749-19.501,19.501v5.636  c0,4.527,1.564,8.688,4.162,12.001c-2.598,3.313-4.162,7.473-4.162,12.001v5.637c0,1.815,0.268,3.566,0.734,5.234  c-1.668-0.466-3.419-0.734-5.234-0.734H301.73c-10.753,0-19.501,8.749-19.501,19.501v5.637c0,4.527,1.564,8.688,4.162,12.001  c-2.598,3.313-4.162,7.473-4.162,12.001v5.637c0,1.815,0.268,3.566,0.734,5.234c-1.668-0.466-3.419-0.734-5.234-0.734h-46.765  c-10.753,0-19.501,8.749-19.501,19.501v5.637c0,10.753,8.749,19.501,19.501,19.501h46.766c4.527,0,8.688-1.564,12.001-4.162  c3.313,2.598,7.473,4.162,12.001,4.162h46.765c4.527,0,8.688-1.564,12.001-4.162c3.313,2.598,7.473,4.162,12.001,4.162h46.765  c10.753,0,19.501-8.749,19.501-19.501v-5.637c0-4.527-1.564-8.688-4.162-12.001c2.598-3.313,4.162-7.473,4.162-12.001v-5.637  c0-4.527-1.564-8.688-4.162-12.001c2.598-3.313,4.162-7.473,4.162-12.001v-5.637c0-4.527-1.564-8.688-4.162-12.001  c2.598-3.313,4.162-7.473,4.162-12.001v-5.637c0-4.527-1.564-8.688-4.162-12.001c2.598-3.313,4.162-7.473,4.162-12.001v-5.636  H438.763z M367.997,236.067c0-2.439,2.061-4.5,4.5-4.5h46.765c2.439,0,4.5,2.061,4.5,4.5v5.636c0,2.439-2.061,4.5-4.5,4.5h-46.765  c-2.439,0-4.5-2.061-4.5-4.5V236.067z M423.762,265.705v5.637c0,2.439-2.061,4.5-4.5,4.5h-46.765c-2.439,0-4.5-2.061-4.5-4.5v-5.637  c0-2.439,2.061-4.5,4.5-4.5h46.765C421.702,261.204,423.762,263.266,423.762,265.705z M423.762,295.343v5.637  c0,2.439-2.061,4.5-4.5,4.5h-46.765c-2.439,0-4.5-2.061-4.5-4.5v-5.637c0-2.439,2.061-4.5,4.5-4.5h46.765  C421.702,290.843,423.762,292.903,423.762,295.343z M423.762,324.982v5.637c0,2.439-2.061,4.5-4.5,4.5h-46.765  c-2.439,0-4.5-2.061-4.5-4.5v-5.637c0-2.439,2.061-4.5,4.5-4.5h46.765C421.702,320.482,423.762,322.542,423.762,324.982z   M297.231,330.619v-5.637c0-2.439,2.061-4.5,4.5-4.5h46.765c2.439,0,4.5,2.061,4.5,4.5v5.637c0,2.439-2.061,4.5-4.5,4.5h-46.765  C299.292,335.119,297.231,333.059,297.231,330.619z M297.231,295.343c0-2.439,2.061-4.5,4.5-4.5h46.765c2.439,0,4.5,2.061,4.5,4.5  v5.637c0,2.439-2.061,4.5-4.5,4.5h-46.765c-2.439,0-4.5-2.061-4.5-4.5V295.343z M277.73,364.758h-46.766c-2.439,0-4.5-2.061-4.5-4.5  v-5.637c0-2.439,2.061-4.5,4.5-4.5h46.766c2.439,0,4.5,2.061,4.5,4.5v5.637C282.23,362.697,280.169,364.758,277.73,364.758z   M348.496,364.758h-46.765c-2.439,0-4.5-2.061-4.5-4.5v-5.637c0-2.439,2.061-4.5,4.5-4.5h46.765c2.439,0,4.5,2.061,4.5,4.5v5.637  C352.997,362.697,350.935,364.758,348.496,364.758z M423.762,360.257c0,2.439-2.061,4.5-4.5,4.5h-46.765c-2.439,0-4.5-2.061-4.5-4.5  v-5.637c0-2.439,2.061-4.5,4.5-4.5h46.765c2.439,0,4.5,2.061,4.5,4.5V360.257z" data-original="#000000" class="active-path" style="fill:#FFFFFF" data-old_color="#EDEDED"/><path d="M389.164,192.601c4.143,0,7.5-3.358,7.5-7.5v-26.032l4.745,4.745c2.928,2.93,7.677,2.929,10.607,0  c2.929-2.929,2.929-7.678-0.001-10.607l-17.54-17.539c-2.937-2.945-7.675-2.914-10.586-0.036c-0.01,0.01-0.021,0.018-0.03,0.027  l-17.548,17.548c-2.929,2.929-2.929,7.678,0,10.607c2.93,2.929,7.678,2.929,10.608,0l4.743-4.743v26.03  C381.663,189.243,385.021,192.601,389.164,192.601z" data-original="#000000" class="active-path" style="fill:#FFFFFF" data-old_color="#EDEDED"/><path d="M316.718,259.027c4.143,0,7.5-3.357,7.5-7.5v-26.03l4.743,4.744c2.931,2.929,7.678,2.928,10.608,0  c2.929-2.93,2.929-7.678,0-10.608l-17.548-17.548c-2.895-2.895-7.582-2.929-10.526-0.075c-0.027,0.026-0.056,0.048-0.083,0.075  l-17.548,17.548c-2.929,2.93-2.929,7.678,0,10.608c2.93,2.928,7.678,2.928,10.608,0l4.743-4.744v26.03  C309.218,255.67,312.576,259.027,316.718,259.027z" data-original="#000000" class="active-path" style="fill:#FFFFFF" data-old_color="#EDEDED"/><path d="M244.273,325.454c4.143,0,7.5-3.357,7.5-7.5v-26.03l4.743,4.744c2.931,2.931,7.68,2.928,10.607,0.001  c2.93-2.929,2.93-7.678,0.001-10.607l-17.543-17.544c-2.946-2.953-7.713-2.911-10.618,0l-17.543,17.544  c-2.929,2.929-2.929,7.678,0.001,10.607c2.928,2.928,7.677,2.929,10.607-0.001l4.743-4.744v26.03  C236.773,322.097,240.13,325.454,244.273,325.454z" data-original="#000000" class="active-path" style="fill:#FFFFFF" data-old_color="#EDEDED"/><path d="M150.98,237.301c4.143,0,7.5-3.357,7.5-7.5c0-4.143-3.357-7.5-7.5-7.5h-39.513c-4.143,0-7.5,3.357-7.5,7.5  c0,4.143,3.357,7.5,7.5,7.5H150.98z" data-original="#000000" class="active-path" style="fill:#FFFFFF" data-old_color="#EDEDED"/><path d="M170.738,259.453H91.71c-4.143,0-7.5,3.357-7.5,7.5s3.357,7.5,7.5,7.5h79.027c4.143,0,7.5-3.357,7.5-7.5  S174.88,259.453,170.738,259.453z" data-original="#000000" class="active-path" style="fill:#FFFFFF" data-old_color="#EDEDED"/><path d="M170.738,296.607H91.71c-4.143,0-7.5,3.357-7.5,7.5s3.357,7.5,7.5,7.5h79.027c4.143,0,7.5-3.357,7.5-7.5  S174.88,296.607,170.738,296.607z" data-original="#000000" class="active-path" style="fill:#FFFFFF" data-old_color="#EDEDED"/><path d="M170.738,333.76H91.71c-4.143,0-7.5,3.357-7.5,7.5c0,4.143,3.357,7.5,7.5,7.5h79.027c4.143,0,7.5-3.357,7.5-7.5  C178.237,337.117,174.88,333.76,170.738,333.76z" data-original="#000000" class="active-path" style="fill:#FFFFFF" data-old_color="#EDEDED"/></g> </svg>
