<?xml version="1.0"?>
<svg xmlns="http://www.w3.org/2000/svg" xmlns:xlink="http://www.w3.org/1999/xlink" version="1.1" id="Capa_1" x="0px" y="0px" viewBox="0 0 512 512" style="enable-background:new 0 0 512 512;" xml:space="preserve" width="512px" height="512px" class=""><g><g>
	<g>
		<path d="M485.751,44.653H275.47V19.9c0-10.807-8.596-19.733-19.163-19.897c-5.249-0.085-10.22,1.904-13.967,5.593    c-3.746,3.689-5.81,8.617-5.81,13.875v25.184H26.25c-10.772,0-19.533,8.763-19.533,19.532v28.105    c0,10.771,8.763,19.533,19.533,19.533h4.405v287.54c0,11.066,9.003,20.068,20.068,20.068h90.424l-18.511,67.566    c-2.695,9.84,2.252,20,11.508,23.634c10.916,4.283,22.913-1.9,25.943-12.962l8.755-31.955h174.315l8.755,31.955    c3.071,11.212,15.225,17.249,26.052,12.918c9.179-3.672,14.076-13.822,11.394-23.608l-18.505-67.547h90.424    c11.066,0,20.068-9.003,20.068-20.068V284.455c0-4.143-3.357-7.5-7.5-7.5s-7.5,3.357-7.5,7.5v114.909    c0,2.794-2.273,5.067-5.067,5.067c-7.745,0-180.123,0-187.073,0c-4.143,0-7.5,3.357-7.5,7.5s3.357,7.5,7.5,7.5h56.273    l8.571,31.282H172.953l8.571-31.282h57.678c4.143,0,7.5-3.357,7.5-7.5s-3.357-7.5-7.5-7.5c-3.979,0-183.382,0-188.477,0    c-2.794,0-5.067-2.273-5.067-5.067v-287.54h420.688v137.629c0,4.143,3.357,7.5,7.5,7.5s7.5-3.357,7.5-7.5V111.823h4.405    c10.772,0,19.533-8.763,19.533-19.533V64.186C505.284,53.416,496.521,44.653,485.751,44.653z M355.299,419.433L355.299,419.433    l19.591,71.511c0.653,2.384-0.443,4.896-2.498,5.718c-2.563,1.023-5.315-0.412-6.011-2.954l-20.35-74.276H355.299z     M165.969,419.434l-20.349,74.274c-0.69,2.518-3.413,3.972-5.992,2.962c0-0.001,0-0.001,0-0.001    c-2.069-0.812-3.177-3.318-2.522-5.707l19.597-71.528H165.969z M251.531,19.47c0-2.527,2.095-4.537,4.542-4.468    c2.383,0.037,4.396,2.28,4.396,4.898v24.753h-8.939V19.47z M490.283,92.29c0,2.457-2.075,4.532-4.532,4.532    c-6.691,0-455.378,0-459.501,0c-2.457,0-4.532-2.075-4.532-4.532V64.186c0-2.456,2.075-4.531,4.532-4.531    c12.532,0,428.032,0,459.501,0c2.457,0,4.532,2.075,4.532,4.531V92.29z" data-original="#000000" class="active-path" data-old_color="#F8F7F7" fill="#FFFFFF"/>
	</g>
</g><g>
	<g>
		<path d="M438.764,236.067L438.764,236.067c-0.001-10.753-8.75-19.501-19.502-19.501h-46.765c-10.753,0-19.501,8.749-19.501,19.501    v5.636c0,4.527,1.564,8.688,4.162,12.001c-2.598,3.313-4.162,7.473-4.162,12.001v5.637c0,1.815,0.268,3.566,0.734,5.234    c-1.668-0.466-3.419-0.734-5.234-0.734h-46.765c-10.753,0-19.501,8.748-19.501,19.501v5.637c0,4.527,1.564,8.688,4.162,12.001    c-2.598,3.313-4.162,7.473-4.162,12.001v5.637c0,1.815,0.268,3.566,0.734,5.234c-1.668-0.466-3.419-0.734-5.234-0.734h-46.765    c-10.753,0-19.501,8.749-19.501,19.501v5.637c0,10.753,8.748,19.501,19.501,19.501h46.766c4.527,0,8.688-1.564,12.001-4.162    c3.313,2.598,7.473,4.162,12.001,4.162h46.765c4.527,0,8.688-1.564,12.001-4.162c3.313,2.598,7.473,4.162,12.001,4.162h46.765    c10.753,0,19.501-8.748,19.501-19.501v-5.637c0-4.527-1.564-8.688-4.162-12.001c2.598-3.313,4.162-7.473,4.162-12.001v-5.637    c0-4.527-1.564-8.688-4.162-12.001c2.598-3.313,4.162-7.473,4.162-12.001v-5.637c0-4.527-1.564-8.688-4.162-12.001    c2.598-3.313,4.162-7.473,4.162-12.001v-5.637c0-4.527-1.564-8.688-4.162-12.001c2.598-3.313,4.162-7.473,4.162-12.001V236.067z     M282.23,360.257c0,2.439-2.061,4.5-4.5,4.5h-46.766c-2.439,0-4.5-2.061-4.5-4.5v-5.637c0-2.439,2.061-4.5,4.5-4.5h46.766    c2.439,0,4.5,2.061,4.5,4.5V360.257z M352.997,360.257c0,2.439-2.061,4.5-4.5,4.5h-46.765c-2.439,0-4.5-2.061-4.5-4.5v-5.637    c0-2.439,2.061-4.5,4.5-4.5h46.765c2.439,0,4.5,2.061,4.5,4.5V360.257z M352.997,330.619c0,2.439-2.061,4.5-4.5,4.5h-46.765    c-2.439,0-4.5-2.06-4.5-4.5v-5.637c0-2.439,2.061-4.5,4.5-4.5h46.765c2.439,0,4.5,2.061,4.5,4.5V330.619z M352.997,300.981    c0,2.439-2.061,4.5-4.5,4.5h-46.765c-2.439,0-4.5-2.061-4.5-4.5v-5.637c0-2.439,2.061-4.5,4.5-4.5h46.765    c2.439,0,4.5,2.061,4.5,4.5V300.981z M423.762,360.257c0,2.439-2.061,4.5-4.5,4.5h-46.765c-2.439,0-4.5-2.061-4.5-4.5v-5.637    c0-2.439,2.061-4.5,4.5-4.5h46.765c2.439,0,4.5,2.061,4.5,4.5V360.257z M423.762,330.62c0,2.439-2.061,4.5-4.5,4.5h-46.765    c-2.439,0-4.5-2.061-4.5-4.5v-5.637c0-2.439,2.061-4.5,4.5-4.5h46.765c2.44,0,4.5,2.06,4.5,4.5V330.62z M423.762,300.981    c0,2.439-2.061,4.5-4.5,4.5h-46.765c-2.439,0-4.5-2.061-4.5-4.5v-5.637c0-2.439,2.061-4.5,4.5-4.5h46.765c2.44,0,4.5,2.06,4.5,4.5    V300.981z M423.762,271.342c0,2.439-2.061,4.5-4.5,4.5h-46.765c-2.439,0-4.5-2.061-4.5-4.5v-5.637c0-2.439,2.061-4.5,4.5-4.5    h46.765c2.44,0,4.5,2.061,4.5,4.5V271.342z M423.763,241.703c0,2.439-2.061,4.5-4.5,4.5h-46.765c-2.439,0-4.5-2.061-4.5-4.5    v-5.636c0-2.439,2.061-4.5,4.5-4.5h46.765c2.439,0,4.5,2.061,4.5,4.5V241.703z" data-original="#000000" class="active-path" data-old_color="#F8F7F7" fill="#FFFFFF"/>
	</g>
</g><g>
	<g>
		<path d="M412.015,153.208l-17.54-17.539c-2.937-2.945-7.675-2.914-10.586-0.036c-0.01,0.01-0.021,0.018-0.03,0.027l-17.548,17.548    c-2.929,2.929-2.929,7.678,0,10.607c2.93,2.929,7.679,2.929,10.608,0l4.743-4.743v26.03c0.001,4.142,3.358,7.5,7.501,7.5    s7.5-3.358,7.5-7.5v-26.032l4.745,4.745c2.928,2.93,7.677,2.929,10.607,0C414.945,160.885,414.945,156.136,412.015,153.208z" data-original="#000000" class="active-path" data-old_color="#F8F7F7" fill="#FFFFFF"/>
	</g>
</g><g>
	<g>
		<path d="M339.57,219.634l-17.548-17.548c-2.895-2.895-7.582-2.929-10.526-0.075c-0.027,0.026-0.056,0.048-0.083,0.075    l-17.548,17.548c-2.929,2.93-2.929,7.678,0,10.608c2.93,2.928,7.678,2.928,10.608,0l4.743-4.744v26.03    c0.002,4.143,3.36,7.5,7.502,7.5c4.143,0,7.5-3.357,7.5-7.5v-26.03l4.743,4.744c2.931,2.929,7.678,2.928,10.608,0    C342.499,227.311,342.499,222.563,339.57,219.634z" data-original="#000000" class="active-path" data-old_color="#F8F7F7" fill="#FFFFFF"/>
	</g>
</g><g>
	<g>
		<path d="M267.124,286.063l-17.543-17.544c-2.946-2.953-7.713-2.911-10.618,0l-17.543,17.544    c-2.929,2.929-2.929,7.678,0.001,10.607c2.928,2.928,7.677,2.929,10.607-0.001l4.743-4.744v26.03c0.001,4.143,3.358,7.5,7.501,7.5    s7.5-3.357,7.5-7.5v-26.03l4.743,4.744c2.931,2.931,7.68,2.928,10.607,0.001C270.054,293.74,270.054,288.991,267.124,286.063z" data-original="#000000" class="active-path" data-old_color="#F8F7F7" fill="#FFFFFF"/>
	</g>
</g><g>
	<g>
		<path d="M150.98,222.3h-39.513c-4.143,0-7.5,3.357-7.5,7.5s3.357,7.5,7.5,7.5h39.513c4.143,0,7.5-3.357,7.5-7.5    S155.124,222.3,150.98,222.3z" data-original="#000000" class="active-path" data-old_color="#F8F7F7" fill="#FFFFFF"/>
	</g>
</g><g>
	<g>
		<path d="M170.738,259.453H91.71c-4.143,0-7.5,3.357-7.5,7.5s3.357,7.5,7.5,7.5h79.027c4.143,0,7.5-3.357,7.5-7.5    S174.88,259.453,170.738,259.453z" data-original="#000000" class="active-path" data-old_color="#F8F7F7" fill="#FFFFFF"/>
	</g>
</g><g>
	<g>
		<path d="M170.738,296.607H91.71c-4.143,0-7.5,3.357-7.5,7.5s3.357,7.5,7.5,7.5h79.027c4.143,0,7.5-3.357,7.5-7.5    S174.88,296.607,170.738,296.607z" data-original="#000000" class="active-path" data-old_color="#F8F7F7" fill="#FFFFFF"/>
	</g>
</g><g>
	<g>
		<path d="M170.738,333.76H91.71c-4.143,0-7.5,3.357-7.5,7.5c0,4.143,3.357,7.5,7.5,7.5h79.027c4.143,0,7.5-3.357,7.5-7.5    C178.237,337.117,174.88,333.76,170.738,333.76z" data-original="#000000" class="active-path" data-old_color="#F8F7F7" fill="#FFFFFF"/>
	</g>
</g></g> </svg>
