<?xml version="1.0" encoding="UTF-8"?>
<svg width="144px" height="144px" viewBox="0 0 144 144" version="1.1" xmlns="http://www.w3.org/2000/svg" xmlns:xlink="http://www.w3.org/1999/xlink">
    <!-- Generator: Sketch 49.3 (51167) - http://www.bohemiancoding.com/sketch -->
    <title>Image</title>
    <desc>Created with Sketch.</desc>
    <defs></defs>
    <g id="Super-Administrator" stroke="none" stroke-width="1" fill="none" fill-rule="evenodd">
        <g id="Dashboard" transform="translate(-298.000000, -257.000000)">
            <g id="1.-Toys-Block" transform="translate(185.000000, 225.000000)">
                <g id="Image" transform="translate(113.000000, 32.000000)">
                    <rect id="Ruler" fill="#FFFFFF" x="0" y="0" width="144" height="144"></rect>
                    <g id="Group" transform="translate(9.000000, 9.000000)">
                        <g transform="translate(0.940594, 0.940594)">
                            <path d="M124.659412,62.0594059 C124.659412,96.3020059 96.900462,124.059406 62.659412,124.059406 C28.418362,124.059406 0.659412044,96.3020059 0.659412044,62.0594059 C0.659412044,27.8168059 28.418362,0.0594059406 62.659412,0.0594059406 C96.900462,0.0594059406 124.659412,27.8168059 124.659412,62.0594059" id="Fill-1" fill="#E8F4FA"></path>
                            <path d="M94.9594075,101.733156 C94.9594075,103.211856 80.4316832,104.408456 62.5094067,104.408456 C44.5871302,104.408456 30.0594059,103.211856 30.0594059,101.733156 C30.0594059,100.256006 44.5871302,99.0594059 62.5094067,99.0594059 C80.4316832,99.0594059 94.9594075,100.256006 94.9594075,101.733156" id="Fill-85" fill="#020202" opacity="0.15"></path>
                            <path d="M58.2088317,81.2866634 C58.2088317,83.0525347 57.8877129,84.6577525 57.4061287,86.102505 C55.8009109,90.7578812 51.7875842,94.1289703 46.9717426,94.1289703 C40.7111485,94.1289703 35.7348416,88.3499604 35.7348416,81.2866634 C35.7348416,74.2233663 40.7111485,68.4443564 46.9717426,68.4443564 C49.8612475,68.4443564 52.5902871,69.7286436 54.5166238,71.8154455 C56.7640792,74.062901 58.2088317,77.4339901 58.2088317,81.2866634 Z M79.0774158,68.4445446 C85.3380099,68.4445446 90.3143168,74.2235545 90.3143168,81.2868515 C90.3143168,88.3501485 85.3380099,94.1291584 79.0774158,94.1291584 C74.4220396,94.1291584 70.2484356,90.7580693 68.6430297,86.1026931 C68.1614455,84.6579406 67.8403267,83.0527228 67.8403267,81.2868515 C67.8403267,77.4341782 69.2850792,74.0630891 71.5325347,71.8156337 C73.4590594,69.7286436 76.1879109,68.4445446 79.0774158,68.4445446 Z" id="Shape" fill="#F2EDDA" fill-rule="nonzero"></path>
                            <path d="M79.0774158,78.0762277 C81.8064554,78.0762277 83.8932574,80.1630297 83.8932574,82.8920693 C83.8932574,85.6211089 81.8064554,87.7079109 79.0774158,87.7079109 C76.3483762,87.7079109 74.2615743,85.6211089 74.2615743,82.8920693 C74.2615743,80.1630297 76.3485644,78.0762277 79.0774158,78.0762277 Z M46.9719307,78.0762277 C49.7009703,78.0762277 51.7877723,80.1630297 51.7877723,82.8920693 C51.7877723,85.6211089 49.7009703,87.7079109 46.9719307,87.7079109 C44.2428911,87.7079109 42.1560891,85.6211089 42.1560891,82.8920693 C42.1560891,80.1630297 44.2428911,78.0762277 46.9719307,78.0762277 Z" id="Shape" fill="#AAB1BA" fill-rule="nonzero"></path>
                            <path d="M54.9982079,47.5757723 C58.369297,47.5757723 61.258802,49.3416436 63.0246733,51.9100297 C64.7905446,49.3416436 67.6800495,47.5757723 71.0511386,47.5757723 C71.3722574,47.5757723 71.6931881,47.5757723 72.0143069,47.5757723 C72.9774752,47.7362376 73.9406436,47.8968911 74.9038119,48.3784752 C77.3117327,49.5021089 79.2380693,51.589099 80.2012376,54.1574851 C80.2012376,54.3179505 80.361703,54.3179505 80.361703,54.478604 C78.7564851,55.2813069 77.472198,56.8865248 77.472198,58.8128614 C77.472198,60.2576139 78.1142475,61.541901 79.0774158,62.3444158 C77.1510792,65.715505 74.2615743,68.4445446 74.2615743,68.4445446 L71.211604,71.4945149 L63.0246733,79.6814455 L54.8377426,71.4945149 L51.7877723,68.4445446 C51.7877723,68.4445446 48.8982673,65.715505 46.9719307,62.3444158 C47.935099,61.5417129 48.5771485,60.2576139 48.5771485,58.8128614 C48.5771485,56.8865248 47.4535149,55.1206535 45.6876436,54.478604 C45.6876436,54.3181386 45.6876436,54.3181386 45.8481089,54.1574851 C46.6508119,51.589099 48.5771485,49.5021089 51.1455347,48.3784752 C51.7875842,48.0573564 52.4298218,47.8968911 53.0718713,47.7364257 C53.3929901,47.7364257 53.7139208,47.5759604 54.0350396,47.5759604 C54.3561584,47.5757723 54.6770891,47.5757723 54.9982079,47.5757723" id="Shape" fill="#FF7474" fill-rule="nonzero"></path>
                            <path d="M45.6876436,54.4784158 C47.2928614,55.2811188 48.5771485,56.8863366 48.5771485,58.8126733 C48.5771485,60.2574257 47.935099,61.5417129 46.9719307,62.3442277 C46.1692277,63.1469307 45.0455941,63.6285149 43.7613069,63.6285149 C41.0322673,63.6285149 38.9454653,61.5417129 38.9454653,58.8126733 C38.9454653,56.0836337 41.0322673,53.9968317 43.7613069,53.9968317 C44.5640099,53.9970198 45.2060594,54.1574851 45.6876436,54.4784158 Z M82.2880396,53.9970198 C85.0170792,53.9970198 87.1038812,56.0838218 87.1038812,58.8128614 C87.1038812,61.541901 85.0170792,63.628703 82.2880396,63.628703 C81.0037525,63.628703 79.8801188,63.1471188 79.0774158,62.3444158 C78.1142475,61.5417129 77.472198,60.2576139 77.472198,58.8128614 C77.472198,56.8865248 78.5958317,55.1206535 80.361703,54.478604 C80.8432871,54.1574851 81.6459901,53.9970198 82.2880396,53.9970198 Z" id="Shape" fill="#F2EDDA" fill-rule="nonzero"></path>
                            <path d="M63.0246733,51.9100297 C61.258802,49.3416436 58.369297,47.5757723 54.9982079,47.5757723 C54.6770891,47.5757723 54.3561584,47.5757723 54.0350396,47.5757723 C53.7139208,47.5757723 53.3929901,47.7362376 53.0718713,47.7362376 C52.4298218,47.896703 51.7875842,48.0573564 51.1455347,48.3782871 C49.5403168,46.2914851 48.5771485,43.8835644 48.5771485,41.1545248 C48.5771485,34.0912277 54.9982079,28.3122178 63.0246733,28.3122178 C71.0511386,28.3122178 77.472198,34.0912277 77.472198,41.1545248 C77.472198,43.8835644 76.5090297,46.2914851 74.9038119,48.3782871 C73.9406436,47.896703 72.9774752,47.7362376 72.0143069,47.5755842 C71.6931881,47.5755842 71.3722574,47.5755842 71.0511386,47.5755842 C67.6798614,47.5757723 64.7905446,49.3416436 63.0246733,51.9100297" id="Shape" fill="#FFD0A1" fill-rule="nonzero"></path>
                            <g transform="translate(29.000000, 1.000000)" fill="#F2EDDA" fill-rule="nonzero" id="Shape">
                                <path d="M29.2088317,80.2866634 C29.2088317,76.4339901 27.7640792,73.062901 25.5166238,70.8154455 L25.8377426,70.4943267 L34.0246733,78.6812574 L42.211604,70.4943267 L42.5327228,70.8154455 C40.2852673,73.2233663 38.8405149,76.5944554 38.8405149,80.2866634 C38.8405149,81.8918812 39.1616337,83.6577525 39.6432178,85.102505 L39.4827525,85.102505 C39.4827525,85.102505 38.038,86.7077228 34.0248614,86.7077228 C30.0117228,86.7077228 28.4063168,85.102505 28.4063168,85.102505 L28.2458515,85.102505 C28.8877129,83.6577525 29.2088317,82.0525347 29.2088317,80.2866634"></path>
                                <path d="M22.1455347,47.3784752 C19.7376139,48.5021089 17.8112772,50.589099 16.8481089,53.1574851 L16.6876436,53.1574851 C14.4401881,52.0338515 12.1929208,48.8232277 12.1929208,48.8232277 C8.66136634,44.6494356 6.57437624,39.3520099 6.57437624,33.7336535 C6.57437624,28.7573465 7.6980099,23.7808515 9.785,19.2861287 C4.48757426,19.2861287 0.153316832,14.9518713 0.153316832,9.65444554 C0.153316832,4.3570198 4.48757426,0.0227623762 9.785,0.0227623762 C14.6008416,0.0227623762 18.4535149,3.39385149 19.0955644,7.88857426 C23.108703,4.99906931 28.085198,3.23319802 33.8642079,3.23319802 C39.4827525,3.23319802 44.4590594,4.99906931 48.472198,7.88857426 C49.274901,3.39385149 53.1275743,0.0227623762 57.9434158,0.0227623762 C63.2408416,0.0227623762 67.575099,4.3570198 67.575099,9.65444554 C67.575099,14.9518713 63.2408416,19.2861287 57.9434158,19.2861287 C60.1908713,23.7808515 61.1540396,28.7573465 61.1540396,33.7336535 C61.1540396,39.352198 59.0672376,44.6496238 55.535495,48.8232277 C55.535495,48.8232277 53.4486931,51.5522673 51.0407723,52.9970198 C50.2380693,50.4286337 48.3117327,48.3416436 45.7433465,47.2180099 C47.3485644,45.1312079 48.3117327,42.7232871 48.3117327,39.9942475 C48.3117327,32.9309505 41.8906733,27.1519406 33.8642079,27.1519406 C25.8377426,27.1519406 19.4166832,32.9309505 19.4166832,39.9942475 C19.5771485,42.8837525 20.5403168,45.2916733 22.1455347,47.3784752"></path>
                            </g>
                            <path d="M66.235297,34.7336535 C66.235297,36.3388713 64.6300792,37.9442772 63.0246733,37.9442772 C61.4194554,37.9442772 59.8140495,36.3390594 59.8140495,34.7336535 C59.8140495,33.1282475 66.235297,33.1282475 66.235297,34.7336535" id="Shape" fill="#AAB1BA" fill-rule="nonzero"></path>
                        </g>
                        <path d="M80.0180099,95.8722673 C75.3626337,95.8722673 71.1890297,92.822297 69.2626931,88.1669208 C68.2995248,88.648505 66.6943069,89.4512079 63.9652673,89.4512079 C61.3968812,89.4512079 59.6310099,88.8091584 58.6678416,88.1669208 C56.741505,92.6616436 52.5677129,95.8722673 47.9125248,95.8722673 C41.3308119,95.8722673 35.8729208,89.7721386 35.8729208,82.2274455 C35.8729208,74.6827525 41.3308119,68.5826238 47.9125248,68.5826238 C49.0361584,68.5826238 50.3204455,68.7430891 51.2836139,69.2246733 C50.3204455,68.261505 48.8756931,66.6562871 47.5914059,64.569297 C46.788703,65.0508812 45.6650693,65.372 44.5414356,65.372 C41.4914653,65.372 38.9228911,62.8036139 38.9228911,59.7534554 C38.9228911,56.703297 41.4912772,54.1349109 44.5414356,54.1349109 C45.0230198,54.1349109 45.504604,54.1349109 45.9861881,54.2953762 C47.5914059,50.2822376 51.4440792,47.7136634 55.7783366,47.7136634 C58.8283069,47.7136634 61.8784653,49.1584158 63.804802,51.4058713 C65.7311386,48.9979505 68.7811089,47.7136634 71.8312673,47.7136634 C76.1655248,47.7136634 80.018198,50.442703 81.6234158,54.2953762 C82.105,54.1349109 82.5865842,54.1349109 83.0681683,54.1349109 C86.1181386,54.1349109 88.6867129,56.703297 88.6867129,59.7534554 C88.6867129,62.8036139 86.1183267,65.372 83.0681683,65.372 C81.9445347,65.372 80.9813663,65.0508812 80.1786634,64.569297 C78.8943762,66.656099 77.4496238,68.261505 76.4864554,69.2246733 C77.6100891,68.9035545 78.7339109,68.7430891 79.8575446,68.7430891 C86.4392574,68.7430891 91.8971485,74.8432178 91.8971485,82.3879109 C91.8971485,89.932604 86.5997228,95.8722673 80.0180099,95.8722673 Z M80.0180099,70.1876535 C74.239,70.1876535 69.5836238,75.6455446 69.5836238,82.2272574 C69.5836238,88.8089703 74.239,94.2668614 80.0180099,94.2668614 C85.7970198,94.2668614 90.452396,88.8089703 90.452396,82.2272574 C90.452396,75.6455446 85.7970198,70.1876535 80.0180099,70.1876535 Z M47.9125248,70.1876535 C42.1335149,70.1876535 37.4781386,75.6455446 37.4781386,82.2272574 C37.4781386,88.8089703 42.1335149,94.2668614 47.9125248,94.2668614 C53.6915347,94.2668614 58.3469109,88.8089703 58.3469109,82.2272574 C58.3469109,75.6455446 53.6915347,70.1876535 47.9125248,70.1876535 Z M59.3098911,86.7219802 C59.9519406,87.043099 61.3966931,87.8456139 63.9652673,87.8456139 C66.6943069,87.8456139 68.1390594,87.0429109 68.6206436,86.7219802 C68.1390594,85.2772277 67.9785941,83.8324752 67.9785941,82.2272574 C67.9785941,80.3009208 68.2997129,78.3745842 68.9417624,76.7693663 L64.4470396,81.2640891 C64.1259208,81.5852079 63.6443366,81.5852079 63.3234059,81.2640891 L58.8286832,76.7693663 C59.4707327,78.3745842 59.7918515,80.3009208 59.7918515,82.2272574 C59.9521287,83.8326634 59.7914752,85.2774158 59.3098911,86.7219802 Z M48.8756931,63.4454752 C50.6415644,66.4954455 53.2099505,68.742901 53.2099505,68.742901 L63.9652673,79.4982178 L74.5601188,68.9033663 C74.5601188,68.9033663 77.128505,66.4954455 78.8943762,63.6059406 C78.0916733,62.6427723 77.4496238,61.3584851 77.4496238,59.9137327 C77.4496238,57.987396 78.5732574,56.2215248 80.0180099,55.0978911 C78.7337228,51.726802 75.3626337,49.4793465 71.8310792,49.4793465 C68.9415743,49.4793465 66.0520693,50.924099 64.4468515,53.4924851 C64.1257327,53.9740693 63.4836832,53.9740693 63.1625644,53.4924851 C61.5573465,51.0845644 58.8283069,49.4793465 55.7783366,49.4793465 C52.0861287,49.4793465 48.8756931,51.726802 47.5914059,55.0978911 C49.1966238,56.0610594 50.1597921,57.8269307 50.1597921,59.9137327 C50.3204455,61.1982079 49.8386733,62.4823069 48.8756931,63.4454752 Z M80.6600594,62.8034257 C81.3021089,63.4454752 82.2652772,63.7665941 83.2284455,63.7665941 C85.475901,63.7665941 87.2415842,62.0007228 87.2415842,59.7534554 C87.2415842,57.5061881 85.4757129,55.7403168 83.2284455,55.7403168 C82.7468614,55.7403168 82.1048119,55.9007822 81.6232277,56.0614356 C81.6232277,56.0614356 81.4627624,56.0614356 81.4627624,56.221901 C80.1784752,56.8639505 79.2153069,58.308703 79.2153069,59.7534554 C79.2153069,60.8770891 79.6968911,62.0009109 80.4995941,62.6429604 C80.4995941,62.6427723 80.6600594,62.8034257 80.6600594,62.8034257 Z M44.701901,55.7401287 C42.4544455,55.7401287 40.6887624,57.506 40.6887624,59.7532673 C40.6887624,62.0005347 42.4546337,63.7664059 44.701901,63.7664059 C45.6650693,63.7664059 46.6282376,63.4452871 47.2702871,62.8032376 L47.4307525,62.6427723 C48.2334554,61.8400693 48.7150396,60.876901 48.7150396,59.7532673 C48.7150396,58.1480495 47.7518713,56.8637624 46.4675842,56.2217129 C46.4675842,56.2217129 46.3071188,56.2217129 46.3071188,56.0612475 C45.8255347,55.9007822 45.1834851,55.7401287 44.701901,55.7401287 Z M80.0180099,89.4510198 C76.9680396,89.4510198 74.3994653,86.8826337 74.3994653,83.8324752 C74.3994653,80.7823168 76.9678515,78.2139307 80.0180099,78.2139307 C83.0679802,78.2139307 85.6365545,80.7823168 85.6365545,83.8324752 C85.6365545,86.8826337 83.0679802,89.4510198 80.0180099,89.4510198 Z M80.0180099,79.8193366 C77.7705545,79.8193366 76.0048713,81.5852079 76.0048713,83.8324752 C76.0048713,86.0799307 77.7707426,87.8456139 80.0180099,87.8456139 C82.2654653,87.8456139 84.0311485,86.0797426 84.0311485,83.8324752 C84.0313366,81.5852079 82.2654653,79.8193366 80.0180099,79.8193366 Z M47.9125248,89.4510198 C44.8625545,89.4510198 42.2939802,86.8826337 42.2939802,83.8324752 C42.2939802,80.7823168 44.8623663,78.2139307 47.9125248,78.2139307 C50.9626832,78.2139307 53.5310693,80.7823168 53.5310693,83.8324752 C53.5310693,86.8826337 50.962495,89.4510198 47.9125248,89.4510198 Z M47.9125248,79.8193366 C45.6650693,79.8193366 43.8993861,81.5852079 43.8993861,83.8324752 C43.8993861,86.0799307 45.6652574,87.8456139 47.9125248,87.8456139 C50.1597921,87.8456139 51.9256634,86.0797426 51.9256634,83.8324752 C51.9256634,81.5852079 50.1597921,79.8193366 47.9125248,79.8193366 Z M85.6365545,51.5665248 C85.4760891,51.5665248 85.3154356,51.5665248 85.1549703,51.4060594 C84.8338515,51.0849406 84.8338515,50.6033564 85.1549703,50.2824257 C88.6865248,46.2692871 90.6128614,40.9718614 90.6128614,35.6744356 C90.6128614,30.6981287 89.4892277,25.8822871 87.4022376,21.5480297 C87.2417723,21.2269109 87.2417723,21.0664455 87.4022376,20.7453267 C87.562703,20.5848614 87.8838218,20.4242079 88.0442871,20.4242079 C92.8601287,20.4242079 96.8732673,16.4110693 96.8732673,11.5952277 C96.8732673,6.77938614 92.8603168,2.76587129 88.0444752,2.76587129 C83.8706832,2.76587129 80.3391287,5.49491089 79.5364257,9.34758416 C81.7838812,10.952802 83.7102178,13.039604 85.475901,15.4475248 C85.7970198,15.7686436 85.6363663,16.2502277 85.3154356,16.5711584 C84.9943168,16.8922772 84.5127327,16.7316238 84.191802,16.4106931 C79.215495,9.66851485 71.9917327,5.97630693 63.9652673,5.97630693 C58.6678416,5.97630693 53.852,7.42105941 49.6782079,10.4710297 C47.4307525,12.0762475 45.5044158,14.0025842 43.7387327,16.410505 C43.4176139,16.7316238 42.9360297,16.8920891 42.615099,16.5709703 C42.2939802,16.2498515 42.1335149,15.7682673 42.4546337,15.4473366 C44.220505,13.1998812 46.1468416,11.1130792 48.3941089,9.50786139 C47.4309406,5.49472277 44.0598515,2.76568317 39.8860594,2.76568317 C35.0702178,2.76568317 31.0570792,6.77882178 31.0570792,11.5946634 C31.0570792,16.410505 35.0702178,20.4236436 39.8860594,20.4236436 C40.2071782,20.4236436 40.3676436,20.5841089 40.5281089,20.7447624 C40.6885743,20.9052277 40.6885743,21.2263465 40.5281089,21.5474653 C38.4413069,25.8817228 37.3174851,30.6975644 37.3174851,35.6738713 C37.3174851,40.971297 39.2438218,46.1082574 42.6149109,50.121396 C42.9360297,50.4425149 42.9360297,50.924099 42.4544455,51.2450297 C42.1333267,51.5661485 41.6517426,51.5661485 41.3308119,51.0845644 C37.638604,46.7503069 35.551802,41.2924158 35.551802,35.5134059 C35.551802,30.6975644 36.5149703,26.0421881 38.2808416,21.8685842 C33.1438812,21.2265347 29.1307426,16.8922772 29.1307426,11.434198 C29.1305545,5.65537624 33.7857426,1 39.5647525,1 C44.2201287,1 48.2332673,3.88950495 49.5175545,8.38422772 C53.6913465,5.65518812 58.5071881,4.21043564 63.6439604,4.21043564 C68.7807327,4.21043564 73.5967624,5.65518812 77.7703663,8.22357426 C79.0546535,3.88950495 83.0679802,1 87.7231683,1 C93.5021782,1 98.1575545,5.65537624 98.1575545,11.4343861 C98.1575545,16.7318119 94.1444158,21.2265347 89.0074554,21.8687723 C90.9337921,26.2030297 91.736495,30.6977525 91.736495,35.5135941 C91.736495,41.292604 89.6496931,46.9111485 85.7970198,51.2454059 C85.9576733,51.5665248 85.7970198,51.5665248 85.6365545,51.5665248 Z M49.6782079,44.5032277 C49.3570891,44.5032277 49.0361584,44.1821089 48.875505,43.8611782 C48.7150396,43.2191287 48.7150396,42.7375446 48.7150396,42.0953069 C48.7150396,35.6742475 55.2967525,28.4504851 63.9652673,28.4504851 C72.6337822,28.4504851 79.215495,35.6742475 79.215495,42.0953069 C79.215495,42.7373564 79.215495,43.2189406 79.0550297,43.8611782 C78.8945644,44.3427624 78.5734455,44.5032277 78.0918614,44.5032277 C77.6102772,44.3427624 77.2891584,44.0216436 77.4498119,43.5400594 C77.6102772,43.0584752 77.6102772,42.5768911 77.6102772,42.0953069 C77.6102772,36.4767624 71.670802,30.055703 63.9654554,30.055703 C56.2601089,30.055703 50.3206337,36.4767624 50.3206337,42.0953069 C50.3206337,42.5768911 50.3206337,43.0584752 50.481099,43.5400594 C50.4809109,44.0216436 50.3204455,44.5032277 49.6782079,44.5032277 C49.8386733,44.5032277 49.6782079,44.5032277 49.6782079,44.5032277 Z M68.9415743,44.5032277 C68.6204554,44.5032277 68.4599901,44.5032277 68.1388713,44.5032277 C66.2125347,44.0216436 64.7677822,42.2557723 63.9650792,40.8110198 C63.1623762,42.2557723 61.7176238,44.0216436 59.7912871,44.5032277 C58.3465347,44.8243465 56.9017822,44.1821089 55.4570297,42.7373564 C55.1359109,42.4162376 55.1359109,41.9346535 55.4570297,41.6137228 C55.7781485,41.292604 56.2597327,41.292604 56.5806634,41.6137228 C57.5438317,42.5768911 58.6674653,43.0584752 59.4701683,42.8980099 C60.9149208,42.5768911 62.1992079,40.8112079 62.8412574,39.5269208 C61.2360396,39.0453366 59.9517525,37.4401188 59.9517525,35.6742475 C59.9517525,34.229495 62.0385545,33.5874455 63.9648911,33.5874455 C65.8912277,33.5874455 67.9780297,34.0690297 67.9780297,35.6742475 C67.9780297,37.2794653 66.6937426,38.8848713 65.0885248,39.5269208 C65.7305743,40.8112079 67.0148614,42.5768911 68.4596139,42.8980099 C69.4227822,43.0584752 70.3859505,42.7375446 71.3491188,41.6137228 C71.6702376,41.292604 72.1518218,41.292604 72.4727525,41.6137228 C72.7938713,41.9348416 72.7938713,42.4164257 72.4727525,42.7373564 C71.349495,43.8611782 70.2258614,44.5032277 68.9415743,44.5032277 Z M61.5573465,35.6742475 C61.5573465,36.7978812 62.8416337,38.0821683 63.9652673,38.0821683 C65.088901,38.0821683 66.3731881,36.7978812 66.3731881,35.6742475 C66.2127228,35.6742475 65.4100198,35.1926634 63.9652673,35.1926634 C62.5205149,35.3531287 61.7178119,35.5135941 61.5573465,35.6742475 Z M74.3996535,25.2398614 C73.4364851,25.2398614 72.7944356,24.5978119 72.7944356,23.6346436 C72.7944356,22.6714752 73.4364851,22.0294257 74.3996535,22.0294257 C75.3628218,22.0294257 76.0048713,22.6714752 76.0048713,23.6346436 C76.0048713,24.5978119 75.3628218,25.2398614 74.3996535,25.2398614 Z M53.5308812,25.2398614 C52.5677129,25.2398614 51.9256634,24.5978119 51.9256634,23.6346436 C51.9256634,22.6714752 52.5677129,22.0294257 53.5308812,22.0294257 C54.4940495,22.0294257 55.136099,22.6714752 55.136099,23.6346436 C55.1362871,24.5978119 54.4940495,25.2398614 53.5308812,25.2398614 Z M37.638604,14.6450099 C37.4781386,14.6450099 37.1570198,14.6450099 36.9965545,14.4845446 C36.1938515,13.6818416 35.8729208,12.7186733 35.8729208,11.5950396 C35.8729208,10.4714059 36.354505,9.50823762 36.9965545,8.70553465 C38.6017723,7.10031683 41.1703465,7.10031683 42.615099,8.70553465 C42.9362178,9.02665347 42.9362178,9.50823762 42.615099,9.82916832 C42.2939802,10.150099 41.812396,10.1502871 41.4914653,9.82916832 C40.528297,8.866 39.0835446,8.866 38.1203762,9.82916832 C37.6387921,10.3107525 37.4783267,10.952802 37.4783267,11.5950396 C37.4783267,12.2370891 37.7994455,12.8793267 38.1203762,13.3609109 C38.441495,13.6820297 38.441495,14.1636139 38.1203762,14.4845446 C37.9597228,14.6450099 37.7992574,14.6450099 37.638604,14.6450099 Z M90.2917426,14.6450099 C90.1312772,14.6450099 89.8101584,14.6450099 89.6496931,14.4845446 C89.3285743,14.1634257 89.3285743,13.6818416 89.6496931,13.3609109 C90.1312772,12.8793267 90.2917426,12.2372772 90.2917426,11.5950396 C90.2917426,10.952802 89.9706238,10.3107525 89.6496931,9.82916832 C88.6865248,8.866 87.2417723,8.866 86.278604,9.82916832 C85.9574851,10.1502871 85.475901,10.1502871 85.1549703,9.82916832 C84.8338515,9.5080495 84.8338515,9.02646535 85.1549703,8.70553465 C86.7601881,7.10031683 89.3287624,7.10031683 90.7735149,8.70553465 C91.5762178,9.50823762 91.8971485,10.4714059 91.8971485,11.5950396 C91.8971485,12.7186733 91.4155644,13.6818416 90.7735149,14.4845446 C90.7735149,14.6450099 90.452396,14.6450099 90.2917426,14.6450099 Z" id="Shape" fill="#45413C" fill-rule="nonzero"></path>
                    </g>
                    <path d="M142.4999,105 C141.6719,105 140.9999,105.672 140.9999,106.5 C140.9999,107.328 141.6719,108 142.4999,108 C143.3279,108 143.9999,107.328 143.9999,106.5 C143.9999,105.672 143.3279,105 142.4999,105 M133.9999,32 L132.9999,32 L132.9999,31 C132.9999,30.448 132.5519,30 131.9999,30 C131.4479,30 130.9999,30.448 130.9999,31 L130.9999,32 L129.9999,32 C129.4479,32 128.9999,32.448 128.9999,33 C128.9999,33.552 129.4479,34 129.9999,34 L130.9999,34 L130.9999,35 C130.9999,35.552 131.4479,36 131.9999,36 C132.5519,36 132.9999,35.552 132.9999,35 L132.9999,34 L133.9999,34 C134.5519,34 134.9999,33.552 134.9999,33 C134.9999,32.448 134.5519,32 133.9999,32 M4.9999,99 L3.9999,99 L3.9999,98 C3.9999,97.448 3.5519,97 2.9999,97 C2.4479,97 1.9999,97.448 1.9999,98 L1.9999,99 L0.9999,99 C0.4479,99 -0.0001,99.448 -0.0001,100 C-0.0001,100.552 0.4479,101 0.9999,101 L1.9999,101 L1.9999,102 C1.9999,102.552 2.4479,103 2.9999,103 C3.5519,103 3.9999,102.552 3.9999,102 L3.9999,101 L4.9999,101 C5.5519,101 5.9999,100.552 5.9999,100 C5.9999,99.448 5.5519,99 4.9999,99" id="Decoration" fill="#BFC7D2" transform="translate(71.999900, 69.000000) rotate(180.000000) translate(-71.999900, -69.000000) "></path>
                </g>
            </g>
        </g>
    </g>
</svg>