<?xml version="1.0" encoding="UTF-8"?>
<svg width="32px" height="32px" viewBox="0 0 32 32" version="1.1" xmlns="http://www.w3.org/2000/svg" xmlns:xlink="http://www.w3.org/1999/xlink">
    <!-- Generator: Sketch 49.3 (51167) - http://www.bohemiancoding.com/sketch -->
    <title>house-2 copy 3</title>
    <desc>Created with Sketch.</desc>
    <defs></defs>
    <g id="Super-Administrator" stroke="none" stroke-width="1" fill="none" fill-rule="evenodd">
        <g id="Deliveries-(Map-View-&gt;-Pending-&gt;-Assigned-Volunteer)" transform="translate(-762.000000, -592.000000)" fill-rule="nonzero">
            <g id="Map" transform="translate(130.000000, 178.000000)">
                <g id="Markers" transform="translate(91.000000, 106.000000)">
                    <g id="house-2-copy-3" transform="translate(541.000000, 308.000000)">
                        <rect id="Rectangle-path" fill="#F05540" x="23.9333125" y="4.6" width="3.6666875" height="6.4"></rect>
                        <rect id="Rectangle-path" fill="#F3705A" x="22.5333125" y="1.3333125" width="6.4666875" height="3.4666875"></rect>
                        <path d="M2.8,17.2666875 L2.8,32 L28.9333125,32 L28.9333125,17.2666875 C23.8,12.133375 20.9333125,9.2666875 15.866625,4.2 C10.8,9.3333125 7.9333125,12.2 2.8,17.2666875 Z" id="Shape" fill="#FFD15C"></path>
                        <path d="M29,17.2666875 C23.8666875,12.133375 21,9.2666875 15.9333125,4.2 C13.3333125,6.7333125 11.3333125,8.7333125 9.3333125,10.7333125 C7.3333125,12.7333125 5.3333125,14.7333125 2.8,17.266625 L2.8,20.266625 C7.9333125,15.1333125 10.8,12.266625 15.8666875,7.1999375 C21,12.33325 23.8666875,15.1999375 28.933375,20.266625 L28.933375,20.666625 L28.933375,17.266625 L29,17.266625 L29,17.2666875 Z" id="Shape" fill="#F7B64C"></path>
                        <path d="M13.5333125,32 L5.6666875,32 L5.6666875,24.2666875 C5.6666875,22.0666875 7.4666875,20.333375 9.6,20.333375 C11.8,20.333375 13.5333125,22.133375 13.5333125,24.2666875 L13.5333125,32 Z" id="Shape" fill="#415A6B"></path>
                        <rect id="Rectangle-path" fill="#344A5E" x="15.8666875" y="20.3333125" width="10.2666875" height="9"></rect>
                        <g id="Group" transform="translate(16.875000, 21.375000)" fill="#8AD7F8">
                            <rect id="Rectangle-path" x="0.0583125" y="0.025" width="3.5333125" height="6.8666875"></rect>
                            <rect id="Rectangle-path" x="4.6583125" y="0.025" width="3.5333125" height="6.8666875"></rect>
                        </g>
                        <path d="M31.4,14.5333125 L17.4666875,0.6 C16.6666875,-0.2 15.2666875,-0.2 14.4666875,0.6 L0.6,14.5333125 C-0.2,15.3333125 -0.2,16.7333125 0.6,17.5333125 C1.4,18.3333125 2.8,18.3333125 3.6,17.5333125 L16,5.1333125 L28.4,17.5333125 C29.2,18.3333125 30.6,18.3333125 31.4,17.5333125 C32.2,16.6666875 32.2,15.3333125 31.4,14.5333125 Z" id="Shape" fill="#F3705A"></path>
                    </g>
                </g>
            </g>
        </g>
    </g>
</svg>