<?xml version="1.0" encoding="UTF-8"?>
<svg width="144px" height="144px" viewBox="0 0 144 144" version="1.1" xmlns="http://www.w3.org/2000/svg" xmlns:xlink="http://www.w3.org/1999/xlink">
    <!-- Generator: Sketch 49.3 (51167) - http://www.bohemiancoding.com/sketch -->
    <title>Image</title>
    <desc>Created with Sketch.</desc>
    <defs></defs>
    <g id="Volunteer-(Desktop)" stroke="none" stroke-width="1" fill="none" fill-rule="evenodd">
        <g id="Active-Tasks" transform="translate(-850.000000, -201.000000)">
            <g id="Record-1" transform="translate(130.000000, 111.000000)">
                <g id="B" transform="translate(700.000000, 80.000000)">
                    <g id="Image" transform="translate(20.000000, 10.000000)">
                        <g id="Group" transform="translate(9.000000, 12.000000)">
                            <path d="M120.272727,62.3303617 C120.272727,30.6024894 94.6302955,4.88355319 63,4.88355319 C31.3697045,4.88355319 5.72727273,30.6024894 5.72727273,62.3303617 C5.72727273,70.7822234 7.56286364,78.8003617 10.8302727,86.0271702 L115.169727,86.0271702 C118.437136,78.8003617 120.272727,70.7822234 120.272727,62.3303617" id="Fill-1" fill="#FFF48C"></path>
                            <path d="M10.8302727,86.0271702 C19.82925,105.926745 39.7959545,119.77717 63,119.77717 C86.2040455,119.77717 106.17075,105.926745 115.169727,86.0271702 L10.8302727,86.0271702 Z" id="Fill-3" fill="#FFFFFF"></path>
                            <path d="M7.15909091,86.0271702 L118.840909,86.0271702" id="Stroke-5" stroke="#45413C" stroke-linecap="round" stroke-linejoin="round"></path>
                            <path d="M0.715909091,86.0271702 L4.29545455,86.0271702" id="Stroke-7" stroke="#45413C" stroke-linecap="round" stroke-linejoin="round"></path>
                            <path d="M121.704545,86.0271702 L125.284091,86.0271702" id="Stroke-9" stroke="#45413C" stroke-linecap="round" stroke-linejoin="round"></path>
                            <path d="M68.762925,10.504867 C68.762925,8.22279255 66.9187432,6.37156915 64.6435841,6.37156915 C64.1181068,6.37156915 63.6212659,6.47928191 63.1602205,6.65880319 C62.636175,3.37571809 59.8226523,0.860984043 56.4020386,0.860984043 C52.9828568,0.860984043 50.1693341,3.37571809 49.6452886,6.65880319 C49.1842432,6.47928191 48.6874023,6.37156915 48.161925,6.37156915 C45.8867659,6.37156915 44.0411523,8.22279255 44.0411523,10.504867 C44.0411523,12.7869415 45.8867659,14.6381649 48.161925,14.6381649 L64.6435841,14.6381649 C66.9187432,14.6381649 68.762925,12.7869415 68.762925,10.504867" id="Fill-11" fill="#FFFFFF"></path>
                            <path d="M68.762925,10.504867 C68.762925,8.22279255 66.9187432,6.37156915 64.6435841,6.37156915 C64.1181068,6.37156915 63.6212659,6.47928191 63.1602205,6.65880319 C62.636175,3.37571809 59.8226523,0.860984043 56.4020386,0.860984043 C52.9828568,0.860984043 50.1693341,3.37571809 49.6452886,6.65880319 C49.1842432,6.47928191 48.6874023,6.37156915 48.161925,6.37156915 C45.8867659,6.37156915 44.0411523,8.22279255 44.0411523,10.504867 C44.0411523,12.7869415 45.8867659,14.6381649 48.161925,14.6381649 L64.6435841,14.6381649 C66.9187432,14.6381649 68.762925,12.7869415 68.762925,10.504867 Z" id="Stroke-13" stroke="#45413C" stroke-linejoin="round"></path>
                            <path d="M68.762925,10.504867 C68.762925,8.22279255 66.9187432,6.37156915 64.6435841,6.37156915 C64.1181068,6.37156915 63.6212659,6.47928191 63.1602205,6.65880319 C62.636175,3.37571809 59.8226523,0.860984043 56.4020386,0.860984043 C52.9828568,0.860984043 50.1693341,3.37571809 49.6452886,6.65880319 C49.1842432,6.47928191 48.6874023,6.37156915 48.161925,6.37156915 C45.8867659,6.37156915 44.0411523,8.22279255 44.0411523,10.504867 C44.0411523,12.7869415 45.8867659,14.6381649 48.161925,14.6381649 L64.6435841,14.6381649 C66.9187432,14.6381649 68.762925,12.7869415 68.762925,10.504867" id="Fill-15" fill="#FFFFFF"></path>
                            <path d="M68.762925,10.504867 C68.762925,8.22279255 66.9187432,6.37156915 64.6435841,6.37156915 C64.1181068,6.37156915 63.6212659,6.47928191 63.1602205,6.65880319 C62.636175,3.37571809 59.8226523,0.860984043 56.4020386,0.860984043 C52.9828568,0.860984043 50.1693341,3.37571809 49.6452886,6.65880319 C49.1842432,6.47928191 48.6874023,6.37156915 48.161925,6.37156915 C45.8867659,6.37156915 44.0411523,8.22279255 44.0411523,10.504867 C44.0411523,12.7869415 45.8867659,14.6381649 48.161925,14.6381649 L64.6435841,14.6381649 C66.9187432,14.6381649 68.762925,12.7869415 68.762925,10.504867 Z" id="Stroke-17" stroke="#45413C" stroke-linejoin="round"></path>
                            <path d="M113.45627,51.5435745 L113.45627,40.2768191 C113.45627,39.3260745 112.687384,38.5562872 111.73952,38.5562872 L106.932907,38.5562872 C105.983611,38.5562872 105.216157,39.3260745 105.216157,40.2768191 L105.216157,44.3885745 L113.45627,51.5435745 Z" id="Fill-19" fill="#FFF1E8"></path>
                            <path d="M113.45627,51.5435745 L113.45627,40.2768191 C113.45627,39.3260745 112.687384,38.5562872 111.73952,38.5562872 L106.932907,38.5562872 C105.983611,38.5562872 105.216157,39.3260745 105.216157,40.2768191 L105.216157,44.3885745 L113.45627,51.5435745 Z" id="Stroke-21" stroke="#45413C" stroke-linejoin="round"></path>
                            <polygon id="Fill-23" fill="#FFFFFF" points="115.572498 86.0818883 74.3704977 86.0818883 74.3704977 61.5793883 94.9714977 43.6574202 115.572498 61.5779521"></polygon>
                            <path d="M94.9712114,43.6572766 L74.3702114,61.5792447 L74.3702114,65.7240319 L92.9408932,49.567117 C94.1063932,48.5531809 95.8360295,48.5531809 97.0015295,49.567117 L115.572211,65.7211596 L115.572211,61.5792447 L94.9712114,43.6572766 Z" id="Fill-25" fill="#F0F0F0"></path>
                            <polygon id="Stroke-27" stroke="#45413C" stroke-linejoin="round" points="115.572498 86.0818883 74.3704977 86.0818883 74.3704977 61.5793883 94.9714977 43.6574202 115.572498 61.5779521"></polygon>
                            <path d="M72.3683864,62.3191596 C71.4591818,62.3220319 70.6000909,61.9227766 70.0116136,61.2276702 C69.4789773,60.5957553 69.2226818,59.7943723 69.2885455,58.9700106 C69.3544091,58.1442128 69.7395682,57.3930957 70.3695682,56.8588404 L92.9693864,37.2278298 C93.5263636,36.7510213 94.2365455,36.4882021 94.9710682,36.4882021 C95.7055909,36.4882021 96.4157727,36.7510213 96.97275,37.229266 L119.578295,56.8588404 C120.205432,57.3930957 120.590591,58.1442128 120.656455,58.9700106 C120.722318,59.7943723 120.464591,60.5957553 119.930523,61.2276702 C119.344909,61.9227766 118.484386,62.3191596 117.576614,62.3191596 C116.842091,62.3191596 116.129045,62.0563404 115.572068,61.5780957 L94.9710682,43.6575638 L74.3700682,61.5795319 C73.8145227,62.0563404 73.1029091,62.3191596 72.3683864,62.3191596" id="Fill-29" fill="#FF6242"></path>
                            <path d="M70.3681364,60.3023457 L92.9693864,40.6727713 C93.5263636,40.1959628 94.2365455,39.9317074 94.9710682,39.9317074 C95.7055909,39.9317074 96.4157727,40.1959628 96.9741818,40.6742074 L119.578295,60.3023457 C119.795932,60.4890479 119.973477,60.7073457 120.129545,60.9400053 C120.519,60.3597926 120.713727,59.6761755 120.656455,58.9695798 C120.589159,58.1437819 120.205432,57.3941011 119.578295,56.8598457 L96.9741818,37.2302713 C96.4157727,36.7520266 95.7055909,36.4877713 94.9710682,36.4877713 C94.2365455,36.4877713 93.5263636,36.7520266 92.9693864,37.2288351 L70.3681364,56.8598457 C69.7395682,57.3941011 69.3544091,58.1437819 69.2885455,58.9695798 C69.2312727,59.6761755 69.426,60.3612287 69.8154545,60.9414415 C69.9729545,60.7087819 70.1505,60.4890479 70.3681364,60.3023457" id="Fill-31" fill="#FF866E"></path>
                            <path d="M72.3683864,62.3191596 C71.4591818,62.3220319 70.6000909,61.9227766 70.0116136,61.2276702 C69.4789773,60.5957553 69.2226818,59.7943723 69.2885455,58.9700106 C69.3544091,58.1442128 69.7395682,57.3930957 70.3695682,56.8588404 L92.9693864,37.2278298 C93.5263636,36.7510213 94.2365455,36.4882021 94.9710682,36.4882021 C95.7055909,36.4882021 96.4157727,36.7510213 96.97275,37.229266 L119.578295,56.8588404 C120.205432,57.3930957 120.590591,58.1442128 120.656455,58.9700106 C120.722318,59.7943723 120.464591,60.5957553 119.930523,61.2276702 C119.344909,61.9227766 118.484386,62.3191596 117.576614,62.3191596 C116.842091,62.3191596 116.129045,62.0563404 115.572068,61.5780957 L94.9710682,43.6575638 L74.3700682,61.5795319 C73.8145227,62.0563404 73.1029091,62.3191596 72.3683864,62.3191596 Z" id="Stroke-33" stroke="#45413C" stroke-linejoin="round"></path>
                            <path d="M107.27597,38.5564309 L111.395311,38.5564309 L111.395311,36.1451011 C111.395311,35.1943564 110.627857,34.423133 109.678561,34.423133 L108.99272,34.423133 C108.044857,34.423133 107.27597,35.1943564 107.27597,36.1451011 L107.27597,38.5564309 Z" id="Fill-35" fill="#FFA694"></path>
                            <path d="M107.27597,38.5564309 L111.395311,38.5564309 L111.395311,36.1451011 C111.395311,35.1943564 110.627857,34.423133 109.678561,34.423133 L108.99272,34.423133 C108.044857,34.423133 107.27597,35.1943564 107.27597,36.1451011 L107.27597,38.5564309 Z" id="Stroke-37" stroke="#45413C" stroke-linejoin="round"></path>
                            <path d="M94.9152273,86.0818883 L78.4335682,86.0818883 L78.4335682,83.3861968 C78.4335682,82.5919947 79.0750227,81.9500266 79.8653864,81.9500266 L93.4834091,81.9500266 C94.2737727,81.9500266 94.9152273,82.5919947 94.9152273,83.3861968 L94.9152273,86.0818883 Z" id="Fill-39" fill="#FFFFFF"></path>
                            <path d="M94.9152273,86.0818883 L78.4335682,86.0818883 L78.4335682,83.3861968 C78.4335682,82.5919947 79.0750227,81.9500266 79.8653864,81.9500266 L93.4834091,81.9500266 C94.2737727,81.9500266 94.9152273,82.5919947 94.9152273,83.3861968 L94.9152273,86.0818883 Z" id="Stroke-41" stroke="#45413C" stroke-linejoin="round"></path>
                            <path d="M92.8549841,81.9500266 L80.4940977,81.9500266 L80.4940977,72.6508245 C80.4940977,69.2284309 83.2618023,66.4523138 86.6752568,66.4523138 C90.0872795,66.4523138 92.8549841,69.2284309 92.8549841,72.6508245 L92.8549841,81.9500266 Z" id="Fill-43" fill="#DEBB7E"></path>
                            <path d="M92.8549841,81.9500266 L80.4940977,81.9500266 L80.4940977,72.6508245 C80.4940977,69.2284309 83.2618023,66.4523138 86.6752568,66.4523138 C90.0872795,66.4523138 92.8549841,69.2284309 92.8549841,72.6508245 L92.8549841,81.9500266 Z" id="Stroke-45" stroke="#45413C" stroke-linejoin="round"></path>
                            <path d="M88.7349273,76.7832606 L88.7349273,74.7180479" id="Stroke-47" stroke="#45413C" stroke-linecap="round" stroke-linejoin="round"></path>
                            <path d="M99.0352841,56.1200745 C99.0352841,58.4021489 97.1911023,60.2533723 94.9159432,60.2533723 C92.6393523,60.2533723 90.7951705,58.4021489 90.7951705,56.1200745 C90.7951705,53.838 92.6393523,51.9867766 94.9159432,51.9867766 C97.1911023,51.9867766 99.0352841,53.838 99.0352841,56.1200745" id="Fill-49" fill="#00B8F0"></path>
                            <path d="M97.8285477,53.1971809 C97.0825705,52.4489362 96.0530932,51.9864894 94.9147977,51.9864894 C92.6396386,51.9864894 90.7954568,53.8377128 90.7954568,56.1197872 C90.7954568,57.2615426 91.2565023,58.2941489 92.0010477,59.0423936 L97.8285477,53.1971809 Z" id="Fill-51" fill="#4ACFFF"></path>
                            <path d="M99.0352841,56.1200745 C99.0352841,58.4021489 97.1911023,60.2533723 94.9159432,60.2533723 C92.6393523,60.2533723 90.7951705,58.4021489 90.7951705,56.1200745 C90.7951705,53.838 92.6393523,51.9867766 94.9159432,51.9867766 C97.1911023,51.9867766 99.0352841,53.838 99.0352841,56.1200745 Z" id="Stroke-53" stroke="#45413C" stroke-linecap="round" stroke-linejoin="round"></path>
                            <path d="M107.90368,79.8828032 L102.527202,79.8828032 C101.736839,79.8828032 101.095384,79.2408351 101.095384,78.446633 L101.095384,68.920516 C101.095384,68.12775 101.736839,67.4843457 102.527202,67.4843457 L107.90368,67.4843457 C108.694043,67.4843457 109.335498,68.12775 109.335498,68.920516 L109.335498,78.446633 C109.335498,79.2408351 108.694043,79.8828032 107.90368,79.8828032" id="Fill-55" fill="#00B8F0"></path>
                            <path d="M109.309725,69.0777766 C109.240998,68.1902234 108.522225,67.4865 107.618748,67.4865 L102.812134,67.4865 C101.86427,67.4865 101.095384,68.2562872 101.095384,69.2070319 L101.095384,77.3170851 L109.309725,69.0777766 Z" id="Fill-57" fill="#4ACFFF"></path>
                            <path d="M107.90368,79.8828032 L102.527202,79.8828032 C101.736839,79.8828032 101.095384,79.2408351 101.095384,78.446633 L101.095384,68.920516 C101.095384,68.12775 101.736839,67.4843457 102.527202,67.4843457 L107.90368,67.4843457 C108.694043,67.4843457 109.335498,68.12775 109.335498,68.920516 L109.335498,78.446633 C109.335498,79.2408351 108.694043,79.8828032 107.90368,79.8828032 Z" id="Stroke-59" stroke="#45413C" stroke-linecap="round" stroke-linejoin="round"></path>
                            <path d="M60.3202091,72.7537979 L37.2049364,72.7537979 C35.6242091,72.7537979 34.3413,71.4669894 34.3413,69.8814574 L34.3413,54.9625213 C34.3413,53.3769894 35.6242091,52.0901809 37.2049364,52.0901809 L60.3202091,52.0901809 C61.9009364,52.0901809 63.1838455,53.3769894 63.1838455,54.9625213 L63.1838455,69.8814574 C63.1838455,71.4669894 61.9009364,72.7537979 60.3202091,72.7537979" id="Fill-61" fill="#FF6242"></path>
                            <path d="M60.3202091,72.7537979 L37.2049364,72.7537979 C35.6242091,72.7537979 34.3413,71.4669894 34.3413,69.8814574 L34.3413,54.9625213 C34.3413,53.3769894 35.6242091,52.0901809 37.2049364,52.0901809 L60.3202091,52.0901809 C61.9009364,52.0901809 63.1838455,53.3769894 63.1838455,54.9625213 L63.1838455,69.8814574 C63.1838455,71.4669894 61.9009364,72.7537979 60.3202091,72.7537979 Z" id="Stroke-63" stroke="#45413C" stroke-linejoin="round"></path>
                            <path d="M34.3420159,57.2560851 L34.3420159,55.534117 C34.3420159,53.6326277 35.8797886,52.0901809 37.7755159,52.0901809 L59.7510614,52.0901809 C61.6467886,52.0901809 63.1845614,53.6326277 63.1845614,55.534117 L63.1845614,57.2560851 L34.3420159,57.2560851 Z" id="Fill-65" fill="#FFFFFF"></path>
                            <path d="M34.3420159,57.2560851 L34.3420159,55.534117 C34.3420159,53.6326277 35.8797886,52.0901809 37.7755159,52.0901809 L59.7510614,52.0901809 C61.6467886,52.0901809 63.1845614,53.6326277 63.1845614,55.534117 L63.1845614,57.2560851 L34.3420159,57.2560851 Z" id="Stroke-67" stroke="#45413C" stroke-linejoin="round"></path>
                            <path d="M65.4811977,43.4455851 C65.2005614,44.288617 64.4130614,44.8573404 63.5267659,44.8573404 L12.7115386,44.8573404 C11.8238114,44.8573404 11.0377432,44.288617 10.7571068,43.4455851 L10.0698341,41.3789362 C9.86078864,40.7484574 9.96674318,40.0562234 10.3533341,39.5176596 C10.739925,38.9790957 11.3627659,38.6588298 12.0242659,38.6588298 L64.2140386,38.6588298 C64.8755386,38.6588298 65.4983795,38.9790957 65.8849705,39.5176596 C66.2715614,40.0562234 66.3775159,40.7484574 66.1670386,41.3789362 L65.4811977,43.4455851 Z" id="Fill-69" fill="#FFFFFF"></path>
                            <path d="M65.4811977,43.4455851 C65.2005614,44.288617 64.4130614,44.8573404 63.5267659,44.8573404 L12.7115386,44.8573404 C11.8238114,44.8573404 11.0377432,44.288617 10.7571068,43.4455851 L10.0698341,41.3789362 C9.86078864,40.7484574 9.96674318,40.0562234 10.3533341,39.5176596 C10.739925,38.9790957 11.3627659,38.6588298 12.0242659,38.6588298 L64.2140386,38.6588298 C64.8755386,38.6588298 65.4983795,38.9790957 65.8849705,39.5176596 C66.2715614,40.0562234 66.3775159,40.7484574 66.1670386,41.3789362 L65.4811977,43.4455851 Z" id="Stroke-71" stroke="#45413C" stroke-linejoin="round"></path>
                            <path d="M28.1617159,32.8047128 C28.1617159,32.3566277 28.0171023,31.9229043 27.7493523,31.5652979 L26.719875,30.1865745 C26.3304205,29.6666809 25.7204659,29.3607766 25.0718523,29.3607766 C24.4232386,29.3607766 23.8118523,29.6666809 23.4238295,30.1865745 L22.3943523,31.5652979 C22.1266023,31.9229043 21.9819886,32.3566277 21.9819886,32.8047128 L21.9819886,98.5841809 L28.1617159,98.5841809 L28.1617159,32.8047128 Z" id="Fill-73" fill="#FFFFFF"></path>
                            <path d="M28.1617159,32.8047128 C28.1617159,32.3566277 28.0171023,31.9229043 27.7493523,31.5652979 L26.719875,30.1865745 C26.3304205,29.6666809 25.7204659,29.3607766 25.0718523,29.3607766 C24.4232386,29.3607766 23.8118523,29.6666809 23.4238295,30.1865745 L22.3943523,31.5652979 C22.1266023,31.9229043 21.9819886,32.3566277 21.9819886,32.8047128 L21.9819886,98.5841809 L28.1617159,98.5841809 L28.1617159,32.8047128 Z" id="Stroke-75" stroke="#45413C" stroke-linejoin="round"></path>
                            <path d="M62.1533659,102.199452 C62.1533659,103.625569 50.1633205,104.783122 35.3726386,104.783122 C20.580525,104.783122 8.59047955,103.625569 8.59047955,102.199452 C8.59047955,100.773335 20.580525,99.6172181 35.3726386,99.6172181 C50.1633205,99.6172181 62.1533659,100.773335 62.1533659,102.199452" id="Fill-77" fill="#020202" opacity="0.15"></path>
                            <path d="M42.5825591,96.8349255 C42.5825591,94.7280638 40.8801273,93.0204574 38.77965,93.0204574 C38.1510818,93.0204574 37.5669,93.1870532 37.0442864,93.4570532 C36.2453318,91.7034894 34.4899227,90.477 32.4409909,90.477 C31.6978773,90.477 30.99915,90.6450319 30.3648545,90.9337021 C29.1234682,88.4117872 26.5590818,86.6625319 23.5665818,86.6625319 C19.4544,86.6625319 16.1254227,89.9413085 15.9851045,94.0315213 C15.3092864,93.4096596 14.4144,93.0204574 13.4235818,93.0204574 C11.3231045,93.0204574 9.62067273,94.7280638 9.62067273,96.8349255 C9.62067273,98.9417872 11.3231045,100.649394 13.4235818,100.649394 L38.77965,100.649394 C41.3154,100.649394 42.5825591,98.7766277 42.5825591,96.8349255" id="Fill-79" fill="#6DD627"></path>
                            <path d="M42.5825591,96.8349255 C42.5825591,94.7280638 40.8801273,93.0204574 38.77965,93.0204574 C38.1510818,93.0204574 37.5669,93.1870532 37.0442864,93.4570532 C36.2453318,91.7034894 34.4899227,90.477 32.4409909,90.477 C31.6978773,90.477 30.99915,90.6450319 30.3648545,90.9337021 C29.1234682,88.4117872 26.5590818,86.6625319 23.5665818,86.6625319 C19.4544,86.6625319 16.1254227,89.9413085 15.9851045,94.0315213 C15.3092864,93.4096596 14.4144,93.0204574 13.4235818,93.0204574 C11.3231045,93.0204574 9.62067273,94.7280638 9.62067273,96.8349255 C9.62067273,98.9417872 11.3231045,100.649394 13.4235818,100.649394 L38.77965,100.649394 C41.3154,100.649394 42.5825591,98.7766277 42.5825591,96.8349255 Z" id="Stroke-81" stroke="#45413C" stroke-linecap="round" stroke-linejoin="round"></path>
                            <g id="Group-86" transform="translate(37.227273, 44.521277)">
                                <path d="M1.23537273,7.56933511 L1.23537273,0.336781915" id="Fill-83" fill="#FFFFFF"></path>
                                <path d="M1.23537273,7.56933511 L1.23537273,0.336781915" id="Stroke-85" stroke="#45413C" stroke-linejoin="round"></path>
                            </g>
                            <g id="Group-90" transform="translate(57.272727, 44.521277)">
                                <path d="M0.760725,7.56933511 L0.760725,0.336781915" id="Fill-87" fill="#FFFFFF"></path>
                                <path d="M0.760725,7.56933511 L0.760725,0.336781915" id="Stroke-89" stroke="#45413C" stroke-linejoin="round"></path>
                            </g>
                            <path d="M43.6124659,62.4215585 L53.9129659,62.4215585" id="Stroke-91" stroke="#FFFFFF" stroke-linecap="round" stroke-linejoin="round"></path>
                            <path d="M40.5223159,67.5883245 L57.003975,67.5883245" id="Stroke-93" stroke="#FFFFFF" stroke-linecap="round" stroke-linejoin="round"></path>
                        </g>
                        <path d="M137.5,21.0001 C136.672,21.0001 136,21.6721 136,22.5001 C136,23.3281 136.672,24.0001 137.5,24.0001 C138.328,24.0001 139,23.3281 139,22.5001 C139,21.6721 138.328,21.0001 137.5,21.0001 M1.5,58.0001 C0.672,58.0001 0,58.6721 0,59.5001 C0,60.3281 0.672,61.0001 1.5,61.0001 C2.328,61.0001 3,60.3281 3,59.5001 C3,58.6721 2.328,58.0001 1.5,58.0001 M20,19.0001 L19,19.0001 L19,18.0001 C19,17.4481 18.552,17.0001 18,17.0001 C17.448,17.0001 17,17.4481 17,18.0001 L17,19.0001 L16,19.0001 C15.448,19.0001 15,19.4481 15,20.0001 C15,20.5521 15.448,21.0001 16,21.0001 L17,21.0001 L17,22.0001 C17,22.5521 17.448,23.0001 18,23.0001 C18.552,23.0001 19,22.5521 19,22.0001 L19,21.0001 L20,21.0001 C20.552,21.0001 21,20.5521 21,20.0001 C21,19.4481 20.552,19.0001 20,19.0001 M7,88.0001 L6,88.0001 L6,87.0001 C6,86.4481 5.552,86.0001 5,86.0001 C4.448,86.0001 4,86.4481 4,87.0001 L4,88.0001 L3,88.0001 C2.448,88.0001 2,88.4481 2,89.0001 C2,89.5521 2.448,90.0001 3,90.0001 L4,90.0001 L4,91.0001 C4,91.5521 4.448,92.0001 5,92.0001 C5.552,92.0001 6,91.5521 6,91.0001 L6,90.0001 L7,90.0001 C7.552,90.0001 8,89.5521 8,89.0001 C8,88.4481 7.552,88.0001 7,88.0001 M143,51.0001 L142,51.0001 L142,50.0001 C142,49.4481 141.552,49.0001 141,49.0001 C140.448,49.0001 140,49.4481 140,50.0001 L140,51.0001 L139,51.0001 C138.448,51.0001 138,51.4481 138,52.0001 C138,52.5521 138.448,53.0001 139,53.0001 L140,53.0001 L140,54.0001 C140,54.5521 140.448,55.0001 141,55.0001 C141.552,55.0001 142,54.5521 142,54.0001 L142,53.0001 L143,53.0001 C143.552,53.0001 144,52.5521 144,52.0001 C144,51.4481 143.552,51.0001 143,51.0001" id="Decoration" fill="#BFC7D2"></path>
                        <rect id="Ruler" fill="#F5F8FA" opacity="0.6" style="mix-blend-mode: color;" x="0" y="0" width="144" height="144"></rect>
                    </g>
                </g>
            </g>
        </g>
    </g>
</svg>