<svg width="64" height="64" xmlns="http://www.w3.org/2000/svg">

 <g>
  <title>background</title>
  <rect fill="none" id="canvas_background" height="402" width="582" y="-1" x="-1"/>
 </g>
 <g>
  <title>Layer 1</title>
  <circle id="svg_2" r="32" fill="#00ff00" cy="32" cx="32"/>
  <path opacity="0.2" id="svg_4" fill="#231F20" d="m46,50l-2,0c0,-0.74 0,-1.968 0,-4c0,-4.542 -3,-7.389 -3,-7.389s-2.975,-2.847 -3.89,-3.722c-0.915,-0.875 0,-1.778 0,-1.778s1.34,-1.282 4.173,-3.993c2.833,-2.711 2.717,-6.66 2.717,-6.66l0.001,-5.125l-12.001,-1l-12.001,1l0.001,5.125c0,0 -0.116,3.949 2.717,6.66c2.833,2.711 4.173,3.993 4.173,3.993s0.915,0.903 0,1.778c-0.915,0.875 -3.89,3.722 -3.89,3.722s-3,2.847 -3,7.389c0,2.032 0,3.26 0,4l-2,0c-1.105,0 -2,0.895 -2,2c0,1.105 0.895,2 2,2l28,0c1.105,0 2,-0.895 2,-2c0,-1.105 -0.895,-2 -2,-2z"/>
  <path id="svg_6" fill="#FFFFFF" d="m41,36.611c0,0 -2.975,-2.847 -3.89,-3.722c-0.915,-0.875 0,-1.778 0,-1.778s1.34,-1.282 4.173,-3.993c2.833,-2.711 2.717,-6.66 2.717,-6.66l0.001,-5.125l-12.001,-1l-12.001,1l0.001,5.125c0,0 -0.116,3.949 2.717,6.66c2.833,2.711 4.173,3.993 4.173,3.993s0.915,0.903 0,1.778c-0.915,0.875 -3.89,3.722 -3.89,3.722s-3,2.847 -3,7.389c0,4.542 -0.001,5.083 -0.001,5.083l12.001,0l12.001,0c0,0 -0.001,-0.542 -0.001,-5.083c0,-4.542 -3,-7.389 -3,-7.389z"/>
  <path id="svg_8" fill="#4F5D73" d="m31,43l0.031,-11c0.016,-2.061 -0.952,-3.362 -1.331,-3.736l-4.218,-4.036c-1.432,-1.371 -1.484,-3.63 -1.484,-3.652l8.002,0l8.002,0c0,0 0,0 0,0c-0.001,0 -0.023,2.255 -1.484,3.652l-4.173,3.992c-0.424,0.418 -1.361,1.719 -1.345,3.78l0,11l-2,0z"/>
  <path opacity="0.3" id="svg_10" fill="#231F20" d="m48,16c0,1.105 -0.895,2 -2,2l-28,0c-1.105,0 -2,-0.895 -2,-2l0,0c0,-1.105 0.895,-2 2,-2l28,0c1.105,0 2,0.895 2,2l0,0z"/>
  <path id="svg_12" fill="#F5CF87" d="m48,14c0,1.105 -0.895,2 -2,2l-28,0c-1.105,0 -2,-0.895 -2,-2l0,0c0,-1.105 0.895,-2 2,-2l28,0c1.105,0 2,0.895 2,2l0,0z"/>
  <path id="svg_14" fill="#F5CF87" d="m48,50c0,1.105 -0.895,2 -2,2l-28,0c-1.105,0 -2,-0.895 -2,-2l0,0c0,-1.105 0.895,-2 2,-2l28,0c1.105,0 2,0.895 2,2l0,0z"/>
  <polygon id="svg_16" points="41,48 41,48 23,48 23,48 32,40   " fill="#4F5D73"/>
 </g>
</svg>