<svg width="256" height="256" xmlns="http://www.w3.org/2000/svg">

 <g>
  <title>background</title>
  <rect fill="none" id="canvas_background" height="402" width="582" y="-1" x="-1"/>
 </g>
 <g>
  <title>Layer 1</title>
  <path stroke="#aaff56" id="svg_4" fill-rule="evenodd" fill="#ffffff" d="m128.5068,21.6577c58.4541,0 105.8408,47.3857 105.8408,105.8384c0,58.4531 -47.3867,105.8379 -105.8408,105.8379c-58.4546,0 -105.8408,-47.3848 -105.8408,-105.8379c0,-58.4526 47.3862,-105.8384 105.8408,-105.8384z" clip-rule="evenodd"/>
  <path id="svg_5" opacity="0.3" fill-rule="evenodd" d="m102.9297,160.8467l0,8.7227c0,4.8193 5.0361,8.7227 11.2539,8.7227c2.5034,0 4.8115,-0.6328 6.6963,-1.7012l56.6914,-36.3516c5.5186,-4.2734 5.5186,-11.207 0,-15.481l-56.6914,-36.3511c-1.8848,-1.0693 -4.1929,-1.7012 -6.6963,-1.7012c-6.2178,0 -11.2539,3.9033 -11.2539,8.7222l0,8.7227c0,2.3999 0,54.2973 0,56.6958z" clip-rule="evenodd"/>
  <path stroke="#4c4c4c" id="svg_6" fill-rule="evenodd" fill="#00ff00" d="m99.9297,155.8467l0,8.7227c0,4.8193 5.0361,8.7227 11.2539,8.7227c2.5034,0 4.8115,-0.6328 6.6963,-1.7012l56.6914,-36.3516c5.5186,-4.2734 5.5186,-11.207 0,-15.481l-56.6914,-36.3511c-1.8848,-1.0693 -4.1929,-1.7012 -6.6963,-1.7012c-6.2178,0 -11.2539,3.9033 -11.2539,8.7222l0,8.7227c0,2.3999 0,54.2973 0,56.6958z" clip-rule="evenodd"/>
  <path id="svg_7" opacity="0" fill-rule="evenodd" d="m296.203575,21.244613c-57.7124,0 -104.4971,46.7842 -104.4971,104.4951c0,33.9766 16.2266,64.1543 41.3428,83.2383c-28.998,-18.8789 -48.1865,-51.5586 -48.1865,-88.7383c0,-58.4531 47.3862,-105.8389 105.8408,-105.8389c37.1826,0 69.8643,19.1899 88.7432,48.189c-19.085,-25.1172 -49.2637,-41.3452 -83.2432,-41.3452z" clip-rule="evenodd"/>
  <path stroke="#666666" id="svg_10" fill-rule="evenodd" fill="#00ff00" d="m128.5068,10.093867c-64.6392,0 -117.0386,52.3989 -117.0386,117.0366c0,64.6372 52.3994,117.0356 117.0386,117.0356c64.6387,0 117.0391,-52.3984 117.0391,-117.0356c0,-64.6377 -52.4004,-117.0366 -117.0391,-117.0366zm0,220.7578c-57.2856,0 -103.7241,-46.4375 -103.7241,-103.7217c0,-57.2837 46.4385,-103.7217 103.7241,-103.7217c57.2852,0 103.7236,46.438 103.7236,103.7217c0.0001,57.2842 -46.4384,103.7217 -103.7236,103.7217z" clip-rule="evenodd"/>
 </g>
</svg>