<svg width="24" height="24" xmlns="http://www.w3.org/2000/svg">

 <g>
  <title>background</title>
  <rect fill="none" id="canvas_background" height="402" width="582" y="-1" x="-1"/>
 </g>
 <g>
  <title>Layer 1</title>
  <path id="svg_2" fill="#ffffff" d="m10.64648,16.3536c0.09766,0.09766 0.22559,0.14648 0.35352,0.14648s0.25586,-0.04882 0.35352,-0.14648c0.19531,-0.19531 0.19531,-0.51172 0,-0.70703l-0.5,-0.5c-0.19532,-0.19531 -0.51172,-0.19531 -0.70704,0s-0.19531,0.51172 0,0.70703l0.5,0.5z"/>
  <path id="svg_3" fill="#ffffff" d="m22,12.58602c0,-4.97333 -3.9726,-9.07184 -9.03491,-9.53906l0.9353,-1.24707c0.16504,-0.2207 0.12012,-0.53418 -0.10059,-0.69971c-0.21875,-0.16504 -0.53222,-0.12158 -0.70019,0.1001l-0.79883,1.06494l-0.30762,-1.84717c-0.04589,-0.27246 -0.30761,-0.45703 -0.57519,-0.41113c-0.27246,0.04541 -0.45703,0.30273 -0.41113,0.5752l0.1629,0.97723l-0.26935,-0.35907c-0.16699,-0.22168 -0.48047,-0.26563 -0.70019,-0.1001c-0.22071,0.16553 -0.26563,0.47901 -0.10059,0.69971l0.9353,1.24707c-5.06231,0.46722 -9.03491,4.56573 -9.03491,9.53906c0,2.24487 0.8606,3.9693 2.53979,5.14807c-0.3471,0.55213 -0.53979,1.13434 -0.53979,1.76599c0,3.11231 2.46777,4.5 8,4.5s8,-1.38769 8,-4.5c0,-0.63165 -0.19263,-1.21386 -0.53973,-1.76599c1.67883,-1.17883 2.53973,-2.90332 2.53973,-5.14807zm-15.20117,5.5586c0.91601,-0.78516 1.37109,-1.97461 1.2207,-3.18604c1.17578,-0.16553 2.35449,-0.77344 3.17871,-1.28857c0.31153,-0.19288 0.54004,-0.42041 0.7168,-0.59522c0.02539,-0.0249 0.05664,-0.04346 0.08496,-0.05615c0.03516,0.01611 0.06641,0.03711 0.09277,0.06348c0.167,0.16601 0.39551,0.39355 0.70801,0.58837c0.83301,0.51954 2.0166,1.12989 3.17871,1.28955c-0.14941,1.21094 0.30567,2.39942 1.22071,3.18458c0.70507,0.60351 0.7998,1.02392 0.7998,1.35546c0,0.81153 0,2.5 -6,2.5s-6,-1.68847 -6,-2.5c0,-0.33154 0.09473,-0.75195 0.79883,-1.35546zm0.70117,-11.14454c1.6543,0 3,1.12159 3,2.5s-1.3457,2.5 -3,2.5s-3,-1.12158 -3,-2.5s1.3457,-2.5 3,-2.5zm9,5c-1.6543,0 -3,-1.12158 -3,-2.5s1.3457,-2.5 3,-2.5s3,1.12159 3,2.5s-1.3457,2.5 -3,2.5z"/>
  <path id="svg_4" fill="#ffffff" d="m13,16.50008c0.12793,0 0.25586,-0.04882 0.35352,-0.14648l0.5,-0.5c0.19531,-0.19531 0.19531,-0.51172 0,-0.70703s-0.51172,-0.19531 -0.70704,0l-0.5,0.5c-0.19531,0.19531 -0.19531,0.51172 0,0.70703c0.09766,0.09766 0.22559,0.14648 0.35352,0.14648z"/>
  <circle id="svg_5" r="0.5" fill="#ffffff" cy="9.500084" cx="16.5"/>
  <circle id="svg_6" r="0.5" fill="#ffffff" cy="9.500084" cx="7.5"/>
 </g>
</svg>