<?xml version="1.0" encoding="UTF-8"?>
<svg width="144px" height="144px" viewBox="0 0 144 144" version="1.1" xmlns="http://www.w3.org/2000/svg" xmlns:xlink="http://www.w3.org/1999/xlink">
    <!-- Generator: Sketch 49.3 (51167) - http://www.bohemiancoding.com/sketch -->
    <title>Image</title>
    <desc>Created with Sketch.</desc>
    <defs>
        <polygon id="path-1" points="0 144 144 144 144 0 0 0"></polygon>
    </defs>
    <g id="Super-Administrator" stroke="none" stroke-width="1" fill="none" fill-rule="evenodd">
        <g id="Dashboard" transform="translate(-1098.000000, -607.000000)">
            <g id="6.-In-Transit-Block" transform="translate(985.000000, 575.000000)">
                <g id="Image" transform="translate(113.000000, 32.000000)">
                    <rect id="Ruler" fill="#FFFFFF" x="0" y="0" width="144" height="144"></rect>
                    <g id="Group">
                        <path d="M129.6,72 C129.6,103.81248 103.81248,129.6 72,129.6 C40.18896,129.6 14.4,103.81248 14.4,72 C14.4,40.18752 40.18896,14.4 72,14.4 C103.81248,14.4 129.6,40.18752 129.6,72" id="Fill-1" fill="#E2DAFB"></path>
                        <mask id="mask-2" fill="white">
                            <use xlink:href="#path-1"></use>
                        </mask>
                        <g id="Clip-4"></g>
                        <polygon id="Fill-3" fill="#FF6242" mask="url(#mask-2)" points="46.08 82.08 56.88 82.08 56.88 77.04 46.08 77.04"></polygon>
                        <polygon id="Stroke-5" stroke="#45413C" stroke-linecap="round" stroke-linejoin="round" mask="url(#mask-2)" points="46.08 82.08 56.88 82.08 56.88 77.04 46.08 77.04"></polygon>
                        <polygon id="Fill-6" fill="#6DD627" mask="url(#mask-2)" points="46.08 77.04 56.88 77.04 56.88 72 46.08 72"></polygon>
                        <polygon id="Stroke-7" stroke="#45413C" stroke-linecap="round" stroke-linejoin="round" mask="url(#mask-2)" points="46.08 77.04 56.88 77.04 56.88 72 46.08 72"></polygon>
                        <path d="M46.08,72 L56.88,72 L56.88,67.68 C56.88,67.28256 56.55744,66.96 56.16,66.96 L46.8,66.96 C46.40256,66.96 46.08,67.28256 46.08,67.68 L46.08,72 Z" id="Fill-8" fill="#6DD627" mask="url(#mask-2)"></path>
                        <path d="M56.16,66.96 L46.8,66.96 C46.40256,66.96 46.08,67.28256 46.08,67.68 L46.08,70.56 C46.08,70.16256 46.40256,69.84 46.8,69.84 L56.16,69.84 C56.55744,69.84 56.88,70.16256 56.88,70.56 L56.88,67.68 C56.88,67.28256 56.55744,66.96 56.16,66.96" id="Fill-9" fill="#9CEB60" mask="url(#mask-2)"></path>
                        <path d="M46.08,72 L56.88,72 L56.88,67.68 C56.88,67.28256 56.55744,66.96 56.16,66.96 L46.8,66.96 C46.40256,66.96 46.08,67.28256 46.08,67.68 L46.08,72 Z" id="Stroke-10" stroke="#45413C" stroke-linecap="round" stroke-linejoin="round" mask="url(#mask-2)"></path>
                        <path d="M100.120752,97.92 L37.535472,97.92 C37.030032,97.92 36.560592,97.6536 36.299952,97.2216 L31.945392,89.964 C30.809232,88.06896 29.556432,86.25024 28.191312,84.51216 L24.150672,79.36992 C23.407632,78.42528 24.081552,77.04 25.282512,77.04 L49.491792,77.04 C50.082192,77.04 50.659632,77.22144 51.143472,77.55984 L57.600432,82.08 L115.200432,82.08 L115.200432,88.94016 C115.200432,90.03024 114.584112,91.02816 113.607792,91.51632 L101.408112,97.61616 C101.007792,97.81632 100.568592,97.92 100.120752,97.92" id="Fill-11" fill="#ADC4D9" mask="url(#mask-2)"></path>
                        <path d="M101.52,82.08 L84.24,82.08 L84.24,56.16 L97.24464,56.16 C97.67232,56.16 98.0784,56.35008 98.352,56.67696 L101.52,60.48 L101.52,82.08 Z" id="Fill-12" fill="#F0F0F0" mask="url(#mask-2)"></path>
                        <path d="M98.351712,56.677536 C98.079552,56.349216 97.672032,56.160576 97.244352,56.160576 L84.239712,56.160576 L84.239712,60.480576 L97.244352,60.480576 C97.672032,60.480576 98.079552,60.669216 98.351712,60.997536 L101.519712,64.800576 L101.519712,60.480576 L98.351712,56.677536 Z" id="Fill-13" fill="#FFFFFF" mask="url(#mask-2)"></path>
                        <path d="M101.52,82.08 L84.24,82.08 L84.24,56.16 L97.24464,56.16 C97.67232,56.16 98.0784,56.35008 98.352,56.67696 L101.52,60.48 L101.52,82.08 Z" id="Stroke-14" stroke="#45413C" stroke-linecap="round" stroke-linejoin="round" mask="url(#mask-2)"></path>
                        <polygon id="Fill-15" fill="#6DD627" mask="url(#mask-2)" points="101.52 82.08 112.32 82.08 112.32 77.04 101.52 77.04"></polygon>
                        <polygon id="Stroke-16" stroke="#45413C" stroke-linecap="round" stroke-linejoin="round" mask="url(#mask-2)" points="101.52 82.08 112.32 82.08 112.32 77.04 101.52 77.04"></polygon>
                        <polygon id="Fill-17" fill="#FF6242" mask="url(#mask-2)" points="101.52 77.04 112.32 77.04 112.32 72 101.52 72"></polygon>
                        <polygon id="Stroke-18" stroke="#45413C" stroke-linecap="round" stroke-linejoin="round" mask="url(#mask-2)" points="101.52 77.04 112.32 77.04 112.32 72 101.52 72"></polygon>
                        <polygon id="Fill-19" fill="#FFE600" mask="url(#mask-2)" points="101.52 72 112.32 72 112.32 66.96 101.52 66.96"></polygon>
                        <polygon id="Stroke-20" stroke="#45413C" stroke-linecap="round" stroke-linejoin="round" mask="url(#mask-2)" points="101.52 72 112.32 72 112.32 66.96 101.52 66.96"></polygon>
                        <path d="M101.52,66.96 L112.32,66.96 L112.32,62.64 C112.32,62.24256 111.99744,61.92 111.6,61.92 L101.52,61.92 L101.52,66.96 Z" id="Fill-21" fill="#FF6242" mask="url(#mask-2)"></path>
                        <path d="M111.6,61.92 L101.52,61.92 L101.52,64.8 L111.6,64.8 C111.99744,64.8 112.32,65.12256 112.32,65.52 L112.32,62.64 C112.32,62.24256 111.99744,61.92 111.6,61.92" id="Fill-22" fill="#FF866E" mask="url(#mask-2)"></path>
                        <path d="M101.52,66.96 L112.32,66.96 L112.32,62.64 C112.32,62.24256 111.99744,61.92 111.6,61.92 L101.52,61.92 L101.52,66.96 Z" id="Stroke-23" stroke="#45413C" stroke-linecap="round" stroke-linejoin="round" mask="url(#mask-2)"></path>
                        <polygon id="Fill-24" fill="#FFE600" mask="url(#mask-2)" points="70.56 82.08 81.36 82.08 81.36 77.04 70.56 77.04"></polygon>
                        <polygon id="Stroke-25" stroke="#45413C" stroke-linecap="round" stroke-linejoin="round" mask="url(#mask-2)" points="70.56 82.08 81.36 82.08 81.36 77.04 70.56 77.04"></polygon>
                        <polygon id="Fill-26" fill="#6DD627" mask="url(#mask-2)" points="70.56 77.04 81.36 77.04 81.36 72 70.56 72"></polygon>
                        <polygon id="Stroke-27" stroke="#45413C" stroke-linecap="round" stroke-linejoin="round" mask="url(#mask-2)" points="70.56 77.04 81.36 77.04 81.36 72 70.56 72"></polygon>
                        <polygon id="Fill-28" fill="#6DD627" mask="url(#mask-2)" points="70.56 72 81.36 72 81.36 66.96 70.56 66.96"></polygon>
                        <polygon id="Stroke-29" stroke="#45413C" stroke-linecap="round" stroke-linejoin="round" mask="url(#mask-2)" points="70.56 72 81.36 72 81.36 66.96 70.56 66.96"></polygon>
                        <path d="M70.56,66.96 L81.36,66.96 L81.36,62.64 C81.36,62.24256 81.03744,61.92 80.64,61.92 L71.28,61.92 C70.88256,61.92 70.56,62.24256 70.56,62.64 L70.56,66.96 Z" id="Fill-30" fill="#FF6242" mask="url(#mask-2)"></path>
                        <path d="M80.64,61.92 L71.28,61.92 C70.88256,61.92 70.56,62.24256 70.56,62.64 L70.56,65.52 C70.56,65.12256 70.88256,64.8 71.28,64.8 L80.64,64.8 C81.03744,64.8 81.36,65.12256 81.36,65.52 L81.36,62.64 C81.36,62.24256 81.03744,61.92 80.64,61.92" id="Fill-31" fill="#FF866E" mask="url(#mask-2)"></path>
                        <path d="M70.56,66.96 L81.36,66.96 L81.36,62.64 C81.36,62.24256 81.03744,61.92 80.64,61.92 L71.28,61.92 C70.88256,61.92 70.56,62.24256 70.56,62.64 L70.56,66.96 Z" id="Stroke-32" stroke="#45413C" stroke-linecap="round" stroke-linejoin="round" mask="url(#mask-2)"></path>
                        <polygon id="Fill-33" fill="#6DD627" mask="url(#mask-2)" points="59.76 82.08 70.56 82.08 70.56 77.04 59.76 77.04"></polygon>
                        <polygon id="Stroke-34" stroke="#45413C" stroke-linecap="round" stroke-linejoin="round" mask="url(#mask-2)" points="59.76 82.08 70.56 82.08 70.56 77.04 59.76 77.04"></polygon>
                        <polygon id="Fill-35" fill="#FF6242" mask="url(#mask-2)" points="59.76 77.04 70.56 77.04 70.56 72 59.76 72"></polygon>
                        <polygon id="Stroke-36" stroke="#45413C" stroke-linecap="round" stroke-linejoin="round" mask="url(#mask-2)" points="59.76 77.04 70.56 77.04 70.56 72 59.76 72"></polygon>
                        <path d="M59.76,72 L70.56,72 L70.56,66.96 L60.48,66.96 C60.08256,66.96 59.76,67.28256 59.76,67.68 L59.76,72 Z" id="Fill-37" fill="#FFE600" mask="url(#mask-2)"></path>
                        <path d="M60.48,66.96 C60.08256,66.96 59.76,67.28256 59.76,67.68 L59.76,70.56 C59.76,70.16256 60.08256,69.84 60.48,69.84 L70.56,69.84 L70.56,66.96 L60.48,66.96 Z" id="Fill-38" fill="#FFF48C" mask="url(#mask-2)"></path>
                        <path d="M59.76,72 L70.56,72 L70.56,66.96 L60.48,66.96 C60.08256,66.96 59.76,67.28256 59.76,67.68 L59.76,72 Z" id="Stroke-39" stroke="#45413C" stroke-linecap="round" stroke-linejoin="round" mask="url(#mask-2)"></path>
                        <polygon id="Fill-40" fill="#FF866E" mask="url(#mask-2)" points="37.44 77.04 40.32 77.04 40.32 67.68 37.44 67.68"></polygon>
                        <polygon id="Stroke-41" stroke="#45413C" stroke-linecap="round" stroke-linejoin="round" mask="url(#mask-2)" points="37.44 77.04 40.32 77.04 40.32 67.68 37.44 67.68"></polygon>
                        <path d="M112.32,64.8 L113.76,64.8 C114.55632,64.8 115.2,65.44368 115.2,66.24 L115.2,82.08 L112.32,82.08 L112.32,64.8 Z" id="Fill-42" fill="#FF866E" mask="url(#mask-2)"></path>
                        <path d="M113.76,64.8 L112.32,64.8 L112.32,68.4 L113.76,68.4 C114.55488,68.4 115.2,69.04368 115.2,69.84 L115.2,66.24 C115.2,65.44368 114.55488,64.8 113.76,64.8" id="Fill-43" fill="#FFA694" mask="url(#mask-2)"></path>
                        <path d="M40.32,77.04 L40.32,72 L41.88384,72 C42.26544,72 42.6312,72.1512 42.90192,72.42192 L47.52,77.04 L40.32,77.04 Z" id="Fill-44" fill="#FF866E" mask="url(#mask-2)"></path>
                        <path d="M40.32,77.04 L40.32,72 L41.88384,72 C42.26544,72 42.6312,72.1512 42.90192,72.42192 L47.52,77.04 L40.32,77.04 Z" id="Stroke-45" stroke="#45413C" stroke-linecap="round" stroke-linejoin="round" mask="url(#mask-2)"></path>
                        <path d="M40.32,64.8 L37.44,64.8 C36.64512,64.8 36,65.44368 36,66.24 C36,67.03632 36.64512,67.68 37.44,67.68 L40.32,67.68 C41.11488,67.68 41.76,67.03632 41.76,66.24 C41.76,65.44368 41.11488,64.8 40.32,64.8" id="Fill-46" fill="#FF866E" mask="url(#mask-2)"></path>
                        <path d="M40.32,64.8 L37.44,64.8 C36.64512,64.8 36,65.44368 36,66.24 C36,67.03632 36.64512,67.68 37.44,67.68 L40.32,67.68 C41.11488,67.68 41.76,67.03632 41.76,66.24 C41.76,65.44368 41.11488,64.8 40.32,64.8 Z" id="Stroke-47" stroke="#45413C" stroke-linecap="round" stroke-linejoin="round" mask="url(#mask-2)"></path>
                        <polygon id="Fill-48" fill="#00B8F0" mask="url(#mask-2)" points="81.36 56.16 95.76 56.16 95.76 51.84 81.36 51.84"></polygon>
                        <polygon id="Fill-49" fill="#4ACFFF" mask="url(#mask-2)" points="95.04 51.84 87.12 56.16 81.36 56.16 81.36 51.84"></polygon>
                        <polygon id="Stroke-50" stroke="#45413C" stroke-linecap="round" stroke-linejoin="round" mask="url(#mask-2)" points="81.36 56.16 95.76 56.16 95.76 51.84 81.36 51.84"></polygon>
                        <path d="M91.344384,45.36 L88.559424,45.36 C87.764544,45.36 87.119424,46.00368 87.119424,46.8 L87.119424,48.96 L94.319424,48.96 L92.578464,46.0584 C92.319264,45.6264 91.851264,45.36 91.344384,45.36" id="Fill-51" fill="#FF6242" mask="url(#mask-2)"></path>
                        <path d="M91.344384,45.36 L88.559424,45.36 C87.764544,45.36 87.119424,46.00368 87.119424,46.8 L87.119424,48.96 L94.319424,48.96 L92.578464,46.0584 C92.319264,45.6264 91.851264,45.36 91.344384,45.36 Z" id="Stroke-52" stroke="#45413C" stroke-linecap="round" stroke-linejoin="round" mask="url(#mask-2)"></path>
                        <path d="M84.24,59.04 L82.8,59.04 C82.00368,59.04 81.36,58.39632 81.36,57.6 L81.36,56.16 L84.24,56.16 L84.24,59.04 Z" id="Fill-53" fill="#FFFFFF" mask="url(#mask-2)"></path>
                        <path d="M84.24,59.04 L82.8,59.04 C82.00368,59.04 81.36,58.39632 81.36,57.6 L81.36,56.16 L84.24,56.16 L84.24,59.04 Z" id="Stroke-54" stroke="#45413C" stroke-linecap="round" stroke-linejoin="round" mask="url(#mask-2)"></path>
                        <path d="M94.32,48.96 L82.8,48.96 C82.00368,48.96 81.36,49.60368 81.36,50.4 L81.36,51.84 L95.76,51.84 L95.76,50.4 C95.76,49.60368 95.11632,48.96 94.32,48.96" id="Fill-55" fill="#FFFFFF" mask="url(#mask-2)"></path>
                        <path d="M94.32,48.96 L82.8,48.96 C82.00368,48.96 81.36,49.60368 81.36,50.4 L81.36,51.84 L95.76,51.84 L95.76,50.4 C95.76,49.60368 95.11632,48.96 94.32,48.96 Z" id="Stroke-56" stroke="#45413C" stroke-linecap="round" stroke-linejoin="round" mask="url(#mask-2)"></path>
                        <path d="M57.6,82.08 L51.14448,77.55984 C50.6592,77.22144 50.0832,77.04 49.4928,77.04 L25.28352,77.04 C24.08112,77.04 23.4072,78.42528 24.15024,79.36992 L24.69168,80.05968 C24.87024,79.9776 25.0632,79.92 25.28352,79.92 L49.4928,79.92 C50.0832,79.92 50.6592,80.10144 51.14448,80.43984 L57.6,84.96 L115.2,84.96 L115.2,82.08 L57.6,82.08 Z" id="Fill-57" fill="#C0DCEB" mask="url(#mask-2)"></path>
                        <path d="M100.120752,97.92 L37.535472,97.92 C37.030032,97.92 36.560592,97.6536 36.299952,97.2216 L31.945392,89.964 C30.809232,88.06896 29.556432,86.25024 28.191312,84.51216 L24.150672,79.36992 C23.407632,78.42528 24.081552,77.04 25.282512,77.04 L49.491792,77.04 C50.082192,77.04 50.659632,77.22144 51.143472,77.55984 L57.600432,82.08 L115.200432,82.08 L115.200432,88.94016 C115.200432,90.03024 114.584112,91.02816 113.607792,91.51632 L101.408112,97.61616 C101.007792,97.81632 100.568592,97.92 100.120752,97.92 Z" id="Stroke-58" stroke="#45413C" stroke-linecap="round" stroke-linejoin="round" mask="url(#mask-2)"></path>
                        <path d="M101.52,60.48 L101.52,50.4" id="Stroke-59" stroke="#45413C" stroke-linecap="round" stroke-linejoin="round" mask="url(#mask-2)"></path>
                        <path d="M88.56,45.36 L88.56,40.32" id="Stroke-60" stroke="#45413C" stroke-linecap="round" stroke-linejoin="round" mask="url(#mask-2)"></path>
                        <path d="M36,66.24 L25.2,77.04" id="Stroke-61" stroke="#45413C" stroke-linecap="round" stroke-linejoin="round" mask="url(#mask-2)"></path>
                        <polygon id="Fill-62" fill="#DAEDF7" mask="url(#mask-2)" points="87.84 74.16 101.52 66.24 101.52 62.64 87.84 70.56"></polygon>
                        <polygon id="Stroke-63" stroke="#45413C" stroke-linecap="round" stroke-linejoin="round" mask="url(#mask-2)" points="87.84 74.16 101.52 66.24 101.52 62.64 87.84 70.56"></polygon>
                        <polygon id="Fill-64" fill="#DAEDF7" mask="url(#mask-2)" points="87.84 82.08 101.52 74.16 101.52 70.56 87.84 78.48"></polygon>
                        <polygon id="Stroke-65" stroke="#45413C" stroke-linecap="round" stroke-linejoin="round" mask="url(#mask-2)" points="87.84 82.08 101.52 74.16 101.52 70.56 87.84 78.48"></polygon>
                        <polygon id="Fill-66" fill="#FFAA54" mask="url(#mask-2)" points="87.84 66.24 101.52 66.24 101.52 62.64 87.84 62.64"></polygon>
                        <polygon id="Stroke-67" stroke="#45413C" stroke-linecap="round" stroke-linejoin="round" mask="url(#mask-2)" points="87.84 66.24 101.52 66.24 101.52 62.64 87.84 62.64"></polygon>
                        <polygon id="Fill-68" fill="#FFAA54" mask="url(#mask-2)" points="87.84 74.16 101.52 74.16 101.52 70.56 87.84 70.56"></polygon>
                        <polygon id="Stroke-69" stroke="#45413C" stroke-linecap="round" stroke-linejoin="round" mask="url(#mask-2)" points="87.84 74.16 101.52 74.16 101.52 70.56 87.84 70.56"></polygon>
                        <polygon id="Fill-70" fill="#FFAA54" mask="url(#mask-2)" points="87.84 82.08 101.52 82.08 101.52 78.48 87.84 78.48"></polygon>
                        <polygon id="Stroke-71" stroke="#45413C" stroke-linecap="round" stroke-linejoin="round" mask="url(#mask-2)" points="87.84 82.08 101.52 82.08 101.52 78.48 87.84 78.48"></polygon>
                        <path d="M101.327328,97.616304 L112.239648,92.160144 L57.600288,92.160144 L50.037408,87.228144 C49.569408,86.922864 49.022208,86.760144 48.463488,86.760144 L29.766528,86.760144 C30.500928,87.805584 31.209408,88.868304 31.866048,89.964144 L36.220608,97.221744 C36.481248,97.653744 36.949248,97.920144 37.456128,97.920144 L100.039968,97.920144 C100.486368,97.920144 100.928448,97.816464 101.327328,97.616304" id="Fill-72" fill="#FF6242" mask="url(#mask-2)"></path>
                        <path d="M101.327328,97.616304 L112.239648,92.160144 L57.600288,92.160144 L50.037408,87.228144 C49.569408,86.922864 49.022208,86.760144 48.463488,86.760144 L29.766528,86.760144 C30.500928,87.805584 31.209408,88.868304 31.866048,89.964144 L36.220608,97.221744 C36.481248,97.653744 36.949248,97.920144 37.456128,97.920144 L100.039968,97.920144 C100.486368,97.920144 100.928448,97.816464 101.327328,97.616304 Z" id="Stroke-73" stroke="#45413C" stroke-linecap="round" stroke-linejoin="round" mask="url(#mask-2)"></path>
                        <path d="M86.4,51.84 L86.4,56.16" id="Stroke-74" stroke="#45413C" stroke-linecap="round" stroke-linejoin="round" mask="url(#mask-2)"></path>
                        <path d="M91.44,51.84 L91.44,56.16" id="Stroke-75" stroke="#45413C" stroke-linecap="round" stroke-linejoin="round" mask="url(#mask-2)"></path>
                        <path d="M114.098976,95.176368 C110.586816,95.176368 110.586816,97.424208 107.073216,97.424208 C103.563936,97.424208 103.563936,95.176368 100.053216,95.176368 C96.545376,95.176368 96.545376,97.424208 93.034656,97.424208 C89.525376,97.424208 89.525376,95.176368 86.014656,95.176368 C82.505376,95.176368 82.505376,97.424208 78.994656,97.424208 C75.485376,97.424208 75.485376,95.176368 71.974656,95.176368 C68.465376,95.176368 68.465376,97.424208 64.957536,97.424208 C61.449696,97.424208 61.449696,95.176368 57.941856,95.176368 C54.432576,95.176368 54.432576,97.424208 50.924736,97.424208 C47.418336,97.424208 47.418336,95.176368 43.913376,95.176368 C40.404096,95.176368 40.404096,97.424208 36.894816,97.424208 C33.384096,97.424208 33.384096,95.176368 29.874816,95.176368 C26.365536,95.176368 26.365536,97.424208 22.856256,97.424208 C21.491136,97.424208 20.657376,97.081488 19.941696,96.666768 C29.183616,116.135568 49.016736,129.599568 72.000576,129.599568 C94.987296,129.599568 114.821856,116.132688 124.060896,96.658128 C123.340896,97.077168 122.505696,97.424208 121.130496,97.424208 C117.614016,97.424208 117.614016,95.176368 114.098976,95.176368" id="Fill-76" fill="#4AEFF7" mask="url(#mask-2)"></path>
                        <path d="M15.84,95.176368 C19.34928,95.176368 19.34928,97.424208 22.85712,97.424208 C26.3664,97.424208 26.3664,95.176368 29.87568,95.176368 C33.38496,95.176368 33.38496,97.424208 36.89424,97.424208 C40.40352,97.424208 40.40352,95.176368 43.9128,95.176368 C47.4192,95.176368 47.4192,97.424208 50.92416,97.424208 C54.43344,97.424208 54.43344,95.176368 57.94272,95.176368 C61.44912,95.176368 61.44912,97.424208 64.95696,97.424208 C68.4648,97.424208 68.4648,95.176368 71.97408,95.176368 C75.4848,95.176368 75.4848,97.424208 78.99408,97.424208 C82.5048,97.424208 82.5048,95.176368 86.01408,95.176368 C89.5248,95.176368 89.5248,97.424208 93.03408,97.424208 C96.5448,97.424208 96.5448,95.176368 100.05264,95.176368 C103.56336,95.176368 103.56336,97.424208 107.07264,97.424208 C110.58624,97.424208 110.58624,95.176368 114.0984,95.176368 C117.61488,95.176368 117.61488,97.424208 121.12992,97.424208 C124.64496,97.424208 124.64496,95.176368 128.16,95.176368" id="Stroke-77" stroke="#45413C" stroke-linecap="round" stroke-linejoin="round" mask="url(#mask-2)"></path>
                        <path d="M35.508528,105.925824 C39.017808,105.925824 39.017808,103.679424 42.527088,103.679424 C46.036368,103.679424 46.036368,105.925824 49.547088,105.925824 C53.056368,105.925824 53.056368,103.679424 56.564208,103.679424 C60.070608,103.679424 60.070608,105.925824 63.575568,105.925824 C67.084848,105.925824 67.084848,103.679424 70.594128,103.679424 C74.100528,103.679424 74.100528,105.925824 77.608368,105.925824" id="Stroke-78" stroke="#A6FAFF" stroke-linecap="round" stroke-linejoin="round" mask="url(#mask-2)"></path>
                        <path d="M56.40264,119.136096 C59.91192,119.136096 59.91192,116.888256 63.4212,116.888256 C66.9276,116.888256 66.9276,119.136096 70.43256,119.136096 C73.94184,119.136096 73.94184,116.888256 77.45112,116.888256 C80.95752,116.888256 80.95752,119.136096 84.46536,119.136096" id="Stroke-79" stroke="#A6FAFF" stroke-linecap="round" stroke-linejoin="round" mask="url(#mask-2)"></path>
                        <path d="M107.687808,109.418976 C104.181408,109.418976 104.181408,111.665376 100.676448,111.665376 C97.167168,111.665376 97.167168,109.418976 93.657888,109.418976 C90.151488,109.418976 90.151488,111.665376 86.645088,111.665376" id="Stroke-80" stroke="#A6FAFF" stroke-linecap="round" stroke-linejoin="round" mask="url(#mask-2)"></path>
                        <path d="M112.32,64.8 L113.76,64.8 C114.55632,64.8 115.2,65.44368 115.2,66.24 L115.2,82.08 L112.32,82.08 L112.32,64.8 Z" id="Stroke-81" stroke="#45413C" stroke-linecap="round" stroke-linejoin="round" mask="url(#mask-2)"></path>
                    </g>
                    <path d="M140.4999,87.9999 C139.6719,87.9999 138.9999,88.6719 138.9999,89.4999 C138.9999,90.3279 139.6719,90.9999 140.4999,90.9999 C141.3279,90.9999 141.9999,90.3279 141.9999,89.4999 C141.9999,88.6719 141.3279,87.9999 140.4999,87.9999 M4.9999,27.4999 C4.9999,26.6719 4.3279,25.9999 3.4999,25.9999 C2.6719,25.9999 1.9999,26.6719 1.9999,27.4999 C1.9999,28.3279 2.6719,28.9999 3.4999,28.9999 C4.3279,28.9999 4.9999,28.3279 4.9999,27.4999 M137.9999,28.9999 L136.9999,28.9999 L136.9999,27.9999 C136.9999,27.4479 136.5519,26.9999 135.9999,26.9999 C135.4479,26.9999 134.9999,27.4479 134.9999,27.9999 L134.9999,28.9999 L133.9999,28.9999 C133.4479,28.9999 132.9999,29.4479 132.9999,29.9999 C132.9999,30.5519 133.4479,30.9999 133.9999,30.9999 L134.9999,30.9999 L134.9999,31.9999 C134.9999,32.5519 135.4479,32.9999 135.9999,32.9999 C136.5519,32.9999 136.9999,32.5519 136.9999,31.9999 L136.9999,30.9999 L137.9999,30.9999 C138.5519,30.9999 138.9999,30.5519 138.9999,29.9999 C138.9999,29.4479 138.5519,28.9999 137.9999,28.9999 M8.9999,80.9999 L7.9999,80.9999 L7.9999,79.9999 C7.9999,79.4479 7.5519,78.9999 6.9999,78.9999 C6.4479,78.9999 5.9999,79.4479 5.9999,79.9999 L5.9999,80.9999 L4.9999,80.9999 C4.4479,80.9999 3.9999,81.4479 3.9999,81.9999 C3.9999,82.5519 4.4479,82.9999 4.9999,82.9999 L5.9999,82.9999 L5.9999,83.9999 C5.9999,84.5519 6.4479,84.9999 6.9999,84.9999 C7.5519,84.9999 7.9999,84.5519 7.9999,83.9999 L7.9999,82.9999 L8.9999,82.9999 C9.5519,82.9999 9.9999,82.5519 9.9999,81.9999 C9.9999,81.4479 9.5519,80.9999 8.9999,80.9999" id="Decoration" fill="#BFC7D2" transform="translate(71.999900, 58.499900) scale(1, -1) rotate(180.000000) translate(-71.999900, -58.499900) "></path>
                </g>
            </g>
        </g>
    </g>
</svg>