<?xml version="1.0" encoding="UTF-8"?>
<svg width="30px" height="30px" viewBox="0 0 30 30" version="1.1" xmlns="http://www.w3.org/2000/svg" xmlns:xlink="http://www.w3.org/1999/xlink">
    <!-- Generator: Sketch 49.3 (51167) - http://www.bohemiancoding.com/sketch -->
    <title>smart-home</title>
    <desc>Created with Sketch.</desc>
    <defs></defs>
    <g id="Symbols" stroke="none" stroke-width="1" fill="none" fill-rule="evenodd">
        <g id="Navigation/Menu-Item/Incomplete/Inactive" transform="translate(-35.000000, 0.000000)" fill="#7F8FA4" fill-rule="nonzero">
            <g id="smart-home" transform="translate(35.000000, 0.000000)">
                <path d="M23.8026316,22.080303 C24.5501053,21.4329293 25.9244211,20.9257576 26.9312632,20.9257576 L29.2442105,20.9257576 C29.6593684,20.9257576 29.9972632,20.6016162 29.9972632,20.2032323 L29.9972632,12.1926263 C29.9972632,11.7942424 29.6593684,11.470101 29.2442105,11.470101 L16.2812632,11.470101 C15.8661053,11.470101 15.5283158,11.7942424 15.5283158,12.1926263 L15.5283158,20.2032323 C15.5283158,20.6016162 15.8661053,20.9257576 16.2812632,20.9257576 L18.4609474,20.9257576 C19.7065263,20.9257576 20.72,21.8983838 20.72,23.0936364 L20.72,24.749697 L23.8026316,22.080303 Z M22.1441053,13.7927273 C22.1441053,13.3936364 22.4812632,13.070101 22.8971579,13.070101 C23.3130526,13.070101 23.6501053,13.3936364 23.6501053,13.7927273 L23.6501053,17.1992929 C23.6501053,17.5983838 23.3130526,17.9219192 22.8971579,17.9219192 C22.4812632,17.9219192 22.1441053,17.5983838 22.1441053,17.1992929 L22.1441053,13.7927273 Z M22.3643158,19.1656566 C22.5042105,19.0314141 22.6989474,18.9539394 22.8969474,18.9539394 C23.0958947,18.9539394 23.2894737,19.0314141 23.4294737,19.1656566 C23.5703158,19.3008081 23.65,19.4866667 23.65,19.6765657 C23.65,19.8666667 23.5703158,20.0534343 23.4294737,20.1875758 C23.2895789,20.3217172 23.0958947,20.3991919 22.8969474,20.3991919 C22.6989474,20.3991919 22.5043158,20.3217172 22.3643158,20.1875758 C22.2245263,20.0534343 22.1437895,19.8675758 22.1437895,19.6765657 C22.1437895,19.4866667 22.2245263,19.299798 22.3643158,19.1656566 Z" id="Shape"></path>
                <path d="M16.3758947,4.44939394 L22.9021053,10.0247475 L27.7196842,10.0247475 L16.3704211,0.212323232 C16.0432632,-0.0706060606 15.5463158,-0.0708080808 15.2190526,0.211616162 L0.288,13.0946465 C0.0230526316,13.3234343 -0.0677894737,13.6850505 0.0597894737,14.0044444 C0.187578947,14.3238384 0.506947368,14.5345455 0.863473684,14.5345455 L3.40726316,14.5345455 L15.2128421,4.44929293 C15.5418947,4.16010101 16.0468421,4.15989899 16.3758947,4.44939394 Z" id="Shape"></path>
                <path d="M27.1154737,22.3711111 C26.4788421,22.3711111 25.2844211,22.7438384 24.8115789,23.1531313 L21.5894737,25.9433333 C21.2225263,26.2612121 20.8444211,26.4222222 20.4655789,26.4222222 C19.8425263,26.4222222 19.2137895,25.9608081 19.2137895,24.929899 L19.2137895,23.0936364 C19.2137895,22.6952525 18.876,22.3711111 18.4608421,22.3711111 L16.2811579,22.3711111 C15.0354737,22.3711111 14.022,21.3985859 14.022,20.2032323 L14.022,12.1926263 C14.022,10.9973737 15.0354737,10.0247475 16.2811579,10.0247475 L20.3023158,10.0247475 L15.7944211,6.17838384 L4.47284211,15.8379798 L4.47284211,29.1740404 C4.47284211,29.630202 4.85821053,29.999899 5.33347368,29.999899 L26.2547368,29.999899 C26.73,29.999899 27.1153684,29.630202 27.1153684,29.1740404 L27.1153684,22.3711111 L27.1154737,22.3711111 Z" id="Shape"></path>
            </g>
        </g>
    </g>
</svg>