<?xml version="1.0" encoding="UTF-8"?>
<svg width="12px" height="12px" viewBox="0 0 12 12" version="1.1" xmlns="http://www.w3.org/2000/svg" xmlns:xlink="http://www.w3.org/1999/xlink">
    <!-- Generator: Sketch 49.3 (51167) - http://www.bohemiancoding.com/sketch -->
    <title>Info Icon</title>
    <desc>Created with Sketch.</desc>
    <defs></defs>
    <g id="Volunteer-(Desktop)" stroke="none" stroke-width="1" fill="none" fill-rule="evenodd" opacity="0.5">
        <g id="Active-Tasks-(Action-&gt;-Exception)" transform="translate(-530.000000, -614.000000)" fill="#7F8FA4">
            <g id="Modal" transform="translate(500.000000, 328.000000)">
                <g id="Text" transform="translate(30.000000, 30.000000)">
                    <g id="Warning" transform="translate(0.000000, 255.000000)">
                        <path d="M5.99973993,1 C2.68648953,1 0,3.6859694 0,6.99973993 C0,10.3129903 2.68648953,12.9994799 5.99973993,12.9994799 C9.31351047,12.9994799 12,10.3129903 12,6.99973993 C12,3.6859694 9.31351047,1 5.99973993,1 L5.99973993,1 Z M7.34792597,9.50002167 C6.72948724,10.0513632 6.00442113,10.4477049 5.58363313,10.5538121 C5.13267739,10.6677214 4.77066447,10.6318322 4.73529539,10.1127389 C4.69992631,9.5936457 5.30536171,7.37267565 5.34385159,7.13809544 C5.37662,6.93992458 4.94230853,7.14537731 4.58289628,7.33626631 C4.47834944,7.39140046 4.3472758,7.34510858 4.29630272,7.23848121 C4.2541719,7.14953838 4.27965845,7.04239088 4.35871874,6.98309566 C4.98027827,6.51705604 5.75527719,6.07598284 6.41272593,5.90121798 C6.79034285,5.80031208 7.00775866,5.92358372 7.020762,6.38494214 C7.03376533,6.84682068 6.41012527,8.9570023 6.36175285,9.24151532 C6.29101469,9.65866239 6.76381605,9.39859564 7.10658402,9.1822201 C7.19500672,9.12604569 7.31151662,9.14737116 7.37341251,9.23215292 C7.43322786,9.31433401 7.42386546,9.43240432 7.34792597,9.50002167 L7.34792597,9.50002167 Z M6.49854796,4.9405314 C6.08140089,4.9405314 5.77764293,4.68774652 5.77764293,4.24719345 C5.77764293,3.8071605 6.14173638,3.30887261 6.74301071,3.30887261 C6.95418491,3.30887261 7.47639894,3.44514759 7.47639894,4.02405617 C7.47639894,4.60296476 6.91569503,4.9405314 6.49854796,4.9405314 L6.49854796,4.9405314 Z" id="Info-Icon"></path>
                    </g>
                </g>
            </g>
        </g>
    </g>
</svg>