<?xml version="1.0" encoding="UTF-8"?>
<svg width="28px" height="32px" viewBox="0 0 28 32" version="1.1" xmlns="http://www.w3.org/2000/svg" xmlns:xlink="http://www.w3.org/1999/xlink">
    <!-- Generator: Sketch 49.3 (51167) - http://www.bohemiancoding.com/sketch -->
    <title>jpeg</title>
    <desc>Created with Sketch.</desc>
    <defs></defs>
    <g id="Super-Administrator" stroke="none" stroke-width="1" fill="none" fill-rule="evenodd">
        <g id="Volunteers-Profile-View" transform="translate(-801.000000, -187.000000)" fill-rule="nonzero">
            <g id="Content" transform="translate(130.000000, 111.000000)">
                <g id="Column-2" transform="translate(671.000000, 30.000000)">
                    <g id="Files-List">
                        <g id="jpeg" transform="translate(0.000000, 46.000000)">
                            <g id="Group" transform="translate(0.256881, 0.253968)">
                                <path d="M27.4263211,7.60209524 L27.4263211,29.2740317 C27.4263211,30.4659683 26.4398991,31.4412063 25.2342936,31.4412063 L2.21777982,31.4412063 C1.01217431,31.4412063 0.0257522936,30.4659683 0.0257522936,29.2740317 L0.0257522936,2.18412698 C0.0257522936,0.992190476 1.01217431,0.016952381 2.21777982,0.016952381 L19.7541284,0.016952381 L19.7541284,5.43492063 C19.7541284,6.62685714 20.7405505,7.60209524 21.946156,7.60209524 L27.4263211,7.60209524 Z" id="Shape" fill="#F2EDDA"></path>
                                <path d="M27.4263211,7.60209524 L21.9462202,7.60209524 C20.7406147,7.60209524 19.7541927,6.62685714 19.7541927,5.43492063 L19.7541927,0.016952381 L27.4263211,7.60209524 Z" id="Shape" fill="#FFD0A1"></path>
                                <path d="M10.2187156,13.2909841 C10.3831193,13.5076825 10.4378991,13.8327619 10.4378991,14.1036825 C10.4378991,14.3746032 10.3831193,14.6996825 10.2187156,14.916381 C9.94468807,15.404 9.39669725,15.7290794 8.79386239,15.7290794 C8.19102752,15.7290794 7.6430367,15.404 7.36900917,14.916381 C7.2046055,14.6996825 7.14982569,14.3746032 7.14982569,14.1036825 C7.14982569,13.8327619 7.2046055,13.5076825 7.36900917,13.2909841 C7.6430367,12.8033651 8.19102752,12.4782857 8.79386239,12.4782857 C9.39669725,12.4782857 9.94468807,12.8033651 10.2187156,13.2909841" id="Shape" fill="#FFE079"></path>
                                <polygon id="Shape" fill="#50DD8E" points="21.946156 21.6888889 21.946156 26.0233016 4.40980734 26.0233016 10.4378991 20.0634921 13.1779817 22.7725079 18.1100917 17.8963175"></polygon>
                            </g>
                            <path d="M25.4911101,31.9661587 L2.47459633,31.9661587 C1.10458716,31.9661587 0.0085412844,30.8825397 0.0085412844,29.5280635 L0.0085412844,2.43809524 C0.0085412844,1.08361905 1.10458716,0 2.47459633,0 L20.0110092,0 C20.065789,0 20.1754128,0.0541587302 20.2301927,0.0541587302 L25.7102936,5.47212698 C25.8199174,5.58050794 25.8199174,5.74304762 25.7102936,5.85136508 C25.6006697,5.95974603 25.4362661,5.95974603 25.3267064,5.85136508 L19.9013853,0.487555556 L2.47459633,0.487555556 C1.4333945,0.487555556 0.55653211,1.3544127 0.55653211,2.38387302 L0.55653211,29.4738413 C0.55653211,30.5032381 1.43333028,31.3701587 2.47459633,31.3701587 L25.4911101,31.3701587 C26.5323119,31.3701587 27.4091743,30.5033016 27.4091743,29.4738413 L27.4091743,8.0728254 L22.2030367,8.0728254 C20.8330275,8.0728254 19.7369817,6.98920635 19.7369817,5.63473016 L19.7369817,2.92571429 C19.7369817,2.7631746 19.8466055,2.65479365 20.0110092,2.65479365 C20.1754128,2.65479365 20.2850367,2.7631746 20.2850367,2.92571429 L20.2850367,5.63473016 C20.2850367,6.66412698 21.1618349,7.53104762 22.2031009,7.53104762 L27.6832018,7.53104762 C27.8476055,7.53104762 27.9572294,7.63942857 27.9572294,7.80196825 L27.9572294,29.4739048 C27.9571651,30.8825397 26.8611835,31.9661587 25.4911101,31.9661587 Z M22.2030367,26.548127 L4.66668807,26.548127 C4.55706422,26.548127 4.44750459,26.4939683 4.39266055,26.3855873 C4.33788073,26.2772063 4.39266055,26.1688889 4.44744037,26.1146667 L10.4755963,20.1548571 C10.5852202,20.0464762 10.7496239,20.0464762 10.8591835,20.1548571 L13.3800183,22.6471111 L18.092945,17.987619 C18.2025688,17.8792381 18.3669725,17.8792381 18.4765321,17.987619 L22.3125963,21.7801905 C22.4222202,21.8885714 22.4222202,22.0511111 22.3125963,22.1594286 C22.2029725,22.2678095 22.0385688,22.2678095 21.9290092,22.1594286 L18.3121284,18.5835556 L13.5992661,23.2431746 C13.4896422,23.3515556 13.3252385,23.3515556 13.2156789,23.2431746 L10.694844,20.7509206 L5.32430275,26.0605714 L22.2031009,26.0605714 C22.3675046,26.0605714 22.4771284,26.1689524 22.4771284,26.3314921 C22.4770642,26.4939683 22.3674404,26.548127 22.2030367,26.548127 Z M9.05074312,17.8793651 C8.88633945,17.8793651 8.7767156,17.7709841 8.7767156,17.6084444 L8.7767156,16.2539683 C8.28350459,16.1998095 7.84507339,15.9288889 7.57111009,15.5496508 L6.36550459,16.2539683 C6.25588073,16.308127 6.09147706,16.308127 5.98191743,16.1455873 C5.98191743,16.0914286 5.92713761,16.0372063 5.92713761,15.9830476 C5.92713761,15.8746667 5.98191743,15.8205079 6.09154128,15.7663492 L7.29714679,15.0620317 C7.18752294,14.8453333 7.13274312,14.6285714 7.13274312,14.3577143 C7.13274312,14.0868571 7.18752294,13.8700952 7.24236697,13.6533968 L6.03669725,12.9490159 C5.92707339,12.8948571 5.87229358,12.7864762 5.87229358,12.7323175 C5.87229358,12.6781587 5.87229358,12.6239365 5.92707339,12.5697778 C5.98185321,12.4613968 6.14625688,12.4072381 6.31066055,12.4613968 L7.51626606,13.1657143 C7.79029358,12.7864762 8.22866055,12.5155556 8.72187156,12.4613968 L8.72187156,11.1068571 C8.72187156,10.9443175 8.83149541,10.8359365 8.99589908,10.8359365 C9.16030275,10.8359365 9.26992661,10.9443175 9.26992661,11.1068571 L9.26992661,12.4613333 C9.76313761,12.5154921 10.2015688,12.7864127 10.4755321,13.1656508 L11.6811376,12.4613333 C11.7907615,12.4071746 11.9551651,12.4071746 12.0647248,12.5697143 C12.0647248,12.623873 12.1195046,12.6780952 12.1195046,12.732254 C12.1195046,12.8406349 12.0647248,12.8947937 11.9551009,12.9489524 L10.7494954,13.6532698 C10.8591193,13.8699683 10.9138991,14.0867302 10.9138991,14.3575873 C10.9138991,14.6284444 10.8591193,14.8452063 10.8042752,15.0619048 L12.0098807,15.7662222 C12.1195046,15.820381 12.1742844,15.9287619 12.1742844,15.9829206 C12.1742844,16.0370794 12.1742844,16.0913016 12.1195046,16.1454603 C12.0647248,16.2538413 11.9003211,16.308 11.7359174,16.2538413 L10.5303119,15.5495238 C10.2562844,15.9287619 9.81791743,16.1996825 9.32470642,16.2538413 L9.32470642,17.6083175 C9.32477064,17.7709841 9.21514679,17.8793651 9.05074312,17.8793651 Z M7.84513761,15.0620317 C8.0643211,15.4412698 8.50275229,15.7121905 9.05074312,15.7121905 C9.81798165,15.7121905 10.4207523,15.1161905 10.4207523,14.3577143 C10.4207523,14.1410159 10.3659725,13.8700952 10.2563486,13.7075556 C10.0371651,13.3283175 9.59873394,13.0573968 9.05074312,13.0573968 C8.28350459,13.0573968 7.68073394,13.6533968 7.68073394,14.411873 C7.68073394,14.5744127 7.73551376,14.8452698 7.84513761,15.0620317 C7.84513761,15.0078095 7.84513761,15.0078095 7.84513761,15.0620317 Z" id="Shape" fill="#51565F"></path>
                        </g>
                    </g>
                </g>
            </g>
        </g>
    </g>
</svg>