<?xml version="1.0" encoding="UTF-8"?>
<svg width="30px" height="30px" viewBox="0 0 30 30" version="1.1" xmlns="http://www.w3.org/2000/svg" xmlns:xlink="http://www.w3.org/1999/xlink">
    <!-- Generator: Sketch 49.3 (51167) - http://www.bohemiancoding.com/sketch -->
    <title>Shape</title>
    <desc>Created with Sketch.</desc>
    <defs></defs>
    <g id="Volunteer-(Mobile)" stroke="none" stroke-width="1" fill="none" fill-rule="evenodd">
        <g id="Menu" transform="translate(-35.000000, -578.000000)" fill="#ffffff" fill-rule="nonzero">
            <path d="M50,578 C41.7290234,578 35,584.729023 35,593 C35,601.270977 41.7290234,608 50,608 C58.2709766,608 65,601.270977 65,593 C65,584.729023 58.2709766,578 50,578 Z M48.6363477,584.818203 C48.6363477,584.065098 49.2468945,583.454551 50,583.454551 C50.7531055,583.454551 51.3636523,584.065098 51.3636523,584.818203 L51.3636523,590.662285 C51.3636523,591.415391 50.7531055,592.025938 50,592.025938 C49.2468945,592.025938 48.6363477,591.415391 48.6363477,590.662285 L48.6363477,584.818203 Z M50,602.545449 C45.2199805,602.545449 41.3311719,598.656641 41.3311719,593.876621 C41.3311719,591.746973 42.1109961,589.699062 43.5269141,588.110234 C44.0280078,587.547852 44.8899219,587.498516 45.4522461,587.999492 C46.0145117,588.500586 46.0639648,589.3625 45.5629883,589.924883 C44.592793,591.013496 44.058418,592.416875 44.058418,593.876621 C44.058418,597.152773 46.7237891,599.818145 49.9999414,599.818145 C53.2760938,599.818145 55.9414648,597.152773 55.9414648,593.876621 C55.9414648,592.416699 55.407207,591.01332 54.4370117,589.924883 C53.9358008,589.362676 53.9853711,588.500703 54.5476367,587.999609 C55.1097266,587.498516 55.9718164,587.54791 56.4729102,588.110234 C57.8888867,589.698887 58.6687109,591.74668 58.6687109,593.876621 C58.6688281,598.656641 54.7800195,602.545449 50,602.545449 Z" id="Shape"></path>
        </g>
    </g>
</svg>