<?xml version="1.0" encoding="UTF-8"?>
<svg width="64px" height="64px" viewBox="0 0 64 64" version="1.1" xmlns="http://www.w3.org/2000/svg" xmlns:xlink="http://www.w3.org/1999/xlink">
    <!-- Generator: Sketch 49.3 (51167) - http://www.bohemiancoding.com/sketch -->
    <title>Logo</title>
    <desc>Created with Sketch.</desc>
    <defs></defs>
    <g id="Symbols" stroke="none" stroke-width="1" fill="none" fill-rule="evenodd">
        <g id="Navigation/Bar" transform="translate(-18.000000, -8.000000)" fill-rule="nonzero">
            <g id="Primary-Navigation">
                <g id="Menu">
                    <g id="Logo">
                        <g transform="translate(18.000000, 8.000000)">
                            <circle id="Oval" fill="#1D2531" cx="32" cy="32" r="32"></circle>
                            <path d="M29.6745,38.00475 L19.266875,42.905625 L39.479875,63.118625 C52.494875,60.001625 62.419,48.9335 63.8275,35.33525 L46.653,18.161125 L41.208,25.268375 L27.25925,11.319375 L24.0825,16.197375 L37.71425,29.829125 L30.63525,36.9185 L29.6745,38.00475 Z" id="Shape" fill="#000000"></path>
                            <circle id="Oval" fill="#71E2EF" cx="32" cy="31.74575" r="16.930875"></circle>
                            <path d="M32,14.81525 C31.975875,14.81525 31.952125,14.817 31.92825,14.81725 L31.92825,48.67675 C31.952375,48.67675 31.976125,48.67875 32,48.67875 C41.351125,48.67875 48.9315,41.09825 48.9315,31.74725 C48.9315,22.39575 41.351125,14.81525 32,14.81525 Z" id="Shape" fill="#38C6D9"></path>
                            <path d="M27.7585,33.730625 C24.474875,32.7045 24.6115,29.14725 27.142875,28.463 C29.674,27.778875 28.374125,26.752625 29.537125,24.016375 C30.700125,21.279875 28.9215,22.23775 27.69,19.706625 C26.914,18.111625 27.116125,16.462875 27.37175,15.461125 C21.170875,17.220125 16.421125,22.421 15.31675,28.8705 C18.742125,32.3905 23.15475,27.886625 23.927625,30.720875 C24.748625,33.730875 23.654,34.89375 23.654,34.89375 C23.654,34.89375 21.806875,37.97225 21.806875,39.88775 C21.806875,41.21575 25.843875,45.666875 28.320375,48.272875 C28.826125,48.384875 29.3405,48.47375 29.86225,48.539375 C29.7315,47.174 29.928625,45.32775 31.657875,44.402875 C34.5995,42.829375 35.146875,37.014625 35.146875,37.014625 L32.410375,35.030875 C32.4105,35.030375 31.042375,34.75675 27.7585,33.730625 Z" id="Shape" fill="#477F3C"></path>
                            <g id="Group" transform="translate(31.875000, 15.500000)" fill="#2E5E24">
                                <path d="M3.272,21.51425 L0.5355,19.53025 C0.5355,19.53025 0.378875,19.498625 0.053,19.41975 L0.053,28.742 C2.7585,26.9695 3.272,21.51425 3.272,21.51425 Z" id="Shape"></path>
                                <path d="M4.90475,0.004 C4.279,1.145875 2.5365,4.55925 3.272,5.91675 C4.161375,7.5585 3.887625,5.369375 6.145375,5.91675 C8.402875,6.464125 10.113125,7.148 11.618125,6.942875 C13.123125,6.73775 14.422875,10.021375 12.576,10.910625 C10.728875,11.8 14.21775,18.162 14.21775,18.162 L16.506875,20.537375 C16.86475,19.166875 17.05675,17.729125 17.05675,16.246625 C17.0565,8.55625 11.9275,2.0675 4.90475,0.004 Z" id="Shape"></path>
                            </g>
                            <path d="M21.333375,13.969 C21.333375,12.00525 22.925125,10.4135 24.888875,10.4135 C26.852625,10.4135 28.444375,12.00525 28.444375,13.969 C28.444375,16.905 24.888875,21.618875 24.888875,21.618875 C24.888875,21.618875 21.333375,16.985875 21.333375,13.969 Z" id="Shape" fill="#FFC61B"></path>
                            <path d="M24.89125,10.4135 L24.89125,21.615625 C24.94075,21.549625 28.444375,16.884125 28.444375,13.969 C28.4445,12.005875 26.85375,10.41475 24.89125,10.4135 Z" id="Shape" fill="#EAA22F"></path>
                            <path d="M24.759375,16.472125 C24.821375,16.5635 24.956375,16.5635 25.018375,16.472125 C25.513625,15.741625 27.25925,14.834375 27.25925,13.65975 C27.25925,12.84975 26.72875,12.474625 26.074125,12.474625 C25.4195,12.474625 24.889,13.005125 24.889,13.65975 C24.889,13.005125 24.3585,12.474625 23.703875,12.474625 C23.04925,12.474625 22.51875,12.84975 22.51875,13.65975 C22.5185,14.834375 24.264125,15.741625 24.759375,16.472125 Z" id="Shape" fill="#FF314F"></path>
                            <path d="M26.074125,12.474625 C25.435,12.474625 24.9155,12.98075 24.89125,13.613875 L24.89125,16.54025 C24.93975,16.539625 24.988,16.51725 25.018375,16.472125 C25.513625,15.741625 27.25925,14.834375 27.25925,13.65975 C27.25925,12.849625 26.72875,12.474625 26.074125,12.474625 Z" id="Shape" fill="#A30F44"></path>
                            <path d="M40.72725,20.81075 C40.72725,18.847 42.319,17.25525 44.28275,17.25525 C46.2465,17.25525 47.83825,18.847 47.83825,20.81075 C47.83825,23.74675 44.28275,28.460625 44.28275,28.460625 C44.28275,28.460625 40.72725,23.827625 40.72725,20.81075 Z" id="Shape" fill="#FFC61B"></path>
                            <path d="M44.28525,17.25525 L44.28525,28.457375 C44.33475,28.391375 47.838375,23.725875 47.838375,20.8105 C47.838375,18.847625 46.247625,17.2565 44.28525,17.25525 Z" id="Shape" fill="#EAA22F"></path>
                            <path d="M44.153375,23.313875 C44.215375,23.40525 44.350375,23.40525 44.412375,23.313875 C44.907625,22.583375 46.65325,21.676125 46.65325,20.5015 C46.65325,19.6915 46.12275,19.316375 45.468125,19.316375 C44.8135,19.316375 44.282875,19.846875 44.282875,20.5015 C44.282875,19.846875 43.752375,19.316375 43.09775,19.316375 C42.443125,19.316375 41.912625,19.6915 41.912625,20.5015 C41.9125,21.676125 43.658125,22.583375 44.153375,23.313875 Z" id="Shape" fill="#FF314F"></path>
                            <path d="M45.468,19.316375 C44.828875,19.316375 44.309375,19.8225 44.285125,20.455625 L44.285125,23.382 C44.333625,23.381375 44.381875,23.359 44.41225,23.313875 C44.9075,22.583375 46.653125,21.676125 46.653125,20.5015 C46.65325,19.691375 46.122625,19.316375 45.468,19.316375 Z" id="Shape" fill="#A30F44"></path>
                            <path d="M26.451125,32.878125 C26.451125,30.914375 28.042875,29.322625 30.006625,29.322625 C31.970375,29.322625 33.562125,30.914375 33.562125,32.878125 C33.562125,35.814125 30.006625,40.528 30.006625,40.528 C30.006625,40.528 26.451125,35.895 26.451125,32.878125 Z" id="Shape" fill="#FFC61B"></path>
                            <path d="M30.009125,29.3225 L30.009125,40.524625 C30.058625,40.45875 33.56225,35.793125 33.56225,32.877875 C33.56225,30.915 31.9715,29.323875 30.009125,29.3225 Z" id="Shape" fill="#EAA22F"></path>
                            <path d="M29.87725,35.38125 C29.93925,35.472625 30.07425,35.472625 30.13625,35.38125 C30.6315,34.65075 32.377125,33.7435 32.377125,32.568875 C32.377125,31.758875 31.846625,31.38375 31.192,31.38375 C30.537375,31.38375 30.006875,31.91425 30.006875,32.568875 C30.006875,31.91425 29.476375,31.38375 28.82175,31.38375 C28.167125,31.38375 27.636625,31.758875 27.636625,32.568875 C27.636375,33.7435 29.382,34.65075 29.87725,35.38125 Z" id="Shape" fill="#FF314F"></path>
                            <path d="M31.191875,31.38375 C30.55275,31.38375 30.03325,31.889875 30.009,32.523 L30.009,35.449375 C30.0575,35.44875 30.10575,35.426375 30.136125,35.38125 C30.631375,34.65075 32.377,33.7435 32.377,32.568875 C32.377125,31.758625 31.846625,31.38375 31.191875,31.38375 Z" id="Shape" fill="#A30F44"></path>
                        </g>
                    </g>
                </g>
            </g>
        </g>
    </g>
</svg>