<?xml version="1.0" encoding="UTF-8"?>
<svg width="16px" height="16px" viewBox="0 0 16 16" version="1.1" xmlns="http://www.w3.org/2000/svg" xmlns:xlink="http://www.w3.org/1999/xlink">
    <!-- Generator: Sketch 49.3 (51167) - http://www.bohemiancoding.com/sketch -->
    <title>Shape</title>
    <desc>Created with Sketch.</desc>
    <defs></defs>
    <g id="Symbols" stroke="none" stroke-width="1" fill="none" fill-rule="evenodd">
        <g id="Icon/Static/Male" fill="#1A91EB" fill-rule="nonzero">
            <path d="M15.977344,0.60975434 C15.974144,0.592848738 15.965056,0.576583499 15.959808,0.560446334 L15.949184,0.53137382 C15.943296,0.510626036 15.936256,0.490006324 15.927936,0.469386612 C15.919616,0.449407263 15.908864,0.430836715 15.898496,0.412266167 L15.88352,0.385114745 C15.875968,0.370258307 15.868032,0.355401868 15.858432,0.340673503 C15.803136,0.258066582 15.73312,0.188266936 15.650688,0.13293951 C15.63712,0.123846345 15.622656,0.116418125 15.60832,0.108989906 L15.584,0.0957984135 C15.563904,0.0843999392 15.543808,0.0733856831 15.52192,0.0640363727 C15.503232,0.0564800807 15.484288,0.0508448799 15.465088,0.0454658246 L15.435264,0.0365007324 C15.417728,0.0306093861 15.400064,0.0252303308 15.38176,0.0215162212 C15.34016,0.0133195655 15.296384,0.00525098256 15.25056,0.00435447334 C15.24544,0.00384218236 15.239552,0 15.235712,0 L12.117632,0 C11.704448,0 11.368448,0.337087466 11.368448,0.750378215 C11.368448,1.16379704 11.704448,1.50075643 12.117632,1.50075643 L13.427328,1.50075643 L10.086656,4.84550425 C8.992,3.98523962 7.630208,3.51405999 6.238976,3.51405999 C2.79872,3.51393191 0,6.31501093 0,9.7572221 C0,13.1991771 2.79872,16 6.238976,16 C9.679232,16 12.47808,13.1996894 12.47808,9.75747825 C12.47808,8.36558365 12.012672,7.00314579 11.152896,5.9077396 L14.499968,2.56580938 L14.499968,3.87624971 C14.499968,4.28954046 14.836864,4.62585949 15.24992,4.62585949 C15.662976,4.62585949 15.999872,4.28966853 15.999872,3.87624971 L15.999872,0.756525707 C16,0.707986136 15.987072,0.658550056 15.977344,0.60975434 Z M6.238976,14.5011647 C3.624832,14.5011647 1.498112,12.373236 1.498112,9.75773439 C1.498112,7.14197664 3.624832,5.01404798 6.238976,5.01404798 C8.852992,5.01404798 10.979968,7.14197664 10.979968,9.75773439 C10.97984,12.373236 8.852992,14.5011647 6.238976,14.5011647 Z" id="Shape"></path>
        </g>
    </g>
</svg>