<?xml version="1.0" encoding="UTF-8"?>
<svg width="28px" height="30px" viewBox="0 0 28 30" version="1.1" xmlns="http://www.w3.org/2000/svg" xmlns:xlink="http://www.w3.org/1999/xlink">
    <!-- Generator: Sketch 49.3 (51167) - http://www.bohemiancoding.com/sketch -->
    <title>Shape</title>
    <desc>Created with Sketch.</desc>
    <defs></defs>
    <g id="Symbols" stroke="none" stroke-width="1" fill="none" fill-rule="evenodd">
        <g id="Navigation/Menu-Item/Managers/Active" transform="translate(-36.000000, 0.000000)" fill="#FFFFFF" fill-rule="nonzero">
            <path d="M57.6043623,11.1720059 C57.1151218,12.9577207 55.9734646,13.3510692 55.3643221,13.429986 C54.9890891,14.1461385 54.1642954,15.6097356 53.3392141,16.3451026 C53.0094116,16.6389474 52.5808409,16.8869519 52.0654347,17.0822538 C51.4074112,17.3314935 50.7124395,17.4578976 50.0000719,17.4578976 C49.2877043,17.4578976 48.5927326,17.3314935 47.9347091,17.0822538 C47.4194466,16.8870892 46.9907321,16.6390847 46.6609297,16.3451026 C45.8357046,15.6098729 45.0109109,14.1461385 44.6356779,13.429986 C44.0266791,13.3510692 42.885022,12.9578579 42.3957815,11.1720059 C42.1341247,10.2170444 42.2011204,9.43858203 42.5950431,8.8581664 C42.7691455,8.60165261 42.980196,8.42693776 43.1767261,8.30863124 C43.1773012,8.11799579 43.1856397,7.87932406 43.2087862,7.60785039 C42.8549746,7.13846721 42.3739288,6.12572497 42.969701,4.48645226 C43.5994023,2.75344015 45.0231312,2.48580939 45.7103394,2.46261473 C45.9426676,2.05032611 46.3815896,1.4649696 47.1786362,0.926825907 C48.0633809,0.329117211 49.2186959,0 50.4316617,0 C51.9242551,0 53.4261934,0.50149887 54.7750194,1.45028422 C56.9618657,2.98854348 56.7745367,6.40076704 56.7209115,7.02029794 C56.8002711,7.53963886 56.8222675,7.99008202 56.8232739,8.308494 C57.019804,8.42680052 57.2308545,8.60151537 57.4049569,8.85802916 C57.7988796,9.43858203 57.8658753,10.2169072 57.6043623,11.1720059 Z M64,24.4696862 L64,29.313254 C64,29.6921917 63.6781047,29.9994867 63.2811629,29.9994867 L36.7188371,29.9994867 C36.3218953,29.9994867 36,29.6921917 36,29.313254 L36,24.4696862 C36,22.4853757 37.2470386,20.726973 39.1769726,19.989959 L45.4617656,17.590066 C45.642625,17.5211682 45.8450495,17.5248739 46.0228898,17.601183 C46.2005864,17.6772175 46.3384593,17.8189932 46.4045923,17.9938453 L47.9845963,22.163807 L48.2974343,21.3051927 L47.7997114,20.1436752 C47.709138,19.932041 47.7347286,19.6911733 47.8682885,19.5013613 C48.0018484,19.3115494 48.2255506,19.1976347 48.4650671,19.1976347 L51.5350767,19.1976347 C51.7745932,19.1976347 51.9984391,19.3115494 52.1318553,19.5013613 C52.2654152,19.6911733 52.2910058,19.932041 52.2004323,20.1436752 L51.7027095,21.3051927 L52.0155474,22.163807 L53.5955514,17.9938453 C53.6616844,17.8189932 53.7995574,17.6772175 53.9772539,17.601183 C54.1550942,17.5250111 54.3576625,17.5213055 54.5383782,17.590066 L60.8231712,19.989959 C62.7531051,20.726973 64,22.4853757 64,24.4696862 Z M60.1734862,24.9963012 C60.1734862,24.6173635 59.8515909,24.3100685 59.4546491,24.3100685 L54.6283766,24.3100685 C54.2314347,24.3100685 53.9095395,24.6173635 53.9095395,24.9963012 L53.9095395,27.1359748 C53.9095395,27.5149125 54.2314347,27.8222075 54.6283766,27.8222075 L59.4546491,27.8222075 C59.8515909,27.8222075 60.1734862,27.5149125 60.1734862,27.1359748 L60.1734862,24.9963012 Z" id="Shape"></path>
        </g>
    </g>
</svg>