<?xml version="1.0" encoding="UTF-8"?>
<svg width="28px" height="32px" viewBox="0 0 28 32" version="1.1" xmlns="http://www.w3.org/2000/svg" xmlns:xlink="http://www.w3.org/1999/xlink">
    <!-- Generator: Sketch 49.3 (51167) - http://www.bohemiancoding.com/sketch -->
    <title>png</title>
    <desc>Created with Sketch.</desc>
    <defs></defs>
    <g id="Super-Administrator" stroke="none" stroke-width="1" fill="none" fill-rule="evenodd">
        <g id="Volunteers-Profile-View" transform="translate(-801.000000, -233.000000)" fill-rule="nonzero">
            <g id="Content" transform="translate(130.000000, 111.000000)">
                <g id="Column-2" transform="translate(671.000000, 30.000000)">
                    <g id="Files-List">
                        <g id="png" transform="translate(0.000000, 92.000000)">
                            <g id="Group" transform="translate(0.256881, 0.316832)">
                                <path d="M27.4640826,7.60947327 L27.4640826,29.238495 C27.4640826,30.4280713 26.4776606,31.4013782 25.272055,31.4013782 L2.25554128,31.4013782 C1.04993578,31.4013782 0.0635137615,30.4280713 0.0635137615,29.238495 L0.0635137615,2.2021703 C0.0635137615,1.01259406 1.04993578,0.0392871287 2.25554128,0.0392871287 L19.7919541,0.0392871287 L19.7919541,5.44652673 C19.7919541,6.63610297 20.7783761,7.6094099 21.9839817,7.6094099 L27.4640826,7.6094099 L27.4640826,7.60947327 Z" id="Shape" fill="#F2EDDA"></path>
                                <path d="M27.4640826,7.60947327 L21.9839817,7.60947327 C20.7783761,7.60947327 19.7919541,6.63616634 19.7919541,5.4465901 L19.7919541,0.0392871287 L27.4640826,7.60947327 Z" id="Shape" fill="#FFD0A1"></path>
                                <polygon id="Shape" fill="#ECF4F7" points="21.9839174 11.935303 21.9839174 19.5054257 5.54355046 19.5054257 5.54355046 11.935303"></polygon>
                                <polygon id="Shape" fill="#50DD8E" points="21.9839174 19.5054257 8.83162385 19.5054257 12.6677523 15.7203644 14.311789 17.3425426 17.0518073 14.6388911"></polygon>
                                <path d="M8.28363303,14.0981861 C8.55766055,14.0981861 8.83162385,14.3685703 8.83162385,14.6388911 C8.83162385,14.9092752 8.55759633,15.179596 8.28363303,15.179596 C8.00966972,15.179596 7.7356422,14.9092119 7.7356422,14.6388911 C7.7356422,14.3685069 8.0096055,14.0981861 8.28363303,14.0981861" id="Shape" fill="#FFE079"></path>
                            </g>
                            <path d="M25.5288716,31.9885941 L2.5123578,31.9885941 C1.14234862,31.9885941 0.0463027523,30.9071208 0.0463027523,29.5553267 L0.0463027523,2.51900198 C0.0463027523,1.16720792 1.14234862,0.0857346535 2.5123578,0.0857346535 L17.8566789,0.0857346535 C18.0210826,0.0857346535 18.1307064,0.19390099 18.1307064,0.356118812 C18.1307064,0.518336634 18.0210826,0.62650297 17.8566789,0.62650297 L2.5123578,0.62650297 C1.47115596,0.62650297 0.594293578,1.49164356 0.594293578,2.51906535 L0.594293578,29.5553267 C0.594293578,30.5826851 1.47109174,31.4478891 2.5123578,31.4478891 L25.5288716,31.4478891 C26.5700734,31.4478891 27.4469358,30.5827485 27.4469358,29.5553267 L27.4469358,8.03447129 L20.3227982,1.0049901 L20.3227982,5.76335842 C20.3227982,6.84483168 21.1448165,7.65592079 22.2408624,7.65592079 L24.4328899,7.65592079 C24.5972936,7.65592079 24.7069174,7.76408713 24.7069174,7.92630495 C24.7069174,8.08852277 24.5972936,8.19668911 24.4328899,8.19668911 L22.2408624,8.19668911 C20.8708532,8.19668911 19.7748073,7.11521584 19.7748073,5.76342178 L19.7748073,0.356118812 C19.7748073,0.247952475 19.8295872,0.139849505 19.939211,0.0857346535 C20.0488349,0.031619802 20.1583945,0.0857346535 20.2132385,0.139786139 L27.8854312,7.70997228 C27.940211,7.76402376 27.940211,7.81813861 27.940211,7.92624158 L27.940211,29.5553267 C27.9949266,30.9071842 26.898945,31.9885941 25.5288716,31.9885941 Z M21.1448165,26.5813545 L13.4726239,26.5813545 C13.3082202,26.5813545 13.1985963,26.4731881 13.1985963,26.3109703 C13.1985963,26.1487525 13.3082202,26.0405861 13.4726239,26.0405861 L21.1448165,26.0405861 C21.3092202,26.0405861 21.418844,26.1487525 21.418844,26.3109703 C21.4187798,26.4731881 21.3092202,26.5813545 21.1448165,26.5813545 Z M11.2805963,26.5813545 L5.80049541,26.5813545 C5.63609174,26.5813545 5.52646789,26.4731881 5.52646789,26.3109703 C5.52646789,26.1487525 5.63609174,26.0405861 5.80049541,26.0405861 L11.2805963,26.0405861 C11.445,26.0405861 11.5546239,26.1487525 11.5546239,26.3109703 C11.5545596,26.4731881 11.445,26.5813545 11.2805963,26.5813545 Z M22.2407982,23.336998 L18.9527248,23.336998 C18.7883211,23.336998 18.6786972,23.2288317 18.6786972,23.0666139 C18.6786972,22.904396 18.7883211,22.7962297 18.9527248,22.7962297 L22.2407982,22.7962297 C22.4052018,22.7962297 22.5148257,22.904396 22.5148257,23.0666139 C22.5148257,23.2288317 22.4052018,23.336998 22.2407982,23.336998 Z M16.7606972,23.336998 L11.2805963,23.336998 C11.1161927,23.336998 11.0065688,23.2288317 11.0065688,23.0666139 C11.0065688,22.904396 11.1161927,22.7962297 11.2805963,22.7962297 L16.7606972,22.7962297 C16.9251009,22.7962297 17.0347248,22.904396 17.0347248,23.0666139 C17.0347248,23.2288317 16.9251009,23.336998 16.7606972,23.336998 Z M9.08850459,23.336998 L5.80043119,23.336998 C5.63602752,23.336998 5.52640367,23.2288317 5.52640367,23.0666139 C5.52640367,22.904396 5.63602752,22.7962297 5.80043119,22.7962297 L9.08850459,22.7962297 C9.25290826,22.7962297 9.36253211,22.904396 9.36253211,23.0666139 C9.36253211,23.2288317 9.25290826,23.336998 9.08850459,23.336998 Z M22.2407982,20.0926416 L12.376578,20.0926416 C12.2121743,20.0926416 12.1025505,19.9844752 12.1025505,19.8222574 C12.1025505,19.6600396 12.2121743,19.5518733 12.376578,19.5518733 L21.9667706,19.5518733 L21.9667706,12.5224554 L6.07445872,12.5224554 L6.07445872,19.5518733 L8.97894495,19.5518733 L12.7602294,15.8208634 C12.8698532,15.712697 13.0342569,15.712697 13.1438165,15.8208634 L14.5686697,17.2267723 L17.0895046,14.7394535 C17.1991284,14.6312871 17.3635321,14.6312871 17.4730917,14.7394535 L20.2131743,17.443105 C20.3227982,17.5512713 20.3227982,17.7134891 20.2131743,17.8215921 C20.1035505,17.9297584 19.9391468,17.9297584 19.8295872,17.8215921 L17.3087523,15.3342733 L14.7879174,17.8215921 C14.6782936,17.9297584 14.5138899,17.9297584 14.4043303,17.8215921 L12.9794771,16.4156832 L9.36259633,19.9844752 C9.30781651,20.0385267 9.25297248,20.0385267 9.14341284,20.0385267 L5.85533945,20.0385267 C5.69093578,20.0385267 5.58131193,19.9303604 5.58131193,19.7681426 L5.58131193,12.1980198 C5.58131193,12.035802 5.69093578,11.9276356 5.85533945,11.9276356 L22.2957064,11.9276356 C22.4601101,11.9276356 22.5697339,12.035802 22.5697339,12.1980198 L22.5697339,19.7682059 C22.5148257,19.9844752 22.4052018,20.0926416 22.2407982,20.0926416 Z M8.54051376,15.7668119 C8.10208257,15.7668119 7.71849541,15.3883248 7.71849541,14.9557228 C7.71849541,14.5231208 8.10208257,14.1446337 8.54051376,14.1446337 C8.97894495,14.1446337 9.36253211,14.5231208 9.36253211,14.9557228 C9.36253211,15.3883248 8.97894495,15.7668119 8.54051376,15.7668119 Z M8.54051376,14.6853386 C8.37611009,14.6853386 8.26648624,14.793505 8.26648624,14.9557228 C8.26648624,15.1179406 8.37611009,15.2261069 8.54051376,15.2261069 C8.70491743,15.2261069 8.81454128,15.1179406 8.81454128,14.9557228 C8.81454128,14.793505 8.70491743,14.6853386 8.54051376,14.6853386 Z M11.2805963,9.27809901 L5.80049541,9.27809901 C5.63609174,9.27809901 5.52646789,9.16993267 5.52646789,9.00771485 C5.52646789,8.84549703 5.63609174,8.73733069 5.80049541,8.73733069 L11.2805963,8.73733069 C11.445,8.73733069 11.5546239,8.84549703 11.5546239,9.00771485 C11.5545596,9.16993267 11.445,9.27809901 11.2805963,9.27809901 Z" id="Shape" fill="#51565F"></path>
                        </g>
                    </g>
                </g>
            </g>
        </g>
    </g>
</svg>