<?xml version="1.0" encoding="UTF-8"?>
<svg width="16px" height="16px" viewBox="0 0 16 16" version="1.1" xmlns="http://www.w3.org/2000/svg" xmlns:xlink="http://www.w3.org/1999/xlink">
    <!-- Generator: Sketch 49.3 (51167) - http://www.bohemiancoding.com/sketch -->
    <title>Shape</title>
    <desc>Created with Sketch.</desc>
    <defs></defs>
    <g id="Symbols" stroke="none" stroke-width="1" fill="none" fill-rule="evenodd">
        <g id="Icon/Inactive/Approve" fill="#7F8FA4" fill-rule="nonzero">
            <path d="M8,0 C3.57840625,0 0,3.57803125 0,8 C0,12.4215937 3.57803125,16 8,16 C12.4215937,16 16,12.4219687 16,8 C16,3.57840625 12.4219687,0 8,0 Z M12.2348125,5.81453125 L7.10965625,10.9396875 C6.90146875,11.147875 6.56365625,11.1479375 6.35540625,10.9396875 L3.7651875,8.34946875 C3.55690625,8.1411875 3.55690625,7.8035 3.7651875,7.59521875 C3.9734375,7.3869375 4.31115625,7.3869375 4.5194375,7.59521875 L6.7325625,9.8083125 L11.480625,5.06025 C11.688875,4.85196875 12.0265937,4.85196875 12.234875,5.06025 C12.4430938,5.26859375 12.4430938,5.60625 12.2348125,5.81453125 Z" id="Shape"></path>
        </g>
    </g>
</svg>