<?xml version="1.0" encoding="UTF-8"?>
<svg width="22px" height="30px" viewBox="0 0 22 30" version="1.1" xmlns="http://www.w3.org/2000/svg" xmlns:xlink="http://www.w3.org/1999/xlink">
    <!-- Generator: Sketch 49.3 (51167) - http://www.bohemiancoding.com/sketch -->
    <title>id-card</title>
    <desc>Created with Sketch.</desc>
    <defs></defs>
    <g id="Symbols" stroke="none" stroke-width="1" fill="none" fill-rule="evenodd">
        <g id="Navigation/Menu-Item/Incomplete-Task/My-Profile" transform="translate(-39.000000, 0.000000)" fill="#FFFFFF" fill-rule="nonzero">
            <g id="id-card" transform="translate(39.000000, 0.000000)">
                <path d="M11,12.4999805 C9.84958333,12.4999805 8.91409444,13.3969922 8.91409444,14.4999609 L8.91409444,17.0789648 C10.2376389,17.6374805 11.7624222,17.6374805 13.0859667,17.0789648 L13.0859667,14.4999609 C13.0859056,13.3969922 12.1504167,12.4999805 11,12.4999805 Z" id="Shape"></path>
                <path d="M7.87111111,16.4904492 L7.87111111,14.4999609 C7.87111111,13.3699805 8.52658889,12.3849609 9.49135,11.8734375 C9.13568333,11.5149609 8.91409444,11.0329102 8.91409444,10.4999414 C8.91409444,9.39691406 9.84964444,8.49996094 11,8.49996094 C12.1503556,8.49996094 13.0859056,9.39697266 13.0859056,10.4999414 C13.0859056,11.0329688 12.8642556,11.5149609 12.50865,11.8734375 C13.4734111,12.3849609 14.1288889,13.3699219 14.1288889,14.4999609 L14.1288889,16.4904492 C15.3924222,15.5769727 16.2147944,14.1304688 16.2147944,12.4999805 C16.2147944,9.74296875 13.8754,7.5 11,7.5 C8.1246,7.5 5.78520556,9.74302734 5.78520556,12.4999805 C5.78520556,14.1304687 6.60757778,15.5769727 7.87111111,16.4904492 Z" id="Shape"></path>
                <path d="M12.0429833,10.5 C12.0429833,9.94851562 11.5752389,9.49998047 11,9.49998047 C10.4248222,9.49998047 9.95701667,9.94845703 9.95701667,10.5 C9.95701667,11.051543 10.4247611,11.5000195 11,11.5000195 C11.5751778,11.5000195 12.0429833,11.0514844 12.0429833,10.5 Z" id="Shape"></path>
                <path d="M20.3866667,3 L13.0859056,3 L13.0859056,1.99998047 C13.0859056,0.897011719 12.1504167,0 11,0 C9.84958333,0 8.91409444,0.897011719 8.91409444,1.99998047 L8.91409444,3 L1.61333333,3 C0.750811111,3 0.0488888889,3.67300781 0.0488888889,4.5 L0.0488888889,28.5 C0.0488888889,29.3269922 0.750811111,30 1.61333333,30 L20.3866667,30 C21.2491889,30 21.9511111,29.3269922 21.9511111,28.5 L21.9511111,4.5 C21.9511111,3.67300781 21.2491889,3 20.3866667,3 Z M11,1.00001953 C11.3853667,1.00001953 11.7222722,1.20099609 11.9026722,1.5 L10.0973278,1.5 C10.2777278,1.20099609 10.6146333,1.00001953 11,1.00001953 Z M9.95701667,3.49998047 L9.95701667,2.50001953 L12.0429222,2.50001953 L12.0429222,3.50003906 L12.0429222,4.5 L9.95701667,4.5 L9.95701667,3.49998047 Z M11,6.49998047 C14.4506389,6.49998047 17.2577778,9.19148437 17.2577778,12.4999805 C17.2577778,14.8214648 15.8732444,16.8349805 13.85615,17.8319531 C13.8524833,17.8344727 13.8493667,17.8379297 13.8452111,17.8399805 C13.8248611,17.8494727 13.8045111,17.8559766 13.7842222,17.8654687 C13.6063889,17.950957 13.4239111,18.0279492 13.2361167,18.0969727 C13.18295,18.1169531 13.1286833,18.1354687 13.0749667,18.1539844 C12.9158944,18.2074805 12.7542556,18.255 12.5894389,18.2964844 C12.5200778,18.3140039 12.4507167,18.3324609 12.3808667,18.3479883 C12.2233833,18.3819727 12.0627833,18.4079883 11.9005944,18.4304883 C11.8312333,18.4399805 11.7629111,18.4535156 11.6930611,18.4610156 C11.4651778,18.4850391 11.2346667,18.5000391 11,18.5000391 C10.7653333,18.5000391 10.5348222,18.4850391 10.3069389,18.4610156 C10.2370889,18.4535156 10.1687667,18.4400391 10.0994056,18.4304883 C9.93721667,18.4079883 9.77661667,18.3819727 9.61913333,18.3479883 C9.54928333,18.3324609 9.47992222,18.3140039 9.41056111,18.2964844 C9.24574444,18.255 9.08410556,18.2074805 8.92503333,18.1539844 C8.87131667,18.1354687 8.81711111,18.1170117 8.76388333,18.0969727 C8.57615,18.0279492 8.39361111,17.950957 8.21577778,17.8654687 C8.19542778,17.8559766 8.17507778,17.8494727 8.15478889,17.8399805 C8.15063333,17.8379883 8.14745556,17.8344727 8.14385,17.8319531 C6.12675556,16.8349219 4.74222222,14.8214648 4.74222222,12.4999805 C4.74222222,9.19148437 7.54936111,6.49998047 11,6.49998047 Z M15.6933333,21 C15.6933333,21.2765039 15.4597056,21.4999805 15.1718722,21.4999805 L12.5644444,21.4999805 C12.2766111,21.4999805 12.0429833,21.2765039 12.0429833,21 C12.0429833,20.7234961 12.2766111,20.5000195 12.5644444,20.5000195 L15.1718722,20.5000195 C15.4597056,20.5000195 15.6933333,20.7234961 15.6933333,21 Z M11,21 C11,21.2765039 10.7663722,21.4999805 10.4785389,21.4999805 L7.34965,21.4999805 C7.06126667,21.4999805 6.82818889,21.2765039 6.82818889,21 C6.82818889,20.7234961 7.06126667,20.5000195 7.34965,20.5000195 L10.4785389,20.5000195 C10.7663722,20.5000195 11,20.7234961 11,21 Z M3.69923889,20.5000195 L5.26368333,20.5000195 C5.55206667,20.5000195 5.78514444,20.7234961 5.78514444,21 C5.78514444,21.2765039 5.55206667,21.4999805 5.26368333,21.4999805 L3.69923889,21.4999805 C3.41140556,21.4999805 3.17777778,21.2765039 3.17777778,21 C3.17777778,20.7234961 3.41140556,20.5000195 3.69923889,20.5000195 Z M3.69923889,23.5000195 L7.87111111,23.5000195 C8.15894444,23.5000195 8.39257222,23.7234961 8.39257222,24 C8.39257222,24.2765039 8.15894444,24.4999805 7.87111111,24.4999805 L3.69923889,24.4999805 C3.41140556,24.4999805 3.17777778,24.2765039 3.17777778,24 C3.17777778,23.7234961 3.41140556,23.5000195 3.69923889,23.5000195 Z M8.91409444,27.4999805 L3.6993,27.4999805 C3.41146667,27.4999805 3.17783889,27.2765039 3.17783889,27 C3.17783889,26.7234961 3.41146667,26.5000195 3.6993,26.5000195 L8.91409444,26.5000195 C9.20192778,26.5000195 9.43555556,26.7234961 9.43555556,27 C9.43555556,27.2765039 9.20192778,27.4999805 8.91409444,27.4999805 Z M9.43555556,24 C9.43555556,23.7234961 9.66918333,23.5000195 9.95701667,23.5000195 L14.1288889,23.5000195 C14.4167222,23.5000195 14.65035,23.7234961 14.65035,24 C14.65035,24.2765039 14.4167222,24.4999805 14.1288889,24.4999805 L9.95701667,24.4999805 C9.66918333,24.4999805 9.43555556,24.2765039 9.43555556,24 Z M12.5644444,27.4999805 L11,27.4999805 C10.7121667,27.4999805 10.4785389,27.2765039 10.4785389,27 C10.4785389,26.7234961 10.7121667,26.5000195 11,26.5000195 L12.5644444,26.5000195 C12.8522778,26.5000195 13.0859056,26.7234961 13.0859056,27 C13.0859056,27.2765039 12.8522778,27.4999805 12.5644444,27.4999805 Z M18.3007611,27.4999805 L14.6504111,27.4999805 C14.3625778,27.4999805 14.12895,27.2765039 14.12895,27 C14.12895,26.7234961 14.3625778,26.5000195 14.6504111,26.5000195 L18.3007611,26.5000195 C18.5885944,26.5000195 18.8222222,26.7234961 18.8222222,27 C18.8222222,27.2765039 18.5885944,27.4999805 18.3007611,27.4999805 Z M18.3007611,24.4999805 L16.2148556,24.4999805 C15.9270222,24.4999805 15.6933944,24.2765039 15.6933944,24 C15.6933944,23.7234961 15.9270222,23.5000195 16.2148556,23.5000195 L18.3007611,23.5000195 C18.5885944,23.5000195 18.8222222,23.7234961 18.8222222,24 C18.8222222,24.2765039 18.5885944,24.4999805 18.3007611,24.4999805 Z M18.3007611,21.4999805 L17.2577778,21.4999805 C16.9699444,21.4999805 16.7363167,21.2765039 16.7363167,21 C16.7363167,20.7234961 16.9699444,20.5000195 17.2577778,20.5000195 L18.3007611,20.5000195 C18.5885944,20.5000195 18.8222222,20.7234961 18.8222222,21 C18.8222222,21.2765039 18.5885944,21.4999805 18.3007611,21.4999805 Z" id="Shape"></path>
            </g>
        </g>
    </g>
</svg>