<?xml version="1.0"?>
<svg xmlns="http://www.w3.org/2000/svg" height="512px" version="1.1" viewBox="-53 1 511 511.999" width="512px" class=""><g><g id="surface1">
<path d="M 45.289062 64.285156 L 186.128906 64.285156 C 190.273438 64.285156 193.628906 60.929688 193.628906 56.785156 C 193.628906 52.644531 190.273438 49.285156 186.128906 49.285156 L 45.289062 49.285156 C 41.148438 49.285156 37.789062 52.644531 37.789062 56.785156 C 37.789062 60.929688 41.148438 64.285156 45.289062 64.285156 Z M 45.289062 64.285156 " data-original="#000000" class="active-path" data-old_color="#ffffff" fill="#ffffff"/>
<path d="M 45.289062 97.511719 L 117.113281 97.511719 C 121.257812 97.511719 124.613281 94.152344 124.613281 90.011719 C 124.613281 85.867188 121.257812 82.511719 117.113281 82.511719 L 45.289062 82.511719 C 41.148438 82.511719 37.789062 85.867188 37.789062 90.011719 C 37.789062 94.152344 41.148438 97.511719 45.289062 97.511719 Z M 45.289062 97.511719 " data-original="#000000" class="active-path" data-old_color="#ffffff" fill="#ffffff"/>
<path d="M 405.324219 117.535156 C 405.324219 117.449219 405.320312 117.363281 405.3125 117.28125 C 405.289062 116.960938 405.257812 116.644531 405.195312 116.335938 C 405.195312 116.328125 405.195312 116.324219 405.191406 116.320312 C 405.128906 116.003906 405.039062 115.695312 404.933594 115.386719 C 404.910156 115.308594 404.882812 115.234375 404.851562 115.15625 C 404.746094 114.867188 404.625 114.585938 404.480469 114.308594 C 404.472656 114.292969 404.464844 114.277344 404.457031 114.261719 C 404.304688 113.976562 404.128906 113.703125 403.941406 113.4375 C 403.890625 113.371094 403.839844 113.304688 403.789062 113.238281 C 403.589844 112.976562 403.375 112.71875 403.140625 112.480469 L 292.855469 2.195312 C 292.617188 1.960938 292.363281 1.746094 292.097656 1.546875 C 292.035156 1.496094 291.96875 1.445312 291.902344 1.398438 C 291.632812 1.210938 291.363281 1.03125 291.074219 0.878906 C 291.0625 0.871094 291.046875 0.867188 291.035156 0.859375 C 290.757812 0.714844 290.472656 0.59375 290.179688 0.484375 C 290.101562 0.453125 290.03125 0.429688 289.953125 0.402344 C 289.34375 0.195312 288.703125 0.0664062 288.050781 0.0234375 C 287.972656 0.0195312 287.890625 0.015625 287.8125 0.0117188 C 287.722656 0.0117188 287.636719 0 287.550781 0 L 23.027344 0 C 10.605469 0 0.5 10.105469 0.5 22.527344 L 0.5 489.472656 C 0.5 501.894531 10.605469 512 23.027344 512 L 382.8125 512 C 395.234375 512 405.335938 501.894531 405.335938 489.472656 L 405.335938 117.785156 C 405.335938 117.703125 405.328125 117.617188 405.324219 117.535156 Z M 295.050781 25.605469 L 379.730469 110.285156 L 301.117188 110.285156 C 297.773438 110.285156 295.050781 107.566406 295.050781 104.222656 Z M 390.335938 489.472656 C 390.335938 493.625 386.960938 497 382.8125 497 L 23.027344 497 C 18.875 497 15.5 493.625 15.5 489.472656 L 15.5 22.527344 C 15.5 18.375 18.875 15 23.027344 15 L 280.050781 15 L 280.050781 104.222656 C 280.050781 115.835938 289.5 125.285156 301.117188 125.285156 L 390.335938 125.285156 Z M 390.335938 489.472656 " data-original="#000000" class="active-path" data-old_color="#ffffff" fill="#ffffff"/>
<path d="M 355.742188 407.503906 L 351.710938 407.503906 L 351.710938 235.863281 C 351.710938 232.207031 349.738281 228.808594 346.5625 226.996094 C 343.386719 225.183594 339.457031 225.210938 336.308594 227.066406 L 316.042969 239.015625 C 312.945312 240.847656 311.023438 244.214844 311.023438 247.8125 L 311.023438 354.324219 C 311.023438 358.46875 314.378906 361.824219 318.523438 361.824219 C 322.664062 361.824219 326.023438 358.46875 326.023438 354.324219 L 326.023438 250.546875 L 336.710938 244.246094 L 336.710938 407.503906 L 326.023438 407.503906 L 326.023438 388.199219 C 326.023438 384.058594 322.664062 380.699219 318.523438 380.699219 C 314.378906 380.699219 311.023438 384.058594 311.023438 388.199219 L 311.023438 407.503906 L 300.359375 407.503906 L 300.359375 266.148438 C 300.359375 262.492188 298.386719 259.09375 295.210938 257.277344 C 292.035156 255.464844 288.109375 255.492188 284.957031 257.351562 L 264.699219 269.296875 C 261.597656 271.125 259.667969 274.496094 259.667969 278.097656 L 259.667969 407.5 L 249.007812 407.5 L 249.007812 296.429688 C 249.007812 292.773438 247.035156 289.375 243.859375 287.5625 C 240.683594 285.75 236.753906 285.777344 233.605469 287.632812 L 220.496094 295.363281 C 218.699219 296.425781 216.792969 297.34375 214.832031 298.101562 C 210.933594 299.601562 208.320312 303.425781 208.320312 307.617188 L 208.320312 407.5 L 197.65625 407.5 L 197.65625 308.949219 C 197.65625 304.425781 194.632812 300.394531 190.308594 299.152344 C 187.359375 298.300781 184.542969 297.117188 181.941406 295.632812 C 179.167969 294.046875 176.597656 292.113281 174.296875 289.875 C 171.34375 287.007812 166.988281 286.191406 163.199219 287.789062 C 159.414062 289.390625 156.96875 293.082031 156.96875 297.191406 L 156.96875 407.5 L 146.304688 407.5 L 146.304688 252.691406 C 146.304688 249.019531 144.324219 245.617188 141.128906 243.808594 C 137.941406 241.996094 134 242.039062 130.851562 243.925781 L 110.59375 256.03125 C 107.523438 257.863281 105.617188 261.222656 105.617188 264.800781 L 105.617188 407.5 L 94.953125 407.5 L 94.953125 283.378906 C 94.953125 279.710938 92.972656 276.308594 89.78125 274.496094 C 86.59375 272.683594 82.65625 272.726562 79.507812 274.605469 L 59.234375 286.710938 C 56.167969 288.539062 54.265625 291.898438 54.265625 295.472656 L 54.265625 311.703125 C 54.265625 315.84375 57.625 319.203125 61.765625 319.203125 C 65.90625 319.203125 69.265625 315.84375 69.265625 311.703125 L 69.265625 298.191406 L 79.953125 291.8125 L 79.953125 407.5 L 69.265625 407.5 L 69.265625 345.574219 C 69.265625 341.433594 65.90625 338.074219 61.765625 338.074219 C 57.625 338.074219 54.265625 341.433594 54.265625 345.574219 L 54.265625 407.5 L 45.164062 407.5 C 38.070312 407.5 32.300781 413.269531 32.300781 420.363281 L 32.300781 434.652344 C 32.300781 441.746094 38.070312 447.515625 45.164062 447.515625 L 355.742188 447.515625 C 362.835938 447.515625 368.605469 441.746094 368.605469 434.652344 L 368.605469 420.363281 C 368.605469 413.269531 362.835938 407.503906 355.742188 407.503906 Z M 274.667969 280.832031 L 285.359375 274.527344 L 285.359375 407.503906 L 274.667969 407.503906 Z M 223.320312 310.792969 C 224.960938 310.039062 226.566406 309.199219 228.113281 308.285156 L 234.007812 304.8125 L 234.007812 407.5 L 223.320312 407.5 Z M 171.96875 307.113281 C 172.796875 307.652344 173.644531 308.167969 174.503906 308.660156 C 177.089844 310.136719 179.820312 311.398438 182.65625 312.429688 L 182.65625 407.503906 L 171.96875 407.503906 Z M 120.617188 267.519531 L 131.304688 261.128906 L 131.304688 407.503906 L 120.617188 407.503906 Z M 353.605469 432.515625 L 47.300781 432.515625 L 47.300781 422.503906 L 353.605469 422.503906 Z M 353.605469 432.515625 " data-original="#000000" class="active-path" data-old_color="#ffffff" fill="#ffffff"/>
<path d="M 322.929688 181.667969 L 215.308594 245.136719 C 213.300781 243.457031 210.996094 242.125 208.484375 241.226562 C 208.484375 241.230469 208.488281 241.230469 208.488281 241.230469 L 208.488281 178.332031 C 208.488281 178.332031 208.484375 178.332031 208.484375 178.335938 C 217.136719 175.246094 223.347656 166.972656 223.347656 157.273438 C 223.347656 144.945312 213.316406 134.914062 200.988281 134.914062 C 188.660156 134.914062 178.632812 144.945312 178.632812 157.273438 C 178.632812 158.765625 178.78125 160.226562 179.0625 161.640625 L 75.054688 223.800781 C 71.097656 220.25 65.871094 218.089844 60.148438 218.089844 C 47.820312 218.089844 37.789062 228.117188 37.789062 240.445312 C 37.789062 252.773438 47.820312 262.804688 60.148438 262.804688 C 72.476562 262.804688 82.503906 252.773438 82.503906 240.445312 C 82.503906 239.269531 82.414062 238.109375 82.234375 236.980469 L 186.765625 174.507812 C 188.75 176.148438 191.023438 177.449219 193.492188 178.332031 C 193.492188 178.332031 193.488281 178.332031 193.488281 178.332031 L 193.488281 241.230469 C 193.492188 241.230469 193.492188 241.226562 193.492188 241.226562 C 184.839844 244.316406 178.628906 252.589844 178.628906 262.289062 C 178.628906 274.617188 188.660156 284.644531 200.988281 284.644531 C 213.316406 284.644531 223.34375 274.617188 223.34375 262.289062 C 223.34375 260.839844 223.203125 259.425781 222.9375 258.050781 L 330.929688 194.363281 C 334.734375 197.367188 339.535156 199.164062 344.746094 199.164062 C 357.074219 199.164062 367.105469 189.136719 367.105469 176.808594 C 367.105469 164.480469 357.074219 154.449219 344.746094 154.449219 C 332.417969 154.449219 322.390625 164.480469 322.390625 176.808594 C 322.390625 178.476562 322.582031 180.101562 322.929688 181.667969 Z M 60.148438 247.804688 C 56.089844 247.804688 52.789062 244.503906 52.789062 240.445312 C 52.789062 236.390625 56.089844 233.089844 60.148438 233.089844 C 64.203125 233.089844 67.503906 236.390625 67.503906 240.445312 C 67.503906 244.503906 64.207031 247.804688 60.148438 247.804688 Z M 200.988281 269.648438 C 196.929688 269.648438 193.628906 266.347656 193.628906 262.289062 C 193.628906 258.230469 196.929688 254.933594 200.988281 254.933594 C 205.046875 254.933594 208.347656 258.234375 208.347656 262.289062 C 208.347656 266.347656 205.046875 269.648438 200.988281 269.648438 Z M 200.988281 164.628906 C 196.929688 164.628906 193.628906 161.328125 193.628906 157.269531 C 193.628906 153.214844 196.929688 149.914062 200.988281 149.914062 C 205.046875 149.914062 208.347656 153.214844 208.347656 157.269531 C 208.347656 161.328125 205.046875 164.628906 200.988281 164.628906 Z M 344.75 169.449219 C 348.804688 169.449219 352.109375 172.75 352.109375 176.808594 C 352.109375 180.863281 348.804688 184.164062 344.75 184.164062 C 340.691406 184.164062 337.390625 180.863281 337.390625 176.808594 C 337.390625 172.75 340.691406 169.449219 344.75 169.449219 Z M 344.75 169.449219 " data-original="#000000" class="active-path" data-old_color="#ffffff" fill="#ffffff"/>
</g></g> </svg>
