<?xml version="1.0" encoding="UTF-8"?>
<svg width="28px" height="30px" viewBox="0 0 28 30" version="1.1" xmlns="http://www.w3.org/2000/svg" xmlns:xlink="http://www.w3.org/1999/xlink">
    <!-- Generator: Sketch 49.3 (51167) - http://www.bohemiancoding.com/sketch -->
    <title>kids</title>
    <desc>Created with Sketch.</desc>
    <defs></defs>
    <g id="Symbols" stroke="none" stroke-width="1" fill="none" fill-rule="evenodd">
        <g id="Navigation/Menu-Item/Children/Active" transform="translate(-36.000000, 0.000000)" fill="#FFFFFF" fill-rule="nonzero">
            <g id="kids" transform="translate(36.000000, 0.000000)">
                <path d="M4.0378539,3.48601307 C4.0378539,3.48607843 4.03778338,3.48614379 4.03778338,3.48620915 C5.20235768,3.48620915 8.48576322,3.5072549 11.77333,3.5072549 C12.1498841,3.5072549 12.4551335,3.22437908 12.4551335,2.87542484 C12.4551335,2.52647059 12.1498841,2.24352941 11.77333,2.24352941 L9.78751637,2.24352941 C9.36462469,1.34679739 8.50600504,0.649803922 7.47035768,0.452156863 C7.52508816,0.20751634 7.23288665,0 6.87213098,0 C6.50996474,0 6.21994962,0.208300654 6.27376322,0.451699346 C4.88264987,0.717124183 3.81004534,1.88385621 3.68513854,3.22457516 C3.67886146,3.29183007 3.70333501,3.35843137 3.75263476,3.40816993 C3.84072544,3.49712418 3.93967758,3.48601307 4.0378539,3.48601307 Z" id="Shape"></path>
                <path d="M27.8712846,18.9686275 C27.8472343,18.9117647 25.3153149,13.2545098 24.439063,10.8914379 C23.8707406,9.35895425 22.9178237,8.58189542 21.6068312,8.58189542 L17.3628212,8.58189542 C16.0518287,8.58189542 15.0989118,9.35895425 14.5305894,10.8914379 C14.2017128,11.7783007 13.7168262,13.0409804 13.2371587,14.2779085 L12.7483224,10.3903268 C12.698529,8.92150327 11.3897229,7.73856209 9.79485139,7.73856209 C9.55864987,7.73856209 4.28498741,7.73856209 4.03270529,7.73856209 C2.43776322,7.73856209 1.12902771,8.92150327 1.07923426,10.3903268 L0.017138539,18.8362092 C-0.0626297229,19.4709804 0.427969773,20.0455556 1.1129471,20.1195425 C1.80053401,20.1933987 2.41815617,19.7369281 2.49771285,19.1040523 C3.53216121,10.8775163 3.59070025,10.3853595 3.59316877,10.3607843 L3.593733,28.5788235 C3.593733,29.3456863 4.26460453,29.9673856 5.09212091,29.9673856 C5.91963728,29.9673856 6.59050882,29.3456863 6.59050882,28.5788235 L6.59050882,18.8278431 L7.23747103,18.8278431 L7.23747103,28.5788889 C7.23747103,29.3457516 7.90834257,29.967451 8.73585894,29.967451 C9.56337531,29.967451 10.2342469,29.3457516 10.2342469,28.5788889 C10.2342469,9.82555556 10.2070932,21.1045752 10.2070932,10.2944444 C10.2436272,10.3648366 10.14933,9.71679739 11.3296322,19.1041176 C11.4037582,19.6934641 11.9433753,20.1256209 12.5683325,20.127451 C13.4432443,20.13 13.8597884,19.3472549 13.9303879,19.1682353 C13.9482317,19.1231373 15.5105189,15.1620915 16.4891788,12.582549 L14.8257531,20.5414379 C14.7871033,20.7262745 14.8397179,20.9173203 14.9688564,21.0626144 C15.0980655,21.2079085 15.2906801,21.2926797 15.4938035,21.2926797 C15.7576524,21.2926797 16.0741864,21.2926797 16.4285239,21.2926797 L16.4285239,28.5788889 C16.4285239,29.3311765 17.0866297,29.9410458 17.8984181,29.9410458 C18.7102065,29.9410458 19.3683123,29.3311765 19.3683123,28.5788889 L19.3683123,21.2926144 C19.5796171,21.2926144 19.7916272,21.2926144 20.002932,21.2926144 L20.002932,28.5788235 C20.002932,29.3311111 20.6610378,29.9409804 21.4728262,29.9409804 C22.2846146,29.9409804 22.9427204,29.3311111 22.9427204,28.5788235 L22.9427204,21.2926144 C23.2971285,21.2926144 23.6136625,21.2926144 23.8773703,21.2926144 C24.0806348,21.2926144 24.2732494,21.208366 24.402529,21.0630065 C24.5318086,20.9176471 24.5840705,20.7263399 24.5454207,20.5413725 L22.8618942,12.6515033 C22.8618942,12.6515033 25.5234458,19.6389542 25.5904484,19.7973856 C25.8374408,20.3811111 26.5482317,20.6686275 27.1779849,20.4398039 C27.8080202,20.2109804 28.1182771,19.5522876 27.8712846,18.9686275 Z" id="Shape"></path>
                <path d="M15.6719597,5.72934641 C16.1591033,5.72934641 16.5844635,5.48888889 16.8209471,5.12980392 C16.9731486,6.47163399 18.197602,7.51738562 19.6858338,7.51738562 C21.1740655,7.51738562 22.3985189,6.47163399 22.5507204,5.12980392 C22.787204,5.48882353 23.2125642,5.72934641 23.6997078,5.72934641 C24.4434358,5.72934641 25.0122519,5.79254902 25.5236574,6.89830065 C26.478267,5.14254902 24.8759194,3.23346405 23.6997078,3.23346405 C23.1191134,3.23346405 22.6258338,3.57457516 22.4366751,4.05183007 C22.0712645,2.96594771 20.9779244,2.17771242 19.6858338,2.17771242 C18.3937431,2.17771242 17.3003325,2.96594771 16.9349924,4.05183007 C16.7458338,3.57457516 16.2525542,3.23346405 15.6719597,3.23346405 C14.4957481,3.23346405 12.893471,5.14254902 13.8480101,6.89830065 C14.3592746,5.79254902 14.9280907,5.72934641 15.6719597,5.72934641 Z" id="Shape"></path>
                <path d="M6.87213098,6.63281046 C8.16760705,6.63281046 9.26327456,5.8403268 9.62572292,4.75 L4.11846851,4.75 C4.48098741,5.8403268 5.57658438,6.63281046 6.87213098,6.63281046 Z" id="Shape"></path>
            </g>
        </g>
    </g>
</svg>