<?xml version="1.0" encoding="UTF-8"?>
<svg width="16px" height="16px" viewBox="0 0 16 16" version="1.1" xmlns="http://www.w3.org/2000/svg" xmlns:xlink="http://www.w3.org/1999/xlink">
    <!-- Generator: Sketch 49.3 (51167) - http://www.bohemiancoding.com/sketch -->
    <title>Icon</title>
    <desc>Created with Sketch.</desc>
    <defs></defs>
    <g id="Symbols" stroke="none" stroke-width="1" fill="none" fill-rule="evenodd">
        <g id="Forms/Search/Active" transform="translate(-242.000000, -10.000000)" fill="#ffffff">
            <path d="M252.517095,13.4584477 C250.567507,11.5088595 247.408036,11.5088595 245.458448,13.4584477 C243.508859,15.4080359 243.508859,18.5675069 245.458448,20.5170951 C247.408036,22.4666833 250.567507,22.4666833 252.517095,20.5170951 C254.466683,18.5675069 254.466683,15.4080359 252.517095,13.4584477 M257.708011,25.708011 C257.317694,26.0973297 256.6858,26.0973297 256.295483,25.708011 L253.151984,22.5635139 C250.414774,24.6099326 246.533566,24.4162715 244.046918,21.9286249 C241.317694,19.2003993 241.317694,14.7761418 244.046918,12.0469179 C246.775143,9.31769404 251.200399,9.31769404 253.928625,12.0469179 C256.416272,14.5335663 256.609933,18.4147741 254.563514,21.151984 L257.708011,24.2964812 C258.09733,24.6857999 258.09733,25.317694 257.708011,25.708011" id="Icon"></path>
        </g>
    </g>
</svg>