<?xml version="1.0"?>
<svg xmlns="http://www.w3.org/2000/svg" xmlns:xlink="http://www.w3.org/1999/xlink" version="1.1" id="Capa_1" x="0px" y="0px" viewBox="0 0 512 512" style="enable-background:new 0 0 512 512;" xml:space="preserve" width="512px" height="512px" class=""><g><g>
	<g>
		<circle cx="276.747" cy="59.748" r="39.754" data-original="#000000" class="active-path" data-old_color="#ffffff" fill="#ffffff"/>
	</g>
</g><g>
	<g>
		<path d="M392.968,362.821l-48.186-111.527c-0.097-0.224-0.197-0.446-0.301-0.666c-2.262-4.783-7.089-7.843-12.381-7.843h-0.003    v45.366c18.819,0,29.485,13.736,29.485,27.834c0,10.302-5.6,19.289-13.919,24.102v26.866l5.622,13.014    c4.738,10.968,17.468,16,28.413,11.269C392.657,386.499,397.701,373.779,392.968,362.821z" data-original="#000000" class="active-path" data-old_color="#ffffff" fill="#ffffff"/>
	</g>
</g><g>
	<g>
		<path d="M257.581,106.622l-13.979-2.389c-13.453-2.299-27.254,1.123-38.074,9.44c-10.821,8.318-17.676,20.774-18.914,34.366    l-6.791,74.575l0.397-0.257c15.673-10.139,36.596-5.651,46.735,10.021c2.129,3.291,3.604,6.813,4.475,10.419l26.605-61.582    l-20.897-21.505l23.471,15.546l14.155-32.764c0.12-0.277,0.266-0.536,0.396-0.806l-22.671-15.016l24.436,9.937l0.367-2.148    C279.534,121.328,270.71,108.865,257.581,106.622z" data-original="#000000" class="active-path" data-old_color="#ffffff" fill="#ffffff"/>
	</g>
</g><g>
	<g>
		<path d="M497.091,200.042h-48.393c2.795-1.654,4.674-4.69,4.674-8.174c0-7.958,0-64.997,0-72.735l25.877-59.901    c1.453-3.363-0.095-7.266-3.458-8.72l-15.195-6.564c-3.363-1.453-7.266,0.096-8.72,3.458l-47.551,110.072    c-1.453,3.362,0.095,7.266,3.458,8.72l15.195,6.564c3.363,1.453,7.266-0.096,8.72-3.458l2.672-6.186v19.25    c-10.736,0-37.332,0-47.475,0c-1.401,0-2.727,0.312-3.925,0.856c0.819-2.464,1.135-5.137,0.793-7.885    c-1.229-9.872-10.216-16.88-20.097-15.65l-33.129,4.121c-0.598,1.992,1.283-2.558-25.509,59.461c0,7.111,0,57.928,0,64.881h14.147    v-58.291c3.101,0,139.649,0,155.053,0v151.221c0,6.587,5.34,11.929,11.929,11.929s11.929-5.34,11.929-11.929V229.811    C506,229.286,512,222.663,512,214.951C512,206.717,505.325,200.042,497.091,200.042z M331.082,200.042l37.033-4.606    c3.562-0.443,6.741-1.909,9.306-4.052c-0.008,0.162-0.024,0.322-0.024,0.485c0,3.483,1.88,6.519,4.674,8.174H331.082z" data-original="#000000" class="active-path" data-old_color="#ffffff" fill="#ffffff"/>
	</g>
</g><g>
	<g>
		<path d="M277.071,364.761L259.02,346.71c-1.306-1.307-2.879-2.278-4.585-2.892c-6.838,0-54.397,0-61.232,0    c0.991,2.085,1.954,4.724,2.536,7.303l5.07,22.453l5.655-5.655h38.622l14.413,14.413c4.852,4.852,12.719,4.853,17.57,0    C281.924,377.48,281.924,369.613,277.071,364.761z" data-original="#000000" class="active-path" data-old_color="#ffffff" fill="#ffffff"/>
	</g>
</g><g>
	<g>
		<circle cx="113.397" cy="160.779" r="39.754" data-original="#000000" class="active-path" data-old_color="#ffffff" fill="#ffffff"/>
	</g>
</g><g>
	<g>
		<path d="M207.862,465.598L182.679,354.07c-0.001-0.003-0.001-0.006-0.002-0.009c-1.277-5.646-5.944-10.243-13.925-10.243v138.299    h-0.108c4.78,7.371,13.801,11.376,22.895,9.325C203.185,488.813,210.492,477.242,207.862,465.598z" data-original="#000000" class="active-path" data-old_color="#ffffff" fill="#ffffff"/>
	</g>
</g><g>
	<g>
		<path d="M333.748,301.076c-22.788,0-25.605,0-48.394,0c2.795-1.654,4.674-4.69,4.674-8.174c0-7.098,0-65.815,0-72.735    l25.878-59.902c1.453-3.363-0.095-7.266-3.458-8.72l-15.195-6.564c-3.347-1.446-7.26,0.082-8.72,3.458l-47.552,110.072    c-1.453,3.362,0.096,7.266,3.458,8.72l15.195,6.564c3.354,1.449,7.263-0.089,8.72-3.458l2.672-6.186v19.25    c-5.363,0-42.798,0-47.474,0c-5.246,0-9.501,4.252-9.501,9.501c0,3.483,1.88,6.519,4.674,8.174c-7.169,0-57.874,0-64.827,0    c0.848-0.534-6.916,4.483,54.46-35.219c8.353-5.402,10.743-16.554,5.34-24.906c-5.402-8.352-16.554-10.743-24.906-5.34    l-44.373,28.704l-55.279-36.613l24.437,9.938l0.367-2.149c2.244-13.129-6.58-25.591-19.709-27.835l-13.979-2.389    c-13.453-2.299-27.254,1.123-38.074,9.44c-10.82,8.316-17.676,20.774-18.914,34.365l-8.392,92.155    c-0.559,6.136,1.643,12.409,6.469,16.925h-6.44C6.675,358.151,0,364.825,0,373.06c0,8.233,6.675,14.909,14.909,14.909h35.743    v61.136H37.975c-3.295,0-6.455,1.309-8.785,3.639l-18.053,18.053c-4.853,4.852-4.853,12.719-0.001,17.57    c4.853,4.852,12.72,4.853,17.57,0l14.414-14.413h38.623l14.414,14.413c4.852,4.852,12.719,4.851,17.57,0    c4.852-4.852,4.852-12.719-0.001-17.57l-18.053-18.053c-2.329-2.33-5.489-3.639-8.785-3.639H75.502v-61.136h43.555    c0-22.307,0-25.714,0-47.333c-7.201-3.782-12.542-10.624-14.292-18.8l-5.339-1.378c2.763-16.17,2.145-12.553,4.845-28.352    l-30.477-31.363c66.837,44.269,60.05,39.784,60.924,40.334h-2.74c-8.265,0-14.909,6.73-14.909,14.909    c0,8.114,6.599,14.908,14.908,14.909v149.092c0,6.515,5.291,11.929,11.929,11.929c6.605,0,11.929-5.371,11.929-11.929V330.894    c3.101,0,139.649,0,155.053,0v149.092c0,6.587,5.34,11.929,11.929,11.929c6.588,0,11.929-5.34,11.929-11.929V330.844    c7.887-0.523,13.913-7.12,13.913-14.859C348.657,307.752,341.981,301.076,333.748,301.076z" data-original="#000000" class="active-path" data-old_color="#ffffff" fill="#ffffff"/>
	</g>
</g></g> </svg>
