<?xml version="1.0" encoding="UTF-8"?>
<svg width="28px" height="32px" viewBox="0 0 28 32" version="1.1" xmlns="http://www.w3.org/2000/svg" xmlns:xlink="http://www.w3.org/1999/xlink">
    <!-- Generator: Sketch 49.3 (51167) - http://www.bohemiancoding.com/sketch -->
    <title>text</title>
    <desc>Created with Sketch.</desc>
    <defs></defs>
    <g id="Super-Administrator" stroke="none" stroke-width="1" fill="none" fill-rule="evenodd">
        <g id="Volunteers-Profile-View" transform="translate(-801.000000, -325.000000)" fill-rule="nonzero">
            <g id="Content" transform="translate(130.000000, 111.000000)">
                <g id="Column-2" transform="translate(671.000000, 30.000000)">
                    <g id="Files-List">
                        <g id="text" transform="translate(0.000000, 184.000000)">
                            <g id="Group" transform="translate(0.256881, 0.253968)">
                                <path d="M27.4263211,7.60209524 L27.4263211,29.2740317 C27.4263211,30.4659683 26.4398991,31.4412063 25.2342936,31.4412063 L2.21777982,31.4412063 C1.01217431,31.4412063 0.0257522936,30.4659683 0.0257522936,29.2740317 L0.0257522936,2.18412698 C0.0257522936,0.992190476 1.01217431,0.016952381 2.21777982,0.016952381 L19.7541284,0.016952381 L19.7541284,5.43492063 C19.7541284,6.62685714 20.7405505,7.60209524 21.946156,7.60209524 L27.4263211,7.60209524 Z" id="Shape" fill="#F2EDDA"></path>
                                <path d="M27.4263211,7.60209524 L21.9462202,7.60209524 C20.7406147,7.60209524 19.7541927,6.62685714 19.7541927,5.43492063 L19.7541927,0.016952381 L27.4263211,7.60209524 Z" id="Shape" fill="#FFD0A1"></path>
                            </g>
                            <path d="M25.4911101,31.9661587 L2.47459633,31.9661587 C1.10458716,31.9661587 0.0085412844,30.8825397 0.0085412844,29.5280635 L0.0085412844,2.43809524 C0.0085412844,1.08361905 1.10458716,0 2.47459633,0 L20.0110092,0 C20.065789,0 20.1754128,0.0541587302 20.2301927,0.0541587302 L25.7102936,5.47212698 C25.8199174,5.58050794 25.8199174,5.74304762 25.7102936,5.85136508 C25.6006697,5.95974603 25.4362661,5.95974603 25.3267064,5.85136508 L19.9013853,0.487555556 L2.47459633,0.487555556 C1.4333945,0.487555556 0.55653211,1.3544127 0.55653211,2.38387302 L0.55653211,29.4738413 C0.55653211,30.5032381 1.43333028,31.3701587 2.47459633,31.3701587 L25.4911101,31.3701587 C26.5323119,31.3701587 27.4091743,30.5033016 27.4091743,29.4738413 L27.4091743,8.0728254 L22.2030367,8.0728254 C20.8330275,8.0728254 19.7369817,6.98920635 19.7369817,5.63473016 L19.7369817,2.92571429 C19.7369817,2.7631746 19.8466055,2.65479365 20.0110092,2.65479365 C20.1754128,2.65479365 20.2850367,2.7631746 20.2850367,2.92571429 L20.2850367,5.63473016 C20.2850367,6.66412698 21.1618349,7.53104762 22.2031009,7.53104762 L27.6832018,7.53104762 C27.8476055,7.53104762 27.9572294,7.63942857 27.9572294,7.80196825 L27.9572294,29.4739048 C27.9571651,30.8825397 26.8611835,31.9661587 25.4911101,31.9661587 Z M20.0110092,26.548127 L14.5309083,26.548127 C14.3665046,26.548127 14.2568807,26.439746 14.2568807,26.2772063 C14.2568807,26.1146667 14.3665046,26.0062857 14.5309083,26.0062857 L20.0110092,26.0062857 C20.1754128,26.0062857 20.2850367,26.1146667 20.2850367,26.2772063 C20.2850367,26.4398095 20.1754128,26.548127 20.0110092,26.548127 Z M12.3388165,26.548127 L5.76266972,26.548127 C5.59826606,26.548127 5.4886422,26.439746 5.4886422,26.2772063 C5.4886422,26.1146667 5.59826606,26.0062857 5.76266972,26.0062857 L12.3388165,26.0062857 C12.5032202,26.0062857 12.612844,26.1146667 12.612844,26.2772063 C12.612844,26.4398095 12.5032202,26.548127 12.3388165,26.548127 Z M22.2030367,23.2973333 L18.9149633,23.2973333 C18.7505596,23.2973333 18.6409358,23.1889524 18.6409358,23.0264127 C18.6409358,22.863873 18.7505596,22.7554921 18.9149633,22.7554921 L22.2030367,22.7554921 C22.3674404,22.7554921 22.4770642,22.863873 22.4770642,23.0264127 C22.4770642,23.1889524 22.3674404,23.2973333 22.2030367,23.2973333 Z M16.7229358,23.2973333 L11.2428349,23.2973333 C11.0784312,23.2973333 10.9688073,23.1889524 10.9688073,23.0264127 C10.9688073,22.863873 11.0784312,22.7554921 11.2428349,22.7554921 L16.7229358,22.7554921 C16.8873394,22.7554921 16.9969633,22.863873 16.9969633,23.0264127 C16.9969633,23.1889524 16.8873394,23.2973333 16.7229358,23.2973333 Z M9.05074312,23.2973333 L5.76266972,23.2973333 C5.59826606,23.2973333 5.4886422,23.1889524 5.4886422,23.0264127 C5.4886422,22.863873 5.59826606,22.7554921 5.76266972,22.7554921 L9.05074312,22.7554921 C9.21514679,22.7554921 9.32477064,22.863873 9.32477064,23.0264127 C9.32477064,23.1889524 9.21514679,23.2973333 9.05074312,23.2973333 Z M21.107055,20.0465397 L12.3388165,20.0465397 C12.1744128,20.0465397 12.064789,19.9381587 12.064789,19.775619 C12.064789,19.6130794 12.1744128,19.5046984 12.3388165,19.5046984 L21.1069908,19.5046984 C21.2713945,19.5046984 21.3810183,19.6130794 21.3810183,19.775619 C21.3810183,19.9382222 21.2714587,20.0465397 21.107055,20.0465397 Z M10.146789,20.0465397 L5.76266972,20.0465397 C5.59826606,20.0465397 5.4886422,19.9381587 5.4886422,19.775619 C5.4886422,19.6130794 5.59826606,19.5046984 5.76266972,19.5046984 L10.146789,19.5046984 C10.3111927,19.5046984 10.4208165,19.6130794 10.4208165,19.775619 C10.4208165,19.9382222 10.3111927,20.0465397 10.146789,20.0465397 Z M20.0110092,16.795746 L16.7229358,16.795746 C16.5585321,16.795746 16.4489083,16.6873651 16.4489083,16.5248254 C16.4489083,16.3622857 16.5585321,16.2539048 16.7229358,16.2539048 L20.0110092,16.2539048 C20.1754128,16.2539048 20.2850367,16.3622857 20.2850367,16.5248254 C20.2850367,16.6874286 20.1754128,16.795746 20.0110092,16.795746 Z M14.5309083,16.795746 L12.3388807,16.795746 C12.1744771,16.795746 12.0648532,16.6873651 12.0648532,16.5248254 C12.0648532,16.3622857 12.1744771,16.2539048 12.3388807,16.2539048 L14.5309083,16.2539048 C14.6953119,16.2539048 14.8049358,16.3622857 14.8049358,16.5248254 C14.8048716,16.6874286 14.6953119,16.795746 14.5309083,16.795746 Z M10.146789,16.795746 L5.76266972,16.795746 C5.59826606,16.795746 5.4886422,16.6873651 5.4886422,16.5248254 C5.4886422,16.3622857 5.59826606,16.2539048 5.76266972,16.2539048 L10.146789,16.2539048 C10.3111927,16.2539048 10.4208165,16.3622857 10.4208165,16.5248254 C10.4208165,16.6874286 10.3111927,16.795746 10.146789,16.795746 Z M22.2030367,13.5449524 L17.8189174,13.5449524 C17.6545138,13.5449524 17.5448899,13.4365714 17.5448899,13.2740317 C17.5448899,13.1114921 17.6545138,13.0031111 17.8189174,13.0031111 L22.2030367,13.0031111 C22.3674404,13.0031111 22.4770642,13.1114921 22.4770642,13.2740317 C22.4770642,13.4366349 22.3674404,13.5449524 22.2030367,13.5449524 Z M15.6268899,13.5449524 L5.76266972,13.5449524 C5.59826606,13.5449524 5.4886422,13.4365714 5.4886422,13.2740317 C5.4886422,13.1114921 5.59826606,13.0031111 5.76266972,13.0031111 L15.6268899,13.0031111 C15.7912936,13.0031111 15.9009174,13.1114921 15.9009174,13.2740317 C15.9009174,13.4366349 15.7912936,13.5449524 15.6268899,13.5449524 Z M11.2428349,9.21060317 L5.76273394,9.21060317 C5.59833028,9.21060317 5.48870642,9.10222222 5.48870642,8.93968254 C5.48870642,8.77714286 5.59833028,8.6687619 5.76273394,8.6687619 L11.2428349,8.6687619 C11.4072385,8.6687619 11.5168624,8.77714286 11.5168624,8.93968254 C11.5167982,9.10222222 11.4072385,9.21060317 11.2428349,9.21060317 Z" id="Shape" fill="#51565F"></path>
                        </g>
                    </g>
                </g>
            </g>
        </g>
    </g>
</svg>