<?xml version="1.0" encoding="UTF-8"?>
<svg width="16px" height="16px" viewBox="0 0 16 16" version="1.1" xmlns="http://www.w3.org/2000/svg" xmlns:xlink="http://www.w3.org/1999/xlink">
    <!-- Generator: Sketch 49.3 (51167) - http://www.bohemiancoding.com/sketch -->
    <title>Trash Icon</title>
    <desc>Created with Sketch.</desc>
    <defs></defs>
    <g id="Symbols" stroke="none" stroke-width="1" fill="none" fill-rule="evenodd">
        <g id="Icon/Inactive/Trash" fill="#7F8FA4">
            <path d="M6,12 C5.448,12 5,11.552 5,11 L5,8 C5,7.448 5.448,7 6,7 C6.552,7 7,7.448 7,8 L7,11 C7,11.552 6.552,12 6,12 L6,12 Z M10,12 C9.448,12 9,11.552 9,11 L9,8 C9,7.448 9.448,7 10,7 C10.552,7 11,7.448 11,8 L11,11 C11,11.552 10.552,12 10,12 L10,12 Z M11,5 L5,5 L3,5 L4,13 C4,13.552 4.448,14 5,14 L11,14 C11.552,14 12,13.552 12,13 L13,5 L11,5 Z M8,2 C7.448,2 7,2.448 7,3 L9,3 C9,2.448 8.552,2 8,2 L8,2 Z M15,5 L14,14 C14,15.105 13.105,16 12,16 L4,16 C2.895,16 2,15.105 2,14 L1,5 C0.448,5 0,4.552 0,4 C0,3.448 0.448,3 1,3 L5,3 L5,1 C5,0.448 5.448,0 6,0 L10,0 C10.552,0 11,0.448 11,1 L11,3 L15,3 C15.552,3 16,3.448 16,4 C16,4.552 15.552,5 15,5 L15,5 Z" id="Trash-Icon"></path>
        </g>
    </g>
</svg>