<?xml version="1.0" encoding="UTF-8"?>
<svg width="30px" height="30px" viewBox="0 0 30 30" version="1.1" xmlns="http://www.w3.org/2000/svg" xmlns:xlink="http://www.w3.org/1999/xlink">
    <!-- Generator: Sketch 49.3 (51167) - http://www.bohemiancoding.com/sketch -->
    <title>heart</title>
    <desc>Created with Sketch.</desc>
    <defs></defs>
    <g id="Symbols" stroke="none" stroke-width="1" fill="none" fill-rule="evenodd">
        <g id="Navigation/Menu-Item/Volunteers/Inactive" transform="translate(-35.000000, 0.000000)" fill="#7F8FA4" fill-rule="nonzero">
            <g id="heart" transform="translate(35.000000, 0.000000)">
                <path d="M18.2862305,17.3166797 C18.405,17.4466992 18.5724609,17.5216992 18.7487109,17.5216992 C18.9249609,17.5216992 19.0924805,17.4466992 19.2111914,17.3166797 C19.4224219,17.0841797 24.3924609,11.6079492 26.0111719,9.62917969 C26.9836523,8.44166016 27.4974023,7.07542969 27.4974023,5.67667969 C27.4974023,2.55791016 25.1561719,0.0216796875 22.2799219,0.0216796875 C20.9574023,0.0216796875 19.7049023,0.557929688 18.7474219,1.51417969 C17.79,0.557929688 16.5362695,0.0216796875 15.2149805,0.0216796875 C12.3387305,0.0216796875 9.9975,2.55791016 9.9975,5.67667969 C9.9975,7.07542969 10.51125,8.44166016 11.4837305,9.62917969 C13.1050195,11.6079492 18.075,17.0841797 18.2862305,17.3166797 Z M15.2162695,2.52169922 C15.5612695,2.52169922 15.8412891,2.80171875 15.8412891,3.14671875 C15.8412891,3.49171875 15.5612695,3.77173828 15.2162695,3.77173828 C14.4075,3.77173828 13.7487891,4.62673828 13.7487891,5.67673828 C13.7487891,6.02173828 13.4687695,6.30175781 13.1237695,6.30175781 C12.7787695,6.30175781 12.49875,6.02173828 12.49875,5.67673828 C12.49875,3.93667969 13.7175,2.52169922 15.2162695,2.52169922 Z" id="Shape"></path>
                <path d="M7.30376953,16.4416992 C6.2325,15.4266797 1.94876953,15.0979688 0.661289063,15.0216797 C0.497519531,15.0204492 0.321269531,15.0729492 0.196289063,15.1904297 C0.0700195313,15.3079102 0,15.4729102 0,15.6454688 L0,26.8954688 C0,27.2404688 0.280019531,27.5204883 0.625019531,27.5204883 L4.37501953,27.5204883 C4.64501953,27.5204883 4.88501953,27.3467578 4.97003906,27.0892383 C5.06126953,26.8092188 7.21505859,20.1992578 7.49753906,16.9492383 C7.51376953,16.7604492 7.44123047,16.5729492 7.30376953,16.4416992 Z" id="Shape"></path>
                <path d="M29.9325,24.1154297 C29.08125,22.4141602 27.1075195,21.5041992 25.2612305,21.9666797 L22.4349609,22.6729102 C22.4774414,22.9591406 22.4987109,23.2579102 22.4987109,23.5729102 L22.4987109,23.7704297 C22.4987109,24.6316992 21.9137109,25.3804102 21.0774609,25.5891797 L19.3949414,26.0091797 C18.9524414,26.1204492 18.4937109,26.1766992 18.0311719,26.1766992 C17.6574023,26.1766992 17.2861523,26.1404297 16.9286719,26.0679492 L11.5049414,24.9829688 C11.1662109,24.9154688 10.9461914,24.5866992 11.0136914,24.2479688 C11.0824219,23.9079492 11.4174609,23.6917383 11.7486914,23.7579492 L17.1737109,24.8429297 C17.7962109,24.9679102 18.4724414,24.9516797 19.0899609,24.7979297 L20.7737109,24.3779297 C21.0524414,24.3079102 21.2474414,24.0591797 21.2474414,23.7716602 L21.2474414,23.5741406 C21.2474414,23.3453906 21.2324414,23.1316406 21.2061914,22.9266211 C21.1986914,22.8678516 21.1849219,22.8153516 21.1749609,22.7578711 C21.1499414,22.6128516 21.1224609,22.4703516 21.0824414,22.3366406 C21.0649219,22.2778711 21.0437109,22.2241406 21.0236719,22.1678906 C20.9799023,22.0441406 20.9311523,21.9229102 20.8724414,21.8091211 C20.8461914,21.7591406 20.8174219,21.7103906 20.7887109,21.6616406 C20.7237305,21.5503711 20.6511914,21.4441406 20.5699805,21.3428906 C20.5374609,21.3016406 20.5037109,21.2603906 20.4675,21.2216602 C20.3775,21.1204102 20.2774805,21.0254297 20.1700195,20.9354297 C20.1325195,20.9041992 20.09625,20.8716797 20.0562891,20.8404492 C19.9362891,20.7492188 19.8038086,20.6641992 19.6650586,20.5842188 C19.6275586,20.5629492 19.5925781,20.5379883 19.5525586,20.5179492 C19.3913086,20.4316992 19.2162891,20.3554688 19.0300781,20.2829297 C19.0025977,20.2729102 18.9788086,20.2604297 18.9513281,20.2491797 C18.7313086,20.1679102 18.4950586,20.0954297 18.2413477,20.0316797 L9.28248047,18.0404297 C9.11496094,18.0041602 8.94246094,18.0366797 8.79996094,18.1316602 C8.65746094,18.2266406 8.56119141,18.3754102 8.53119141,18.5429297 C8.08119141,21.1041797 7.10496094,24.4279102 6.56367187,26.1816797 C6.46365234,26.5066992 6.64119141,26.8516992 6.96240234,26.9591602 L14.14875,29.3554688 C15.1112695,29.7192188 15.85875,29.9767383 16.7412305,29.9767383 C16.7412305,29.9767383 16.7412305,29.9767383 16.7424609,29.9767383 C18.0249609,29.9767383 19.4774414,29.4329883 22.7537109,28.0904883 L29.6286914,24.9655078 C29.7824414,24.8954883 29.9024414,24.7655273 29.9599219,24.6055078 C30.0199805,24.4441992 30.0087305,24.2679492 29.9325,24.1154297 Z" id="Shape"></path>
            </g>
        </g>
    </g>
</svg>