<?xml version="1.0" encoding="UTF-8"?>
<svg width="143px" height="116px" viewBox="0 0 143 116" version="1.1" xmlns="http://www.w3.org/2000/svg" xmlns:xlink="http://www.w3.org/1999/xlink">
    <!-- Generator: Sketch 49.3 (51167) - http://www.bohemiancoding.com/sketch -->
    <title>Image</title>
    <desc>Created with Sketch.</desc>
    <defs>
        <polygon id="path-1" points="0 144 144 144 144 0 0 0"></polygon>
    </defs>
    <g id="Super-Administrator" stroke="none" stroke-width="1" fill="none" fill-rule="evenodd">
        <g id="Dashboard" transform="translate(-698.000000, -621.000000)">
            <g id="5.-Deliveries-Block" transform="translate(585.000000, 575.000000)">
                <g id="Image" transform="translate(113.000000, 32.000000)">
                    <g id="Group">
                        <path d="M129.6,72 C129.6,40.18896 103.81104,14.4 72,14.4 C40.18896,14.4 14.4,40.18896 14.4,72 C14.4,80.4744 16.24608,88.51392 19.53216,95.76 L124.46784,95.76 C127.75392,88.51392 129.6,80.4744 129.6,72" id="Fill-1" fill="#F0F0F0"></path>
                        <path d="M19.53216,95.76 C28.58256,115.71264 48.66336,129.6 72,129.6 C95.33664,129.6 115.41744,115.71264 124.46784,95.76 L19.53216,95.76 Z" id="Fill-3" fill="#FFFFFF"></path>
                        <path d="M15.84,95.76 L128.16,95.76" id="Stroke-5" stroke="#45413C" stroke-linecap="round" stroke-linejoin="round"></path>
                        <path d="M9.36,95.76 L12.96,95.76" id="Stroke-7" stroke="#45413C" stroke-linecap="round" stroke-linejoin="round"></path>
                        <path d="M131.04,95.76 L134.64,95.76" id="Stroke-9" stroke="#45413C" stroke-linecap="round" stroke-linejoin="round"></path>
                        <path d="M92.16,110.88 L102.46608,110.88" id="Stroke-11" stroke="#E0E0E0" stroke-linecap="round"></path>
                        <path d="M86.148288,110.88 L88.724448,110.88" id="Stroke-13" stroke="#E0E0E0" stroke-linecap="round"></path>
                        <path d="M81.854352,110.88 L82.714032,110.88" id="Stroke-15" stroke="#E0E0E0" stroke-linecap="round"></path>
                        <path d="M49.185648,105.84 L59.491728,105.84" id="Stroke-17" stroke="#E0E0E0" stroke-linecap="round"></path>
                        <path d="M43.173936,105.84 L45.750096,105.84" id="Stroke-19" stroke="#E0E0E0" stroke-linecap="round"></path>
                        <path d="M38.88,105.84 L39.73824,105.84" id="Stroke-21" stroke="#E0E0E0" stroke-linecap="round"></path>
                        <path d="M65.294352,121.68 L75.600432,121.68" id="Stroke-23" stroke="#E0E0E0" stroke-linecap="round"></path>
                        <path d="M59.28264,121.68 L61.86024,121.68" id="Stroke-25" stroke="#E0E0E0" stroke-linecap="round"></path>
                        <path d="M54.98856,121.68 L55.84824,121.68" id="Stroke-27" stroke="#E0E0E0" stroke-linecap="round"></path>
                        <path d="M79.789968,87.816816 L70.260048,87.816816 L70.260048,94.306896 C70.260048,95.108976 70.909488,95.759856 71.713008,95.759856 L78.337008,95.759856 C79.139088,95.759856 79.789968,95.108976 79.789968,94.306896 L79.789968,87.816816 Z" id="Fill-29" fill="#656769"></path>
                        <mask id="mask-2" fill="white">
                            <use xlink:href="#path-1"></use>
                        </mask>
                        <g id="Clip-32"></g>
                        <polygon id="Fill-31" fill="#525252" mask="url(#mask-2)" points="70.26048 91.34784 79.7904 91.34784 79.7904 87.81696 70.26048 87.81696"></polygon>
                        <path d="M118.778256,83.403216 L65.060496,83.403216 L65.060496,25.987536 C65.060496,24.060816 66.622896,22.499856 68.549616,22.499856 L115.290576,22.499856 C117.217296,22.499856 118.778256,24.060816 118.778256,25.987536 L118.778256,83.403216 Z" id="Fill-33" fill="#915E3A" mask="url(#mask-2)"></path>
                        <path d="M118.778256,83.403216 L65.060496,83.403216 L65.060496,25.987536 C65.060496,24.060816 66.622896,22.499856 68.549616,22.499856 L115.290576,22.499856 C117.217296,22.499856 118.778256,24.060816 118.778256,25.987536 L118.778256,83.403216 Z" id="Stroke-34" stroke="#45413C" stroke-linecap="round" stroke-linejoin="round" mask="url(#mask-2)"></path>
                        <polygon id="Fill-35" fill="#915E3A" mask="url(#mask-2)" points="65.06064 74.5776 118.7784 74.5776 118.7784 30.44448 65.06064 30.44448"></polygon>
                        <polygon id="Stroke-36" stroke="#45413C" stroke-linecap="round" stroke-linejoin="round" mask="url(#mask-2)" points="65.06064 74.5776 118.7784 74.5776 118.7784 30.44448 65.06064 30.44448"></polygon>
                        <path d="M118.778256,26.020512 C118.778256,24.075072 117.230256,22.499712 115.322256,22.499712 L68.516496,22.499712 C66.608496,22.499712 65.060496,24.075072 65.060496,26.020512 L65.060496,30.442752 L118.778256,30.442752 L118.778256,26.020512 Z" id="Fill-37" fill="#915E3A" mask="url(#mask-2)"></path>
                        <path d="M118.778256,26.020512 C118.778256,24.075072 117.230256,22.499712 115.322256,22.499712 L68.516496,22.499712 C66.608496,22.499712 65.060496,24.075072 65.060496,26.020512 L65.060496,26.913312 L118.778256,26.913312 L118.778256,26.020512 Z" id="Fill-38" fill="#BF8256" mask="url(#mask-2)"></path>
                        <polygon id="Fill-39" fill="#FFCEBF" mask="url(#mask-2)" points="47.28672 115.53264 53.2656 115.53264 53.2656 102.90672 47.28672 102.90672"></polygon>
                        <polygon id="Fill-40" fill="#FFB59E" mask="url(#mask-2)" points="47.28672 108.64224 53.2656 108.64224 53.2656 102.90672 47.28672 102.90672"></polygon>
                        <polygon id="Stroke-41" stroke="#45413C" stroke-linecap="round" stroke-linejoin="round" mask="url(#mask-2)" points="47.28672 115.53264 53.2656 115.53264 53.2656 102.90672 47.28672 102.90672"></polygon>
                        <path d="M56.512224,115.1676 C56.844864,115.686 56.872224,116.3484 56.584224,116.89416 C56.294784,117.43992 55.734624,117.77688 55.126944,117.77688 L48.309984,117.77688 C47.731104,117.77688 47.195424,117.47016 46.894464,116.9676 C46.594944,116.46504 46.573344,115.8372 46.838304,115.31592 C48.649824,111.75768 54.447264,111.95496 56.512224,115.1676" id="Fill-42" fill="#87898C" mask="url(#mask-2)"></path>
                        <path d="M56.512224,115.1676 C56.844864,115.686 56.872224,116.3484 56.584224,116.89416 C56.294784,117.43992 55.734624,117.77688 55.126944,117.77688 L48.309984,117.77688 C47.731104,117.77688 47.195424,117.47016 46.894464,116.9676 C46.594944,116.46504 46.573344,115.8372 46.838304,115.31592 C48.649824,111.75768 54.447264,111.95496 56.512224,115.1676 Z" id="Stroke-43" stroke="#45413C" stroke-linecap="round" stroke-linejoin="round" mask="url(#mask-2)"></path>
                        <polygon id="Fill-44" fill="#FFCEBF" mask="url(#mask-2)" points="35.33184 115.53264 41.30928 115.53264 41.30928 102.90672 35.33184 102.90672"></polygon>
                        <polygon id="Fill-45" fill="#FFB59E" mask="url(#mask-2)" points="35.33184 108.64224 41.30928 108.64224 41.30928 102.90672 35.33184 102.90672"></polygon>
                        <polygon id="Stroke-46" stroke="#45413C" stroke-linecap="round" stroke-linejoin="round" mask="url(#mask-2)" points="35.33184 115.53264 41.30928 115.53264 41.30928 102.90672 35.33184 102.90672"></polygon>
                        <path d="M61.236576,72.100512 C61.236576,62.576352 53.652096,54.843552 44.297856,54.843552 C34.949376,54.843552 27.360576,62.570592 27.360576,72.100512 L27.360576,73.114272 L33.338016,73.114272 L33.338016,86.310432 L55.257696,86.310432 L55.257696,73.114272 L61.236576,73.114272 L61.236576,72.100512 Z" id="Fill-47" fill="#DEA47A" mask="url(#mask-2)"></path>
                        <path d="M60.894144,118.62072 C60.894144,120.01896 53.481024,121.15224 44.334144,121.15224 C35.187264,121.15224 27.774144,120.01896 27.774144,118.62072 C27.774144,117.22536 35.187264,116.09064 44.334144,116.09064 C53.481024,116.09064 60.894144,117.22536 60.894144,118.62072" id="Fill-48" fill="#020202" opacity="0.15" mask="url(#mask-2)"></path>
                        <path d="M40.314384,104.58144 C41.207184,104.58144 41.938704,103.86144 41.968944,102.95136 L42.218064,95.44464 C42.267024,94.31136 43.184304,93.41712 44.298864,93.41712 C45.413424,93.41712 46.329264,94.31136 46.378224,95.44464 L46.627344,102.95136 C46.657584,103.86144 47.389104,104.58144 48.281904,104.58144 L54.514224,104.58144 C54.967824,104.58144 55.401264,104.3928 55.713744,104.05728 C56.026224,103.7232 56.190384,103.27248 56.167344,102.81024 L55.257264,84.28176 L45.293904,84.28176 L43.302384,84.28176 L33.337584,84.28176 L32.428944,102.81024 C32.405904,103.27248 32.570064,103.7232 32.882544,104.05728 C33.195024,104.3928 33.628464,104.58144 34.082064,104.58144 L40.314384,104.58144 Z" id="Fill-49" fill="#DEA47A" mask="url(#mask-2)"></path>
                        <polygon id="Fill-50" fill="#BF8256" mask="url(#mask-2)" points="32.989248 91.386576 55.607328 91.386576 55.407168 87.327216 33.187968 87.327216"></polygon>
                        <path d="M40.314384,104.58144 C41.207184,104.58144 41.938704,103.86144 41.968944,102.95136 L42.218064,95.44464 C42.267024,94.31136 43.184304,93.41712 44.298864,93.41712 C45.413424,93.41712 46.329264,94.31136 46.378224,95.44464 L46.627344,102.95136 C46.657584,103.86144 47.389104,104.58144 48.281904,104.58144 L54.514224,104.58144 C54.967824,104.58144 55.401264,104.3928 55.713744,104.05728 C56.026224,103.7232 56.190384,103.27248 56.167344,102.81024 L55.257264,84.28176 L45.293904,84.28176 L43.302384,84.28176 L33.337584,84.28176 L32.428944,102.81024 C32.405904,103.27248 32.570064,103.7232 32.882544,104.05728 C33.195024,104.3928 33.628464,104.58144 34.082064,104.58144 L40.314384,104.58144 Z" id="Stroke-51" stroke="#45413C" stroke-linecap="round" stroke-linejoin="round" mask="url(#mask-2)"></path>
                        <path d="M44.298288,54.843696 C34.949808,54.843696 27.359568,62.570736 27.359568,72.100656 L27.359568,73.114416 L27.674928,73.114416 C29.181168,65.156976 36.049968,59.140656 44.298288,59.140656 C52.549488,59.140656 59.416848,65.159856 60.921648,73.114416 L61.237008,73.114416 L61.237008,72.100656 C61.237008,62.576496 53.652528,54.843696 44.298288,54.843696" id="Fill-52" fill="#F0C2A1" mask="url(#mask-2)"></path>
                        <path d="M61.236576,72.100512 C61.236576,62.576352 53.652096,54.843552 44.297856,54.843552 C34.949376,54.843552 27.360576,62.570592 27.360576,72.100512 L27.360576,73.114272 L33.338016,73.114272 L33.338016,86.310432 L55.257696,86.310432 L55.257696,73.114272 L61.236576,73.114272 L61.236576,72.100512 Z" id="Stroke-53" stroke="#45413C" stroke-linecap="round" stroke-linejoin="round" mask="url(#mask-2)"></path>
                        <g id="Group-56" mask="url(#mask-2)">
                            <g transform="translate(54.720000, 66.240000)">
                                <path d="M0.53784,6.874416 L0.53784,0.784656" id="Fill-54" stroke="none" fill="#00B8F0" fill-rule="evenodd"></path>
                                <path d="M0.53784,6.874416 L0.53784,0.784656" id="Stroke-55" stroke="#45413C" stroke-width="1" fill="none" stroke-linecap="round" stroke-linejoin="round"></path>
                            </g>
                        </g>
                        <g id="Group-59" mask="url(#mask-2)">
                            <g transform="translate(33.120000, 66.240000)">
                                <path d="M0.218016,6.874416 L0.218016,0.784656" id="Fill-57" stroke="none" fill="#00B8F0" fill-rule="evenodd"></path>
                                <path d="M0.218016,6.874416 L0.218016,0.784656" id="Stroke-58" stroke="#45413C" stroke-width="1" fill="none" stroke-linecap="round" stroke-linejoin="round"></path>
                            </g>
                        </g>
                        <path d="M33.338016,91.386576 C33.338016,93.067056 32.000256,94.432176 30.350016,94.432176 C28.698336,94.432176 27.360576,93.067056 27.360576,91.386576 L27.360576,73.114416 L33.338016,73.114416 L33.338016,91.386576 Z" id="Fill-60" fill="#FFCEBF" mask="url(#mask-2)"></path>
                        <polygon id="Fill-61" fill="#A86C4E" mask="url(#mask-2)" points="33.33744 87.32736 55.24992 87.32736 55.24992 83.26656 33.33744 83.26656"></polygon>
                        <polygon id="Stroke-62" stroke="#45413C" stroke-linecap="round" stroke-linejoin="round" mask="url(#mask-2)" points="33.33744 87.32736 55.24992 87.32736 55.24992 83.26656 33.33744 83.26656"></polygon>
                        <polygon id="Fill-63" fill="#FFE600" mask="url(#mask-2)" points="41.30928 87.32736 47.28816 87.32736 47.28816 83.26656 41.30928 83.26656"></polygon>
                        <polygon id="Stroke-64" stroke="#45413C" stroke-linecap="round" stroke-linejoin="round" mask="url(#mask-2)" points="41.30928 87.32736 47.28816 87.32736 47.28816 83.26656 41.30928 83.26656"></polygon>
                        <path d="M32.084352,115.1676 C31.751712,115.686 31.724352,116.3484 32.013792,116.89416 C32.303232,117.43992 32.861952,117.77688 33.471072,117.77688 L40.286592,117.77688 C40.865472,117.77688 41.401152,117.47016 41.702112,116.9676 C42.001632,116.46504 42.024672,115.8372 41.758272,115.31592 C39.946752,111.75768 34.149312,111.95496 32.084352,115.1676" id="Fill-65" fill="#87898C" mask="url(#mask-2)"></path>
                        <path d="M32.084352,115.1676 C31.751712,115.686 31.724352,116.3484 32.013792,116.89416 C32.303232,117.43992 32.861952,117.77688 33.471072,117.77688 L40.286592,117.77688 C40.865472,117.77688 41.401152,117.47016 41.702112,116.9676 C42.001632,116.46504 42.024672,115.8372 41.758272,115.31592 C39.946752,111.75768 34.149312,111.95496 32.084352,115.1676 Z" id="Stroke-66" stroke="#45413C" stroke-linecap="round" stroke-linejoin="round" mask="url(#mask-2)"></path>
                        <polygon id="Fill-67" fill="#FFB59E" mask="url(#mask-2)" points="27.36 77.17536 33.33744 77.17536 33.33744 73.11456 27.36 73.11456"></polygon>
                        <path d="M33.338016,91.386576 C33.338016,93.067056 32.000256,94.432176 30.350016,94.432176 C28.698336,94.432176 27.360576,93.067056 27.360576,91.386576 L27.360576,73.114416 L33.338016,73.114416 L33.338016,91.386576 Z" id="Stroke-68" stroke="#45413C" stroke-linecap="round" stroke-linejoin="round" mask="url(#mask-2)"></path>
                        <path d="M61.236576,91.386576 C61.236576,93.067056 59.898816,94.432176 58.247136,94.432176 C56.596896,94.432176 55.257696,93.067056 55.257696,91.386576 L55.257696,73.114416 L61.236576,73.114416 L61.236576,91.386576 Z" id="Fill-69" fill="#FFCEBF" mask="url(#mask-2)"></path>
                        <polygon id="Fill-70" fill="#FFB59E" mask="url(#mask-2)" points="55.25712 77.17536 61.236 77.17536 61.236 73.11456 55.25712 73.11456"></polygon>
                        <path d="M61.236576,91.386576 C61.236576,93.067056 59.898816,94.432176 58.247136,94.432176 C56.596896,94.432176 55.257696,93.067056 55.257696,91.386576 L55.257696,73.114416 L61.236576,73.114416 L61.236576,91.386576 Z" id="Stroke-71" stroke="#45413C" stroke-linecap="round" stroke-linejoin="round" mask="url(#mask-2)"></path>
                        <path d="M44.298288,54.843696 C42.449328,54.843696 40.637808,55.167696 38.917008,55.756656 L44.298288,64.994256 L49.679568,55.756656 C47.958768,55.167696 46.147248,54.843696 44.298288,54.843696" id="Fill-72" fill="#FFCEBF" mask="url(#mask-2)"></path>
                        <path d="M44.298288,54.843696 C42.449328,54.843696 40.637808,55.167696 38.917008,55.756656 L44.298288,64.994256 L49.679568,55.756656 C47.958768,55.167696 46.147248,54.843696 44.298288,54.843696 Z" id="Stroke-73" stroke="#45413C" stroke-linecap="round" stroke-linejoin="round" mask="url(#mask-2)"></path>
                        <path d="M35.331264,60.934176 C38.463264,61.360416 41.264064,62.456256 44.298144,64.994976 L38.916864,55.755936 C38.163744,56.013696 37.430784,56.323296 36.722304,56.684736 L35.331264,60.934176 Z" id="Fill-74" fill="#F0C2A1" mask="url(#mask-2)"></path>
                        <path d="M35.331264,60.934176 C38.463264,61.360416 41.264064,62.456256 44.298144,64.994976 L38.916864,55.755936 C38.163744,56.013696 37.430784,56.323296 36.722304,56.684736 L35.331264,60.934176 Z" id="Stroke-75" stroke="#45413C" stroke-linecap="round" stroke-linejoin="round" mask="url(#mask-2)"></path>
                        <path d="M53.265888,60.934176 C50.133888,61.360416 47.331648,62.456256 44.297568,64.994976 L49.678848,55.755936 C50.431968,56.013696 51.164928,56.323296 51.874848,56.684736 L53.265888,60.934176 Z" id="Fill-76" fill="#F0C2A1" mask="url(#mask-2)"></path>
                        <path d="M53.265888,60.934176 C50.133888,61.360416 47.331648,62.456256 44.297568,64.994976 L49.678848,55.755936 C50.431968,56.013696 51.164928,56.323296 51.874848,56.684736 L53.265888,60.934176 Z" id="Stroke-77" stroke="#45413C" stroke-linecap="round" stroke-linejoin="round" mask="url(#mask-2)"></path>
                        <g id="Group-80" mask="url(#mask-2)">
                            <g transform="translate(43.200000, 64.800000)">
                                <path d="M1.098288,0.194832 L1.098288,5.269392" id="Fill-78" stroke="none" fill="#FFCEBF" fill-rule="evenodd"></path>
                                <path d="M1.098288,0.194832 L1.098288,5.269392" id="Stroke-79" stroke="#45413C" stroke-width="1" fill="none" stroke-linecap="round" stroke-linejoin="round"></path>
                            </g>
                        </g>
                        <path d="M44.31168,51.469488 C48.7656,51.469488 52.49376,48.469968 53.76816,44.361648 L53.7768,44.364528 C56.92752,44.364528 57.11904,39.289968 54.27504,39.289968 L54.27504,37.259568 C54.27504,31.653648 49.81392,27.109008 44.31168,27.109008 C38.808,27.109008 34.34832,31.653648 34.34832,37.259568 L34.34832,39.289968 C31.50432,39.289968 31.69584,44.364528 34.84656,44.364528 L34.85376,44.361648 C36.1296,48.469968 39.85632,51.469488 44.31168,51.469488" id="Fill-81" fill="#FFCEBF" mask="url(#mask-2)"></path>
                        <path d="M44.31168,51.469488 C48.7656,51.469488 52.49376,48.469968 53.76816,44.361648 L53.7768,44.364528 C56.92752,44.364528 57.11904,39.289968 54.27504,39.289968 L54.27504,37.259568 C54.27504,31.653648 49.81392,27.109008 44.31168,27.109008 C38.808,27.109008 34.34832,31.653648 34.34832,37.259568 L34.34832,39.289968 C31.50432,39.289968 31.69584,44.364528 34.84656,44.364528 L34.85376,44.361648 C36.1296,48.469968 39.85632,51.469488 44.31168,51.469488 Z" id="Stroke-82" stroke="#45413C" stroke-linecap="round" stroke-linejoin="round" mask="url(#mask-2)"></path>
                        <path d="M41.06952,38.273904 C40.3812,38.273904 39.82392,38.841264 39.82392,39.542544 C39.82392,40.243824 40.3812,40.811184 41.06952,40.811184 C41.75784,40.811184 42.31512,40.243824 42.31512,39.542544 C42.31512,38.841264 41.75784,38.273904 41.06952,38.273904" id="Fill-83" fill="#45413C" mask="url(#mask-2)"></path>
                        <path d="M47.546784,38.273904 C46.858464,38.273904 46.301184,38.841264 46.301184,39.542544 C46.301184,40.243824 46.858464,40.811184 47.546784,40.811184 C48.233664,40.811184 48.792384,40.243824 48.792384,39.542544 C48.792384,38.841264 48.233664,38.273904 47.546784,38.273904" id="Fill-84" fill="#45413C" mask="url(#mask-2)"></path>
                        <path d="M39.326544,42.333696 C39.326544,42.893856 38.880144,43.348896 38.330064,43.348896 C37.779984,43.348896 37.333584,42.893856 37.333584,42.333696 C37.333584,41.773536 37.779984,41.318496 38.330064,41.318496 C38.880144,41.318496 39.326544,41.773536 39.326544,42.333696" id="Fill-85" fill="#FFB59E" mask="url(#mask-2)"></path>
                        <path d="M51.283152,42.333696 C51.283152,42.893856 50.836752,43.348896 50.286672,43.348896 C49.736592,43.348896 49.290192,42.893856 49.290192,42.333696 C49.290192,41.773536 49.736592,41.318496 50.286672,41.318496 C50.836752,41.318496 51.283152,41.773536 51.283152,42.333696" id="Fill-86" fill="#FFB59E" mask="url(#mask-2)"></path>
                        <path d="M41.8212,45.472464 C43.32888,46.496304 45.29448,46.496304 46.80216,45.472464" id="Stroke-87" stroke="#45413C" stroke-linecap="round" stroke-linejoin="round" mask="url(#mask-2)"></path>
                        <path d="M50.897808,25.07832 L37.697328,25.07832 C35.291088,25.07832 33.338448,27.02952 33.338448,29.43864 L33.338448,34.21368 L55.258128,34.21368 L55.258128,29.43864 C55.258128,27.02952 53.305488,25.07832 50.897808,25.07832" id="Fill-88" fill="#BF8256" mask="url(#mask-2)"></path>
                        <path d="M50.897808,25.07832 L37.697328,25.07832 C35.291088,25.07832 33.338448,27.02952 33.338448,29.43864 L33.338448,34.21368 L55.258128,34.21368 L55.258128,29.43864 C55.258128,27.02952 53.305488,25.07832 50.897808,25.07832 Z" id="Stroke-89" stroke="#45413C" stroke-linecap="round" stroke-linejoin="round" mask="url(#mask-2)"></path>
                        <path d="M44.298288,25.07832 C44.298288,25.07832 38.319408,28.12392 38.319408,33.19848" id="Stroke-90" stroke="#45413C" stroke-linejoin="round" mask="url(#mask-2)"></path>
                        <path d="M44.298288,25.07832 C44.298288,25.07832 50.275728,28.12392 50.275728,33.19848" id="Stroke-91" stroke="#45413C" stroke-linejoin="round" mask="url(#mask-2)"></path>
                        <path d="M55.730448,35.602704 C55.839888,36.157104 55.668528,36.731664 55.273968,37.130544 C54.880848,37.527984 54.316368,37.699344 53.773488,37.585584 C48.465648,36.473904 40.130928,36.473904 34.823088,37.585584 C34.280208,37.699344 33.715728,37.527984 33.322608,37.129104 C32.929488,36.730224 32.756688,36.157104 32.866128,35.602704 L33.338448,33.199344 C42.119568,30.490704 46.502928,30.493584 55.258128,33.199344 L55.730448,35.602704 Z" id="Fill-92" fill="#DEA47A" mask="url(#mask-2)"></path>
                        <path d="M55.730448,35.602704 C55.839888,36.157104 55.668528,36.731664 55.273968,37.130544 C54.880848,37.527984 54.316368,37.699344 53.773488,37.585584 C48.465648,36.473904 40.130928,36.473904 34.823088,37.585584 C34.280208,37.699344 33.715728,37.527984 33.322608,37.129104 C32.929488,36.730224 32.756688,36.157104 32.866128,35.602704 L33.338448,33.199344 C42.119568,30.490704 46.502928,30.493584 55.258128,33.199344 L55.730448,35.602704 Z" id="Stroke-93" stroke="#45413C" stroke-linecap="round" stroke-linejoin="round" mask="url(#mask-2)"></path>
                        <polygon id="Fill-94" fill="#FF8A14" mask="url(#mask-2)" points="52.269552 71.085168 49.778352 73.114128 47.288592 71.085168 47.288592 67.025808 52.269552 67.025808"></polygon>
                        <polygon id="Stroke-95" stroke="#45413C" stroke-linecap="round" stroke-linejoin="round" mask="url(#mask-2)" points="52.269552 71.085168 49.778352 73.114128 47.288592 71.085168 47.288592 67.025808 52.269552 67.025808"></polygon>
                        <path d="M115.871472,87.816816 L67.966992,87.816816 C66.362832,87.816816 65.061072,86.515056 65.061072,84.909456 L65.061072,83.403216 L118.778832,83.403216 L118.778832,84.909456 C118.778832,86.515056 117.477072,87.816816 115.871472,87.816816" id="Fill-96" fill="#8BA4B8" mask="url(#mask-2)"></path>
                        <path d="M115.871472,87.816816 L67.966992,87.816816 C66.362832,87.816816 65.061072,86.515056 65.061072,84.909456 L65.061072,83.403216 L118.778832,83.403216 L118.778832,84.909456 C118.778832,86.515056 117.477072,87.816816 115.871472,87.816816 Z" id="Stroke-97" stroke="#45413C" stroke-linecap="round" stroke-linejoin="round" mask="url(#mask-2)"></path>
                        <path d="M79.789968,87.816816 L70.260048,87.816816 L70.260048,94.306896 C70.260048,95.108976 70.909488,95.759856 71.713008,95.759856 L78.337008,95.759856 C79.139088,95.759856 79.789968,95.108976 79.789968,94.306896 L79.789968,87.816816 Z" id="Stroke-98" stroke="#45413C" stroke-linecap="round" stroke-linejoin="round" mask="url(#mask-2)"></path>
                        <path d="M113.57928,87.816816 L104.04936,87.816816 L104.04936,94.306896 C104.04936,95.108976 104.6988,95.759856 105.50232,95.759856 L112.12632,95.759856 C112.9284,95.759856 113.57928,95.108976 113.57928,94.306896 L113.57928,87.816816 Z" id="Fill-99" fill="#656769" mask="url(#mask-2)"></path>
                        <polygon id="Fill-100" fill="#525252" mask="url(#mask-2)" points="104.04864 91.34784 113.57856 91.34784 113.57856 87.81696 104.04864 87.81696"></polygon>
                        <path d="M113.57928,87.816816 L104.04936,87.816816 L104.04936,94.306896 C104.04936,95.108976 104.6988,95.759856 105.50232,95.759856 L112.12632,95.759856 C112.9284,95.759856 113.57928,95.108976 113.57928,94.306896 L113.57928,87.816816 Z" id="Stroke-101" stroke="#45413C" stroke-linecap="round" stroke-linejoin="round" mask="url(#mask-2)"></path>
                        <path d="M114.445584,78.99048 C114.445584,79.96392 113.670864,80.75592 112.713264,80.75592 C111.757104,80.75592 110.980944,79.96392 110.980944,78.99048 C110.980944,78.01416 111.757104,77.2236 112.713264,77.2236 C113.670864,77.2236 114.445584,78.01416 114.445584,78.99048" id="Fill-102" fill="#FF6242" mask="url(#mask-2)"></path>
                        <path d="M114.445584,78.99048 C114.445584,79.96392 113.670864,80.75592 112.713264,80.75592 C111.757104,80.75592 110.980944,79.96392 110.980944,78.99048 C110.980944,78.01416 111.757104,77.2236 112.713264,77.2236 C113.670864,77.2236 114.445584,78.01416 114.445584,78.99048 Z" id="Stroke-103" stroke="#45413C" stroke-linecap="round" stroke-linejoin="round" mask="url(#mask-2)"></path>
                        <path d="M107.515584,78.99048 C107.515584,79.96392 106.739424,80.75592 105.781824,80.75592 C104.825664,80.75592 104.049504,79.96392 104.049504,78.99048 C104.049504,78.01416 104.825664,77.2236 105.781824,77.2236 C106.739424,77.2236 107.515584,78.01416 107.515584,78.99048" id="Fill-104" fill="#FF8A14" mask="url(#mask-2)"></path>
                        <path d="M107.515584,78.99048 C107.515584,79.96392 106.739424,80.75592 105.781824,80.75592 C104.825664,80.75592 104.049504,79.96392 104.049504,78.99048 C104.049504,78.01416 104.825664,77.2236 105.781824,77.2236 C106.739424,77.2236 107.515584,78.01416 107.515584,78.99048 Z" id="Stroke-105" stroke="#45413C" stroke-linecap="round" stroke-linejoin="round" mask="url(#mask-2)"></path>
                        <path d="M69.39216,78.99048 C69.39216,79.96392 70.16832,80.75592 71.12592,80.75592 C72.08208,80.75592 72.85824,79.96392 72.85824,78.99048 C72.85824,78.01416 72.08208,77.2236 71.12592,77.2236 C70.16832,77.2236 69.39216,78.01416 69.39216,78.99048" id="Fill-106" fill="#FF6242" mask="url(#mask-2)"></path>
                        <path d="M69.39216,78.99048 C69.39216,79.96392 70.16832,80.75592 71.12592,80.75592 C72.08208,80.75592 72.85824,79.96392 72.85824,78.99048 C72.85824,78.01416 72.08208,77.2236 71.12592,77.2236 C70.16832,77.2236 69.39216,78.01416 69.39216,78.99048 Z" id="Stroke-107" stroke="#45413C" stroke-linecap="round" stroke-linejoin="round" mask="url(#mask-2)"></path>
                        <path d="M76.323456,78.99048 C76.323456,79.96392 77.099616,80.75592 78.057216,80.75592 C79.013376,80.75592 79.789536,79.96392 79.789536,78.99048 C79.789536,78.01416 79.013376,77.2236 78.057216,77.2236 C77.099616,77.2236 76.323456,78.01416 76.323456,78.99048" id="Fill-108" fill="#FF8A14" mask="url(#mask-2)"></path>
                        <path d="M76.323456,78.99048 C76.323456,79.96392 77.099616,80.75592 78.057216,80.75592 C79.013376,80.75592 79.789536,79.96392 79.789536,78.99048 C79.789536,78.01416 79.013376,77.2236 78.057216,77.2236 C77.099616,77.2236 76.323456,78.01416 76.323456,78.99048 Z" id="Stroke-109" stroke="#45413C" stroke-linecap="round" stroke-linejoin="round" mask="url(#mask-2)"></path>
                        <path d="M124.256304,74.577024 L106.647984,74.577024 L106.647984,30.443904 L124.256304,30.443904 C125.058384,30.443904 125.709264,31.094784 125.709264,31.896864 L125.709264,73.122624 C125.709264,73.926144 125.058384,74.577024 124.256304,74.577024" id="Fill-110" fill="#ADC4D9" mask="url(#mask-2)"></path>
                        <path d="M124.256304,74.577024 L106.647984,74.577024 L106.647984,30.443904 L124.256304,30.443904 C125.058384,30.443904 125.709264,31.094784 125.709264,31.896864 L125.709264,73.122624 C125.709264,73.926144 125.058384,74.577024 124.256304,74.577024 Z" id="Stroke-111" stroke="#45413C" stroke-linecap="round" stroke-linejoin="round" mask="url(#mask-2)"></path>
                        <path d="M120.791232,71.045856 L111.568032,71.045856 C110.764512,71.045856 110.113632,70.394976 110.113632,69.592896 L110.113632,55.728576 C110.113632,54.926496 110.764512,54.275616 111.568032,54.275616 L120.791232,54.275616 C121.594752,54.275616 122.244192,54.926496 122.244192,55.728576 L122.244192,69.592896 C122.244192,70.394976 121.594752,71.045856 120.791232,71.045856" id="Fill-112" fill="#8BA4B8" mask="url(#mask-2)"></path>
                        <path d="M120.791232,71.045856 L111.568032,71.045856 C110.764512,71.045856 110.113632,70.394976 110.113632,69.592896 L110.113632,55.728576 C110.113632,54.926496 110.764512,54.275616 111.568032,54.275616 L120.791232,54.275616 C121.594752,54.275616 122.244192,54.926496 122.244192,55.728576 L122.244192,69.592896 C122.244192,70.394976 121.594752,71.045856 120.791232,71.045856 Z" id="Stroke-113" stroke="#45413C" stroke-linecap="round" stroke-linejoin="round" mask="url(#mask-2)"></path>
                        <path d="M120.791232,50.745168 L111.568032,50.745168 C110.764512,50.745168 110.113632,50.094288 110.113632,49.290768 L110.113632,35.427888 C110.113632,34.624368 110.764512,33.974928 111.568032,33.974928 L120.791232,33.974928 C121.594752,33.974928 122.244192,34.624368 122.244192,35.427888 L122.244192,49.290768 C122.244192,50.094288 121.594752,50.745168 120.791232,50.745168" id="Fill-114" fill="#8BA4B8" mask="url(#mask-2)"></path>
                        <path d="M120.791232,50.745168 L111.568032,50.745168 C110.764512,50.745168 110.113632,50.094288 110.113632,49.290768 L110.113632,35.427888 C110.113632,34.624368 110.764512,33.974928 111.568032,33.974928 L120.791232,33.974928 C121.594752,33.974928 122.244192,34.624368 122.244192,35.427888 L122.244192,49.290768 C122.244192,50.094288 121.594752,50.745168 120.791232,50.745168 Z" id="Stroke-115" stroke="#45413C" stroke-linecap="round" stroke-linejoin="round" mask="url(#mask-2)"></path>
                        <polygon id="Fill-116" fill="#87898C" mask="url(#mask-2)" points="86.72112 74.5776 106.64784 74.5776 106.64784 30.44448 86.72112 30.44448"></polygon>
                        <polygon id="Fill-117" fill="#656769" mask="url(#mask-2)" points="86.72112 38.4912 106.64784 38.4912 106.64784 30.44304 86.72112 30.44304"></polygon>
                        <polygon id="Stroke-118" stroke="#45413C" stroke-linecap="round" stroke-linejoin="round" mask="url(#mask-2)" points="86.72112 74.5776 106.64784 74.5776 106.64784 30.44448 86.72112 30.44448"></polygon>
                        <path d="M106.64784,74.577024 L92.7864,74.577024 L92.7864,64.554624 C92.7864,63.752544 93.43728,63.101664 94.23936,63.101664 L106.64784,63.101664 L106.64784,74.577024 Z" id="Fill-119" fill="#DEBB7E" mask="url(#mask-2)"></path>
                        <path d="M106.64784,74.577024 L92.7864,74.577024 L92.7864,64.554624 C92.7864,63.752544 93.43728,63.101664 94.23936,63.101664 L106.64784,63.101664 L106.64784,74.577024 Z" id="Stroke-120" stroke="#45413C" stroke-linecap="round" stroke-linejoin="round" mask="url(#mask-2)"></path>
                        <path d="M106.64784,63.101232 L97.98336,63.101232 L97.98336,55.728432 C97.98336,54.926352 98.63424,54.275472 99.43776,54.275472 L106.64784,54.275472 L106.64784,63.101232 Z" id="Fill-121" fill="#DEBB7E" mask="url(#mask-2)"></path>
                        <path d="M106.64784,63.101232 L97.98336,63.101232 L97.98336,55.728432 C97.98336,54.926352 98.63424,54.275472 99.43776,54.275472 L106.64784,54.275472 L106.64784,63.101232 Z" id="Stroke-122" stroke="#45413C" stroke-linecap="round" stroke-linejoin="round" mask="url(#mask-2)"></path>
                        <path d="M122.244624,58.359312 L118.499184,58.359312 C117.695664,58.359312 117.046224,57.708432 117.046224,56.906352 L117.046224,54.275472 L120.791664,54.275472 C121.593744,54.275472 122.244624,54.926352 122.244624,55.728432 L122.244624,58.359312 Z" id="Fill-123" fill="#627B8C" mask="url(#mask-2)"></path>
                        <path d="M122.244624,58.359312 L118.499184,58.359312 C117.695664,58.359312 117.046224,57.708432 117.046224,56.906352 L117.046224,54.275472 L120.791664,54.275472 C121.593744,54.275472 122.244624,54.926352 122.244624,55.728432 L122.244624,58.359312 Z" id="Stroke-124" stroke="#45413C" stroke-linecap="round" stroke-linejoin="round" mask="url(#mask-2)"></path>
                        <path d="M82.388736,43.683696 C77.872896,42.559056 73.524096,42.453936 69.392736,43.683696 L69.392736,48.344976 C73.449216,46.830096 77.796576,45.930096 82.388736,45.554256 L82.388736,43.683696 Z" id="Fill-125" fill="#FFE600" mask="url(#mask-2)"></path>
                        <path d="M82.388736,43.683696 C77.872896,42.559056 73.524096,42.453936 69.392736,43.683696 L69.392736,48.344976 C73.449216,46.830096 77.796576,45.930096 82.388736,45.554256 L82.388736,43.683696 Z" id="Stroke-126" stroke="#45413C" stroke-linecap="round" stroke-linejoin="round" mask="url(#mask-2)"></path>
                        <path d="M69.39216,51.577056 C69.39216,52.716096 69.93216,53.786016 70.84368,54.449856 L75.45312,57.806496 L80.75952,54.429696 C81.77328,53.784576 82.38816,52.654176 82.38816,51.435936 L82.38816,45.554976 C77.796,45.930816 73.44864,46.829376 69.39216,48.345696 L69.39216,51.577056 Z" id="Fill-127" fill="#BF8256" mask="url(#mask-2)"></path>
                        <path d="M69.39216,51.577056 C69.39216,52.716096 69.93216,53.786016 70.84368,54.449856 L75.45312,57.806496 L80.75952,54.429696 C81.77328,53.784576 82.38816,52.654176 82.38816,51.435936 L82.38816,45.554976 C77.796,45.930816 73.44864,46.829376 69.39216,48.345696 L69.39216,51.577056 Z" id="Stroke-128" stroke="#45413C" stroke-linecap="round" stroke-linejoin="round" mask="url(#mask-2)"></path>
                        <path d="M101.589552,70.164144 L98.710992,70.164144 C98.309232,70.164144 97.983792,69.838704 97.983792,69.436944 L97.983792,63.100944 L102.316752,63.100944 L102.316752,69.436944 C102.316752,69.838704 101.991312,70.164144 101.589552,70.164144" id="Fill-129" fill="#F7E5C6" mask="url(#mask-2)"></path>
                        <path d="M101.589552,70.164144 L98.710992,70.164144 C98.309232,70.164144 97.983792,69.838704 97.983792,69.436944 L97.983792,63.100944 L102.316752,63.100944 L102.316752,69.436944 C102.316752,69.838704 101.991312,70.164144 101.589552,70.164144 Z" id="Stroke-130" stroke="#45413C" stroke-linecap="round" stroke-linejoin="round" mask="url(#mask-2)"></path>
                        <path d="M75.457296,26.471952 C75.457296,27.203472 74.875536,27.795312 74.158416,27.795312 L70.690896,27.795312 C69.973776,27.795312 69.392016,27.203472 69.392016,26.471952 C69.392016,25.741872 69.973776,25.148592 70.690896,25.148592 L74.158416,25.148592 C74.875536,25.148592 75.457296,25.741872 75.457296,26.471952" id="Fill-131" fill="#FF6242" mask="url(#mask-2)"></path>
                        <path d="M75.457296,26.471952 C75.457296,27.203472 74.875536,27.795312 74.158416,27.795312 L70.690896,27.795312 C69.973776,27.795312 69.392016,27.203472 69.392016,26.471952 C69.392016,25.741872 69.973776,25.148592 70.690896,25.148592 L74.158416,25.148592 C74.875536,25.148592 75.457296,25.741872 75.457296,26.471952 Z" id="Stroke-132" stroke="#45413C" stroke-linecap="round" stroke-linejoin="round" mask="url(#mask-2)"></path>
                        <path d="M115.313184,26.471952 C115.313184,27.203472 114.731424,27.795312 114.014304,27.795312 L110.546784,27.795312 C109.829664,27.795312 109.247904,27.203472 109.247904,26.471952 C109.247904,25.741872 109.829664,25.148592 110.546784,25.148592 L114.014304,25.148592 C114.731424,25.148592 115.313184,25.741872 115.313184,26.471952" id="Fill-133" fill="#FF6242" mask="url(#mask-2)"></path>
                        <path d="M115.313184,26.471952 C115.313184,27.203472 114.731424,27.795312 114.014304,27.795312 L110.546784,27.795312 C109.829664,27.795312 109.247904,27.203472 109.247904,26.471952 C109.247904,25.741872 109.829664,25.148592 110.546784,25.148592 L114.014304,25.148592 C114.731424,25.148592 115.313184,25.741872 115.313184,26.471952 Z" id="Stroke-134" stroke="#45413C" stroke-linecap="round" stroke-linejoin="round" mask="url(#mask-2)"></path>
                        <path d="M118.778256,26.020512 C118.778256,24.075072 117.230256,22.499712 115.322256,22.499712 L68.516496,22.499712 C66.608496,22.499712 65.060496,24.075072 65.060496,26.020512 L65.060496,30.442752 L118.778256,30.442752 L118.778256,26.020512 Z" id="Stroke-135" stroke="#45413C" stroke-linecap="round" stroke-linejoin="round" mask="url(#mask-2)"></path>
                    </g>
                    <path d="M137.5,21.0001 C136.672,21.0001 136,21.6721 136,22.5001 C136,23.3281 136.672,24.0001 137.5,24.0001 C138.328,24.0001 139,23.3281 139,22.5001 C139,21.6721 138.328,21.0001 137.5,21.0001 M1.5,58.0001 C0.672,58.0001 0,58.6721 0,59.5001 C0,60.3281 0.672,61.0001 1.5,61.0001 C2.328,61.0001 3,60.3281 3,59.5001 C3,58.6721 2.328,58.0001 1.5,58.0001 M11,19.0001 L10,19.0001 L10,18.0001 C10,17.4481 9.552,17.0001 9,17.0001 C8.448,17.0001 8,17.4481 8,18.0001 L8,19.0001 L7,19.0001 C6.448,19.0001 6,19.4481 6,20.0001 C6,20.5521 6.448,21.0001 7,21.0001 L8,21.0001 L8,22.0001 C8,22.5521 8.448,23.0001 9,23.0001 C9.552,23.0001 10,22.5521 10,22.0001 L10,21.0001 L11,21.0001 C11.552,21.0001 12,20.5521 12,20.0001 C12,19.4481 11.552,19.0001 11,19.0001 M7,88.0001 L6,88.0001 L6,87.0001 C6,86.4481 5.552,86.0001 5,86.0001 C4.448,86.0001 4,86.4481 4,87.0001 L4,88.0001 L3,88.0001 C2.448,88.0001 2,88.4481 2,89.0001 C2,89.5521 2.448,90.0001 3,90.0001 L4,90.0001 L4,91.0001 C4,91.5521 4.448,92.0001 5,92.0001 C5.552,92.0001 6,91.5521 6,91.0001 L6,90.0001 L7,90.0001 C7.552,90.0001 8,89.5521 8,89.0001 C8,88.4481 7.552,88.0001 7,88.0001 M142,51.0001 L141,51.0001 L141,50.0001 C141,49.4481 140.552,49.0001 140,49.0001 C139.448,49.0001 139,49.4481 139,50.0001 L139,51.0001 L138,51.0001 C137.448,51.0001 137,51.4481 137,52.0001 C137,52.5521 137.448,53.0001 138,53.0001 L139,53.0001 L139,54.0001 C139,54.5521 139.448,55.0001 140,55.0001 C140.552,55.0001 141,54.5521 141,54.0001 L141,53.0001 L142,53.0001 C142.552,53.0001 143,52.5521 143,52.0001 C143,51.4481 142.552,51.0001 142,51.0001" id="Decoration" fill="#BFC7D2" transform="translate(71.500000, 54.500100) rotate(180.000000) translate(-71.500000, -54.500100) "></path>
                </g>
            </g>
        </g>
    </g>
</svg>