<?xml version="1.0" encoding="UTF-8"?>
<svg width="144px" height="144px" viewBox="0 0 144 144" version="1.1" xmlns="http://www.w3.org/2000/svg" xmlns:xlink="http://www.w3.org/1999/xlink">
    <!-- Generator: Sketch 49.3 (51167) - http://www.bohemiancoding.com/sketch -->
    <title>Image</title>
    <desc>Created with Sketch.</desc>
    <defs>
        <path d="M0.72,58.32 C0.72,90.13248 26.50896,115.92 58.32,115.92 C90.13248,115.92 115.92,90.13248 115.92,58.32 C115.92,26.50752 90.13248,0.72 58.32,0.72 C26.50896,0.72 0.72,26.50752 0.72,58.32" id="path-1"></path>
    </defs>
    <g id="Volunteer-(Desktop)" stroke="none" stroke-width="1" fill="none" fill-rule="evenodd">
        <g id="Active-Tasks" transform="translate(-170.000000, -201.000000)">
            <g id="Record-1" transform="translate(130.000000, 111.000000)">
                <g id="A" transform="translate(20.000000, 80.000000)">
                    <g id="Image" transform="translate(20.000000, 10.000000)">
                        <g id="Group-19" transform="translate(10.000000, 14.000000)">
                            <path d="M120.24,58.32 C120.24,90.13248 94.45248,115.92 62.64,115.92 C30.82752,115.92 5.04,90.13248 5.04,58.32 C5.04,26.50752 30.82752,0.72 62.64,0.72 C94.45248,0.72 120.24,26.50752 120.24,58.32" id="Fill-1" fill="#C2EAFC"></path>
                            <path d="M10.153152,82.08 C13.848192,90.2304 19.387872,97.36704 26.237952,102.96 L99.042912,102.96 C105.891552,97.36704 111.431232,90.2304 115.126272,82.08 L10.153152,82.08 Z" id="Fill-3" fill="#CDF7AD"></path>
                            <path d="M62.64,115.92 C76.44816,115.92 89.1216,111.06144 99.04176,102.96 L26.23824,102.96 C36.15984,111.06144 48.83184,115.92 62.64,115.92" id="Fill-5" fill="#ADC4D9"></path>
                            <path d="M6.48,82.08 L118.8,82.08" id="Stroke-7" stroke="#45413C" stroke-linecap="round" stroke-linejoin="round"></path>
                            <path d="M0,82.08 L3.6,82.08" id="Stroke-9" stroke="#45413C" stroke-linecap="round" stroke-linejoin="round"></path>
                            <path d="M121.68,82.08 L125.28,82.08" id="Stroke-11" stroke="#45413C" stroke-linecap="round" stroke-linejoin="round"></path>
                            <path d="M48.545072,108.72 L58.851152,108.72" id="Stroke-13" stroke="#C0DCEB" stroke-linecap="round"></path>
                            <path d="M62.533216,108.72 L65.110816,108.72" id="Stroke-15" stroke="#C0DCEB" stroke-linecap="round"></path>
                            <path d="M68.24,108.72 L69.09968,108.72" id="Stroke-17" stroke="#C0DCEB" stroke-linecap="round"></path>
                        </g>
                        <g id="Group-22" transform="translate(14.000000, 14.000000)">
                            <mask id="mask-2" fill="white">
                                <use xlink:href="#path-1"></use>
                            </mask>
                            <g id="Clip-21"></g>
                            <path d="M19.296576,102.96 L97.776576,102.96" id="Stroke-20" stroke="#45413C" mask="url(#mask-2)"></path>
                        </g>
                        <g id="Group-2" transform="translate(9.000000, 14.000000)">
                            <path d="M109.365071,81.6731579 L79.8995103,81.6731579 L79.8995103,21.1272632 C79.8995103,20.3352884 80.5451527,19.6925263 81.3439005,19.6925263 L107.920681,19.6925263 C108.717984,19.6925263 109.365071,20.3352884 109.365071,21.1272632 L109.365071,81.6731579 Z" id="Fill-13" fill="#FF866E"></path>
                            <polygon id="Fill-15" fill="#FF6242" points="79.8993659 81.6731579 109.364927 81.6731579 109.364927 27.6094042 79.8993659 27.6094042"></polygon>
                            <path d="M109.365071,81.6731579 L79.8995103,81.6731579 L79.8995103,21.1272632 C79.8995103,20.3352884 80.5451527,19.6925263 81.3439005,19.6925263 L107.920681,19.6925263 C108.717984,19.6925263 109.365071,20.3352884 109.365071,21.1272632 L109.365071,81.6731579 Z" id="Stroke-17" stroke="#45413C" stroke-linecap="round" stroke-linejoin="round"></path>
                            <polygon id="Fill-18" fill="#FFE600" points="22.7015122 39.4918947 79.8993659 39.4918947 79.8993659 36.0499611 22.7015122 36.0499611"></polygon>
                            <polygon id="Stroke-19" stroke="#45413C" stroke-linecap="round" stroke-linejoin="round" points="22.7015122 39.4918947 79.8993659 39.4918947 79.8993659 36.0499611 22.7015122 36.0499611"></polygon>
                            <polygon id="Fill-20" fill="#FF6242" points="22.7015122 48.9611579 79.8993659 48.9611579 79.8993659 45.5177895 22.7015122 45.5177895"></polygon>
                            <polygon id="Stroke-21" stroke="#45413C" stroke-linecap="round" stroke-linejoin="round" points="22.7015122 48.9611579 79.8993659 48.9611579 79.8993659 45.5177895 22.7015122 45.5177895"></polygon>
                            <polygon id="Fill-22" fill="#00B8F0" points="63.4330282 48.9614448 39.1672721 48.9614448 22.7012233 48.9614448 22.7012233 81.6734448 39.1672721 81.6734448 63.4330282 81.6734448 79.899077 81.6734448 79.899077 48.9614448"></polygon>
                            <polygon id="Fill-23" fill="#4ACFFF" points="68.4135746 48.9614448 22.7015122 48.9614448 22.7015122 81.6734448 35.4814771 81.6734448"></polygon>
                            <polygon id="Stroke-39" stroke="#45413C" stroke-linecap="round" stroke-linejoin="round" points="63.4330282 48.9614448 39.1672721 48.9614448 22.7012233 48.9614448 22.7012233 81.6734448 39.1672721 81.6734448 63.4330282 81.6734448 79.899077 81.6734448 79.899077 48.9614448"></polygon>
                            <path d="M112.831463,81.6731579 L76.4328293,81.6731579 L76.4328293,57.2826316 C76.4328293,56.4892221 77.0799161,55.8478947 77.8772195,55.8478947 L111.387073,55.8478947 C112.184377,55.8478947 112.831463,56.4892221 112.831463,57.2826316 L112.831463,81.6731579 Z" id="Fill-40" fill="#FF6242"></path>
                            <path d="M111.387073,55.8478947 L77.8772195,55.8478947 C77.0799161,55.8478947 76.4328293,56.4892221 76.4328293,57.2826316 L76.4328293,59.8378979 C76.4328293,59.0459232 77.0799161,58.4031611 77.8772195,58.4031611 L111.387073,58.4031611 C112.184377,58.4031611 112.831463,59.0459232 112.831463,59.8378979 L112.831463,57.2826316 C112.831463,56.4892221 112.184377,55.8478947 111.387073,55.8478947" id="Fill-41" fill="#FF866E"></path>
                            <path d="M112.831463,81.6731579 L76.4328293,81.6731579 L76.4328293,57.2826316 C76.4328293,56.4892221 77.0799161,55.8478947 77.8772195,55.8478947 L111.387073,55.8478947 C112.184377,55.8478947 112.831463,56.4892221 112.831463,57.2826316 L112.831463,81.6731579 Z" id="Stroke-42" stroke="#45413C" stroke-linecap="round" stroke-linejoin="round"></path>
                            <path d="M17.5017073,81.6731579 L22.7015122,81.6731579 L22.7015122,34.0398947 C22.7015122,33.24792 22.0544254,32.6051579 21.257122,32.6051579 L18.9460976,32.6051579 C18.1487941,32.6051579 17.5017073,33.24792 17.5017073,34.0398947 L17.5017073,81.6731579 Z" id="Fill-43" fill="#BDBEC0"></path>
                            <polygon id="Fill-44" fill="#87898C" points="17.5017073 81.6731579 22.7015122 81.6731579 22.7015122 42.9352632 17.5017073 42.9352632"></polygon>
                            <path d="M17.5017073,81.6731579 L22.7015122,81.6731579 L22.7015122,34.0398947 C22.7015122,33.24792 22.0544254,32.6051579 21.257122,32.6051579 L18.9460976,32.6051579 C18.1487941,32.6051579 17.5017073,33.24792 17.5017073,34.0398947 L17.5017073,81.6731579 Z" id="Stroke-45" stroke="#45413C" stroke-linecap="round" stroke-linejoin="round"></path>
                            <polygon id="Fill-46" fill="#87898C" points="22.7015122 45.5177895 79.8993659 45.5177895 79.8993659 39.4918947 22.7015122 39.4918947"></polygon>
                            <polygon id="Stroke-47" stroke="#45413C" stroke-linecap="round" stroke-linejoin="round" points="22.7015122 45.5177895 79.8993659 45.5177895 79.8993659 39.4918947 22.7015122 39.4918947"></polygon>
                            <g id="Group-6" transform="translate(81.000000, 61.000000)">
                                <polygon id="Fill-48" fill="#CED0DA" points="0.632634146 20.6731579 26.6316585 20.6731579 26.6316585 0.873789474 0.632634146 0.873789474"></polygon>
                                <g id="Group-8" transform="translate(1.000000, 2.000000)" fill="#E6EAEE">
                                    <rect id="Rectangle-3" x="0" y="0" width="25.2999992" height="1.20000005"></rect>
                                    <rect id="Rectangle-3" x="0" y="2" width="25.2999992" height="1.20000005"></rect>
                                    <rect id="Rectangle-3" x="0" y="4" width="25.2999992" height="1.20000005"></rect>
                                    <rect id="Rectangle-3" x="0" y="6" width="25.2999992" height="1.20000005"></rect>
                                    <rect id="Rectangle-3" x="0" y="8" width="25.2999992" height="1.20000005"></rect>
                                    <rect id="Rectangle-3" x="0" y="10" width="25.2999992" height="1.20000005"></rect>
                                    <rect id="Rectangle-3" x="0" y="12" width="25.2999992" height="1.20000005"></rect>
                                    <rect id="Rectangle-3" x="0" y="14" width="25.2999992" height="1.20000005"></rect>
                                    <rect id="Rectangle-3" x="0" y="16" width="25.2999992" height="1.20000005"></rect>
                                </g>
                                <polygon id="Stroke-50" stroke="#45413C" stroke-linecap="round" stroke-linejoin="round" points="0.632634146 20.6731579 26.6316585 20.6731579 26.6316585 0.873789474 0.632634146 0.873789474"></polygon>
                            </g>
                            <g id="Group-5" transform="translate(84.000000, 24.000000)">
                                <path d="M21.0319005,11.1871103 C21.0319005,16.8930587 16.3751864,21.5172156 10.6322908,21.5172156 C4.88795078,21.5172156 0.232681024,16.8930587 0.232681024,11.1871103 C0.232681024,5.48116189 4.88795078,0.858439789 10.6322908,0.858439789 C16.3751864,0.858439789 21.0319005,5.48116189 21.0319005,11.1871103" id="Fill-56" fill="#FFF48C"></path>
                                <path d="M10.6320019,7.74460274 C6.10672727,7.74460274 2.26609361,10.6212501 0.836147268,14.6313396 C2.26609361,18.6414291 6.10672727,21.5180764 10.6320019,21.5180764 C15.1587209,21.5180764 18.9979102,18.6414291 20.4278565,14.6313396 C18.9979102,10.6212501 15.1587209,7.74460274 10.6320019,7.74460274" id="Fill-57" fill="#FFE600"></path>
                                <path d="M21.0319005,11.1871103 C21.0319005,16.8930587 16.3751864,21.5172156 10.6322908,21.5172156 C4.88795078,21.5172156 0.232681024,16.8930587 0.232681024,11.1871103 C0.232681024,5.48116189 4.88795078,0.858439789 10.6322908,0.858439789 C16.3751864,0.858439789 21.0319005,5.48116189 21.0319005,11.1871103 Z" id="Stroke-58" stroke="#45413C" stroke-linecap="round" stroke-linejoin="round"></path>
                            </g>
                            <g id="warehouse" transform="translate(88.000000, 26.500000)" fill-rule="nonzero">
                                <polygon id="Shape" fill="#FFB14E" points="13.6143378 4.2186982 13.6143378 11.925509 7 15.7789144 5.90424775 6.97635135"></polygon>
                                <polygon id="Shape" fill="#FF9356" points="7 6.97635135 7 15.7789144 0.385630631 11.925509 0.385630631 4.2186982"></polygon>
                                <polygon id="Shape" fill="#FFB14E" points="10.3073423 2.2919955 8.41677477 5.34021171 3.69262613 6.1454009 0.385630631 4.2186982 7 0.365292793"></polygon>
                                <polygon id="Shape" fill="#FFD86C" points="13.6143378 4.2186982 7 8.0721036 3.69262613 6.1454009 10.3073423 2.2919955"></polygon>
                                <g id="Group" fill="#45413C" stroke="#45413C">
                                    <path d="M13.9792207,4.21232883 C13.979,4.20056757 13.9782432,4.18883784 13.9768874,4.17723423 C13.9764775,4.17357658 13.9761622,4.16988739 13.9755946,4.16626126 C13.9735135,4.1521036 13.9708018,4.13804054 13.9671126,4.12422973 C13.9666396,4.1224009 13.9659459,4.1206982 13.9654414,4.1189009 C13.9620045,4.10685586 13.9579054,4.095 13.9532703,4.08336486 C13.9517883,4.07964414 13.9501802,4.07595495 13.9485721,4.07226577 C13.9439685,4.0617027 13.9388604,4.05142342 13.9332162,4.0413018 C13.9317973,4.03877928 13.930536,4.03616216 13.9290856,4.03367117 C13.9216757,4.02102703 13.9135405,4.00876126 13.9045541,3.997 C13.9038604,3.99608559 13.903009,3.9952027 13.9023153,3.99428829 C13.8942117,3.98388288 13.8854144,3.97391892 13.8760811,3.96433333 C13.873527,3.96171622 13.8708468,3.95916216 13.8682297,3.95657658 C13.86,3.94866216 13.8513919,3.94109459 13.8423423,3.93384234 C13.839536,3.93157207 13.8368559,3.92923874 13.8339865,3.92709459 C13.8226351,3.91854955 13.8108423,3.91041441 13.7982297,3.9030991 L7.18386036,0.0496621622 C7.07022072,-0.0165540541 6.92977928,-0.0165540541 6.81617117,0.0496621622 L0.201738739,3.90306757 C0.189126126,3.91041441 0.177333333,3.91851802 0.165981982,3.92706306 C0.163081081,3.92920721 0.160432432,3.9316036 0.157626126,3.93381081 C0.148576577,3.94103153 0.139936937,3.9485991 0.131738739,3.95654505 C0.129058559,3.9590991 0.126441441,3.96165315 0.123887387,3.9643018 C0.114585586,3.97385586 0.105756757,3.98385135 0.0976531532,3.99425676 C0.0969279279,3.99517117 0.0961081081,3.99605405 0.0954144144,3.99696847 C0.0864279279,4.00872973 0.0783243243,4.0209955 0.0708828829,4.03363964 C0.0694324324,4.03613063 0.0681396396,4.03874775 0.0667522523,4.04127027 C0.0611396396,4.05139189 0.056,4.0617027 0.0513963964,4.07223423 C0.0497882883,4.07592342 0.0481801802,4.07961261 0.0466981982,4.08333333 C0.0420630631,4.095 0.037963964,4.10682432 0.034527027,4.11886937 C0.0340225225,4.12066667 0.0333288288,4.1224009 0.0328558559,4.1241982 C0.0291666667,4.13800901 0.026454955,4.15207207 0.0243738739,4.16622973 C0.0238693694,4.16985586 0.0235225225,4.17354505 0.0230810811,4.1772027 C0.0217252252,4.18886937 0.0209684685,4.20053604 0.0207477477,4.2122973 C0.0207162162,4.21440991 0.0203063063,4.21649099 0.0203063063,4.21866667 L0.0203063063,11.9254775 C0.0203063063,12.055482 0.0893603604,12.1756486 0.201675676,12.2410766 L6.81610811,16.094482 C6.81718018,16.0951126 6.81825225,16.0954595 6.81932432,16.0960586 C6.83237838,16.1035 6.84581081,16.1103423 6.85977928,16.1161441 C6.85993694,16.1162072 6.86009459,16.1162387 6.86028378,16.1163333 C6.8734955,16.1218198 6.88718018,16.1262973 6.90111712,16.1302072 C6.90464865,16.1311847 6.90818018,16.1320676 6.91174324,16.1329505 C6.92265315,16.1356622 6.93378378,16.1378378 6.94504054,16.1395721 C6.94879279,16.1401712 6.95251351,16.1408649 6.9562973,16.1412748 C6.97064414,16.1429775 6.98514865,16.1441126 6.99993694,16.1441126 C7.01472523,16.1441126 7.02926126,16.1429775 7.04357658,16.1412748 C7.04732883,16.1408333 7.05104955,16.1401396 7.05483333,16.1395721 C7.06612162,16.1378694 7.07722072,16.1356622 7.08813063,16.1329505 C7.09166216,16.1320676 7.09522523,16.1312477 7.09875676,16.1302072 C7.11272523,16.1262973 7.12637838,16.1218198 7.13959009,16.1163333 C7.13974775,16.1162703 7.13990541,16.1162387 7.14009459,16.1161441 C7.15409459,16.1103423 7.16752703,16.1035 7.18054955,16.0960586 C7.18162162,16.0954595 7.18269369,16.0950811 7.18376577,16.094482 L13.7981982,12.2410766 C13.9105135,12.1756171 13.9795991,12.0554505 13.9795991,11.9254775 L13.9795991,4.21866667 C13.9796622,4.21652252 13.9792838,4.2145045 13.9792207,4.21232883 Z M7,7.64939189 L4.41838739,6.1454009 L10.3072162,2.71470721 L12.8888604,4.2186982 L7,7.64939189 Z M7,0.787972973 L9.58161261,2.29196396 L3.69278378,5.72265766 L1.11117117,4.2186982 L7,0.787972973 Z M13.2491712,11.7155721 L7.36526126,15.1434279 L7.36526126,13.6604685 C7.36526126,13.4587297 7.20173874,13.2952072 7,13.2952072 C6.79826126,13.2952072 6.63473874,13.4587297 6.63473874,13.6604685 L6.63473874,15.1434279 L0.750828829,11.7155721 L0.750828829,4.85418468 L3.51308559,6.46342793 C3.51327477,6.46352252 3.5134955,6.46364865 3.51368468,6.46380631 L6.63477027,8.28204054 L6.63477027,12.1994865 C6.63477027,12.4012252 6.79829279,12.5647477 7.00003153,12.5647477 C7.20177027,12.5647477 7.36529279,12.4012252 7.36529279,12.1994865 L7.36529279,8.28200901 L13.2492027,4.85418468 L13.2491712,11.7155721 Z" id="Shape" stroke-width="0.200000003"></path>
                                    <path d="M9.32346396,9.0539009 C9.39131982,9.17037838 9.51369369,9.23536486 9.63940991,9.23536486 C9.70184234,9.23536486 9.76509459,9.21937838 9.82292342,9.18563964 L11.1591667,8.40718919 C11.333473,8.30565766 11.3924369,8.08203604 11.2909054,7.90772973 C11.1893739,7.73342342 10.9657207,7.67449099 10.7914459,7.77599099 L9.4552027,8.55444144 C9.28092793,8.6560045 9.22193243,8.87959459 9.32346396,9.0539009 Z" id="Shape" stroke-width="0.200000018"></path>
                                </g>
                            </g>
                            <path d="M39.167561,48.9614448 L39.167561,81.6734448" id="Stroke-69" stroke="#45413C" stroke-linecap="round" stroke-linejoin="round"></path>
                            <path d="M63.4330282,48.9614448 L63.4330282,81.6734448" id="Stroke-70" stroke="#45413C" stroke-linecap="round" stroke-linejoin="round"></path>
                            <path d="M22.7016566,56.7081629 L76.4329737,56.7081629" id="Stroke-71" stroke="#45413C" stroke-linecap="round" stroke-linejoin="round"></path>
                            <path d="M22.7016566,73.9250051 L76.4329737,73.9250051" id="Stroke-72" stroke="#45413C" stroke-linecap="round" stroke-linejoin="round"></path>
                        </g>
                        <path d="M141.5,92 C140.672,92 140,92.672 140,93.5 C140,94.328 140.672,95 141.5,95 C142.328,95 143,94.328 143,93.5 C143,92.672 142.328,92 141.5,92 M134,34 L133,34 L133,33 C133,32.448 132.552,32 132,32 C131.448,32 131,32.448 131,33 L131,34 L130,34 C129.448,34 129,34.448 129,35 C129,35.552 129.448,36 130,36 L131,36 L131,37 C131,37.552 131.448,38 132,38 C132.552,38 133,37.552 133,37 L133,36 L134,36 C134.552,36 135,35.552 135,35 C135,34.448 134.552,34 134,34 M5,86 L4,86 L4,85 C4,84.448 3.552,84 3,84 C2.448,84 2,84.448 2,85 L2,86 L1,86 C0.448,86 0,86.448 0,87 C0,87.552 0.448,88 1,88 L2,88 L2,89 C2,89.552 2.448,90 3,90 C3.552,90 4,89.552 4,89 L4,88 L5,88 C5.552,88 6,87.552 6,87 C6,86.448 5.552,86 5,86" id="Decoration" fill="#BFC7D2"></path>
                        <rect id="Ruler" fill="#F5F8FA" opacity="0.6" style="mix-blend-mode: color;" x="0" y="0" width="144" height="144"></rect>
                    </g>
                </g>
            </g>
        </g>
    </g>
</svg>