<?xml version="1.0" encoding="UTF-8"?>
<svg width="48px" height="48px" viewBox="0 0 48 48" version="1.1" xmlns="http://www.w3.org/2000/svg" xmlns:xlink="http://www.w3.org/1999/xlink">
    <!-- Generator: Sketch 49.3 (51167) - http://www.bohemiancoding.com/sketch -->
    <title>warehouse</title>
    <desc>Created with Sketch.</desc>
    <defs></defs>
    <g id="Super-Administrator" stroke="none" stroke-width="1" fill="none" fill-rule="evenodd">
        <g id="Deliveries-(Map-View-&gt;-Pending-&gt;-Assigned-Volunteer)" transform="translate(-939.000000, -790.000000)" fill-rule="nonzero">
            <g id="Map" transform="translate(130.000000, 178.000000)">
                <g id="Markers" transform="translate(91.000000, 106.000000)">
                    <g id="warehouse" transform="translate(718.000000, 506.000000)">
                        <path d="M47.5862903,15.4018246 L24.4637419,0.231391813 C24.1837742,0.0477192982 23.8163226,0.047625731 23.5363548,0.231391813 L0.413709677,15.4018246 C0.187258065,15.5503158 0.0515806452,15.7977076 0.0515806452,16.0624094 L0.0515806452,47.2015906 C0.0515806452,47.6425731 0.421354839,48 0.877354839,48 L47.1225484,48 C47.5786452,48 47.9483226,47.6424795 47.9483226,47.2015906 L47.9483226,16.0624094 C47.9484194,15.7977076 47.8128387,15.5503158 47.5862903,15.4018246 Z" id="Shape" fill="#F07B52"></path>
                        <path d="M2.52909677,47.2015906 L2.52909677,16.0624094 C2.52909677,15.7977076 2.66477419,15.5503158 2.89122581,15.401731 L25.2387097,0.739836257 L24.4636452,0.231298246 C24.1836774,0.047625731 23.8162258,0.0475321637 23.5362581,0.231298246 L0.413709677,15.401731 C0.187258065,15.5503158 0.0515806452,15.7978012 0.0515806452,16.0624094 L0.0515806452,47.2015906 C0.0515806452,47.6425731 0.421354839,48 0.877354839,48 L3.35477419,48 C2.89877419,48 2.52909677,47.6426667 2.52909677,47.2015906 Z" id="Shape" fill="#E5563C"></path>
                        <path d="M38.8645161,19.2561404 L9.13548387,19.2561404 C8.6793871,19.2561404 8.30970968,19.6136608 8.30970968,20.0545497 L8.30970968,47.2014971 C8.30970968,47.6424795 8.67948387,47.9999064 9.13548387,47.9999064 L38.8645161,47.9999064 C39.3206129,47.9999064 39.6902903,47.642386 39.6902903,47.2014971 L39.6902903,20.0546433 C39.6903871,19.6136608 39.3206129,19.2561404 38.8645161,19.2561404 Z" id="Shape" fill="#74757B"></path>
                        <path d="M9.13548387,19.2561404 C8.6793871,19.2561404 8.30970968,19.6136608 8.30970968,20.0545497 L8.30970968,47.2014971 C8.30970968,47.6424795 8.67948387,47.9999064 9.13548387,47.9999064 L10.787129,47.9999064 L10.787129,19.2561404 L9.13548387,19.2561404 Z" id="Shape" fill="#606268"></path>
                        <path d="M40.5161613,16.0624094 L7.48393548,16.0624094 C7.02783871,16.0624094 6.65816129,16.4199298 6.65816129,16.8608187 L6.65816129,20.0545497 C6.65816129,20.4955322 7.02793548,20.8529591 7.48393548,20.8529591 L40.5161613,20.8529591 C40.9722581,20.8529591 41.3419355,20.4954386 41.3419355,20.0545497 L41.3419355,16.8608187 C41.3419355,16.4199298 40.9721613,16.0624094 40.5161613,16.0624094 Z" id="Shape" fill="#C3C4C6"></path>
                        <path d="M40.5161613,19.2561404 L7.48393548,19.2561404 C7.02783871,19.2561404 6.65816129,18.8986199 6.65816129,18.457731 L6.65816129,20.0546433 C6.65816129,20.4956257 7.02793548,20.8530526 7.48393548,20.8530526 L40.5161613,20.8530526 C40.9722581,20.8530526 41.3419355,20.4955322 41.3419355,20.0546433 L41.3419355,18.457731 C41.3419355,18.898807 40.9721613,19.2561404 40.5161613,19.2561404 Z" id="Shape" fill="#AFB0B4"></path>
                        <g id="Group" transform="translate(19.838710, 5.614035)" fill="#E5563C">
                            <path d="M7.46458065,1.66549708 L0.858096774,1.66549708 C0.402,1.66549708 0.0323225806,1.30797661 0.0323225806,0.867087719 C0.0323225806,0.426105263 0.402096774,0.0686783626 0.858096774,0.0686783626 L7.46458065,0.0686783626 C7.92067742,0.0686783626 8.29035484,0.42619883 8.29035484,0.867087719 C8.29035484,1.30807018 7.92058065,1.66549708 7.46458065,1.66549708 Z" id="Shape"></path>
                            <path d="M7.46458065,4.85932164 L0.858096774,4.85932164 C0.402,4.85932164 0.0323225806,4.50180117 0.0323225806,4.06091228 C0.0323225806,3.62002339 0.402096774,3.26250292 0.858096774,3.26250292 L7.46458065,3.26250292 C7.92067742,3.26250292 8.29035484,3.62002339 8.29035484,4.06091228 C8.29035484,4.50180117 7.92058065,4.85932164 7.46458065,4.85932164 Z" id="Shape"></path>
                            <path d="M7.46458065,8.05305263 L0.858096774,8.05305263 C0.402,8.05305263 0.0323225806,7.69553216 0.0323225806,7.25464327 C0.0323225806,6.81366082 0.402096774,6.45623392 0.858096774,6.45623392 L7.46458065,6.45623392 C7.92067742,6.45623392 8.29035484,6.81375439 8.29035484,7.25464327 C8.29035484,7.69553216 7.92058065,8.05305263 7.46458065,8.05305263 Z" id="Shape"></path>
                        </g>
                        <g id="Group" transform="translate(8.225806, 25.637427)" fill="#FDDD85">
                            <path d="M10.8193548,0.00626900585 L0.909677419,0.00626900585 C0.453580645,0.00626900585 0.0839032258,0.363789474 0.0839032258,0.804678363 L0.0839032258,10.3859649 C0.0839032258,10.8269474 0.453677419,11.1843743 0.909677419,11.1843743 L5.86451613,11.9827836 L10.8193548,11.1843743 C11.2754516,11.1843743 11.645129,10.8268538 11.645129,10.3859649 L11.645129,0.804678363 C11.6452258,0.363789474 11.2755484,0.00626900585 10.8193548,0.00626900585 Z" id="Shape"></path>
                            <path d="M10.8193548,11.1844678 L0.909677419,11.1844678 C0.453580645,11.1844678 0.0839032258,11.5419883 0.0839032258,11.9828772 L0.0839032258,21.5641637 C0.0839032258,22.0051462 0.453677419,22.3625731 0.909677419,22.3625731 L10.8193548,22.3625731 C11.2754516,22.3625731 11.645129,22.0050526 11.645129,21.5641637 L11.645129,11.9828772 C11.6452258,11.5419883 11.2755484,11.1844678 10.8193548,11.1844678 Z" id="Shape"></path>
                        </g>
                        <path d="M9.96135484,47.2015906 L9.96135484,37.6203041 C9.96135484,37.1793216 10.331129,36.8218947 10.787129,36.8218947 L9.13548387,36.8218947 C8.6793871,36.8218947 8.30970968,37.1794152 8.30970968,37.6203041 L8.30970968,47.2015906 C8.30970968,47.6425731 8.67948387,48 9.13548387,48 L10.787129,48 C10.3310323,48 9.96135484,47.6426667 9.96135484,47.2015906 Z" id="Shape" fill="#FDD042"></path>
                        <path d="M15.7419677,36.8218947 L12.4387742,36.8218947 L12.4387742,40.8140351 C12.4387742,41.2550175 12.8085484,41.6124444 13.2645484,41.6124444 L14.9161935,41.6124444 C15.3722903,41.6124444 15.7419677,41.254924 15.7419677,40.8140351 L15.7419677,36.8218947 Z" id="Shape" fill="#F2C127"></path>
                        <path d="M15.7419677,46.4031813 L12.4387742,46.4031813 C11.9826774,46.4031813 11.613,46.0456608 11.613,45.6047719 C11.613,45.163883 11.9827742,44.8063626 12.4387742,44.8063626 L15.7419677,44.8063626 C16.1980645,44.8063626 16.5677419,45.163883 16.5677419,45.6047719 C16.5677419,46.0456608 16.1980645,46.4031813 15.7419677,46.4031813 Z" id="Shape" fill="#74757B"></path>
                        <path d="M9.96135484,36.0233918 L9.96135484,26.4421053 C9.96135484,26.0011228 10.331129,25.6436959 10.787129,25.6436959 L9.13548387,25.6436959 C8.6793871,25.6436959 8.30970968,26.0012164 8.30970968,26.4421053 L8.30970968,36.0233918 C8.30970968,36.4643743 8.67948387,36.8218012 9.13548387,36.8218012 L10.787129,36.8218012 C10.3310323,36.8218948 9.96135484,36.4644679 9.96135484,36.0233918 Z" id="Shape" fill="#FDD042"></path>
                        <path d="M15.7419677,25.6436959 L12.4387742,25.6436959 L12.4387742,29.6359298 C12.4387742,30.0769123 12.8085484,30.4343392 13.2645484,30.4343392 L14.9161935,30.4343392 C15.3722903,30.4343392 15.7419677,30.0768187 15.7419677,29.6359298 L15.7419677,25.6436959 Z" id="Shape" fill="#F2C127"></path>
                        <path d="M15.7419677,35.2249825 L12.4387742,35.2249825 C11.9826774,35.2249825 11.613,34.867462 11.613,34.4265731 C11.613,33.9856842 11.9827742,33.6281637 12.4387742,33.6281637 L15.7419677,33.6281637 C16.1980645,33.6281637 16.5677419,33.9856842 16.5677419,34.4265731 C16.5677419,34.867462 16.1980645,35.2249825 15.7419677,35.2249825 Z" id="Shape" fill="#74757B"></path>
                        <path d="M30.6064839,36.8218947 L20.6968065,36.8218947 C20.2407097,36.8218947 19.8710323,37.1794152 19.8710323,37.6203041 L19.8710323,47.2015906 C19.8710323,47.6425731 20.2408065,48 20.6968065,48 L30.6064839,48 C31.0625806,48 31.4322581,47.6424795 31.4322581,47.2015906 L31.4322581,37.6203041 C31.4322581,37.1794152 31.0625806,36.8218947 30.6064839,36.8218947 Z" id="Shape" fill="#FDDD85"></path>
                        <path d="M21.5225806,47.2015906 L21.5225806,37.6203041 C21.5225806,37.1793216 21.8923548,36.8218947 22.3483548,36.8218947 L20.6967097,36.8218947 C20.2406129,36.8218947 19.8709355,37.1794152 19.8709355,37.6203041 L19.8709355,47.2015906 C19.8709355,47.6425731 20.2407097,48 20.6967097,48 L22.3483548,48 C21.8923548,48 21.5225806,47.6426667 21.5225806,47.2015906 Z" id="Shape" fill="#FDD042"></path>
                        <path d="M27.3032903,36.8218947 L24,36.8218947 L24,40.8140351 C24,41.2550175 24.3697742,41.6124444 24.8257742,41.6124444 L26.4774194,41.6124444 C26.9335161,41.6124444 27.3031935,41.254924 27.3031935,40.8140351 L27.3031935,36.8218947 L27.3032903,36.8218947 Z" id="Shape" fill="#F2C127"></path>
                        <path d="M27.3032903,46.4031813 L24,46.4031813 C23.5439032,46.4031813 23.1742258,46.0456608 23.1742258,45.6047719 C23.1742258,45.163883 23.544,44.8063626 24,44.8063626 L27.3031935,44.8063626 C27.7592903,44.8063626 28.1289677,45.163883 28.1289677,45.6047719 C28.1289677,46.0456608 27.7592903,46.4031813 27.3032903,46.4031813 Z" id="Shape" fill="#74757B"></path>
                    </g>
                </g>
            </g>
        </g>
    </g>
</svg>