<?xml version="1.0" encoding="UTF-8"?>
<svg width="16px" height="16px" viewBox="0 0 16 16" version="1.1" xmlns="http://www.w3.org/2000/svg" xmlns:xlink="http://www.w3.org/1999/xlink">
    <!-- Generator: Sketch 49.3 (51167) - http://www.bohemiancoding.com/sketch -->
    <title>Shape</title>
    <desc>Created with Sketch.</desc>
    <defs></defs>
    <g id="Symbols" stroke="none" stroke-width="1" fill="none" fill-rule="evenodd">
        <g id="Icon/Static/Warning" fill="#FF7474" fill-rule="nonzero">
            <path d="M8,0 C3.58198102,0 0,3.58198102 0,8 C0,12.4185224 3.58198102,16 8,16 C12.4185224,16 16,12.4190258 16,8 C16,3.58198102 12.4184664,0 8,0 Z M8,14.4999755 C4.41002049,14.4999755 1.50002447,11.5899795 1.50002447,8 C1.50002447,4.41002049 4.41002049,1.50002447 8,1.50002447 C11.5899795,1.50002447 14.4999755,4.41002049 14.4999755,8 C14.4999755,11.5899795 11.5899795,14.4999755 8,14.4999755 Z M8.0005034,3.50848441 C7.42752068,3.50848441 6.99398016,3.80750488 6.99398016,4.29049061 L6.99398016,8.72047935 C6.99398016,9.20396848 7.42746474,9.50198214 8.0005034,9.50198214 C8.55950275,9.50198214 9.00702665,9.19149531 9.00702665,8.72047935 L9.00702665,4.29049061 C9.00697071,3.81897124 8.55950275,3.50848441 8.0005034,3.50848441 Z M8.0005034,10.5000035 C7.45000594,10.5000035 7.00197865,10.9480308 7.00197865,11.4989757 C7.00197865,12.0489698 7.45000594,12.4969971 8.0005034,12.4969971 C8.55100086,12.4969971 8.99852475,12.0489698 8.99852475,11.4989757 C8.99846882,10.9479749 8.55100086,10.5000035 8.0005034,10.5000035 Z" id="Shape"></path>
        </g>
    </g>
</svg>