<?xml version="1.0" encoding="UTF-8"?>
<svg width="28px" height="32px" viewBox="0 0 28 32" version="1.1" xmlns="http://www.w3.org/2000/svg" xmlns:xlink="http://www.w3.org/1999/xlink">
    <!-- Generator: Sketch 49.3 (51167) - http://www.bohemiancoding.com/sketch -->
    <title>word</title>
    <desc>Created with Sketch.</desc>
    <defs></defs>
    <g id="Super-Administrator" stroke="none" stroke-width="1" fill="none" fill-rule="evenodd">
        <g id="Volunteers-Profile-View" transform="translate(-801.000000, -371.000000)" fill-rule="nonzero">
            <g id="Content" transform="translate(130.000000, 111.000000)">
                <g id="Column-2" transform="translate(671.000000, 30.000000)">
                    <g id="Files-List">
                        <g id="word" transform="translate(0.000000, 230.000000)">
                            <g id="Group" transform="translate(0.256881, 0.253968)">
                                <path d="M27.4263211,7.60209524 L27.4263211,29.2740317 C27.4263211,30.4659683 26.4398991,31.4412063 25.2342936,31.4412063 L2.21777982,31.4412063 C1.01217431,31.4412063 0.0257522936,30.4659683 0.0257522936,29.2740317 L0.0257522936,2.18412698 C0.0257522936,0.992190476 1.01217431,0.016952381 2.21777982,0.016952381 L19.7541284,0.016952381 L19.7541284,5.43492063 C19.7541284,6.62685714 20.7405505,7.60209524 21.946156,7.60209524 L27.4263211,7.60209524 Z" id="Shape" fill="#F2EDDA"></path>
                                <path d="M27.4263211,7.60209524 L21.9462202,7.60209524 C20.7406147,7.60209524 19.7541927,6.62685714 19.7541927,5.43492063 L19.7541927,0.016952381 L27.4263211,7.60209524 Z" id="Shape" fill="#FFD0A1"></path>
                                <polygon id="Shape" fill="#AAB1BA" points="16.466055 11.9365079 13.7259725 14.6455238 13.7259725 14.6455238 18.1100917 18.979873 20.8501743 16.2709206"></polygon>
                                <path d="M11.3147615,21.3638095 C11.533945,21.5805079 11.8079725,21.6888889 12.082,21.6888889 C12.6848349,21.6888889 13.1780459,21.2012698 13.1780459,20.6052698 C13.1780459,20.0092698 12.6848349,19.5216508 12.082,19.5216508 C11.4791651,19.5216508 10.9859541,20.0092698 10.9859541,20.6052698 C10.9859541,20.9303492 11.0955138,21.2012698 11.3147615,21.3638095 M6.60183486,26.0233016 C6.60183486,26.0233016 8.79386239,20.0634921 8.79386239,15.1873016 C11.533945,15.7290794 13.7259725,14.6455238 13.7259725,14.6455238 L18.1100917,18.979873 C18.1100917,18.979873 17.0140459,21.1470476 17.5621009,23.8560635 C12.6299908,23.8560635 6.60183486,26.0233016 6.60183486,26.0233016" id="Shape" fill="#80D6FA"></path>
                            </g>
                            <path d="M25.4911101,31.9661587 L2.47459633,31.9661587 C1.10458716,31.9661587 0.0085412844,30.8825397 0.0085412844,29.5280635 L0.0085412844,2.43809524 C0.0085412844,1.08361905 1.10458716,0 2.47459633,0 L20.0110092,0 C20.065789,0 20.1754128,0.0541587302 20.2301927,0.0541587302 L25.7102936,5.47212698 C25.8199174,5.58050794 25.8199174,5.74304762 25.7102936,5.85136508 C25.6006697,5.95974603 25.4362661,5.95974603 25.3267064,5.85136508 L19.9013853,0.487555556 L2.47459633,0.487555556 C1.4333945,0.487555556 0.55653211,1.3544127 0.55653211,2.38387302 L0.55653211,29.4738413 C0.55653211,30.5032381 1.43333028,31.3701587 2.47459633,31.3701587 L25.4911101,31.3701587 C26.5323119,31.3701587 27.4091743,30.5033016 27.4091743,29.4738413 L27.4091743,8.0728254 L22.2030367,8.0728254 C20.8330275,8.0728254 19.7369817,6.98920635 19.7369817,5.63473016 L19.7369817,2.92571429 C19.7369817,2.7631746 19.8466055,2.65479365 20.0110092,2.65479365 C20.1754128,2.65479365 20.2850367,2.7631746 20.2850367,2.92571429 L20.2850367,5.63473016 C20.2850367,6.66412698 21.1618349,7.53104762 22.2031009,7.53104762 L27.6832018,7.53104762 C27.8476055,7.53104762 27.9572294,7.63942857 27.9572294,7.80196825 L27.9572294,29.4739048 C27.9571651,30.8825397 26.8611835,31.9661587 25.4911101,31.9661587 Z M6.8587156,26.548127 C6.80393578,26.548127 6.69431193,26.4939683 6.63953211,26.4939683 C6.58475229,26.4398095 6.58475229,26.3855873 6.58475229,26.3314286 C6.58475229,26.3314286 6.58475229,26.3314286 6.58475229,26.2772698 L6.58475229,26.2231111 C6.63953211,26.0064127 8.77677982,20.2091429 8.77677982,15.4954921 C8.77677982,15.4413333 8.83155963,15.3329524 8.88640367,15.2787937 C8.94118349,15.2246349 9.05080734,15.2246349 9.10558716,15.2246349 C11.7360459,15.7664127 13.8185138,14.7370159 13.8732936,14.6828571 C13.9829174,14.6286984 14.0924771,14.6286984 14.2021009,14.7370159 L16.9421835,17.4460317 C17.0518073,17.5544127 17.0518073,17.7169524 16.9421835,17.8252698 C16.8325596,17.9336508 16.668156,17.9336508 16.5585963,17.8252698 L13.9281376,15.2246349 C13.3801468,15.4413333 11.5717064,16.0914921 9.32483486,15.7664127 C9.27005505,19.288127 8.11922936,23.351619 7.46161468,25.3020952 L11.1881193,21.6178413 C11.0237156,21.4011429 10.9689358,21.1302222 10.9689358,20.8593016 C10.9689358,20.1007619 11.5717706,19.5048254 12.338945,19.5048254 C13.1061835,19.5048254 13.7089541,20.1008254 13.7089541,20.8593016 C13.7089541,21.6177778 13.1061193,22.2137778 12.338945,22.2137778 C12.0649174,22.2137778 11.7909541,22.1053968 11.5717064,21.9970794 L7.84513761,25.6812698 C9.76320183,25.0852698 13.8732936,23.9474921 17.4901743,23.8933333 C17.0517431,21.2926984 18.0930092,19.2338413 18.0930092,19.1796825 L18.147789,19.1255238 L20.6686239,16.6332698 L16.668156,12.6781587 L15.5173303,13.8159365 C15.4077064,13.9243175 15.2433028,13.9243175 15.1337431,13.8159365 C15.0241193,13.7075556 15.0241193,13.5450159 15.1337431,13.4366984 L16.5037523,12.0822222 C16.6133761,11.9738413 16.7777798,11.9738413 16.8873394,12.0822222 L21.2714587,16.4166349 C21.3810826,16.5250159 21.3810826,16.6875556 21.2714587,16.795873 L18.5862202,19.4506667 C18.4765963,19.7215873 17.5997982,21.7262222 18.0930092,24.1101587 C18.0930092,24.1643175 18.0930092,24.2726984 18.0382294,24.3268571 C17.9834495,24.3810159 17.9286055,24.4352381 17.8190459,24.4352381 C13.0513394,24.4352381 7.18758716,26.4940952 6.96840367,26.6024127 C6.91349541,26.548127 6.91349541,26.548127 6.8587156,26.548127 C6.91349541,26.548127 6.91349541,26.548127 6.8587156,26.548127 Z M11.7908257,21.4552381 C11.9552294,21.563619 12.119633,21.6719365 12.3388165,21.6719365 C12.7772477,21.6719365 13.1608349,21.2926984 13.1608349,20.8592381 C13.1608349,20.4257778 12.7772477,20.0465397 12.3388165,20.0465397 C11.9003853,20.0465397 11.5167982,20.4257778 11.5167982,20.8592381 C11.5167982,21.0759365 11.571578,21.2384762 11.7359817,21.4010159 C11.7360459,21.4010794 11.7360459,21.4010794 11.7908257,21.4552381 Z" id="Shape" fill="#51565F"></path>
                        </g>
                    </g>
                </g>
            </g>
        </g>
    </g>
</svg>