<svg height="512pt" viewBox="0 0 512.00422 512" width="512pt" xmlns="http://www.w3.org/2000/svg"><path d="m154.0625 52.925781h203.28125v283.753907h-203.28125zm0 0" fill="#f09372"/><path d="m423.726562 264.789062c18.929688-.269531 34.277344-15.414062 34.796876-34.335937.519531-18.921875-13.96875-34.886719-32.851563-36.199219 5.917969-6.492187 8.21875-15.511718 6.128906-24.046875-2.089843-8.539062-8.292969-15.476562-16.546875-18.5 5.417969-4.964843 8.496094-11.984375 8.472656-19.332031 0-14.628906-11.855468-26.484375-26.480468-26.484375-1.152344 0-2.304688.089844-3.441406.265625 11.175781-9.632812 15.183593-25.203125 10.050781-39.039062-5.136719-13.832032-18.335938-23.015626-33.09375-23.019532-.382813-.015625-.769531.015625-1.144531.089844.742187-2.914062 1.128906-5.910156 1.144531-8.917969-.019531-15.441406-10.070313-29.078125-24.8125-33.667969-14.742188-4.589843-30.757813.929688-39.539063 13.628907-5.300781-11.160157-17.613281-17.171875-29.671875-14.492188-12.0625 2.683594-20.664062 13.347657-20.734375 25.703125-.070312-12.355468-8.671875-23.019531-20.730468-25.703125-12.0625-2.679687-24.375 3.332031-29.675782 14.492188-8.78125-12.699219-24.796875-18.21875-39.539062-13.628907-14.742188 4.589844-24.792969 18.226563-24.8125 33.667969.015625 3.007813.402344 6.003907 1.148437 8.917969-.378906-.074219-.765625-.105469-1.148437-.089844-14.757813.003906-27.953125 9.1875-33.089844 23.019532-5.136719 13.835937-1.128906 29.40625 10.050781 39.039062-1.140625-.175781-2.292969-.265625-3.445312-.265625-14.625 0-26.480469 11.855469-26.480469 26.484375-.023438 7.347656 3.054688 14.367188 8.472656 19.332031-8.25 3.023438-14.457031 9.960938-16.546875 18.5-2.089843 8.535157.210938 17.554688 6.132813 24.046875-18.882813 1.3125-33.375 17.277344-32.855469 36.199219.523437 18.921875 15.871094 34.066406 34.796875 34.335937-7.246094-.003906-14.308594 2.246094-20.214844 6.441407l24.628906 74.507812 340.566407-11.652343c16.964843-4.78125 27.804687-21.339844 25.402343-38.800782-2.402343-17.460937-17.3125-30.476562-34.9375-30.496094zm-79.445312-51.378906-88.277344 65.324219-88.277344-65.324219v-107.519531c-.03125-2.15625.117188-4.3125.441407-6.445313 4.753906 4.191407 10.878906 6.484376 17.214843 6.445313 14.625 0 26.484376-11.855469 26.484376-26.480469.019531-2.734375-.429688-5.453125-1.324219-8.035156 7.511719 7.722656 18.953125 10.121094 28.9375 6.070312 9.980469-4.050781 16.515625-13.746093 16.523437-24.519531 0 19.5 15.808594 35.308594 35.3125 35.308594 6.3125.019531 12.507813-1.691406 17.917969-4.941406 1.9375 17.890625 17.050781 31.441406 35.046875 31.425781zm0 0" fill="#bdc3c7"/><path d="m331.65625 309.457031 38.578125 9.355469 52.257813 12.625 10.769531 2.648438h.089843l31.335938 7.589843c27.753906 6.664063 47.316406 31.484375 47.316406 60.027344v101.429687c0 4.875-3.953125 8.828126-8.828125 8.828126h-494.34375c-4.875 0-8.82812475-3.953126-8.82812475-8.828126v-101.429687c-.03125005-2.273437.11718775-4.546875.44140575-6.796875-.015624-.238281.015626-.476562.089844-.707031 3.074219-25.570313 21.738282-46.523438 46.785156-52.523438l21.890626-5.296875 46.433593-11.210937 64.707031-15.710938zm0 0" fill="#f09372"/><path d="m167.992188 492.007812c143.800781-62.675781 196.679687-162.160156 202.242187-173.195312l.527344-1.058594s17.65625-35.3125 26.484375 0c0 0 35.308594-26.484375 26.480468 8.828125-.441406 1.585938-.792968 3.265625-1.234374 4.855469-10.175782 35.773438-15.695313 72.714844-16.417969 109.902344v70.621094h-238.347657zm0 0" fill="#d1d4d1"/><path d="m291.316406 485.476562c-4.007812.015626-7.523437-2.671874-8.558594-6.542968-1.039062-3.871094.664063-7.957032 4.144532-9.945313 38.015625-24.15625 67.527344-59.601562 84.390625-101.367187 1.707031-4.570313 6.792969-6.890625 11.359375-5.183594 4.570312 1.707031 6.890625 6.792969 5.183594 11.363281-18.09375 45.738281-50.375 84.472657-92.109376 110.511719-1.339843.773438-2.863281 1.175781-4.410156 1.164062zm0 0" fill="#7f8c8d"/><path d="m184.324219 511.960938 1.058593-.441407-17.390624-19.511719-60.644532-68.324218 78.035156-19.507813-69.738281-79.007812-47.578125-53.9375-29.042968-32.925781 15.710937 50.933593 11.917969 38.753907 2.558594 8.386718 8.828124 28.777344-77.503906 29.042969-.53124975.175781.44140575.53125 77.59375 87.304688-58.527343 29.308593.441406.441407" fill="#f0c419"/><path d="m339.335938 264.433594c3.214843 5.460937 4.921874 11.675781 4.945312 18.007812 0 19.503906-15.808594 35.3125-35.3125 35.3125-.53125.015625-1.0625-.015625-1.589844-.089844 1.078125 2.847657 1.617188 5.871094 1.589844 8.917969 0 14.625-11.855469 26.480469-26.480469 26.480469-14.628906 0-26.484375-11.855469-26.484375-26.480469 0 14.625-11.855468 26.480469-26.484375 26.480469-14.625 0-26.480469-11.855469-26.480469-26.480469-.027343-3.046875.511719-6.070312 1.589844-8.917969-.527344.074219-1.058594.105469-1.589844.089844-19.5 0-35.3125-15.808594-35.3125-35.3125.027344-6.332031 1.730469-12.546875 4.945313-18.007812-13.082031-1.890625-22.769531-13.136719-22.695313-26.355469.070313-13.222656 9.882813-24.363281 22.988282-26.105469 13.101562-1.746094 25.484375 6.441406 29.015625 19.183594 8.476562-9.660156 22.050781-13.050781 34.070312-8.511719 12.023438 4.535157 19.972657 16.050781 19.953125 28.902344-.019531-12.851563 7.929688-24.367187 19.953125-28.902344 12.019531-4.539062 25.597657-1.148437 34.070313 8.511719 3.53125-12.742188 15.914062-20.929688 29.019531-19.183594 13.101563 1.742188 22.914063 12.882813 22.988281 26.105469.070313 13.21875-9.613281 24.464844-22.699218 26.355469zm0 0" fill="#ecf0f1"/><path d="m220.695312 158.855469c-4.875 0-8.828124-3.949219-8.828124-8.828125v-17.652344c0-4.875 3.953124-8.828125 8.828124-8.828125s8.824219 3.953125 8.824219 8.828125v17.652344c0 4.878906-3.949219 8.828125-8.824219 8.828125zm0 0" fill="#2c2f38"/><path d="m291.316406 158.855469c-4.878906 0-8.828125-3.949219-8.828125-8.828125v-17.652344c0-4.875 3.949219-8.828125 8.828125-8.828125 4.875 0 8.824219 3.953125 8.824219 8.828125v17.652344c0 4.878906-3.949219 8.828125-8.824219 8.828125zm0 0" fill="#2c2f38"/><path d="m317.355469 232.300781c-3.6875 0-6.988281-2.296875-8.269531-5.753906-2.445313-6.558594-13.480469-27.964844-53.082032-27.964844-39.601562 0-50.632812 21.40625-53.078125 27.964844-1.707031 4.570313-6.796875 6.890625-11.367187 5.1875-4.570313-1.707031-6.894532-6.796875-5.1875-11.367187 3.425781-9.234376 18.652344-39.441407 69.632812-39.441407 50.980469 0 66.207032 30.207031 69.632813 39.46875 1.007812 2.710938.625 5.746094-1.023438 8.121094-1.652343 2.375-4.363281 3.789063-7.257812 3.785156zm0 0" fill="#ecf0f1"/></svg>